<svg width="417" height="310" viewBox="0 0 417 310" fill="none" xmlns="http://www.w3.org/2000/svg">
<path d="M336.755 137.22C336.355 150.736 315.165 169.223 288.597 184.372C290.699 190.082 292.447 195.916 293.831 201.841C315.029 187.782 331.181 174.29 333.808 168.848C338.416 159.305 337.657 143.138 336.663 133.535C336.751 134.84 336.787 136.078 336.755 137.22Z" fill="#6821F4"/>
<path d="M283.786 194.974C283.558 194.175 283.318 193.413 283.075 192.634C282.971 192.307 282.863 191.971 282.759 191.64L282.58 191.101C282.26 190.138 281.917 189.192 281.577 188.234C250.217 204.856 213.563 216.148 194.788 209.64C179.663 204.405 160.222 185.391 143.604 163.274L143.56 163.342C143.464 163.498 143.364 163.654 143.268 163.813C143.077 164.133 142.869 164.444 142.697 164.768C142.326 165.407 141.963 166.045 141.615 166.7C140.159 169.386 138.934 172.191 137.954 175.085C137.822 175.485 137.698 175.86 137.554 176.243L137.399 176.758C137.183 177.457 137.399 176.667 137.431 176.635C137.251 176.778 137.207 177.461 137.151 177.681C137.051 178.08 136.955 178.479 136.864 178.879C136.536 180.324 136.273 181.785 136.085 183.271C135.892 184.792 135.779 186.322 135.746 187.855C135.746 188.314 135.746 188.765 135.746 189.216V189.304C135.746 189.408 135.746 189.512 135.766 189.607C135.798 190.342 135.849 191.069 135.921 191.8C135.999 192.444 135.895 193.097 135.621 193.686C135.348 194.274 134.915 194.774 134.372 195.13C150.559 218.731 169.725 239.147 187.477 243.068C210.796 248.223 253.324 227.676 286.609 206.557C286.449 205.759 286.281 204.928 286.105 204.118C285.439 201.067 284.656 198.024 283.77 195.01" fill="#6821F4"/>
<path d="M110.359 80.769C105.217 85.0818 101.219 90.5959 98.7181 96.8232C96.217 103.05 95.2905 109.799 96.0205 116.469C97.4819 127.693 110.247 157.197 127.728 184.955C128.581 174.591 132.335 164.676 138.561 156.346C117.55 126.531 102.709 93.2348 110.359 80.769Z" fill="#6821F4"/>
<path d="M335.63 125.697C335.682 125.976 335.73 126.252 335.782 126.527C335.698 125.992 335.646 125.701 335.646 125.701" fill="#BE2E2E"/>
<path d="M298.924 131.177C286.916 129.912 275.202 126.658 264.262 121.55C259.083 119.397 254.071 116.861 249.269 113.964C254.435 121.71 259.57 129.472 264.493 137.334C271.498 148.28 277.775 159.675 283.284 171.445C285.224 175.704 286.997 180.018 288.602 184.386C315.171 169.213 336.373 150.746 336.761 137.23C336.792 136.088 336.761 134.835 336.669 133.545C336.497 131.195 336.197 128.855 335.77 126.537C335.722 126.262 335.674 125.986 335.619 125.707C335.459 124.856 335.287 123.994 335.095 123.108C334.433 123.563 333.758 123.998 333.063 124.413C322.643 130.108 310.73 132.477 298.924 131.201" fill="#8146F6"/>
<path d="M150.507 115.189C150.388 115.053 149.996 114.754 150.344 115.049L150.507 115.189Z" fill="#EA5B4B"/>
<path d="M153.023 116.915L152.884 116.827L152.8 116.787C152.879 116.822 152.954 116.864 153.023 116.915Z" fill="#EA5B4B"/>
<path d="M225.453 171.488C225.497 171.432 225.537 171.373 225.573 171.312L225.597 171.268L225.533 171.372L225.453 171.488Z" fill="#EA5B4B"/>
<path d="M235.108 109.035C234.006 109.834 232.92 110.633 231.87 111.475C231.108 112.082 230.365 112.701 229.63 113.332C229.455 113.483 229.279 113.635 229.107 113.791C229.175 113.731 229.163 113.747 228.852 114.014C228.54 114.282 228.217 114.593 227.905 114.885C225.417 117.203 223.087 119.684 220.93 122.312C219.844 123.643 218.804 124.998 217.811 126.376C217.316 127.071 216.834 127.771 216.366 128.477C216.13 128.828 215.903 129.179 215.675 129.535L215.34 130.074C211.896 135.662 209.222 141.69 207.39 147.994C206.708 150.452 206.16 152.946 205.749 155.465C205.255 158.309 205.003 161.19 204.994 164.077C205.047 166.021 205.351 167.949 205.897 169.815C206.284 170.932 206.793 172.003 207.414 173.009C207.834 173.611 208.296 174.184 208.795 174.722C208.927 174.862 209.063 174.998 209.195 175.121L209.462 175.373L209.702 175.577C209.851 175.702 210.003 175.821 210.157 175.936C210.5 176.199 210.86 176.447 211.231 176.679L211.662 176.938L211.746 176.978C212.405 177.301 213.091 177.568 213.794 177.777C214.361 177.904 214.936 177.992 215.515 178.04C216.924 178.1 218.325 177.802 219.588 177.174C220.374 176.76 221.12 176.273 221.816 175.72C221.996 175.577 222.16 175.421 222.339 175.281C221.569 175.884 222.287 175.321 222.459 175.157C222.81 174.819 223.146 174.468 223.465 174.103C224.055 173.439 224.606 172.74 225.114 172.011C225.234 171.839 225.354 171.664 225.47 171.488C225.522 171.388 225.584 171.293 225.653 171.204C225.853 170.881 226.053 170.558 226.236 170.226C227.135 168.599 227.935 166.919 228.632 165.195C230.171 161.504 231.496 157.727 232.601 153.883C233.196 151.755 233.731 149.611 234.198 147.451C235.87 139.561 236.636 131.505 236.482 123.442C236.353 118.612 235.9 113.796 235.124 109.027" fill="#8146F6"/>
<path d="M152.784 116.786H152.752L152.708 116.758C152.592 116.698 152.536 116.674 152.776 116.798" fill="#EA5B4B"/>
<path d="M225.737 171.089L225.649 171.217L225.609 171.281L225.737 171.089Z" fill="#EA5B4B"/>
<path d="M215.703 129.479L215.815 129.308C215.791 129.308 215.743 129.411 215.703 129.479Z" fill="#EA5B4B"/>
<path d="M229.108 113.785L228.972 113.901L228.912 113.96L229.084 113.805L229.108 113.785Z" fill="#EA5B4B"/>
<path d="M242.515 129.685C242.319 135.996 241.559 142.277 240.243 148.452C238.893 154.804 236.972 161.021 234.502 167.027C232.653 172.681 229.081 177.615 224.288 181.137C221.41 182.949 218.013 183.755 214.629 183.429C211.386 183.069 208.326 181.743 205.845 179.624C203.28 177.51 201.336 174.741 200.219 171.611C199.073 168.046 198.643 164.29 198.953 160.558C199.355 154.79 200.482 149.095 202.307 143.608C203.994 138.398 206.263 133.393 209.071 128.691C211.999 123.752 215.454 119.145 219.377 114.952L219.748 114.552L219.516 114.656C212.365 117.81 205.142 120.841 197.991 123.999C194.433 125.569 190.891 127.194 187.394 128.851C186.523 129.271 185.654 129.695 184.786 130.12L183.64 130.691L182.798 131.119C181.137 131.968 179.489 132.84 177.855 133.734C171.278 137.265 165.029 141.374 159.18 146.012C158.546 146.526 157.921 147.048 157.303 147.577C156.976 147.857 156.656 148.14 156.333 148.42C156.209 148.528 156.093 148.639 155.974 148.743C154.808 149.808 153.675 150.906 152.576 152.037C150.357 154.309 148.284 156.719 146.371 159.253C145.412 160.526 144.506 161.836 143.636 163.162L143.596 163.225C160.214 185.346 179.655 204.352 194.776 209.599C213.543 216.103 250.206 204.807 281.57 188.189C281.382 187.658 281.206 187.119 281.011 186.592C278.818 180.669 276.328 174.861 273.548 169.191C267.731 157.521 261.241 146.2 254.111 135.283C250.214 129.19 246.221 123.141 242.2 117.108C242.535 121.278 242.638 125.464 242.507 129.645" fill="#8146F6"/>
<path d="M228.756 114.1L228.852 114.02L228.908 113.964C228.86 114.012 228.808 114.056 228.756 114.1Z" fill="#EA5B4B"/>
<path d="M135.93 191.769C135.862 191.039 135.806 190.304 135.774 189.573C135.774 189.482 135.774 189.378 135.754 189.274V189.186C135.754 188.731 135.754 188.276 135.754 187.825C135.784 186.29 135.896 184.759 136.09 183.237C136.276 181.765 136.542 180.301 136.888 178.845C136.976 178.445 137.072 178.046 137.172 177.647C137.227 177.431 137.275 176.744 137.451 176.601C137.415 176.633 137.208 177.423 137.419 176.728C137.475 176.557 137.523 176.381 137.579 176.209C137.699 175.81 137.822 175.435 137.954 175.051C138.937 172.158 140.162 169.353 141.616 166.666C141.964 166.019 142.326 165.377 142.702 164.738C142.889 164.418 143.077 164.099 143.273 163.783L143.564 163.308L143.604 163.24L143.644 163.177C144.514 161.851 145.421 160.545 146.379 159.267C148.293 156.734 150.365 154.324 152.584 152.052C153.683 150.926 154.816 149.83 155.982 148.762C156.098 148.654 156.218 148.543 156.341 148.435L157.308 147.592C157.927 147.065 158.553 146.542 159.188 146.031C165.036 141.39 171.286 137.28 177.863 133.749C179.495 132.855 181.142 131.983 182.806 131.134L183.649 130.706L184.795 130.135C185.662 129.71 186.532 129.288 187.402 128.87C190.9 127.193 194.437 125.584 197.999 124.014C205.15 120.856 212.373 117.825 219.525 114.671L219.752 114.567C223.002 111.16 226.539 108.039 230.325 105.24C230.11 105.099 229.912 104.931 229.739 104.741C229.112 104.018 228.457 103.315 227.786 102.625C225.211 103.798 222.643 104.976 220.056 106.126C205.378 112.671 190.305 118.612 176.134 125.995C163.114 132.307 151.473 141.137 141.883 151.973C140.713 153.378 139.599 154.839 138.537 156.333C132.31 164.662 128.556 174.577 127.704 184.942C127.661 185.664 127.633 186.387 127.629 187.114C127.611 188.902 127.683 190.691 127.844 192.472C128.087 193.492 128.694 194.389 129.552 194.992C130.409 195.596 131.458 195.866 132.5 195.75C133.162 195.669 133.797 195.439 134.357 195.076C134.901 194.723 135.335 194.225 135.609 193.637C135.883 193.05 135.986 192.397 135.906 191.753" fill="#F6C137"/>
<path d="M283.279 171.437C277.77 159.668 271.494 148.273 264.492 137.326C259.569 129.464 254.434 121.702 249.268 113.956L249.048 113.824C246.017 111.939 243.271 109.631 240.895 106.968C241.082 108.006 241.258 109.048 241.41 110.091C241.758 112.438 242.024 114.792 242.208 117.15C246.229 123.183 250.222 129.233 254.119 135.326C261.249 146.243 267.74 157.565 273.56 169.233C276.339 174.904 278.828 180.712 281.019 186.634C281.215 187.165 281.39 187.704 281.582 188.231C281.917 189.186 282.265 190.136 282.58 191.094L282.76 191.637C282.868 191.973 282.971 192.304 283.075 192.635C283.319 193.434 283.558 194.193 283.786 194.975C284.672 197.991 285.451 201.026 286.122 204.079C286.298 204.878 286.465 205.691 286.625 206.519C286.769 207.237 286.902 207.959 287.024 208.683C287.273 209.699 287.882 210.592 288.738 211.194C289.594 211.797 290.639 212.069 291.68 211.961C292.171 211.938 292.653 211.815 293.095 211.599C293.537 211.382 293.93 211.078 294.249 210.703C294.568 210.329 294.807 209.893 294.951 209.422C295.095 208.952 295.141 208.457 295.086 207.968C294.719 205.918 294.298 203.878 293.824 201.847C292.443 195.922 290.696 190.088 288.593 184.378C286.996 180.014 285.212 175.694 283.271 171.437" fill="#F6C137"/>
<path d="M225.453 171.489L225.533 171.373L225.597 171.27L225.637 171.206C225.569 171.296 225.507 171.39 225.453 171.489Z" fill="#F8BA89"/>
<path d="M229.107 113.787L229.083 113.807L228.911 113.963L228.852 114.015C229.163 113.747 229.175 113.731 229.107 113.787Z" fill="#F8BA89"/>
<path d="M234.049 105.361C233.489 105.713 232.836 105.891 232.174 105.872C231.513 105.852 230.871 105.637 230.332 105.253C226.546 108.052 223.008 111.173 219.759 114.58C219.639 114.708 219.511 114.832 219.392 114.98C215.468 119.17 212.012 123.776 209.086 128.715C206.276 133.418 204.005 138.424 202.318 143.636C200.497 149.124 199.37 154.818 198.964 160.586C198.653 164.318 199.085 168.074 200.234 171.639C201.35 174.768 203.294 177.536 205.86 179.648C208.34 181.77 211.4 183.097 214.644 183.457C218.029 183.781 221.425 182.973 224.303 181.162C229.097 177.641 232.669 172.708 234.517 167.055C236.984 161.048 238.904 154.831 240.254 148.48C241.573 142.305 242.335 136.024 242.53 129.713C242.659 125.532 242.557 121.346 242.223 117.176C242.031 114.814 241.765 112.461 241.424 110.116C241.273 109.07 241.097 108.032 240.913 106.99C240.292 106.277 239.71 105.532 239.168 104.758L239.076 104.858C238.525 105.417 237.793 105.763 237.011 105.836C236.229 105.909 235.446 105.704 234.8 105.257C234.693 105.183 234.593 105.1 234.501 105.009C234.371 105.157 234.226 105.29 234.069 105.409M215.834 129.366L215.722 129.538C215.75 129.475 215.788 129.417 215.834 129.366ZM234.201 147.517C233.742 149.678 233.207 151.822 232.604 153.95C231.5 157.794 230.175 161.571 228.635 165.262C227.94 166.986 227.14 168.666 226.239 170.293C226.052 170.624 225.84 170.948 225.656 171.275C225.684 171.235 225.712 171.195 225.744 171.143L225.621 171.339L225.593 171.383C225.553 171.451 225.489 171.539 225.477 171.555C225.357 171.73 225.241 171.906 225.117 172.082C224.609 172.811 224.058 173.509 223.468 174.174C223.149 174.533 222.814 174.885 222.462 175.224C222.294 175.392 221.572 175.955 222.346 175.348C222.167 175.492 221.999 175.643 221.819 175.787C221.124 176.34 220.38 176.828 219.595 177.244C218.983 177.518 218.35 177.742 217.703 177.915C216.983 178.043 216.253 178.108 215.522 178.107C214.942 178.063 214.365 177.975 213.798 177.843C213.093 177.636 212.408 177.369 211.749 177.045L211.665 177.001C211.522 176.917 211.374 176.833 211.234 176.741C210.863 176.51 210.507 176.262 210.16 176.003L209.705 175.643L209.465 175.44C209.369 175.344 209.242 175.228 209.198 175.184C209.062 175.048 208.926 174.913 208.799 174.785C208.297 174.247 207.834 173.675 207.413 173.072C206.796 172.072 206.287 171.009 205.896 169.902C205.351 168.034 205.048 166.104 204.993 164.16C205.002 161.273 205.255 158.392 205.748 155.547C206.159 153.029 206.707 150.535 207.389 148.077C209.221 141.774 211.895 135.748 215.339 130.161L215.674 129.618C215.902 129.266 216.129 128.911 216.365 128.563C216.836 127.853 217.315 127.154 217.81 126.459C218.803 125.075 219.843 123.72 220.929 122.394C223.089 119.769 225.42 117.288 227.904 114.968C228.216 114.676 228.535 114.389 228.851 114.101L228.759 114.181L228.911 114.049L228.971 113.989L229.106 113.874L229.629 113.418C230.364 112.788 231.111 112.165 231.869 111.558C232.919 110.719 234.006 109.913 235.108 109.118C235.883 113.887 236.336 118.703 236.465 123.532C236.619 131.596 235.853 139.651 234.181 147.541" fill="#F6C137"/>
<path d="M152.784 116.784L152.872 116.824L152.708 116.74L152.752 116.768H152.784" fill="#F8BA89"/>
<path d="M229.745 104.754C229.919 104.944 230.117 105.112 230.332 105.253C230.872 105.637 231.513 105.852 232.175 105.872C232.837 105.891 233.489 105.713 234.05 105.361C234.206 105.241 234.35 105.108 234.481 104.961C233.962 104.529 233.633 103.911 233.565 103.239C233.497 102.567 233.696 101.895 234.118 101.368L234.229 101.252C232.027 98.7638 229.614 96.47 227.018 94.3962C214.057 84.0667 197.605 79.1467 181.1 80.6647C170.937 81.5834 161.192 85.1444 152.831 90.9943C148.768 93.6981 145.388 97.3078 142.956 101.539C141.797 103.605 141.195 105.937 141.211 108.306C141.227 110.674 141.86 112.998 143.048 115.047C144.448 117.244 146.288 119.127 148.453 120.576C150.618 122.025 153.061 123.008 155.626 123.464C160.932 124.375 166.383 123.159 170.799 120.078C171.839 119.339 172.803 118.497 173.677 117.567C173.908 117.278 174.075 116.943 174.167 116.585C174.259 116.227 174.274 115.854 174.211 115.49C174.149 115.125 174.01 114.778 173.804 114.472C173.597 114.165 173.328 113.905 173.015 113.71C172.372 113.259 171.591 113.049 170.809 113.119C170.027 113.188 169.295 113.532 168.742 114.089C168.59 114.249 168.439 114.408 168.279 114.56L168.015 114.816C167.728 115.087 168.215 114.668 168.223 114.628C168.191 114.764 167.772 115.027 167.656 115.103C167.54 115.179 167.305 115.379 167.121 115.503C166.465 115.973 165.776 116.397 165.061 116.772C163.956 117.287 162.801 117.688 161.615 117.97C160.526 118.172 159.42 118.273 158.313 118.27C156.602 118.22 154.921 117.812 153.378 117.072C153.206 116.992 153.038 116.912 152.875 116.828C152.922 116.853 152.967 116.881 153.01 116.912C152.94 116.863 152.865 116.82 152.787 116.784C152.547 116.664 152.603 116.684 152.719 116.744C152.32 116.521 151.956 116.285 151.593 116.03C151.229 115.774 150.89 115.518 150.559 115.231L150.507 115.187C150.374 115.043 150.229 114.909 150.076 114.788C149.55 114.25 149.069 113.671 148.638 113.055C148.257 112.43 147.937 111.771 147.68 111.086C147.477 110.366 147.353 109.626 147.308 108.878C147.323 107.985 147.441 107.097 147.66 106.231C147.842 105.645 148.062 105.071 148.319 104.514C148.466 104.195 148.622 103.879 148.79 103.572C148.87 103.424 148.953 103.28 149.037 103.137C149.119 102.937 149.231 102.751 149.369 102.586C149.369 102.586 148.969 103.185 149.225 102.821L149.345 102.641L149.632 102.242C149.856 101.927 150.091 101.615 150.335 101.312C150.802 100.717 151.305 100.146 151.828 99.5909C152.351 99.0359 152.878 98.5368 153.425 98.0297L153.869 97.6304C154.188 97.3629 154.508 97.0994 154.831 96.8319C156.069 95.8456 157.366 94.9152 158.712 94.0368C160.18 93.0951 161.694 92.2275 163.248 91.4374C167.234 89.488 171.435 88.0138 175.766 87.0452C184.522 85.1511 193.606 85.4045 202.242 87.7839C206.475 88.97 210.571 90.6002 214.461 92.6473L214.748 92.799L215.347 93.1305C215.866 93.4259 216.377 93.7253 216.888 94.0328C217.839 94.6078 218.77 95.2067 219.683 95.8296C221.522 97.0811 223.286 98.4396 224.966 99.8983C225.146 100.054 225.968 100.805 225.197 100.094L225.868 100.709C226.312 101.108 226.751 101.543 227.178 101.971C227.386 102.182 227.577 102.398 227.793 102.61C228.464 103.3 229.119 104.003 229.745 104.726M150.507 115.187L150.343 115.047C149.996 114.752 150.387 115.047 150.507 115.187Z" fill="#F6C137"/>
<path d="M337.373 112.588L337.405 112.533L337.361 112.604" fill="#F8BA89"/>
<path d="M312.621 90.2553C311.858 90.335 311.15 90.6864 310.625 91.2455C310.394 91.5188 310.225 91.8386 310.13 92.1831C310.034 92.5277 310.013 92.8888 310.07 93.2419C310.256 94.0053 310.712 94.6753 311.355 95.1276C311.997 95.5799 312.782 95.7838 313.564 95.7015C317.59 94.8728 321.69 94.4514 325.802 94.4438H325.941C327.655 94.5202 329.358 94.7636 331.024 95.1705C331.704 95.3648 332.371 95.6008 333.021 95.8772C333.364 96.025 333.696 96.1927 334.031 96.3564L334.079 96.3843C334.271 96.4961 334.478 96.6159 334.65 96.7357C334.993 96.9593 335.325 97.1949 335.644 97.4424C335.808 97.5702 335.968 97.698 336.123 97.8418H336.143C336.744 98.4325 337.292 99.0751 337.78 99.7623C338.262 100.542 338.663 101.369 338.978 102.23C339.678 104.41 339.712 106.75 339.074 108.95C338.745 109.985 338.313 110.984 337.784 111.933C337.673 112.128 337.557 112.332 337.441 112.512C337.468 112.464 337.498 112.418 337.533 112.376C337.533 112.408 337.433 112.532 337.413 112.555L337.353 112.663C337.277 112.787 337.353 112.687 337.401 112.571C337.313 112.703 337.225 112.835 337.133 112.971C336.786 113.462 336.419 113.941 336.027 114.4C335.636 114.859 335.229 115.315 334.79 115.75C334.566 115.977 334.335 116.201 334.099 116.417C334.067 116.453 333.975 116.532 333.907 116.592C333.876 116.623 333.842 116.653 333.807 116.68L333.608 116.844C332.716 117.595 331.783 118.296 330.813 118.944C329.597 119.747 328.338 120.48 327.039 121.14C323.755 122.718 320.3 123.913 316.742 124.702C312.119 125.631 307.405 126.033 302.691 125.9C296.478 125.624 290.317 124.648 284.324 122.989C277.959 121.168 271.735 118.886 265.701 116.161C262.826 114.883 259.963 113.558 257.18 112.116L256.178 111.589L256.13 111.561L255.731 111.342C255.073 110.974 254.424 110.598 253.782 110.212C252.528 109.457 251.311 108.658 250.141 107.796C249.49 107.321 248.855 106.822 248.244 106.307L247.773 105.907L247.753 105.887C247.477 105.632 247.206 105.376 246.954 105.113C246.278 104.439 245.641 103.727 245.046 102.981C244.746 102.605 244.459 102.226 244.187 101.839C243.892 101.379 243.604 100.92 243.345 100.449L243.309 100.389C241.954 101.837 240.584 103.272 239.2 104.694C239.74 105.468 240.322 106.213 240.941 106.926C243.313 109.591 246.058 111.9 249.091 113.781L249.31 113.917C254.113 116.814 259.124 119.35 264.303 121.504C275.244 126.613 286.958 129.866 298.966 131.13C310.771 132.406 322.685 130.037 333.105 124.342C333.795 123.943 334.474 123.492 335.133 123.037C338.84 120.616 341.864 117.285 343.917 113.362C345.746 109.779 346.172 105.642 345.11 101.762C344.049 97.8816 341.577 94.5371 338.18 92.3835C335.921 90.9791 333.424 89.9994 330.813 89.4926C328.473 89.0317 326.089 88.8348 323.705 88.9057C321.141 88.9785 318.584 89.2172 316.051 89.6203C314.917 89.792 313.791 89.9877 312.669 90.1954M336.367 97.9775L336.411 98.0175L336.367 97.9775Z" fill="#F6C137"/>
<path d="M190.768 26.9764C191.464 27.4131 192.045 28.0116 192.461 28.7213L195.391 33.1134L218.838 68.3026L222.032 73.0941L232.322 88.5386C231.395 83.4344 230.802 78.2754 230.545 73.0941C230.499 72.221 230.465 71.3465 230.441 70.4708C230.186 62.2488 230.78 54.0226 232.214 45.9226C232.602 43.7612 233.051 41.605 233.559 39.4542C226.4 39.4222 220.539 40.5641 216.446 34.5189C209.658 24.4848 226.276 16.3872 242.336 17.0341C243.134 15.7644 243.933 14.5106 244.807 13.2967C246.266 11.2605 247.902 9.3566 249.695 7.60693C234.25 8.40551 212.521 16.3913 190.764 26.9605" fill="#8146F6"/>
<path d="M247.442 42.4354C245.03 41.2181 242.446 40.3779 239.779 39.9438C237.398 49.6871 236.292 59.6986 236.489 69.7268C236.521 70.8554 236.566 71.9827 236.625 73.1087C236.681 74.1149 236.741 75.1052 236.821 76.1274C237.341 82.5659 238.378 88.9523 239.919 95.2253C242.954 91.9138 245.9 88.5385 248.759 85.0993C251.999 81.1863 255.115 77.1934 258.107 73.1206C258.929 72.0026 259.748 70.8766 260.55 69.7466C261.4 68.5461 262.237 67.3377 263.062 66.1212C263.472 65.5142 263.879 64.9034 264.284 64.2885L264.863 63.398C264.966 63.2383 265.07 63.0785 265.17 62.9148L265.278 62.7512L265.498 62.4078C265.581 62.2681 265.669 62.1283 265.757 62.0085C265.945 61.705 266.132 61.4056 266.316 61.1022L266.348 61.0502C258.362 58.1953 256.274 46.9075 247.442 42.4634" fill="#8146F6"/>
<path d="M284.617 25.4185C284.528 32.0342 283.325 38.5878 281.059 44.8039C284.082 53.0293 282.065 60.1405 273.129 61.4741C272.065 63.2922 270.956 65.0877 269.803 66.8605C268.438 68.9688 267.027 71.0517 265.571 73.1094C262.424 77.5694 259.098 81.9256 255.652 86.1861C254.162 88.0254 252.644 89.8462 251.101 91.6484C252.087 91.1692 253.077 90.698 254.059 90.2149C255.923 89.2965 257.786 88.3728 259.649 87.4438L261.29 86.6453L261.658 86.4575L262.029 86.2739L264.644 84.9483C272.22 81.1045 279.731 77.1649 287.176 73.1294C294.347 69.2483 301.459 65.2847 308.51 61.2386C308.888 61.0307 309.29 60.871 309.708 60.7634C302.732 48.0658 294.318 36.213 284.633 25.4384" fill="#8146F6"/>
<path d="M325.939 94.4637H325.803C321.69 94.4714 317.589 94.8927 313.561 95.7215C312.78 95.8036 311.996 95.5996 311.354 95.1472C310.712 94.6948 310.256 94.0249 310.071 93.2619C310.012 92.9088 310.032 92.5471 310.128 92.2023C310.223 91.8574 310.394 91.5377 310.626 91.2655C311.151 90.7064 311.86 90.3549 312.622 90.2752C313.748 90.0675 314.874 89.8759 316.004 89.7003C318.539 89.2952 321.097 89.0563 323.663 88.9855C321.423 83.7468 318.955 78.4204 316.292 73.1258C315.326 71.1933 314.333 69.2686 313.313 67.3521C311.688 68.2824 310.067 69.2088 308.434 70.1471C306.653 71.1573 304.84 72.1436 303.063 73.1418C290.382 80.2092 277.518 87.017 264.472 93.5653C258.028 96.7969 251.537 99.9593 244.999 103.052C245.594 103.799 246.232 104.511 246.908 105.185C247.171 105.448 247.447 105.704 247.706 105.959L247.73 105.979C247.882 106.115 248.042 106.247 248.197 106.379C248.812 106.898 249.447 107.393 250.098 107.872C251.264 108.73 252.494 109.533 253.735 110.288C254.378 110.687 255.025 111.05 255.684 111.417L256.083 111.637L256.131 111.665L257.133 112.188C259.928 113.634 262.779 114.955 265.654 116.233C271.688 118.961 277.914 121.245 284.281 123.065C290.275 124.722 296.436 125.699 302.648 125.976C307.361 126.108 312.073 125.707 316.695 124.778C320.253 123.991 323.709 122.795 326.993 121.216C328.292 120.557 329.552 119.822 330.766 119.016C331.737 118.371 332.67 117.671 333.561 116.92C331.451 109.311 328.904 101.83 325.931 94.5156" fill="#8146F6"/>
<path d="M168.237 114.619C168.237 114.663 168.141 114.723 168.077 114.778C168.136 114.731 168.189 114.677 168.237 114.619Z" fill="#8146F6"/>
<path d="M227.179 102.011C226.752 101.584 226.312 101.164 225.873 100.749L225.198 100.13C225.969 100.845 225.146 100.09 224.967 99.9345C223.286 98.4771 221.522 97.1186 219.684 95.8658C218.774 95.243 217.839 94.644 216.889 94.069C216.378 93.7655 215.867 93.4621 215.348 93.1706L214.749 92.8393L214.465 92.6874C210.574 90.641 206.477 89.0109 202.243 87.8242C193.608 85.4454 184.525 85.192 175.77 87.0855C171.44 88.0528 167.238 89.5271 163.253 91.4777C161.696 92.2662 160.181 93.1338 158.713 94.077C157.369 94.9475 156.076 95.8791 154.836 96.872C154.508 97.1315 154.189 97.3951 153.874 97.6706L153.426 98.0699C152.879 98.577 152.344 99.0921 151.829 99.6311C151.314 100.17 150.803 100.757 150.332 101.352C150.092 101.655 149.857 101.967 149.629 102.282L149.342 102.682L149.222 102.861C148.974 103.229 149.354 102.638 149.366 102.63C149.227 102.795 149.116 102.981 149.034 103.181C148.95 103.325 148.866 103.468 148.791 103.612C148.619 103.923 148.463 104.239 148.315 104.558C148.06 105.115 147.84 105.687 147.657 106.271C147.438 107.139 147.32 108.028 147.305 108.923C147.352 109.669 147.476 110.41 147.677 111.131C147.934 111.814 148.255 112.472 148.635 113.095C149.067 113.712 149.549 114.293 150.076 114.832C150.228 114.956 150.372 115.089 150.508 115.231L150.559 115.279C150.891 115.555 151.238 115.818 151.594 116.078C151.949 116.337 152.336 116.569 152.724 116.793L152.883 116.88L153.386 117.124C154.078 117.438 154.791 117.705 155.519 117.922C156.437 118.134 157.372 118.268 158.314 118.322C159.421 118.325 160.527 118.224 161.616 118.022C162.801 117.739 163.956 117.337 165.062 116.824C165.779 116.449 166.469 116.023 167.126 115.551C167.306 115.419 167.481 115.287 167.657 115.151C167.737 115.088 167.92 114.96 168.056 114.836C167.94 114.94 167.837 115.028 168.008 114.86L168.272 114.608C168.432 114.453 168.583 114.297 168.735 114.137C169.286 113.577 170.018 113.23 170.8 113.157C171.583 113.084 172.366 113.29 173.011 113.738C173.325 113.934 173.594 114.194 173.799 114.502C174.005 114.809 174.144 115.156 174.206 115.521C174.268 115.885 174.253 116.259 174.16 116.617C174.068 116.975 173.901 117.31 173.67 117.599C172.797 118.529 171.834 119.371 170.795 120.111C166.379 123.189 160.928 124.404 155.622 123.492C153.057 123.038 150.614 122.056 148.448 120.608C146.282 119.159 144.441 117.277 143.041 115.079C141.854 113.03 141.221 110.706 141.206 108.337C141.191 105.969 141.793 103.637 142.953 101.572C145.384 97.3394 148.764 93.7295 152.827 91.0265C161.187 85.1755 170.931 81.613 181.093 80.6928C197.598 79.1786 214.049 84.0997 227.011 94.4284C222.286 87.3317 217.561 80.239 212.836 73.1503L208.444 66.578L185.018 31.3369C184.759 30.9487 184.611 30.4973 184.591 30.0312C156.98 44.0662 130.288 61.575 117.419 73.0985C114.74 75.3305 112.366 77.9054 110.359 80.7568C102.709 93.2226 117.546 126.523 138.561 156.338C139.626 154.842 140.742 153.387 141.911 151.974C151.501 141.14 163.14 132.311 176.158 125.996C190.317 118.613 205.386 112.676 220.079 106.131C222.663 104.978 225.234 103.8 227.806 102.626C227.602 102.414 227.406 102.199 227.191 101.991" fill="#8146F6"/>
<path d="M276.961 37.1255C277.053 36.7542 277.149 36.3789 277.233 36.0075C277.536 34.65 277.789 33.2817 277.991 31.9028C278.389 29.1958 278.569 26.4612 278.53 23.7254C278.489 22.1884 278.371 20.6546 278.175 19.1296C272.867 14.0171 266.382 10.2899 259.293 8.27697C259.053 8.22107 258.797 8.18512 258.55 8.13721C257.935 8.50988 257.34 8.90924 256.765 9.33514C256.234 9.73443 255.723 10.1337 255.224 10.5689L255.116 10.6647L254.908 10.8564C254.669 11.08 254.433 11.3076 254.202 11.5352C253.238 12.4957 252.325 13.506 251.466 14.5618C250.697 15.5041 249.965 16.4717 249.27 17.4646L249.003 17.8639C250.817 18.2425 252.595 18.7768 254.317 19.461C263.4 23.0719 271.257 29.2088 276.961 37.1455" fill="#8146F6"/>
<path d="M216.451 34.5332C220.547 40.5745 226.405 39.4366 233.568 39.4685C234.817 33.9753 236.605 28.6188 238.906 23.477C239.923 21.2676 241.071 19.1208 242.344 17.0484C226.285 16.4016 209.651 24.4991 216.451 34.5332Z" fill="#FFF0F0"/>
<path d="M273.128 61.4721C282.06 60.1425 284.08 53.0232 281.058 44.7979C280.83 45.4447 280.603 46.0875 280.359 46.7224C278.374 51.8364 275.955 56.771 273.128 61.4721Z" fill="#FFF0F0"/>
<path d="M266.346 61.0214C266.721 60.4105 267.088 59.7996 267.452 59.1807C268.186 57.9375 268.897 56.6838 269.584 55.4194C272.362 50.3941 274.614 45.0954 276.304 39.6077C276.36 39.428 276.412 39.2483 276.463 39.0686C276.551 38.7372 276.643 38.4058 276.731 38.0744C276.819 37.743 276.883 37.4395 276.959 37.1241C271.254 29.1871 263.397 23.0492 254.315 19.4356C252.593 18.7532 250.817 18.2187 249.004 17.8384C248.753 18.2057 248.497 18.5691 248.258 18.9444L248.226 18.9923C247.93 19.4755 248.122 19.156 248.226 18.9923L248.282 18.9006C248.226 18.9964 248.166 19.0881 248.106 19.18C247.934 19.4595 247.763 19.7391 247.595 20.0186C246.381 22.0598 245.29 24.1718 244.329 26.3432C243.362 28.5154 242.516 30.7355 241.765 32.9795C241.366 34.1174 241.031 35.2593 240.695 36.4133L240.643 36.593C240.619 36.6729 240.599 36.7527 240.575 36.8326C240.492 37.148 240.404 37.4594 240.32 37.7749C240.176 38.3073 240.043 38.8396 239.921 39.372C239.877 39.5477 239.841 39.7273 239.797 39.903C242.463 40.3398 245.047 41.1814 247.459 42.3986C256.295 46.8427 258.376 58.1305 266.365 60.9854" fill="#FFF0F0"/>
<path d="M314.247 62.0296C313.68 61.4166 312.954 60.9721 312.151 60.7452C311.347 60.5184 310.496 60.5178 309.692 60.7438C309.273 60.8471 308.87 61.007 308.494 61.219C301.442 65.2651 294.33 69.2274 287.156 73.1058C279.702 77.1359 272.193 81.0755 264.628 84.9247L262.009 86.2503L261.641 86.4379L261.274 86.6217L259.633 87.4202C257.77 88.3519 255.906 89.2836 254.043 90.2153C253.061 90.6984 252.066 91.1656 251.084 91.6447C248.537 94.6234 245.924 97.5514 243.246 100.429L243.282 100.485C243.542 100.96 243.829 101.423 244.125 101.878C244.396 102.278 244.684 102.645 244.983 103.02C251.51 99.922 258.001 96.7596 264.456 93.5333C277.5 86.9903 290.362 80.1825 303.043 73.1098C304.836 72.1116 306.637 71.1133 308.418 70.1151C310.047 69.1941 311.673 68.2624 313.297 67.3201L313.641 67.1245C314.048 66.8536 314.392 66.4969 314.647 66.0796C314.903 65.6623 315.065 65.1943 315.121 64.7081C315.177 64.222 315.127 63.7294 314.973 63.2647C314.82 62.8 314.566 62.3744 314.231 62.0175" fill="#F6C137"/>
<path d="M233.582 94.6066C233.111 92.5942 232.692 90.5765 232.325 88.5534L222.035 73.1089L218.841 68.3174L195.394 33.1283L192.464 28.7361C192.048 28.0264 191.467 27.4279 190.771 26.9913C190.6 26.8907 190.423 26.8026 190.24 26.7277C189.226 26.3245 188.103 26.2934 187.069 26.6398C186.37 26.9094 185.763 27.3762 185.324 27.9836C184.885 28.591 184.631 29.3129 184.594 30.0617C184.614 30.5265 184.762 30.9768 185.021 31.3635C192.839 43.0945 200.654 54.8256 208.467 66.5567L212.859 73.1249C217.582 80.2216 222.306 87.3143 227.034 94.403C229.631 96.4759 232.044 98.7696 234.245 101.259C234.533 100.967 234.816 100.672 235.1 100.38C234.554 98.469 234.054 96.5498 233.598 94.6226" fill="#F6C137"/>
<path d="M275.288 10.3398C275.42 10.5235 275.623 10.9188 275.288 10.3398V10.3398Z" fill="#F8BA89"/>
<path d="M276.786 3.78635C273.227 1.23485 268.869 0.0486054 264.508 0.444286C260.326 0.795106 256.328 2.31738 252.972 4.83648C251.821 5.68869 250.728 6.61574 249.698 7.61156C247.906 9.3636 246.271 11.2688 244.811 13.3054C243.932 14.5032 243.122 15.769 242.343 17.0387C241.07 19.1111 239.922 21.2577 238.905 23.4672C236.605 28.6111 234.815 33.9688 233.563 39.4627C233.056 41.6069 232.609 43.767 232.217 45.9271C230.785 54.0273 230.191 62.2535 230.444 70.4754C230.468 71.3498 230.508 72.2242 230.552 73.1027C230.808 78.2825 231.4 83.4402 232.325 88.5431C232.693 90.5662 233.112 92.5839 233.583 94.5963C234.033 96.5262 234.533 98.4455 235.084 100.354L234.234 101.233L234.122 101.348C233.911 101.645 233.761 101.98 233.68 102.335C233.599 102.69 233.589 103.058 233.651 103.417C233.712 103.775 233.844 104.119 234.039 104.426C234.234 104.734 234.487 105 234.785 105.209C235.43 105.656 236.212 105.861 236.994 105.788C237.775 105.715 238.506 105.369 239.057 104.81L239.153 104.71C240.542 103.289 241.912 101.854 243.262 100.406C245.945 97.5311 248.558 94.603 251.1 91.6216C252.641 89.8168 254.158 87.9962 255.652 86.1594C259.097 81.8951 262.439 77.5427 265.57 73.0827C267.023 71.0224 268.434 68.9395 269.802 66.8339C270.95 65.0558 272.058 63.2602 273.128 61.4474C275.956 56.7385 278.376 51.796 280.359 46.6738C280.603 46.039 280.835 45.3961 281.058 44.7532C283.324 38.5384 284.527 31.9863 284.616 25.3719C284.616 25.2241 284.616 25.0803 284.616 24.9326C284.548 17.6815 283.554 8.96113 276.786 3.77038M277.984 31.8682C277.78 33.2458 277.525 34.6114 277.225 35.9689C277.141 36.3443 277.045 36.7156 276.954 37.091C276.862 37.4663 276.806 37.7257 276.722 38.0412C276.638 38.3566 276.546 38.7041 276.454 39.0355L276.299 39.5744C274.605 45.0616 272.352 50.3602 269.575 55.3863C268.888 56.6507 268.179 57.9045 267.447 59.1476C267.083 59.7625 266.712 60.3774 266.34 60.9883L266.309 61.0402L265.75 61.9426L265.49 62.3419C265.45 62.4018 265.338 62.5734 265.27 62.6892L265.163 62.853C265.063 63.0127 264.959 63.1724 264.855 63.3321C264.663 63.6316 264.456 63.927 264.276 64.2225C263.874 64.8374 263.467 65.4497 263.054 66.0593C262.232 67.2731 261.395 68.4803 260.543 69.6808C259.744 70.8148 258.922 71.9368 258.099 73.0588C255.105 77.1315 251.989 81.1244 248.752 85.0374C245.901 88.4819 242.954 91.8572 239.912 95.1633C238.37 88.8904 237.334 82.504 236.813 76.0654C236.733 75.0592 236.673 74.0689 236.617 73.0508C236.559 71.9221 236.514 70.7948 236.482 69.6688C236.284 59.6393 237.39 49.6267 239.772 39.882C239.816 39.7063 239.852 39.5266 239.896 39.3469C240.031 38.8079 240.167 38.2728 240.295 37.7497C240.379 37.4343 240.463 37.1189 240.55 36.8074L240.614 36.5678L240.67 36.3842C241.002 35.2343 241.357 34.0883 241.736 32.9543C242.491 30.7063 243.334 28.4863 244.304 26.3182C245.265 24.1471 246.354 22.0351 247.566 19.9934L248.081 19.1549C248.137 19.0591 248.197 18.9712 248.253 18.8754L248.201 18.9633L248.229 18.9154C248.472 18.544 248.724 18.1807 248.975 17.8133C249.067 17.6816 249.151 17.5458 249.243 17.414C249.938 16.4238 250.67 15.4562 251.439 14.5112C252.296 13.4555 253.208 12.4452 254.17 11.4847C254.406 11.2531 254.641 11.0254 254.881 10.8018L255.089 10.6101L255.196 10.5184C255.691 10.0911 256.207 9.67578 256.738 9.28448C257.269 8.89317 257.908 8.458 258.522 8.08666C258.806 7.91497 259.093 7.74729 259.389 7.59157L259.612 7.47179L259.76 7.3999C260.886 6.87203 262.062 6.4574 263.27 6.16212C264.427 5.94187 265.602 5.83359 266.78 5.83872C267.409 5.87079 268.035 5.93876 268.656 6.04233C269.012 6.10622 269.363 6.18208 269.714 6.26593L269.778 6.28592C269.934 6.33782 270.086 6.38575 270.238 6.44165C270.593 6.56542 270.944 6.70508 271.288 6.84084C271.463 6.92069 271.631 7.00459 271.803 7.08844C272.421 7.45408 273.01 7.86795 273.564 8.32622C273.616 8.36615 273.663 8.41013 273.711 8.45405L273.899 8.65364C274.147 8.90519 274.386 9.16877 274.61 9.45227C274.833 9.73576 275.045 9.99527 275.245 10.2748L275.181 10.1629C275.277 10.3346 275.396 10.4984 275.5 10.6701C276.15 11.7729 276.685 12.9397 277.097 14.1519C277.583 15.7612 277.934 17.4078 278.147 19.075C278.343 20.6013 278.462 22.1366 278.503 23.6748C278.542 26.4106 278.361 29.1452 277.964 31.8523" fill="#F6C137"/>
<path d="M46.3424 169.606C51.7399 166.238 53.3561 141.667 50.1113 127.904C46.8666 114.141 40.6859 107.079 32.234 111.865C24.2219 116.401 28.412 135.86 28.412 135.86C28.412 135.86 13.1898 122.088 5.79547 125.891C-3.25239 130.53 1.21852 143.291 9.09952 151.849C16.5874 159.987 39.7031 173.76 46.3424 169.606Z" fill="#F6C137"/>
<path d="M136.169 254.031C127.057 252.776 118.261 270.378 118.261 270.378C118.261 270.378 114.866 250.618 106.707 249.151C96.7178 247.355 92.303 259.927 93.171 271.267C93.9937 282.054 103.582 306.519 111.365 307.262C117.693 307.868 134.227 289.758 140.227 277.156C146.227 264.554 145.751 255.377 136.162 254.046" fill="#F9D9C2"/>
<path d="M394.838 101.237C399.987 100.339 408.692 82.2095 410.395 70.7827C412.099 59.3558 409.521 52.1087 401.606 53.1455C394.103 54.1273 391.391 70.1621 391.391 70.1621C391.391 70.1621 383.942 55.0566 377.134 55.6726C368.808 56.4153 368.346 67.4587 371.769 76.3611C375.018 84.8251 388.5 102.35 394.838 101.237Z" fill="#F6C137"/>
<path d="M375.372 264.365C380.243 264.676 392.192 250.237 396.291 240.321C400.39 230.404 399.672 223.31 392.264 222.523C385.239 221.769 379.193 235.613 379.193 235.613C379.193 235.613 375.807 220.392 369.5 219.46C361.78 218.319 358.895 228.164 360.009 236.924C361.067 245.256 369.377 263.967 375.37 264.35" fill="#F25649"/>
</svg>
