<svg width="417" height="310" viewBox="0 0 417 310" fill="none" xmlns="http://www.w3.org/2000/svg">
<path d="M336.722 133.552C336.809 134.858 336.847 136.098 336.816 137.237C336.426 150.76 315.219 169.253 288.644 184.41C290.745 190.119 292.49 195.953 293.869 201.879C315.076 187.816 331.232 174.322 333.862 168.874C338.467 159.329 337.693 143.159 336.715 133.552" fill="#BE2E2E"/>
<path d="M110.363 80.771C105.219 85.0847 101.219 90.6007 98.7175 96.8301C96.2159 103.06 95.2898 109.81 96.0214 116.483C97.4809 127.71 110.251 157.211 127.738 184.988C128.59 174.62 132.344 164.701 138.571 156.368C117.556 126.547 102.709 93.2381 110.356 80.7779" fill="#BE2E2E"/>
<path d="M283.836 194.996C283.604 194.216 283.372 193.437 283.14 192.659C283.035 192.311 282.927 191.99 282.823 191.659L282.645 191.116C282.324 190.159 281.995 189.203 281.656 188.249C250.281 204.875 213.607 216.175 194.828 209.668C179.7 204.426 160.252 185.406 143.622 163.283L143.58 163.353L143.287 163.827C143.096 164.14 142.904 164.461 142.716 164.778C142.345 165.414 141.983 166.058 141.633 166.711C140.179 169.398 138.953 172.203 137.968 175.096C137.841 175.481 137.715 175.868 137.592 176.255C137.54 176.426 137.491 176.604 137.435 176.775C137.223 177.471 137.435 176.677 137.467 176.646C137.289 176.792 137.244 177.478 137.188 177.691C137.087 178.084 136.993 178.478 136.902 178.872C136.554 180.317 136.31 181.78 136.122 183.25C135.926 184.773 135.809 186.306 135.774 187.841C135.774 188.294 135.774 188.747 135.774 189.203V189.29C135.774 189.395 135.791 189.496 135.795 189.59C135.826 190.321 135.882 191.053 135.948 191.788C136.031 192.432 135.93 193.087 135.658 193.676C135.385 194.266 134.952 194.767 134.408 195.122C150.599 218.732 169.765 239.149 187.527 243.067C210.866 248.219 253.388 227.667 286.682 206.544C286.522 205.729 286.355 204.917 286.177 204.105C285.511 201.054 284.733 198.019 283.843 195" fill="#BE2E2E"/>
<path d="M258.588 8.11719C257.971 8.48875 257.375 8.88816 256.801 9.31546C256.272 9.71025 255.757 10.1213 255.258 10.5486L255.213 10.5869L254.945 10.8342C254.712 11.0665 254.48 11.2928 254.248 11.5134C253.286 12.4765 252.373 13.4879 251.514 14.544C250.743 15.4845 250.011 16.4518 249.319 17.4457C249.228 17.5746 249.141 17.7105 249.051 17.8394C250.865 18.2129 252.644 18.7432 254.366 19.4243C263.448 23.0386 271.306 29.178 277.009 37.1166C277.099 36.7404 277.197 36.3711 277.28 35.9949C277.585 34.6364 277.838 33.2686 278.04 31.8914C278.439 29.184 278.62 26.4488 278.58 23.7124C278.541 22.1748 278.425 20.6401 278.231 19.1143C272.923 13.9999 266.436 10.2719 259.344 8.25996C259.104 8.20422 258.85 8.16596 258.602 8.11719" fill="#EA5B4B"/>
<path d="M264.511 93.5379C258.064 96.7705 251.571 99.9334 245.031 103.027C245.626 103.774 246.264 104.487 246.94 105.162C247.205 105.427 247.48 105.681 247.752 105.939H247.773L248.243 106.339C248.856 106.859 249.494 107.357 250.141 107.834C251.312 108.694 252.531 109.495 253.782 110.248C254.426 110.638 255.074 111.014 255.732 111.38L256.133 111.599L256.182 111.624L257.181 112.153C259.968 113.595 262.828 114.919 265.705 116.198C271.741 118.925 277.967 121.209 284.335 123.032C290.33 124.687 296.493 125.663 302.706 125.941C307.422 126.068 312.138 125.661 316.762 124.725C320.321 123.938 323.777 122.743 327.062 121.165C328.36 120.503 329.619 119.769 330.835 118.967C331.802 118.322 332.732 117.624 333.622 116.877C331.513 109.266 328.965 101.784 325.989 94.4679H325.854C321.74 94.4726 317.638 94.8928 313.609 95.722C312.832 95.8025 312.053 95.6003 311.413 95.1524C310.773 94.7046 310.316 94.041 310.126 93.2836C310.066 92.9282 310.085 92.5641 310.182 92.2168C310.278 91.8696 310.449 91.5476 310.683 91.2737C311.209 90.7135 311.919 90.3612 312.683 90.2809C313.804 90.0754 314.933 89.8804 316.065 89.7062C318.602 89.3029 321.161 89.0643 323.729 88.992C320.677 81.8441 317.19 74.5254 313.379 67.353C311.754 68.2819 310.128 69.2109 308.503 70.1398C294.093 78.2957 279.435 86.1032 264.528 93.5623" fill="#EA5B4B"/>
<path d="M247.477 42.4224C245.064 41.206 242.48 40.365 239.814 39.9282C237.433 49.6754 236.328 59.6903 236.525 69.7219C236.581 71.8584 236.697 73.9925 236.874 76.1244C237.392 82.5648 238.428 88.9531 239.971 95.2275C243.008 91.9182 245.955 88.5417 248.811 85.0977C252.947 80.1071 256.879 74.9841 260.606 69.7288C261.46 68.527 262.296 67.3218 263.118 66.1026C263.529 65.4942 263.936 64.8834 264.341 64.2704C264.536 63.9743 264.727 63.6747 264.919 63.3786L265.229 62.8979C265.25 62.87 265.295 62.7968 265.337 62.7271L265.553 62.3789L265.814 61.9609L266.375 61.0587L266.403 61.0064C258.415 58.15 256.332 46.8602 247.495 42.4118" fill="#EA5B4B"/>
<path d="M298.968 131.197C286.958 129.93 275.242 126.677 264.298 121.569C259.124 119.409 254.117 116.869 249.319 113.968C254.485 121.715 259.623 129.48 264.549 137.342C271.554 148.297 277.832 159.701 283.342 171.479C285.283 175.741 287.057 180.056 288.664 184.424C315.243 169.267 336.443 150.774 336.833 137.255C336.868 136.112 336.833 134.876 336.743 133.569C336.568 131.218 336.268 128.877 335.844 126.557C335.792 126.282 335.746 126.007 335.691 125.725C335.53 124.878 335.342 124.014 335.168 123.126C334.506 123.582 333.827 124.021 333.134 124.432C322.713 130.123 310.801 132.488 298.996 131.211" fill="#EA5B4B"/>
<path d="M192.48 28.708L195.413 33.1076L218.864 68.3076L232.355 88.5566C229.815 74.4645 229.778 60.0349 232.247 45.93C232.637 43.7657 233.086 41.6095 233.595 39.4614C226.43 39.43 220.571 40.5691 216.474 34.5254C209.674 24.4897 226.311 16.3873 242.373 17.0352C243.154 15.7637 243.965 14.5097 244.843 13.2975C246.299 11.2604 247.931 9.35458 249.72 7.60205C234.271 8.3893 212.534 16.3802 190.773 26.9628C191.47 27.3989 192.05 27.9963 192.466 28.7045" fill="#EA5B4B"/>
<path d="M273.171 61.4728C272.098 63.2865 270.988 65.0828 269.841 66.8617C265.466 73.5494 260.742 80.0016 255.688 86.1912C254.197 88.0304 252.679 89.8511 251.135 91.6532C252.121 91.1724 253.113 90.7056 254.096 90.2214C255.954 89.2925 257.811 88.3637 259.669 87.4347L261.31 86.6127L261.658 86.4384L262.048 86.2434L264.664 84.9197C279.527 77.3653 294.157 69.4603 308.555 61.2046C308.927 60.995 309.324 60.8346 309.736 60.7274C302.756 48.0279 294.34 36.1716 284.656 25.3916C284.57 32.0086 283.367 38.5636 281.099 44.7803C284.123 53.0082 282.102 60.1073 273.167 61.4589" fill="#EA5B4B"/>
<path d="M138.578 156.372C139.644 154.878 140.758 153.418 141.925 152.007C151.519 141.171 163.163 132.34 176.185 126.024C190.345 118.64 205.421 112.697 220.104 106.151C222.692 104.998 225.263 103.821 227.833 102.647C227.631 102.435 227.429 102.219 227.22 102.01C226.793 101.585 226.356 101.164 225.911 100.749C225.688 100.54 225.461 100.338 225.238 100.132C226.008 100.846 225.186 100.09 225.008 99.9371C223.326 98.4797 221.562 97.1201 219.724 95.8649C218.811 95.2449 217.878 94.6423 216.937 94.0675C216.429 93.761 215.914 93.4614 215.394 93.1688L214.798 92.8205L214.509 92.6707C210.62 90.618 206.524 88.9833 202.289 87.7939C193.654 85.4122 184.571 85.1576 175.815 87.0519C171.478 88.0149 167.269 89.4846 163.275 91.4306C161.722 92.2202 160.211 93.0887 158.747 94.0327C157.408 94.8952 156.114 95.8254 154.87 96.8195C154.546 97.0772 154.222 97.3419 153.908 97.6067L153.462 97.9899C152.912 98.495 152.376 99.0105 151.867 99.5504C151.358 100.09 150.822 100.679 150.369 101.271C150.125 101.578 149.892 101.888 149.672 102.205C149.575 102.341 149.477 102.48 149.383 102.619L149.261 102.801C149.014 103.149 149.397 102.574 149.408 102.567C149.264 102.731 149.146 102.917 149.059 103.117C148.976 103.26 148.896 103.407 148.816 103.549C148.648 103.859 148.488 104.176 148.342 104.493C148.086 105.051 147.866 105.625 147.683 106.211C147.466 107.078 147.35 107.968 147.335 108.862C147.38 109.609 147.505 110.349 147.708 111.07C147.965 111.754 148.286 112.411 148.666 113.035C149.096 113.654 149.577 114.237 150.104 114.776C150.258 114.901 150.403 115.038 150.536 115.184L150.592 115.229C150.94 115.505 151.268 115.769 151.637 116.017C152.006 116.264 152.376 116.508 152.762 116.713L152.926 116.8C153.09 116.884 153.274 116.968 153.428 117.044C154.119 117.359 154.833 117.623 155.563 117.835C156.478 118.052 157.411 118.19 158.35 118.246C159.457 118.251 160.563 118.152 161.652 117.95C162.838 117.664 163.992 117.259 165.097 116.741C165.815 116.368 166.504 115.943 167.159 115.47C167.34 115.337 167.508 115.205 167.692 115.066C167.811 114.972 168.229 114.717 168.263 114.588C168.263 114.63 167.765 115.052 168.051 114.776L168.319 114.522C168.477 114.369 168.63 114.212 168.779 114.052C169.333 113.494 170.065 113.15 170.848 113.08C171.631 113.01 172.413 113.218 173.057 113.669C173.37 113.865 173.639 114.125 173.845 114.432C174.051 114.739 174.19 115.086 174.253 115.45C174.315 115.815 174.3 116.188 174.208 116.546C174.116 116.904 173.949 117.239 173.719 117.528C172.843 118.459 171.878 119.301 170.838 120.043C166.419 123.124 160.965 124.339 155.657 123.426C153.091 122.971 150.648 121.988 148.482 120.539C146.316 119.091 144.475 117.208 143.075 115.01C141.888 112.959 141.255 110.635 141.239 108.266C141.223 105.896 141.825 103.564 142.984 101.498C145.417 97.2647 148.799 93.6541 152.863 90.9499C161.225 85.0986 170.971 81.5356 181.135 80.6146C197.646 79.116 214.098 84.053 227.057 94.395L208.497 66.5276L185.047 31.3278C184.784 30.9412 184.635 30.4885 184.618 30.0215C149.746 47.7451 116.343 71.0247 110.366 80.7644C102.702 93.2315 117.555 126.54 138.581 156.355" fill="#EA5B4B"/>
<path d="M225.493 171.521C225.493 171.504 225.57 171.417 225.612 171.347L225.639 171.305L225.573 171.406L225.493 171.521Z" fill="#EA5B4B"/>
<path d="M235.138 109.046C234.038 109.837 232.951 110.645 231.899 111.484C231.139 112.094 230.39 112.714 229.659 113.345L229.133 113.801C229.203 113.745 229.192 113.759 228.882 114.027C228.572 114.296 228.245 114.602 227.931 114.895C225.448 117.216 223.121 119.698 220.964 122.325C219.873 123.649 218.828 125.005 217.829 126.393C217.335 127.09 216.854 127.787 216.38 128.484L215.683 129.528L215.335 130.068C211.89 135.658 209.215 141.686 207.382 147.991C206.7 150.45 206.152 152.944 205.742 155.463C205.245 158.316 204.991 161.206 204.982 164.101C205.036 166.003 205.329 167.891 205.853 169.72C206.247 170.865 206.768 171.963 207.407 172.991C207.831 173.594 208.296 174.167 208.8 174.705C208.933 174.844 209.065 174.984 209.204 175.119L209.473 175.374C209.563 175.454 209.668 175.545 209.709 175.576C209.859 175.698 210.012 175.82 210.166 175.924C210.514 176.185 210.862 176.433 211.239 176.666C211.381 176.753 211.524 176.84 211.671 176.924L211.754 176.966C212.413 177.29 213.098 177.558 213.802 177.767C214.404 177.904 215.016 177.995 215.631 178.039C217.007 178.083 218.372 177.784 219.602 177.168C220.387 176.751 221.132 176.264 221.828 175.712C222.006 175.569 222.177 175.412 222.354 175.273C221.581 175.879 222.302 175.315 222.473 175.147C222.821 174.799 223.169 174.451 223.479 174.102C224.067 173.437 224.617 172.739 225.127 172.012C225.249 171.838 225.367 171.664 225.475 171.486C225.475 171.507 225.5 171.445 225.66 171.208C225.859 170.88 226.054 170.556 226.242 170.225C227.14 168.597 227.939 166.916 228.635 165.192C230.175 161.5 231.501 157.722 232.606 153.878C233.198 151.749 233.734 149.603 234.194 147.444C235.866 139.55 236.632 131.492 236.479 123.426C236.349 118.596 235.895 113.78 235.121 109.011" fill="#EA5B4B"/>
<path d="M229.147 113.801L229.011 113.916C228.993 113.937 228.974 113.955 228.952 113.972L229.123 113.822L229.147 113.801Z" fill="#EA5B4B"/>
<path d="M228.799 114.107L228.896 114.024L228.952 113.972L228.799 114.107Z" fill="#EA5B4B"/>
<path d="M152.801 116.797L152.77 116.779L152.724 116.751C152.609 116.692 152.554 116.671 152.794 116.793" fill="#EA5B4B"/>
<path d="M225.765 171.11L225.678 171.239L225.64 171.305C225.681 171.239 225.72 171.173 225.765 171.11Z" fill="#EA5B4B"/>
<path d="M242.547 129.703C242.353 136.019 241.592 142.305 240.273 148.485C238.923 154.839 237.002 161.058 234.532 167.066C232.684 172.722 229.111 177.658 224.315 181.181C221.437 182.991 218.04 183.797 214.656 183.473C211.416 183.11 208.359 181.784 205.881 179.665C203.317 177.551 201.373 174.783 200.255 171.654C199.109 168.086 198.678 164.328 198.987 160.594C199.393 154.826 200.52 149.131 202.342 143.643C204.031 138.43 206.301 133.423 209.11 128.717C212.04 123.777 215.497 119.169 219.421 114.975C219.539 114.846 219.665 114.721 219.79 114.595L219.557 114.696C212.405 117.852 205.181 120.883 198.029 124.042C194.466 125.613 190.927 127.223 187.429 128.898C186.555 129.316 185.688 129.738 184.82 130.166L183.674 130.737L182.831 131.162C181.166 132.012 179.519 132.884 177.888 133.778C171.309 137.311 165.057 141.423 159.207 146.064C158.569 146.576 157.946 147.109 157.326 147.628L156.357 148.471C156.235 148.576 156.117 148.687 156.009 148.795C154.848 149.866 153.715 150.963 152.609 152.087C150.388 154.36 148.315 156.772 146.402 159.308C145.444 160.583 144.538 161.89 143.671 163.217L143.629 163.279C160.252 185.403 179.7 204.422 194.835 209.665C213.618 216.172 250.291 204.871 281.666 188.245C281.475 187.712 281.287 187.179 281.092 186.646C278.899 180.719 276.408 174.906 273.63 169.229C267.807 157.559 261.315 146.235 254.186 135.315C250.284 129.219 246.292 123.168 242.272 117.135C242.607 121.306 242.71 125.492 242.579 129.675" fill="#EA5B4B"/>
<path d="M153.035 116.926L152.899 116.842L152.812 116.8C152.885 116.842 152.972 116.88 153.035 116.926Z" fill="#EA5B4B"/>
<path d="M215.729 129.508L215.84 129.337C215.794 129.388 215.757 129.446 215.729 129.508Z" fill="#EA5B4B"/>
<path d="M150.516 115.205C150.397 115.069 150.007 114.77 150.352 115.066L150.516 115.205Z" fill="#EA5B4B"/>
<path d="M242.384 17.0315C226.319 16.3835 209.682 24.4859 216.481 34.5217C220.581 40.5689 226.437 39.4263 233.599 39.4576C234.853 33.9638 236.643 28.6063 238.943 23.4619C239.959 21.251 241.108 19.1036 242.384 17.0315Z" fill="#FFF0F0"/>
<path d="M254.353 19.4316C252.63 18.7505 250.852 18.2203 249.037 17.8467C248.786 18.2159 248.536 18.5817 248.295 18.9544L248.264 18.9997C247.968 19.4873 248.159 19.1669 248.264 18.9997L248.316 18.9126C248.26 19.0067 248.201 19.0972 248.142 19.1912C247.971 19.4699 247.794 19.7486 247.63 20.0307C246.416 22.0718 245.326 24.1843 244.366 26.3566C243.398 28.5268 242.551 30.7457 241.799 32.9751C241.418 34.113 241.061 35.2579 240.729 36.4097L240.677 36.5909C240.656 36.671 240.632 36.7511 240.611 36.8312C240.524 37.1447 240.437 37.4582 240.353 37.7752C240.21 38.3117 240.071 38.8482 239.935 39.3881C239.89 39.5657 239.855 39.7364 239.81 39.9245C242.476 40.36 245.06 41.1999 247.473 42.4151C256.311 46.8635 258.394 58.1533 266.381 61.0097C266.757 60.4012 267.127 59.7881 267.489 59.1704C268.223 57.9256 268.933 56.6716 269.621 55.4083C272.4 50.381 274.653 45.0801 276.344 39.5901C276.399 39.4124 276.452 39.2418 276.5 39.0537C276.591 38.7053 276.682 38.3918 276.765 38.0609C276.849 37.7299 276.918 37.427 276.995 37.11C271.292 29.1714 263.435 23.032 254.353 19.4177" fill="#FFF0F0"/>
<path d="M281.102 44.7944C280.875 45.4389 280.645 46.0798 280.405 46.7173C278.418 51.8331 275.998 56.7696 273.17 61.473C282.108 60.1389 284.125 53.0223 281.102 44.7944Z" fill="#FFF0F0"/>
<path d="M135.935 191.802C135.865 191.07 135.814 190.338 135.781 189.604L135.761 189.304V189.217C135.761 188.764 135.761 188.308 135.761 187.855C135.794 186.321 135.911 184.789 136.109 183.267C136.297 181.793 136.557 180.332 136.889 178.885C136.98 178.492 137.074 178.098 137.175 177.704C137.231 177.492 137.276 176.806 137.453 176.659C137.415 176.691 137.206 177.478 137.422 176.785L137.579 176.266C137.702 175.88 137.827 175.494 137.955 175.106C138.94 172.213 140.166 169.409 141.62 166.721C141.968 166.073 142.329 165.43 142.703 164.791C142.891 164.471 143.079 164.154 143.274 163.837L143.567 163.363L143.609 163.293L143.651 163.231C144.518 161.904 145.423 160.597 146.385 159.322C148.297 156.787 150.369 154.376 152.589 152.105C153.687 150.976 154.821 149.879 155.989 148.813L156.337 148.485L157.305 147.642C157.925 147.113 158.553 146.597 159.187 146.078C165.037 141.438 171.289 137.328 177.868 133.796C179.494 132.902 181.141 132.03 182.811 131.18L183.654 130.751L184.8 130.18C185.667 129.755 186.542 129.33 187.409 128.912C190.893 127.237 194.449 125.631 198.009 124.056C205.161 120.9 212.385 117.866 219.54 114.714L219.77 114.609C223.018 111.199 226.556 108.077 230.342 105.277C230.127 105.137 229.93 104.97 229.757 104.779C229.13 104.058 228.472 103.354 227.803 102.661C225.229 103.835 222.658 105.012 220.073 106.165C205.391 112.711 190.314 118.653 176.154 126.038C163.132 132.353 151.488 141.184 141.895 152.021C140.724 153.414 139.61 154.891 138.544 156.386C132.317 164.718 128.563 174.635 127.71 185.002C127.669 185.723 127.637 186.448 127.634 187.172C127.615 188.963 127.687 190.753 127.85 192.537C128.094 193.557 128.701 194.452 129.559 195.056C130.416 195.659 131.465 195.929 132.507 195.815C133.171 195.738 133.81 195.512 134.374 195.153C134.916 194.795 135.348 194.293 135.62 193.704C135.892 193.114 135.994 192.46 135.914 191.816" fill="#F8BA89"/>
<path d="M264.678 84.9198L262.062 86.2436L261.671 86.4386L261.323 86.6163L259.683 87.4384C257.825 88.3673 255.96 89.2962 254.088 90.2251C253.106 90.7093 252.113 91.1795 251.127 91.6602C248.584 94.6351 245.973 97.5624 243.293 100.442L243.328 100.498C243.568 100.937 243.826 101.365 244.094 101.79C244.362 102.215 244.7 102.626 245.028 103.034C251.56 99.9334 258.053 96.7693 264.507 93.5413C279.397 86.0729 294.056 78.2654 308.482 70.1188C310.107 69.1899 311.733 68.261 313.358 67.3321L313.707 67.1371C314.114 66.8656 314.458 66.5087 314.713 66.0911C314.969 65.6736 315.13 65.2054 315.187 64.7191C315.243 64.2329 315.193 63.7401 315.039 63.2752C314.886 62.8103 314.633 62.3843 314.299 62.0269C313.732 61.4131 313.006 60.9683 312.202 60.7414C311.398 60.5146 310.547 60.5146 309.743 60.7415C309.329 60.8481 308.931 61.0072 308.558 61.2152C294.183 69.4686 279.553 77.3737 264.667 84.9304" fill="#F8BA89"/>
<path d="M208.491 66.5347C214.673 75.8238 220.858 85.1129 227.047 94.402C229.646 96.4736 232.06 98.7673 234.261 101.257L235.114 100.38C234.571 98.4672 234.069 96.5478 233.613 94.6215C233.149 92.608 232.729 90.59 232.356 88.5673C227.857 81.8164 223.36 75.0656 218.864 68.3147C211.045 56.5825 203.227 44.8493 195.41 33.1148L192.484 28.7153C192.067 28.0069 191.485 27.4094 190.788 26.9736C190.617 26.8741 190.439 26.7867 190.255 26.7123C189.242 26.3092 188.119 26.2772 187.085 26.6217C186.384 26.8902 185.777 27.357 185.337 27.9651C184.897 28.5732 184.644 29.2963 184.608 30.0459C184.627 30.5116 184.776 30.9627 185.037 31.3487C192.856 43.0808 200.674 54.8142 208.491 66.5486" fill="#F8BA89"/>
<path d="M283.321 171.462C277.813 159.683 271.535 148.279 264.528 137.325C259.602 129.459 254.468 121.695 249.298 113.947L249.079 113.815C246.049 111.935 243.304 109.63 240.928 106.97C241.112 108.015 241.276 109.06 241.44 110.081C241.788 112.429 242.049 114.787 242.241 117.142C246.261 123.178 250.253 129.229 254.154 135.325C261.286 146.244 267.779 157.568 273.599 169.24C276.379 174.915 278.869 180.729 281.06 186.657C281.255 187.186 281.443 187.723 281.635 188.256C281.972 189.21 282.301 190.166 282.624 191.123L282.802 191.662C282.906 192.011 283.014 192.331 283.119 192.662C283.363 193.443 283.595 194.223 283.815 195.003C284.705 198.022 285.483 201.057 286.149 204.109C286.327 204.92 286.498 205.736 286.654 206.547C286.797 207.272 286.933 207.993 287.062 208.717C287.311 209.734 287.921 210.626 288.777 211.229C289.633 211.831 290.678 212.104 291.719 211.995C292.212 211.975 292.696 211.853 293.139 211.637C293.583 211.422 293.977 211.116 294.297 210.741C294.617 210.365 294.856 209.927 294.999 209.455C295.141 208.983 295.185 208.486 295.126 207.996C294.778 205.948 294.332 203.907 293.865 201.872C292.485 195.946 290.74 190.111 288.64 184.4C287.045 180.035 285.258 175.715 283.317 171.455" fill="#F8BA89"/>
<path d="M225.493 171.521L225.573 171.406L225.639 171.305L225.678 171.239C225.606 171.326 225.544 171.421 225.493 171.521Z" fill="#F8BA89"/>
<path d="M229.147 113.801L229.123 113.822L228.952 113.972L228.893 114.027C229.206 113.756 229.217 113.742 229.147 113.801Z" fill="#F8BA89"/>
<path d="M239.176 104.751L239.092 104.845C238.537 105.401 237.804 105.743 237.022 105.812C236.24 105.882 235.459 105.674 234.814 105.225C234.71 105.149 234.61 105.068 234.515 104.981C234.383 105.125 234.239 105.257 234.083 105.375C233.521 105.726 232.868 105.903 232.206 105.884C231.544 105.865 230.903 105.65 230.363 105.267C226.577 108.066 223.04 111.187 219.79 114.595L219.421 114.975C215.498 119.17 212.042 123.779 209.114 128.72C206.301 133.424 204.031 138.432 202.345 143.647C200.52 149.134 199.393 154.829 198.991 160.597C198.681 164.329 199.112 168.085 200.259 171.65C201.376 174.78 203.32 177.549 205.885 179.662C208.364 181.776 211.418 183.101 214.656 183.466C218.042 183.79 221.439 182.984 224.319 181.174C229.112 177.649 232.683 172.714 234.532 167.059C237.003 161.051 238.926 154.832 240.276 148.478C241.594 142.298 242.356 136.012 242.551 129.696C242.681 125.513 242.577 121.327 242.241 117.156C242.053 114.797 241.788 112.439 241.44 110.095C241.29 109.05 241.116 108.005 240.931 106.98C240.311 106.267 239.73 105.52 239.19 104.744M215.851 129.316C215.851 129.316 215.791 129.403 215.739 129.483C215.774 129.417 215.826 129.323 215.851 129.316ZM234.219 147.468C233.754 149.633 233.225 151.777 232.63 153.902C231.526 157.747 230.2 161.525 228.659 165.216C227.965 166.941 227.166 168.622 226.266 170.25C226.081 170.598 225.883 170.908 225.684 171.236C225.712 171.194 225.737 171.152 225.775 171.103C225.73 171.166 225.688 171.236 225.646 171.298L225.622 171.344L225.503 171.514C225.385 171.688 225.266 171.863 225.155 172.037C224.645 172.764 224.095 173.462 223.507 174.127C223.187 174.475 222.849 174.824 222.501 175.172C222.33 175.339 221.609 175.9 222.382 175.294C222.201 175.433 222.034 175.593 221.856 175.733C221.161 176.286 220.415 176.773 219.63 177.189C218.402 177.809 217.037 178.109 215.663 178.06C215.047 178.021 214.435 177.931 213.834 177.791C213.129 177.581 212.443 177.313 211.782 176.99L211.698 176.945C211.556 176.865 211.409 176.781 211.266 176.691C210.897 176.454 210.539 176.21 210.194 175.949C210.04 175.834 209.887 175.712 209.737 175.6L209.5 175.395C209.399 175.304 209.274 175.182 209.232 175.141L208.828 174.733C207.469 173.326 206.463 171.616 205.892 169.745C205.367 167.915 205.074 166.026 205.021 164.122C205.031 161.228 205.285 158.339 205.78 155.487C206.19 152.967 206.739 150.471 207.424 148.012C209.254 141.708 211.928 135.68 215.373 130.093C215.485 129.912 215.596 129.745 215.722 129.553C215.954 129.198 216.186 128.849 216.418 128.508C216.889 127.811 217.369 127.115 217.868 126.418C218.857 125.025 219.902 123.668 221.003 122.349C223.158 119.722 225.486 117.239 227.97 114.919L228.917 114.048L228.819 114.135L228.976 114L229.035 113.944C229.077 113.902 229.133 113.853 229.171 113.822L229.694 113.369C230.429 112.739 231.174 112.115 231.934 111.512C232.979 110.669 234.072 109.858 235.173 109.074C235.947 113.845 236.401 118.663 236.532 123.495C236.684 131.56 235.918 139.616 234.247 147.507" fill="#F8BA89"/>
<path d="M152.808 116.8L152.895 116.842L152.734 116.755L152.776 116.783L152.808 116.8Z" fill="#F8BA89"/>
<path d="M234.083 105.374C234.239 105.256 234.384 105.123 234.515 104.977C233.99 104.545 233.657 103.923 233.588 103.246C233.52 102.57 233.721 101.893 234.149 101.365L234.264 101.25C232.06 98.7604 229.645 96.4656 227.047 94.3911C214.083 84.0633 197.63 79.1424 181.125 80.6559C170.96 81.5769 161.213 85.1386 152.85 90.9877C148.785 93.6924 145.404 97.3045 142.974 101.539C141.814 103.604 141.212 105.936 141.228 108.305C141.244 110.674 141.877 112.998 143.065 115.048C144.464 117.246 146.306 119.13 148.471 120.579C150.637 122.028 153.081 123.012 155.647 123.467C160.956 124.378 166.409 123.162 170.828 120.081C171.867 119.34 172.83 118.499 173.705 117.57C173.935 117.281 174.102 116.946 174.194 116.588C174.286 116.23 174.302 115.856 174.239 115.492C174.177 115.127 174.038 114.78 173.832 114.473C173.626 114.166 173.357 113.906 173.043 113.71C172.4 113.259 171.617 113.05 170.834 113.12C170.051 113.19 169.319 113.535 168.766 114.093C168.617 114.251 168.464 114.408 168.306 114.564L168.041 114.814C167.755 115.089 168.239 114.672 168.25 114.63C168.215 114.766 167.797 115.013 167.682 115.103C167.508 115.243 167.33 115.379 167.149 115.511C166.492 115.983 165.801 116.408 165.084 116.782C163.979 117.299 162.825 117.703 161.638 117.988C160.55 118.191 159.444 118.291 158.336 118.287C157.397 118.231 156.465 118.094 155.549 117.876C154.82 117.662 154.107 117.398 153.414 117.085L152.913 116.842C152.96 116.865 153.006 116.893 153.048 116.925C152.979 116.876 152.904 116.834 152.825 116.8C152.585 116.678 152.641 116.699 152.759 116.758C152.373 116.535 151.996 116.298 151.631 116.061C151.265 115.824 150.934 115.549 150.586 115.274L150.533 115.225C150.398 115.081 150.254 114.944 150.101 114.818C149.573 114.278 149.091 113.696 148.659 113.076C148.28 112.451 147.959 111.792 147.701 111.108C147.502 110.388 147.377 109.649 147.329 108.903C147.343 108.008 147.46 107.117 147.677 106.249C147.859 105.664 148.078 105.092 148.332 104.535C148.482 104.214 148.638 103.901 148.809 103.591C148.886 103.444 148.969 103.302 149.053 103.159C149.138 102.958 149.256 102.772 149.401 102.608C149.401 102.608 149.008 103.208 149.258 102.838L149.377 102.661L149.666 102.243C149.898 101.925 150.13 101.615 150.363 101.313C150.833 100.717 151.335 100.146 151.861 99.5918C152.387 99.0379 152.906 98.5467 153.456 98.0277L153.902 97.6481C154.219 97.3799 154.539 97.1185 154.863 96.8573C156.103 95.8726 157.397 94.9438 158.744 94.0706C160.208 93.1271 161.72 92.2586 163.272 91.4684C167.266 89.5236 171.475 88.0552 175.813 87.0933C180.259 86.1719 184.796 85.7605 189.335 85.8671C193.713 86.0496 198.058 86.7084 202.293 87.8317C206.528 89.0241 210.625 90.6587 214.517 92.7086L214.802 92.8618C215.004 92.9698 215.203 93.0813 215.402 93.2101C215.919 93.5028 216.433 93.8023 216.941 94.1089C217.893 94.6848 218.822 95.284 219.728 95.9064C221.567 97.1586 223.331 98.5171 225.012 99.975C225.193 100.132 226.015 100.884 225.242 100.173C225.465 100.379 225.695 100.581 225.914 100.79C226.36 101.201 226.797 101.621 227.224 102.051C227.433 102.26 227.635 102.476 227.841 102.689C228.51 103.385 229.168 104.082 229.795 104.806C229.968 104.997 230.164 105.164 230.38 105.305C230.92 105.689 231.561 105.905 232.223 105.925C232.886 105.945 233.539 105.768 234.1 105.416M150.533 115.246L150.37 115.107C150.021 114.811 150.415 115.107 150.533 115.246Z" fill="#F8BA89"/>
<path d="M312.679 90.2635C311.914 90.3424 311.203 90.6935 310.676 91.2528C310.444 91.5277 310.274 91.8497 310.178 92.1968C310.082 92.5439 310.063 92.9076 310.122 93.2627C310.308 94.0241 310.763 94.6924 311.404 95.1444C312.044 95.5964 312.826 95.8016 313.606 95.722C317.635 94.8933 321.737 94.472 325.85 94.4645H325.989C327.704 94.5398 329.408 94.7836 331.075 95.1925C331.748 95.3876 332.41 95.6203 333.057 95.8892C333.405 96.039 333.733 96.2062 334.067 96.3699L334.113 96.3978C334.308 96.5127 334.499 96.6277 334.687 96.7461C335.036 96.9691 335.36 97.2059 335.68 97.4428C335.844 97.5716 336.004 97.7005 336.161 97.8329H336.178C336.781 98.4231 337.329 99.0667 337.815 99.7558C338.292 100.536 338.689 101.362 339 102.222C339.695 104.404 339.728 106.744 339.094 108.945C338.765 109.98 338.333 110.979 337.805 111.927C337.694 112.122 337.579 112.313 337.457 112.505C337.502 112.428 337.544 112.362 337.547 112.373C337.551 112.383 337.446 112.526 337.429 112.554L337.366 112.658C337.289 112.784 337.366 112.683 337.418 112.568C337.331 112.7 337.241 112.829 337.15 112.961C336.802 113.451 336.432 113.928 336.042 114.39C335.652 114.852 335.24 115.301 334.806 115.738C334.579 115.968 334.349 116.187 334.109 116.406L333.918 116.584L333.816 116.671L333.614 116.835C332.725 117.583 331.795 118.281 330.828 118.925C329.612 119.729 328.351 120.463 327.052 121.123C323.767 122.703 320.31 123.899 316.751 124.687C312.128 125.622 307.414 126.03 302.699 125.902C296.485 125.625 290.322 124.648 284.328 122.99C277.959 121.171 271.732 118.887 265.698 116.156C262.821 114.881 259.958 113.557 257.174 112.111L256.171 111.585L256.126 111.561L255.722 111.338C255.067 110.99 254.415 110.596 253.774 110.21C252.524 109.454 251.301 108.652 250.134 107.792C249.482 107.316 248.848 106.819 248.232 106.301L247.766 105.901L247.745 105.88C247.47 105.625 247.198 105.368 246.933 105.106C246.257 104.432 245.619 103.719 245.024 102.971C244.697 102.565 244.386 102.15 244.091 101.727C243.822 101.302 243.561 100.874 243.324 100.439L243.289 100.379C241.931 101.831 240.556 103.269 239.165 104.695C239.707 105.471 240.288 106.219 240.907 106.935C243.282 109.594 246.027 111.898 249.058 113.777L249.277 113.912C254.076 116.813 259.082 119.353 264.256 121.513C275.2 126.621 286.916 129.875 298.927 131.141C310.731 132.418 322.643 130.053 333.064 124.363C333.761 123.947 334.439 123.511 335.098 123.056C338.805 120.634 341.829 117.302 343.884 113.379C345.712 109.795 346.137 105.657 345.076 101.776C344.014 97.8947 341.542 94.5496 338.143 92.3954C335.884 90.99 333.387 90.0101 330.775 89.5041C328.435 89.0435 326.05 88.8461 323.666 88.9154C321.098 88.9869 318.538 89.2267 316.002 89.633C314.87 89.8037 313.745 89.9813 312.623 90.2077M256.227 111.641H256.244H256.227ZM336.324 97.9897L336.37 98.028L336.324 97.9897Z" fill="#F8BA89"/>
<path d="M275.33 10.3228C275.459 10.5039 275.678 10.901 275.33 10.3228V10.3228Z" fill="#F8BA89"/>
<path d="M244.843 13.2942C243.966 14.5099 243.154 15.7604 242.374 17.0319C241.102 19.1053 239.955 21.2526 238.939 23.4623C236.636 28.6055 234.846 33.9634 233.595 39.458C233.087 41.6085 232.638 43.7647 232.247 45.9267C229.779 60.0328 229.815 74.4635 232.355 88.5568C232.72 90.5795 233.139 92.5976 233.613 94.611C234.077 96.5385 234.578 98.4578 235.114 100.369C234.832 100.662 234.55 100.958 234.264 101.25L234.153 101.365C233.722 101.891 233.517 102.567 233.582 103.243C233.647 103.92 233.978 104.544 234.501 104.978C234.594 105.068 234.694 105.151 234.801 105.225C235.444 105.675 236.226 105.883 237.008 105.813C237.79 105.742 238.522 105.399 239.075 104.842C239.106 104.813 239.135 104.783 239.162 104.751C240.555 103.328 241.929 101.889 243.283 100.435C245.967 97.5603 248.58 94.6331 251.121 91.6536C252.66 89.8492 254.186 88.0309 255.673 86.1916C260.728 80.0008 265.452 73.5474 269.827 66.8586C270.974 65.0844 272.084 63.2893 273.157 61.4733C275.983 56.7679 278.403 51.8303 280.392 46.714C280.632 46.08 280.862 45.4391 281.088 44.7947C283.356 38.5779 284.559 32.0229 284.645 25.406C284.645 25.2597 284.645 25.1133 284.645 24.967C284.575 17.7146 283.579 9.00606 276.811 3.7879C273.251 1.23487 268.891 0.0479134 264.528 0.443848C260.347 0.789815 256.348 2.30872 252.991 4.82597C251.838 5.67983 250.744 6.61084 249.717 7.61266C247.928 9.36399 246.296 11.2686 244.84 13.3046M273.752 8.49393L273.512 8.28153C273.599 8.34362 273.68 8.41476 273.752 8.49393ZM259.435 7.63009C259.509 7.58829 259.585 7.54999 259.662 7.51167L259.808 7.43853C260.936 6.91073 262.113 6.49644 263.323 6.20188C264.479 5.98172 265.654 5.87328 266.831 5.87797C267.46 5.91183 268.087 5.98041 268.708 6.08346C269.057 6.14616 269.405 6.22278 269.753 6.30638L269.82 6.32732L270.279 6.48061C270.628 6.60602 270.976 6.74534 271.324 6.89861C271.499 6.97524 271.673 7.05876 271.84 7.14237C272.458 7.50993 273.048 7.92458 273.603 8.38252L273.752 8.51137L273.937 8.70994C274.184 8.96423 274.425 9.22554 274.634 9.49724C274.843 9.76895 275.069 10.0406 275.268 10.3193L275.205 10.2078C275.302 10.3785 275.421 10.5561 275.522 10.7164C276.173 11.8193 276.707 12.9867 277.117 14.1998C277.601 15.8099 277.951 17.4574 278.162 19.1253C278.364 20.658 278.469 22.1942 278.511 23.7235C278.549 26.4599 278.369 29.1949 277.971 31.9025C277.769 33.2773 277.516 34.6451 277.211 36.006C277.128 36.3822 277.03 36.7515 276.94 37.1242C276.863 37.4412 276.793 37.7616 276.71 38.0786C276.626 38.3956 276.532 38.7405 276.442 39.0714L276.285 39.6078C274.593 45.0964 272.34 50.3961 269.562 55.4226C268.865 56.6905 268.155 57.9457 267.43 59.1881C267.068 59.8058 266.698 60.419 266.322 61.0274L266.291 61.0796C266.106 61.3792 265.922 61.6823 265.734 61.9818L265.472 62.3998C265.434 62.4556 265.329 62.6263 265.256 62.7482C265.183 62.8701 265.169 62.891 265.148 62.9189L264.838 63.3996C264.647 63.6957 264.455 63.9918 264.26 64.2879C263.856 64.9045 263.448 65.514 263.037 66.1236C262.215 67.3381 261.378 68.5469 260.526 69.7499C256.81 74.9982 252.879 80.1211 248.731 85.1187C245.877 88.5649 242.93 91.9416 239.89 95.2485C238.348 88.9739 237.311 82.5857 236.79 76.1454C236.619 74.0101 236.515 71.8782 236.442 69.7429C236.242 59.7111 237.348 49.6961 239.73 39.9493C239.775 39.7716 239.81 39.6009 239.855 39.4163C239.991 38.8763 240.13 38.3398 240.273 37.8034C240.357 37.4864 240.444 37.173 240.531 36.856C240.552 36.7759 240.576 36.6992 240.597 36.6191L240.649 36.4379C240.984 35.2768 241.34 34.1319 241.719 33.0033C242.471 30.753 243.318 28.5375 244.283 26.3639C245.246 24.1936 246.337 22.0824 247.55 20.0415C247.717 19.7593 247.898 19.4807 248.062 19.1986L248.236 18.9233L248.184 19.0104L248.212 18.9616C248.456 18.5924 248.707 18.2232 248.957 17.8574L249.226 17.4603C249.922 16.471 250.654 15.5049 251.42 14.5621C252.279 13.5052 253.191 12.4937 254.155 11.5315C254.387 11.2993 254.619 11.0728 254.851 10.8522L255.12 10.6049L255.165 10.5666C255.663 10.1381 256.179 9.72368 256.708 9.33353C257.237 8.94339 257.878 8.50788 258.495 8.13515C258.781 7.96098 259.07 7.7869 259.362 7.63711" fill="#F8BA89"/>
<path d="M248.263 18.9932C247.967 19.4808 248.159 19.1604 248.263 18.9932V18.9932Z" fill="#F8BA89"/>
<path d="M46.3424 169.606C51.7399 166.238 53.3561 141.666 50.1113 127.903C46.8666 114.14 40.6859 107.079 32.234 111.865C24.2219 116.4 28.412 135.86 28.412 135.86C28.412 135.86 13.1898 122.088 5.79547 125.891C-3.25239 130.529 1.21852 143.291 9.09952 151.849C16.5874 159.987 39.7031 173.759 46.3424 169.606Z" fill="#F6C137"/>
<path d="M136.169 254.031C127.057 252.776 118.261 270.378 118.261 270.378C118.261 270.378 114.866 250.618 106.707 249.151C96.7178 247.355 92.303 259.927 93.171 271.267C93.9937 282.054 103.582 306.519 111.365 307.262C117.693 307.868 134.227 289.758 140.227 277.156C146.227 264.554 145.751 255.377 136.162 254.046" fill="#F9D9C2"/>
<path d="M394.838 101.237C399.987 100.338 408.692 82.209 410.395 70.7822C412.099 59.3554 409.521 52.1082 401.606 53.145C394.103 54.1269 391.391 70.1616 391.391 70.1616C391.391 70.1616 383.942 55.0561 377.134 55.6721C368.808 56.4148 368.346 67.4582 371.769 76.3606C375.018 84.8246 388.5 102.35 394.838 101.237Z" fill="#F6C137"/>
<path d="M375.372 264.364C380.243 264.675 392.192 250.236 396.291 240.32C400.39 230.404 399.672 223.31 392.264 222.522C385.239 221.768 379.193 235.612 379.193 235.612C379.193 235.612 375.807 220.391 369.5 219.46C361.78 218.318 358.895 228.164 360.009 236.924C361.067 245.255 369.377 263.967 375.37 264.349" fill="#F25649"/>
</svg>
