<svg width="14" height="16" viewBox="0 0 14 16" fill="none" xmlns="http://www.w3.org/2000/svg">
<path d="M13.3754 13.6576C12.5943 10.6209 9.85616 8.5 6.71685 8.5C3.57754 8.5 0.839415 10.6209 0.0582585 13.6576C-0.0851478 14.2149 0.0398835 14.8192 0.392665 15.2741C0.745321 15.7286 1.29945 16 1.87501 16H11.5587C12.1424 16 12.6825 15.7354 13.0404 15.274C13.3934 14.8189 13.5187 14.2146 13.3754 13.6576ZM12.0527 14.5078C11.9334 14.6617 11.7533 14.75 11.5587 14.75H1.87501C1.68288 14.75 1.49798 14.6595 1.38035 14.5079C1.26098 14.354 1.22035 14.1576 1.26885 13.969C1.90785 11.4849 4.14813 9.75 6.71685 9.75C9.28557 9.75 11.5259 11.4849 12.1649 13.969C12.2125 14.1544 12.1706 14.3558 12.0527 14.5078ZM6.71685 7.5C8.7846 7.5 10.4669 5.81775 10.4669 3.75C10.4669 1.68225 8.7846 0 6.71685 0C4.6491 0 2.96685 1.68225 2.96685 3.75C2.96685 5.81775 4.6491 7.5 6.71685 7.5ZM6.71685 1.25C8.09535 1.25 9.21685 2.3715 9.21685 3.75C9.21685 5.1285 8.09535 6.25 6.71685 6.25C5.33835 6.25 4.21685 5.1285 4.21685 3.75C4.21685 2.3715 5.33832 1.25 6.71685 1.25Z" fill="#F4B512"/>
</svg>
