<svg width="16" height="16" viewBox="0 0 16 16" fill="none" xmlns="http://www.w3.org/2000/svg">
<path d="M14.125 0H1.875C0.841125 0 0 0.841125 0 1.875V14.125C0 15.1589 0.841125 16 1.875 16H14.125C15.1589 16 16 15.1589 16 14.125V1.875C16 0.841125 15.1589 0 14.125 0ZM14.75 14.125C14.75 14.4696 14.4696 14.75 14.125 14.75H10.5625V9.65625H12.4934L12.8125 7.71875H10.5625V6.375C10.5625 5.84453 10.9695 5.4375 11.5 5.4375H12.7812V3.5H11.5C9.90866 3.5 8.62569 4.78906 8.62569 6.38044V7.71875H6.75V9.65625H8.62569V14.75H1.875C1.53038 14.75 1.25 14.4696 1.25 14.125V1.875C1.25 1.53038 1.53038 1.25 1.875 1.25H14.125C14.4696 1.25 14.75 1.53038 14.75 1.875V14.125Z" fill="#F4B512"/>
</svg>
