<svg width="49" height="14" viewBox="0 0 49 14" fill="none" xmlns="http://www.w3.org/2000/svg">
<path d="M24.5149 13.9999C15.346 13.9999 6.93082 9.56625 2.55909 2.42954C2.49699 2.32819 2.45581 2.2158 2.43792 2.09881C2.42002 1.98182 2.42575 1.86251 2.45479 1.7477C2.51342 1.51582 2.66341 1.31632 2.87175 1.1931C3.08009 1.06987 3.32972 1.03301 3.56572 1.09062C3.80172 1.14823 4.00476 1.29559 4.13018 1.50029C8.17229 8.09873 15.9828 12.1981 24.5149 12.1981C33.0471 12.1981 40.8576 8.09918 44.8993 1.50029C45.0247 1.29553 45.2277 1.14811 45.4638 1.09046C45.6998 1.03281 45.9495 1.06965 46.1579 1.19287C46.3663 1.3161 46.5164 1.51562 46.575 1.74754C46.6337 1.97946 46.5962 2.22478 46.4708 2.42954C42.0991 9.56625 33.6861 13.9999 24.5149 13.9999Z" fill="url(#paint0_linear_689_691)"/>
<path d="M0.916234 5.02633C0.777791 5.02623 0.641168 4.99533 0.516615 4.93595C0.392061 4.87657 0.282811 4.79024 0.19706 4.68345C0.111309 4.57666 0.0512834 4.45218 0.0214874 4.31934C-0.0083087 4.18651 -0.00710209 4.04877 0.0250167 3.91645C0.427073 2.28723 2.34246 -0.604573 6.71327 0.112071C6.83378 0.129575 6.94953 0.170498 7.05376 0.232448C7.15798 0.294397 7.2486 0.376133 7.32032 0.472879C7.39204 0.569625 7.44342 0.679443 7.47145 0.795917C7.49949 0.912391 7.50362 1.03319 7.48361 1.15125C7.4636 1.26931 7.41984 1.38227 7.3549 1.48353C7.28996 1.58479 7.20513 1.67232 7.10537 1.74101C7.00561 1.8097 6.89292 1.85816 6.77389 1.88358C6.65485 1.909 6.53185 1.91085 6.41208 1.88904C2.71838 1.28501 1.8886 4.03176 1.80562 4.34662C1.75487 4.54067 1.64001 4.71268 1.47906 4.83569C1.3181 4.9587 1.12015 5.02575 0.916234 5.02633Z" fill="url(#paint1_linear_689_691)"/>
<path d="M48.0815 5.02944C47.877 5.02923 47.6783 4.96181 47.5173 4.83791C47.3562 4.71401 47.2419 4.54074 47.1926 4.34567C47.1092 4.02767 46.2817 1.28496 42.5861 1.889C42.3485 1.92352 42.1065 1.865 41.9122 1.72601C41.718 1.58702 41.5871 1.37868 41.5476 1.1458C41.5081 0.912931 41.5633 0.67414 41.7012 0.480808C41.8391 0.287475 42.0487 0.15505 42.285 0.112025C46.6571 -0.604618 48.5716 2.28718 48.9732 3.91596C49.0305 4.14813 48.9916 4.39317 48.8651 4.59717C48.7385 4.80117 48.5347 4.94742 48.2984 5.00376C48.2274 5.02065 48.1546 5.02926 48.0815 5.02944Z" fill="url(#paint2_linear_689_691)"/>
<defs>
<linearGradient id="paint0_linear_689_691" x1="24.5149" y1="1.06384" x2="24.5149" y2="13.9999" gradientUnits="userSpaceOnUse">
<stop stop-color="#8146F6"/>
<stop offset="0.046875" stop-color="#F6C137"/>
<stop offset="1" stop-color="#F14537"/>
</linearGradient>
<linearGradient id="paint1_linear_689_691" x1="3.74803" y1="0" x2="3.74803" y2="5.02633" gradientUnits="userSpaceOnUse">
<stop stop-color="#8146F6"/>
<stop offset="0.046875" stop-color="#F6C137"/>
<stop offset="1" stop-color="#F14537"/>
</linearGradient>
<linearGradient id="paint2_linear_689_691" x1="45.2671" y1="-4.57764e-05" x2="45.2671" y2="5.02944" gradientUnits="userSpaceOnUse">
<stop stop-color="#8146F6"/>
<stop offset="1" stop-color="#F14537"/>
</linearGradient>
</defs>
</svg>
