<svg width="16" height="16" viewBox="0 0 16 16" fill="none" xmlns="http://www.w3.org/2000/svg">
<g clip-path="url(#clip0_689_704)">
<path d="M11.3523 16H4.64775C2.08497 16 0 13.915 0 11.3523V4.64775C0 2.08497 2.08497 0 4.64775 0H11.3523C13.915 0 16 2.08497 16 4.64775V11.3523C16 13.915 13.915 16 11.3523 16ZM4.64775 1.25C2.77422 1.25 1.25 2.77422 1.25 4.64775V11.3523C1.25 13.2258 2.77422 14.75 4.64775 14.75H11.3523C13.2258 14.75 14.75 13.2258 14.75 11.3523V4.64775C14.75 2.77422 13.2258 1.25 11.3523 1.25H4.64775ZM8 12.3125C5.62206 12.3125 3.6875 10.3779 3.6875 8C3.6875 5.62206 5.62206 3.6875 8 3.6875C10.3779 3.6875 12.3125 5.62206 12.3125 8C12.3125 10.3779 10.3779 12.3125 8 12.3125ZM8 4.9375C6.31134 4.9375 4.9375 6.31134 4.9375 8C4.9375 9.68866 6.31134 11.0625 8 11.0625C9.68866 11.0625 11.0625 9.68866 11.0625 8C11.0625 6.31134 9.68866 4.9375 8 4.9375ZM11.75 3.625C11.75 3.97019 12.0298 4.25 12.375 4.25C12.7202 4.25 13 3.97019 13 3.625C13 3.27981 12.7202 3 12.375 3C12.0298 3 11.75 3.27981 11.75 3.625Z" fill="#F4B512"/>
</g>
<defs>
<clipPath id="clip0_689_704">
<rect width="16" height="16" fill="white"/>
</clipPath>
</defs>
</svg>
