<svg width="16" height="16" viewBox="0 0 16 16" fill="none" xmlns="http://www.w3.org/2000/svg">
<path d="M7.96806 2.37541C7.97878 2.37516 7.98944 2.375 8 2.375C8.01056 2.375 8.02122 2.37516 8.03194 2.37541C11.1189 2.39269 13.625 4.90903 13.625 8C13.625 11.091 11.1189 13.6073 8.03194 13.6246C8.02122 13.6248 8.01056 13.625 8 13.625C7.98944 13.625 7.97878 13.6248 7.96806 13.6246C4.88112 13.6073 2.375 11.091 2.375 8C2.375 4.90903 4.88112 2.39269 7.96806 2.37541ZM3.66984 7.375H5.51397C5.56637 6.20041 5.76587 5.10663 6.089 4.245C6.11784 4.16809 6.14719 4.09434 6.17697 4.02341C4.85347 4.63259 3.88412 5.88344 3.66984 7.375ZM12.3302 8.625H10.486C10.4336 9.79959 10.2341 10.8934 9.911 11.755C9.88216 11.8319 9.85281 11.9057 9.82303 11.9766C11.1465 11.3674 12.1159 10.1166 12.3302 8.625ZM9.911 4.245C10.2341 5.10663 10.4336 6.20038 10.486 7.375H12.3302C12.1158 5.88344 11.1465 4.63259 9.82303 4.02341C9.85284 4.09437 9.88216 4.16812 9.911 4.245ZM7.25937 11.3161C7.58353 12.1805 7.91088 12.375 8 12.375C8.08913 12.375 8.41647 12.1805 8.74062 11.3161C9.01416 10.5867 9.18491 9.64766 9.23453 8.625H6.76547C6.81509 9.64766 6.98584 10.5866 7.25937 11.3161ZM9.23453 7.375C9.18491 6.35234 9.01416 5.41337 8.74062 4.68391C8.41647 3.81953 8.08913 3.625 8 3.625C7.91088 3.625 7.58353 3.81953 7.25937 4.68391C6.98584 5.41334 6.81509 6.35234 6.76547 7.375H9.23453ZM6.17694 11.9766C6.14716 11.9056 6.11781 11.8319 6.08897 11.755C5.76584 10.8934 5.56634 9.79963 5.51394 8.625H3.66981C3.88412 10.1166 4.85347 11.3674 6.17694 11.9766ZM8 0C12.486 0 16 3.51403 16 8C16 9.64556 15.6418 10.988 14.875 12.2067V14.125C14.875 14.4133 15.0059 14.75 15.375 14.75H16V16H14.125V15.9972C13.2892 15.9632 12.5011 15.5903 11.9423 14.9811C10.7403 15.6493 9.38903 16 8 16C3.514 16 0 12.486 0 8C0 3.51403 3.514 0 8 0ZM8 14.75C9.34209 14.75 10.6422 14.3634 11.7597 13.6319L12.3047 13.2752L12.6386 13.8344C12.8822 14.2422 13.2573 14.5332 13.6935 14.6671C13.6488 14.4967 13.625 14.3151 13.625 14.125V11.8334L13.7296 11.6762C14.4258 10.6291 14.75 9.46094 14.75 8C14.75 4.21494 11.785 1.25 8 1.25C4.21497 1.25 1.25 4.21494 1.25 8C1.25 11.7851 4.21497 14.75 8 14.75Z" fill="#F4B512"/>
</svg>
