<svg width="12" height="12" viewBox="0 0 12 12" fill="none" xmlns="http://www.w3.org/2000/svg">
<path d="M7.95616 6.13005H0.391288C0.175296 6.13005 0 5.95475 0 5.73876C0 5.52277 0.175296 5.34747 0.391288 5.34747H7.95616C8.17215 5.34747 8.34744 5.52277 8.34744 5.73876C8.34744 5.95475 8.17215 6.13005 7.95616 6.13005Z" fill="#F4B512"/>
<path d="M5.86873 8.21715C5.76852 8.21715 5.66841 8.17913 5.59217 8.10242C5.43933 7.94958 5.43933 7.70177 5.59217 7.54883L7.40255 5.73855L5.59217 3.92818C5.43933 3.77533 5.43933 3.52743 5.59217 3.37458C5.74512 3.22174 5.99292 3.22174 6.14577 3.37458L8.2326 5.46152C8.38545 5.61436 8.38545 5.86217 8.2326 6.01501L6.14577 8.10185C6.06906 8.17913 5.96894 8.21715 5.86873 8.21715Z" fill="#F4B512"/>
<path d="M6.26125 11.4778C3.88687 11.4778 1.79067 10.0494 0.919922 7.83827C0.840633 7.63795 0.939697 7.41049 1.14059 7.3312C1.34092 7.25296 1.56895 7.3505 1.64824 7.55245C2.40005 9.46141 4.21091 10.6953 6.26125 10.6953C8.99396 10.6953 11.2176 8.47163 11.2176 5.73892C11.2176 3.00621 8.99396 0.782576 6.26125 0.782576C4.21091 0.782576 2.40005 2.01643 1.64824 3.92539C1.56837 4.12734 1.34092 4.22488 1.14059 4.14664C0.939697 4.06735 0.840633 3.83989 0.919922 3.63957C1.79067 1.42845 3.88687 0 6.26125 0C9.42547 0 12.0002 2.5747 12.0002 5.73892C12.0002 8.90314 9.42547 11.4778 6.26125 11.4778Z" fill="#F4B512"/>
</svg>
