<svg width="132" height="75" viewBox="0 0 132 75" fill="none" xmlns="http://www.w3.org/2000/svg">
<path d="M130.074 14.4281C130.061 13.1962 130.072 11.9644 130.07 10.7325C130.07 10.2811 130.07 9.82755 130.07 9.37615H124.82V11.0594C124.884 11.0004 124.948 10.9413 125.014 10.8822C125.498 11.3569 126.321 11.7829 126.402 12.3187C126.604 13.654 126.468 15.0377 126.468 16.4236H120.942V9.38669H115.699V11.1586C116.536 11.2008 117.301 11.4876 117.361 12.4052C117.448 13.7383 117.382 15.0799 117.382 16.4193H111.824V9.40568H106.624C106.492 10.3528 106.269 11.2387 107.599 11.4307C107.839 11.4644 108.182 11.9348 108.194 12.2154C108.256 13.6054 108.222 15.0019 108.222 16.4299H107.414V16.4025H81.9684C82.6337 14.542 83.2925 12.6499 83.9917 10.7704C84.1639 10.3085 84.404 9.85287 84.7016 9.46263C85.9108 7.87005 88.1126 8.15271 88.9776 9.98787C88.6121 10.1693 88.2125 10.3064 87.8895 10.5447C87.1265 11.1016 86.829 12.1837 87.1329 13.0739C87.4623 14.0358 88.2486 14.6201 89.256 14.6496C90.2825 14.6791 91.0986 14.1813 91.4132 13.1604C92.0678 11.0404 91.2495 9.23693 89.7895 7.80677C88.8522 6.88919 87.6429 6.13193 86.4209 5.63412C83.8514 4.58787 81.1523 4.61318 78.5255 5.4738C74.1177 6.91451 72.5195 11.1923 74.8105 15.2297C75.023 15.603 75.2526 15.9658 75.5331 16.4299H70.0371V16.4025H49.7386V0.594818H44.5189C44.4956 0.89224 44.4807 1.09263 44.4637 1.29302C44.4148 1.93427 44.3978 2.44474 45.3053 2.60716C45.6708 2.67255 46.0449 3.37287 46.1788 3.84958C46.3339 4.3938 46.2319 5.01185 46.2319 5.59826C46.2319 8.64841 46.2319 11.6986 46.2277 14.7487C46.2277 15.4997 46.0768 16.2358 45.2096 16.3751C44.5338 16.4826 44.4488 16.7969 44.4509 17.3728C44.4722 21.214 44.4616 25.0551 44.4637 28.8984C44.4637 29.179 44.4871 29.4574 44.4998 29.7063H66.4412H70.035H103.821H107.414H131.774V16.5797C130.285 16.181 130.089 15.9363 130.074 14.4281Z" fill="#F4B512"/>
<path d="M40.593 16.4636C39.6409 16.3054 39.3455 15.6958 39.32 14.8373C39.2902 13.7847 39.3179 12.7216 39.1861 11.6796C38.6845 7.70129 36.1937 5.26285 32.1791 4.87683C29.6882 4.63637 27.344 5.12363 25.4122 6.83433C24.2879 7.82996 24.0414 9.32551 24.73 10.4118C25.1848 11.1311 26.0625 11.4982 26.9551 11.3568C27.682 11.2408 28.1283 10.8042 28.3004 10.1271C28.5214 9.26644 28.1219 8.65894 27.3951 8.21808C27.361 8.19699 27.3632 8.11472 27.3079 7.90801C28.1984 7.64433 29.0783 7.29418 29.99 7.12965C32.3873 6.69722 34.4425 7.78144 35.3096 9.92668C36.1639 12.0339 35.7453 14.2382 35.8558 16.4847C35.4073 16.4847 35.1183 16.4847 34.8271 16.4847C31.7582 16.4847 28.6872 16.4868 25.6183 16.4826C23.8437 16.4805 23.6269 16.2886 23.3443 14.5272C23.3358 14.4787 23.2784 14.4386 23.2338 14.3817C22.6939 14.3817 22.1477 14.3817 21.3848 14.3817C21.5017 17.5921 21.3911 20.7689 21.7907 23.8844C22.2136 27.1919 24.5876 29.3878 27.9519 29.5628C32.2726 29.7886 36.6124 29.6177 41.084 29.6177C41.084 25.4179 41.0903 21.1739 41.0627 16.9319C41.0627 16.7674 40.7779 16.4953 40.593 16.4636Z" fill="#F4B512"/>
<path d="M3.57099 12.5086C2.04504 14.9196 1.53498 17.5985 1.46484 20.9756C1.54985 21.6253 1.63062 22.8593 1.8814 24.0574C2.82502 28.5504 6.00231 30.8116 10.6205 30.4172C13.53 30.1683 15.8785 28.9828 16.9687 26.2322C18.8347 21.524 18.6073 16.8201 15.9167 12.4706C12.7246 7.30897 6.81417 7.38702 3.57099 12.5086ZM9.81506 17.1576C8.18922 17.1661 7.30298 16.3202 7.30723 14.7635C7.31148 13.0781 8.44 11.6205 9.75555 11.6037C11.1094 11.5868 12.2676 13.0676 12.257 14.7994C12.2464 16.335 11.4026 17.1492 9.81506 17.1576Z" fill="#F4B512"/>
<path d="M6.36552 5.7206C4.80132 5.71849 3.64517 4.53935 3.6643 2.96786C3.6813 1.43857 4.8332 0.31638 6.37828 0.320599C7.89997 0.324818 9.08588 1.48286 9.10501 2.98052C9.12626 4.49505 7.89785 5.72271 6.36552 5.7206Z" fill="#F4B512"/>
<path d="M13.0774 5.7206C11.5281 5.70373 10.3592 4.49295 10.3953 2.93834C10.4315 1.4217 11.611 0.299511 13.1476 0.320605C14.6587 0.339589 15.8616 1.52928 15.8658 3.00795C15.8701 4.50982 14.6076 5.73748 13.0774 5.7206Z" fill="#F4B512"/>
<path d="M6.32703 48.4418C6.24627 49.1526 6.072 49.8677 6.10813 50.5722C6.15063 51.4202 6.70321 51.9518 7.56182 52.11C7.87848 52.169 8.20578 52.2049 8.52882 52.2049C13.638 52.2112 18.7472 52.2091 23.8563 52.207C24.0285 52.207 24.2027 52.1817 24.4408 52.1627C24.4408 50.7726 24.5109 49.4058 24.4153 48.0515C24.3579 47.2289 23.6629 46.9167 22.8064 46.9104C22.8064 46.3008 22.8064 45.7312 22.8064 45.0963C24.4982 45.0963 26.1963 45.0963 28.0495 45.0963C28.0495 45.7924 28.0495 46.5117 28.0495 47.2289C28.0495 48.3131 28.0367 49.3994 28.058 50.4837C28.0814 51.7071 28.4661 52.1226 29.6966 52.188C30.6062 52.2365 31.5201 52.2091 32.4339 52.2091C38.7545 52.2091 45.0751 52.2091 51.3957 52.2091C51.5976 52.2091 51.7995 52.1859 51.9886 52.1733C52.2883 50.6988 51.4063 49.1864 49.8888 48.7497C49.0239 48.5008 48.0909 48.3869 47.1876 48.3806C42.4334 48.3447 37.677 48.3637 32.9228 48.3637C32.6018 48.3637 32.283 48.3637 31.9047 48.3637C31.9047 47.3681 31.9047 46.4442 31.9047 45.4528C34.0109 45.3874 35.0225 43.9826 35.9917 42.3858C36.9268 40.8438 37.9193 39.2723 39.1796 37.9983C41.4834 35.6737 45.4534 35.8383 47.3045 38.167C48.3501 39.4812 48.6137 41.0463 48.3863 42.6621C48.2163 43.8644 47.2429 44.6196 46.1101 44.6069C44.9688 44.5943 44.0635 43.8433 43.8573 42.7401C43.6469 41.6158 44.2845 40.578 45.4619 40.1308C45.5915 40.0823 45.7212 40.0296 45.8551 39.979C45.0836 38.5129 43.105 37.8886 41.5578 38.8104C40.6078 39.3757 39.7747 40.2426 39.0967 41.1307C38.0893 42.4512 37.2626 43.9087 36.3189 45.3726C36.5974 45.3853 36.9034 45.4106 37.2073 45.4106C40.6928 45.4127 44.1782 45.3726 47.6616 45.4338C48.8581 45.4549 50.0801 45.611 51.2384 45.9021C53.7717 46.5412 55.1446 48.2815 55.5548 50.8064C55.625 51.2388 55.6696 51.6733 55.7334 52.1564C62.7425 52.1564 69.7283 52.1564 76.8841 52.1564C74.7822 50.3972 74.1744 47.8174 72.7462 45.7312C71.6177 44.0859 70.1066 43.2654 68.0748 43.4974C67.059 43.6134 66.4554 43.9931 65.8454 44.9655C66.0622 45.0478 66.2684 45.1237 66.4745 45.2039C67.4734 45.5941 68.0876 46.634 67.9303 47.6613C67.7709 48.6949 66.8868 49.5176 65.8306 49.6167C64.7615 49.7179 63.9029 49.1505 63.5182 48.0874C62.836 46.2058 63.8179 43.0228 65.4884 41.6981C67.2715 40.2848 70.1916 40.1498 72.1575 41.3775C73.5496 42.2465 74.5081 43.5037 75.3093 44.8854C76.1934 46.4083 76.9925 47.9777 77.8894 49.4922C78.731 50.914 79.7362 52.1796 81.666 52.2302C81.666 56.6367 81.666 60.9862 81.666 65.4602C81.2728 65.4602 80.9009 65.4602 80.5311 65.4602C57.051 65.4602 33.571 65.3906 10.093 65.5087C3.93822 65.5404 1.26037 61.6296 0.858692 57.1851C0.544151 53.7047 1.25399 50.4626 3.52379 47.6993C4.81383 46.1278 6.48855 45.2165 8.59258 45.2461C9.93363 45.2651 10.8772 45.997 11.0898 47.1635C11.2747 48.1802 10.7306 49.2011 9.78698 49.6104C8.67334 50.0934 7.57244 49.7327 6.79672 48.6358C6.74996 48.5683 6.68408 48.5135 6.62669 48.4544C6.52043 48.4523 6.42267 48.446 6.32703 48.4418Z" fill="#F4B512"/>
<path d="M126.45 52.1501C126.45 50.7453 126.495 49.3763 126.416 48.0157C126.397 47.6909 125.985 47.1446 125.715 47.1192C124.561 47.0159 124.761 46.2417 124.773 45.533C124.775 45.417 124.801 45.3031 124.824 45.1111C126.52 45.1111 128.214 45.1111 130.076 45.1111C130.076 45.5393 130.076 45.9907 130.076 46.4442C130.076 47.6761 130.067 48.9059 130.078 50.1378C130.091 51.6797 130.24 51.8674 131.774 52.2851C131.774 56.641 131.774 61.0158 131.774 65.4581C127.392 65.4581 123.056 65.4581 118.693 65.4581C118.48 66.5719 118.332 67.6392 118.068 68.6792C117.56 70.6915 116.661 72.4887 114.823 73.6404C111.83 75.5156 107.837 74.0813 106.456 70.6029C106.126 69.7739 105.907 68.8458 105.89 67.9578C105.824 64.5596 105.858 61.1571 105.858 57.7568C105.858 57.6176 105.89 57.4763 105.912 57.2928C106.524 57.2928 107.102 57.2928 107.476 57.2928C108.03 58.2863 108.385 59.2861 109.04 60.0202C110.823 62.022 113.605 61.5136 114.591 59.0351C114.889 58.2905 115.037 57.4467 115.054 56.6431C115.112 54.0359 115.071 51.4245 115.084 48.8173C115.088 47.8385 114.853 47.0771 113.705 46.9125C113.556 46.8914 113.354 46.6193 113.333 46.4421C113.278 46.016 113.316 45.5794 113.316 45.0921C115.108 45.0921 116.804 45.0921 118.625 45.0921C118.625 46.1384 118.625 47.153 118.625 48.1676C118.625 49.2518 118.642 50.3381 118.619 51.4224C118.608 51.9033 118.799 52.148 119.273 52.148C121.658 52.1522 124.038 52.1501 126.45 52.1501Z" fill="#F4B512"/>
<path d="M85.1068 55.5019C85.5213 55.5019 85.7891 55.5314 86.0462 55.4955C86.7199 55.4048 86.9771 55.6516 87.1705 56.3393C87.7996 58.5773 89.5104 59.6763 91.6633 60.2458C94.7492 61.0622 97.7714 59.5413 98.7107 56.6768C98.7979 56.4131 98.834 56.1326 98.7171 55.755C98.5683 55.8984 98.3728 56.0144 98.2772 56.1853C95.9649 60.3471 89.7017 59.073 87.8846 55.1791C86.1142 51.3886 87.1556 46.3218 90.2734 43.9699C91.7207 42.8772 93.3975 42.4596 95.1722 42.4279C97.5843 42.3858 99.9987 42.4174 102.468 42.4174C102.487 42.7865 102.513 43.0713 102.513 43.3561C102.515 48.9565 102.519 54.5547 102.511 60.1551C102.506 62.7771 102.271 65.3695 101.267 67.829C99.7713 71.4972 96.832 73.2776 92.9767 72.8915C88.8537 72.4781 85.974 70.0165 85.3364 66.1479C85.0771 64.5722 85.143 62.9374 85.1153 61.3279C85.0813 59.4316 85.1068 57.5332 85.1068 55.5019ZM98.9679 45.3916C97.697 45.3916 96.5685 45.2967 95.4633 45.4169C94.1393 45.5583 93.1553 46.2649 92.7727 47.6149C92.4475 48.7666 92.5092 49.9352 93.1021 50.9393C93.4571 51.5404 94.1138 52.11 94.7641 52.3673C96.1689 52.9221 97.4547 52.2133 98.7086 51.6311C98.834 51.5742 98.9551 51.359 98.9573 51.2156C98.9721 49.2897 98.9679 47.3639 98.9679 45.3916Z" fill="#F4B512"/>
<path d="M19.436 36.701C20.981 36.6799 22.2073 37.8759 22.2073 39.4052C22.2073 40.9134 21.0469 42.0651 19.5125 42.0778C17.961 42.0926 16.7879 40.9915 16.7454 39.4791C16.7007 37.9455 17.8866 36.7221 19.436 36.701Z" fill="#F4B512"/>
<path d="M12.7097 42.0799C11.1752 42.0693 9.99995 40.9218 9.98933 39.4242C9.9787 37.9075 11.2114 36.6925 12.7501 36.6988C14.2824 36.7073 15.5087 37.9518 15.4725 39.4621C15.4343 40.964 14.2484 42.0883 12.7097 42.0799Z" fill="#F4B512"/>
<path d="M130.01 70.2337C130.029 71.7504 128.798 72.9844 127.272 72.9823C125.766 72.978 124.569 71.8073 124.541 70.3097C124.514 68.7909 125.742 67.5612 127.283 67.5633C128.773 67.5675 129.991 68.7593 130.01 70.2337Z" fill="#F4B512"/>
<path d="M71.2076 67.5654C72.7293 67.559 73.9683 68.7804 73.9641 70.2822C73.9598 71.7504 72.7633 72.9527 71.2777 72.9822C69.7603 73.0139 68.4979 71.8073 68.4787 70.3075C68.4596 68.8036 69.6859 67.5717 71.2076 67.5654Z" fill="#F4B512"/>
</svg>
