<svg width="14" height="12" viewBox="0 0 14 12" fill="none" xmlns="http://www.w3.org/2000/svg">
<g clip-path="url(#clip0_689_1099)">
<path d="M13.85 6.14999H10.15C10.0672 6.14999 10 6.08279 10 5.99999C10 5.91719 10.0672 5.84999 10.15 5.84999H13.85C13.9328 5.84999 14 5.91719 14 5.99999C14 6.08279 13.9328 6.14999 13.85 6.14999Z" fill="#F4B512"/>
<path d="M11.9996 8.00001C11.9168 8.00001 11.8496 7.93281 11.8496 7.85001V4.15C11.8496 4.0672 11.9168 4 11.9996 4C12.0824 4 12.1496 4.0672 12.1496 4.15V7.85001C12.1496 7.93281 12.0824 8.00001 11.9996 8.00001Z" fill="#F4B512"/>
</g>
<path d="M10.0316 10.2432C9.44572 7.96566 7.39212 6.375 5.03764 6.375C2.68315 6.375 0.629561 7.96566 0.0436939 10.2432C-0.0638608 10.6612 0.0299126 11.1144 0.294499 11.4555C0.558991 11.7965 0.974585 12 1.40626 12H8.669C9.10681 12 9.51186 11.8015 9.78026 11.4555C10.0451 11.1142 10.139 10.661 10.0316 10.2432ZM9.03954 10.8809C8.95001 10.9963 8.81494 11.0625 8.669 11.0625H1.40626C1.26216 11.0625 1.12348 10.9946 1.03526 10.8809C0.945733 10.7655 0.915264 10.6182 0.951639 10.4767C1.43089 8.61368 3.1111 7.3125 5.03764 7.3125C6.96418 7.3125 8.64441 8.61368 9.12364 10.4767C9.1594 10.6158 9.12797 10.7669 9.03954 10.8809ZM5.03764 5.625C6.58845 5.625 7.85014 4.36331 7.85014 2.8125C7.85014 1.26169 6.58845 0 5.03764 0C3.48683 0 2.22514 1.26169 2.22514 2.8125C2.22514 4.36331 3.48683 5.625 5.03764 5.625ZM5.03764 0.9375C6.07151 0.9375 6.91264 1.77863 6.91264 2.8125C6.91264 3.84638 6.07151 4.6875 5.03764 4.6875C4.00376 4.6875 3.16264 3.84638 3.16264 2.8125C3.16264 1.77863 4.00374 0.9375 5.03764 0.9375Z" fill="#F4B512"/>
<defs>
<clipPath id="clip0_689_1099">
<rect width="4" height="4" fill="white" transform="translate(10 4)"/>
</clipPath>
</defs>
</svg>
