<svg width="15" height="16" viewBox="0 0 15 16" fill="none" xmlns="http://www.w3.org/2000/svg">
<path d="M12.7324 10.1187V7.07869C12.7324 4.82063 11.2873 2.85162 9.2976 2.11614C9.32083 2 9.33371 1.88131 9.33371 1.76258C9.33376 0.789691 8.54407 0 7.57117 0C6.59828 0 5.80859 0.789691 5.80859 1.76258C5.80859 1.87873 5.82148 1.99483 5.84212 2.1058C5.15827 2.34839 4.52601 2.73289 3.98666 3.25418C2.9699 4.23483 2.40991 5.55353 2.40991 6.96772V10.1187C2.40991 10.2297 2.31958 10.3226 2.20602 10.3226C1.25377 10.3226 0.440851 11.04 0.353108 11.9535C0.304064 12.4619 0.471837 12.9677 0.815054 13.3445C1.15568 13.7187 1.64345 13.9355 2.15181 13.9355H5.26407C5.3931 15.0942 6.37892 16 7.57117 16C8.76342 16 9.74925 15.0942 9.87828 13.9355H12.9905C13.4989 13.9355 13.9867 13.7187 14.3273 13.3445C14.6679 12.9677 14.8357 12.4619 14.7892 11.9535C14.7015 11.04 13.886 10.3226 12.9363 10.3226C12.8228 10.3225 12.7324 10.2322 12.7324 10.1187ZM7.57117 1.03224C7.97373 1.03224 8.30148 1.35998 8.30148 1.76254C8.30148 1.79607 8.29631 1.82706 8.29114 1.86058C8.11565 1.83477 7.93758 1.81671 7.7595 1.81154C7.4524 1.8012 7.15047 1.82188 6.85113 1.86317C6.84595 1.82964 6.84078 1.79866 6.84078 1.76513C6.84087 1.35998 7.16861 1.03224 7.57117 1.03224ZM7.57117 14.9677C6.94925 14.9677 6.42797 14.5238 6.30665 13.9354H8.83565C8.71443 14.5238 8.19314 14.9677 7.57117 14.9677ZM13.7621 12.0516C13.7828 12.2735 13.7131 12.4877 13.566 12.6503C13.4137 12.8129 13.2124 12.9032 12.9905 12.9032H2.15185C1.9299 12.9032 1.72865 12.8128 1.57893 12.6503C1.42926 12.4877 1.35957 12.2735 1.38021 12.0516C1.41633 11.6619 1.78023 11.3548 2.20602 11.3548C2.88733 11.3548 3.44214 10.8 3.44214 10.1187V6.96772C3.44214 5.8374 3.89116 4.78193 4.70408 3.99741C5.48084 3.24647 6.49248 2.83869 7.57117 2.83869C7.6228 2.83869 7.6718 2.83869 7.72343 2.84128C9.91439 2.91868 11.7002 4.82063 11.7002 7.07869V10.1187C11.7002 10.8 12.255 11.3548 12.9363 11.3548C13.3621 11.3548 13.7234 11.6619 13.7621 12.0516Z" fill="#F4B512"/>
</svg>
