<svg width="132" height="108" viewBox="0 0 132 108" fill="none" xmlns="http://www.w3.org/2000/svg">
<g clip-path="url(#clip0_355_692)">
<path d="M130.074 14.4281C130.061 13.1962 130.072 11.9644 130.07 10.7325C130.07 10.2811 130.07 9.82755 130.07 9.37615H124.82V11.0594C124.884 11.0004 124.948 10.9413 125.014 10.8822C125.498 11.3569 126.321 11.7829 126.402 12.3187C126.604 13.654 126.468 15.0377 126.468 16.4236H120.942V9.38669H115.699V11.1586C116.536 11.2008 117.301 11.4876 117.361 12.4052C117.448 13.7383 117.382 15.0799 117.382 16.4193H111.824V9.40568H106.624C106.492 10.3528 106.269 11.2387 107.599 11.4307C107.839 11.4644 108.182 11.9348 108.194 12.2154C108.256 13.6054 108.222 15.0019 108.222 16.4299H107.414V16.4025H81.9684C82.6337 14.542 83.2925 12.6499 83.9917 10.7704C84.1639 10.3085 84.404 9.85287 84.7016 9.46263C85.9108 7.87005 88.1126 8.15271 88.9776 9.98787C88.6121 10.1693 88.2125 10.3064 87.8895 10.5447C87.1265 11.1016 86.829 12.1837 87.1329 13.0739C87.4623 14.0358 88.2486 14.6201 89.256 14.6496C90.2825 14.6791 91.0986 14.1813 91.4132 13.1604C92.0678 11.0404 91.2495 9.23693 89.7895 7.80677C88.8522 6.88919 87.6429 6.13193 86.4209 5.63412C83.8514 4.58787 81.1523 4.61318 78.5255 5.4738C74.1177 6.91451 72.5195 11.1923 74.8105 15.2297C75.023 15.603 75.2526 15.9658 75.5331 16.4299H70.0371V16.4025H49.7386V0.594818H44.5189C44.4956 0.89224 44.4807 1.09263 44.4637 1.29302C44.4148 1.93427 44.3978 2.44474 45.3053 2.60716C45.6708 2.67255 46.0449 3.37287 46.1788 3.84958C46.3339 4.3938 46.2319 5.01185 46.2319 5.59826C46.2319 8.64841 46.2319 11.6986 46.2277 14.7487C46.2277 15.4997 46.0768 16.2358 45.2096 16.3751C44.5338 16.4826 44.4488 16.7969 44.4509 17.3728C44.4722 21.214 44.4616 25.0551 44.4637 28.8984C44.4637 29.179 44.4871 29.4574 44.4998 29.7063H66.4412H70.035H103.821H107.414H131.774V16.5797C130.285 16.181 130.089 15.9363 130.074 14.4281Z" fill="#F4B512"/>
<path d="M40.593 16.4636C39.6409 16.3054 39.3455 15.6958 39.32 14.8373C39.2902 13.7847 39.3179 12.7216 39.1861 11.6796C38.6845 7.70129 36.1937 5.26285 32.1791 4.87683C29.6882 4.63637 27.344 5.12363 25.4122 6.83433C24.2879 7.82996 24.0414 9.32551 24.73 10.4118C25.1848 11.1311 26.0625 11.4982 26.9551 11.3568C27.682 11.2408 28.1283 10.8042 28.3004 10.1271C28.5214 9.26644 28.1219 8.65894 27.3951 8.21808C27.361 8.19699 27.3632 8.11472 27.3079 7.90801C28.1984 7.64433 29.0783 7.29418 29.99 7.12965C32.3873 6.69722 34.4425 7.78144 35.3096 9.92668C36.1639 12.0339 35.7453 14.2382 35.8558 16.4847C35.4073 16.4847 35.1183 16.4847 34.8271 16.4847C31.7582 16.4847 28.6872 16.4868 25.6183 16.4826C23.8437 16.4805 23.6269 16.2886 23.3443 14.5272C23.3358 14.4787 23.2784 14.4386 23.2338 14.3817C22.6939 14.3817 22.1477 14.3817 21.3848 14.3817C21.5017 17.5921 21.3911 20.7689 21.7907 23.8844C22.2136 27.1919 24.5876 29.3878 27.9519 29.5628C32.2726 29.7886 36.6124 29.6177 41.084 29.6177C41.084 25.4179 41.0903 21.1739 41.0627 16.9319C41.0627 16.7674 40.7779 16.4953 40.593 16.4636Z" fill="#F4B512"/>
<path d="M3.57099 12.5086C2.04504 14.9196 1.53498 17.5985 1.46484 20.9756C1.54985 21.6253 1.63062 22.8593 1.8814 24.0574C2.82502 28.5504 6.00231 30.8116 10.6205 30.4172C13.53 30.1683 15.8785 28.9828 16.9687 26.2322C18.8347 21.524 18.6073 16.8201 15.9167 12.4706C12.7246 7.30897 6.81417 7.38702 3.57099 12.5086ZM9.81506 17.1576C8.18922 17.1661 7.30298 16.3202 7.30723 14.7635C7.31148 13.0781 8.44 11.6205 9.75555 11.6037C11.1094 11.5868 12.2676 13.0676 12.257 14.7994C12.2464 16.335 11.4026 17.1492 9.81506 17.1576Z" fill="#F4B512"/>
<path d="M6.36552 5.7206C4.80132 5.71849 3.64517 4.53935 3.6643 2.96786C3.6813 1.43857 4.8332 0.31638 6.37828 0.320599C7.89998 0.324818 9.08588 1.48286 9.10501 2.98052C9.12626 4.49505 7.89785 5.72271 6.36552 5.7206Z" fill="#F4B512"/>
<path d="M13.0774 5.7206C11.5281 5.70373 10.3592 4.49295 10.3953 2.93834C10.4315 1.4217 11.611 0.299511 13.1476 0.320605C14.6587 0.339589 15.8616 1.52928 15.8658 3.00795C15.8701 4.50982 14.6076 5.73748 13.0774 5.7206Z" fill="#F4B512"/>
<path d="M6.32703 48.4418C6.24627 49.1526 6.072 49.8677 6.10813 50.5722C6.15063 51.4202 6.7032 51.9518 7.56182 52.11C7.87848 52.169 8.20578 52.2049 8.52882 52.2049C13.638 52.2112 18.7472 52.2091 23.8563 52.207C24.0285 52.207 24.2027 52.1817 24.4408 52.1627C24.4408 50.7726 24.5109 49.4058 24.4153 48.0515C24.3579 47.2289 23.6629 46.9167 22.8064 46.9104C22.8064 46.3008 22.8064 45.7312 22.8064 45.0963C24.4982 45.0963 26.1963 45.0963 28.0495 45.0963C28.0495 45.7924 28.0495 46.5117 28.0495 47.2289C28.0495 48.3131 28.0367 49.3994 28.058 50.4837C28.0814 51.7071 28.4661 52.1226 29.6966 52.188C30.6062 52.2365 31.5201 52.2091 32.4339 52.2091C38.7545 52.2091 45.0751 52.2091 51.3957 52.2091C51.5976 52.2091 51.7995 52.1859 51.9886 52.1733C52.2883 50.6988 51.4063 49.1864 49.8888 48.7497C49.0239 48.5008 48.0909 48.3869 47.1876 48.3806C42.4334 48.3447 37.677 48.3637 32.9228 48.3637C32.6018 48.3637 32.283 48.3637 31.9047 48.3637C31.9047 47.3681 31.9047 46.4442 31.9047 45.4528C34.0109 45.3874 35.0225 43.9826 35.9917 42.3858C36.9268 40.8438 37.9193 39.2723 39.1796 37.9983C41.4834 35.6737 45.4534 35.8383 47.3045 38.167C48.3501 39.4812 48.6137 41.0463 48.3863 42.6621C48.2163 43.8644 47.2429 44.6196 46.1101 44.6069C44.9688 44.5943 44.0635 43.8433 43.8573 42.7401C43.6469 41.6158 44.2845 40.578 45.4619 40.1308C45.5915 40.0823 45.7212 40.0296 45.8551 39.979C45.0836 38.5129 43.105 37.8886 41.5578 38.8104C40.6078 39.3757 39.7747 40.2426 39.0967 41.1307C38.0893 42.4512 37.2626 43.9087 36.3189 45.3726C36.5974 45.3853 36.9034 45.4106 37.2073 45.4106C40.6928 45.4127 44.1782 45.3726 47.6616 45.4338C48.8581 45.4549 50.0801 45.611 51.2384 45.9021C53.7717 46.5412 55.1446 48.2815 55.5548 50.8064C55.625 51.2388 55.6696 51.6733 55.7334 52.1564C62.7425 52.1564 69.7283 52.1564 76.8841 52.1564C74.7822 50.3972 74.1744 47.8174 72.7462 45.7312C71.6177 44.0859 70.1066 43.2654 68.0748 43.4974C67.059 43.6134 66.4554 43.9931 65.8454 44.9655C66.0622 45.0478 66.2684 45.1237 66.4745 45.2039C67.4734 45.5941 68.0876 46.634 67.9303 47.6613C67.7709 48.6949 66.8868 49.5176 65.8305 49.6167C64.7615 49.7179 63.9029 49.1505 63.5182 48.0874C62.836 46.2058 63.8179 43.0228 65.4884 41.6981C67.2715 40.2848 70.1916 40.1498 72.1575 41.3775C73.5496 42.2465 74.5081 43.5037 75.3093 44.8854C76.1934 46.4083 76.9925 47.9777 77.8894 49.4922C78.731 50.914 79.7362 52.1796 81.666 52.2302C81.666 56.6367 81.666 60.9862 81.666 65.4602C81.2728 65.4602 80.9009 65.4602 80.5311 65.4602C57.051 65.4602 33.571 65.3906 10.093 65.5087C3.93822 65.5404 1.26037 61.6296 0.858692 57.1851C0.544151 53.7047 1.25399 50.4626 3.52379 47.6993C4.81383 46.1278 6.48855 45.2165 8.59258 45.2461C9.93363 45.2651 10.8773 45.997 11.0898 47.1635C11.2747 48.1802 10.7306 49.2011 9.78698 49.6104C8.67334 50.0934 7.57244 49.7327 6.79672 48.6358C6.74996 48.5683 6.68408 48.5135 6.62669 48.4544C6.52043 48.4523 6.42267 48.446 6.32703 48.4418Z" fill="#F4B512"/>
<path d="M126.45 52.1501C126.45 50.7453 126.495 49.3763 126.416 48.0157C126.397 47.6909 125.985 47.1446 125.715 47.1192C124.561 47.0159 124.761 46.2417 124.773 45.533C124.775 45.417 124.801 45.3031 124.824 45.1111C126.52 45.1111 128.214 45.1111 130.076 45.1111C130.076 45.5393 130.076 45.9907 130.076 46.4442C130.076 47.6761 130.067 48.9059 130.078 50.1378C130.091 51.6797 130.24 51.8674 131.774 52.2851C131.774 56.641 131.774 61.0158 131.774 65.4581C127.392 65.4581 123.056 65.4581 118.693 65.4581C118.48 66.5719 118.332 67.6392 118.068 68.6792C117.56 70.6915 116.661 72.4887 114.823 73.6404C111.83 75.5156 107.837 74.0813 106.456 70.6029C106.126 69.7739 105.907 68.8458 105.89 67.9578C105.824 64.5596 105.858 61.1571 105.858 57.7568C105.858 57.6176 105.89 57.4763 105.912 57.2928C106.524 57.2928 107.102 57.2928 107.476 57.2928C108.03 58.2863 108.385 59.2861 109.04 60.0202C110.823 62.022 113.605 61.5136 114.591 59.0351C114.889 58.2905 115.037 57.4467 115.054 56.6431C115.112 54.0359 115.071 51.4245 115.084 48.8173C115.088 47.8385 114.853 47.0771 113.705 46.9125C113.556 46.8914 113.354 46.6193 113.333 46.4421C113.278 46.016 113.316 45.5794 113.316 45.0921C115.108 45.0921 116.804 45.0921 118.625 45.0921C118.625 46.1384 118.625 47.153 118.625 48.1676C118.625 49.2518 118.642 50.3381 118.619 51.4224C118.608 51.9033 118.799 52.148 119.273 52.148C121.658 52.1522 124.038 52.1501 126.45 52.1501Z" fill="#F4B512"/>
<path d="M85.1068 55.5018C85.5213 55.5018 85.7891 55.5314 86.0462 55.4955C86.7199 55.4048 86.9771 55.6516 87.1705 56.3393C87.7996 58.5773 89.5104 59.6763 91.6633 60.2458C94.7492 61.0622 97.7714 59.5413 98.7107 56.6768C98.7979 56.4131 98.834 56.1326 98.7171 55.755C98.5683 55.8984 98.3728 56.0144 98.2772 56.1853C95.9649 60.3471 89.7017 59.073 87.8846 55.1791C86.1142 51.3886 87.1556 46.3218 90.2734 43.9699C91.7207 42.8772 93.3975 42.4596 95.1722 42.4279C97.5843 42.3858 99.9987 42.4174 102.468 42.4174C102.487 42.7865 102.513 43.0713 102.513 43.3561C102.515 48.9565 102.519 54.5547 102.511 60.1551C102.506 62.7771 102.271 65.3695 101.267 67.829C99.7713 71.4972 96.832 73.2776 92.9767 72.8915C88.8537 72.4781 85.974 70.0165 85.3364 66.1479C85.0771 64.5722 85.143 62.9374 85.1153 61.3279C85.0813 59.4316 85.1068 57.5332 85.1068 55.5018ZM98.9679 45.3916C97.697 45.3916 96.5685 45.2967 95.4633 45.4169C94.1393 45.5583 93.1553 46.2649 92.7727 47.6149C92.4475 48.7666 92.5092 49.9352 93.1021 50.9393C93.4571 51.5404 94.1138 52.11 94.7641 52.3673C96.1689 52.9221 97.4547 52.2133 98.7086 51.6311C98.834 51.5742 98.9551 51.359 98.9573 51.2156C98.9721 49.2897 98.9679 47.3639 98.9679 45.3916Z" fill="#F4B512"/>
<path d="M19.436 36.701C20.981 36.6799 22.2073 37.8759 22.2073 39.4052C22.2073 40.9134 21.0469 42.0651 19.5125 42.0778C17.961 42.0926 16.7879 40.9915 16.7454 39.4791C16.7007 37.9455 17.8866 36.7221 19.436 36.701Z" fill="#F4B512"/>
<path d="M12.7097 42.0799C11.1752 42.0693 9.99995 40.9218 9.98933 39.4242C9.9787 37.9075 11.2114 36.6925 12.7501 36.6988C14.2824 36.7073 15.5087 37.9518 15.4725 39.4621C15.4343 40.964 14.2484 42.0883 12.7097 42.0799Z" fill="#F4B512"/>
<path d="M130.01 70.2337C130.029 71.7504 128.798 72.9844 127.272 72.9823C125.766 72.978 124.569 71.8073 124.541 70.3097C124.514 68.7909 125.742 67.5612 127.283 67.5633C128.773 67.5675 129.991 68.7593 130.01 70.2337Z" fill="#F4B512"/>
<path d="M71.2076 67.5654C72.7293 67.559 73.9683 68.7804 73.9641 70.2822C73.9598 71.7504 72.7633 72.9527 71.2777 72.9822C69.7603 73.0139 68.4979 71.8073 68.4787 70.3076C68.4596 68.8036 69.6859 67.5717 71.2076 67.5654Z" fill="#F4B512"/>
<path d="M19.7923 76.9795L20.347 78.0911L17.8541 79.3167L18.5427 80.6983L17.7882 81.0696L16.5449 78.5763L19.7923 76.9795Z" fill="#F4B512"/>
<path d="M21.1998 79.7639L22.7555 82.3373L22.0392 82.7634L21.1211 81.2426L20.6259 81.5379L21.3677 82.7656L20.7152 83.1537L19.9735 81.926L19.4485 82.2382L20.4155 83.8371L19.6993 84.2632L18.0947 81.6096L21.1998 79.7639Z" fill="#F4B512"/>
<path d="M22.7847 83.835L22.1578 82.9659L22.8421 82.4807L24.8271 85.2314L24.1428 85.7165L23.5158 84.8475L21.2545 86.4548L20.5234 85.4402L22.7847 83.835Z" fill="#F4B512"/>
<path d="M25.1314 88.7645L25.7456 86.3767L26.6658 87.3808L26.2408 88.6527L26.2599 88.6738L27.5755 88.3764L28.3767 89.2518L25.9773 89.6842L24.8254 90.722L23.9795 89.8002L25.1314 88.7645Z" fill="#F4B512"/>
<path d="M27.3562 93.4896C27.0395 93.2006 26.8143 92.8821 26.6825 92.5361C26.5507 92.1902 26.5188 91.8464 26.589 91.5025C26.6591 91.1608 26.827 90.8444 27.0948 90.5575C27.3711 90.2601 27.6793 90.0618 28.0193 89.9648C28.3593 89.8678 28.7079 89.872 29.0671 89.9775C29.4241 90.0829 29.7642 90.2833 30.0872 90.5786C30.4124 90.8761 30.644 91.1967 30.78 91.5405C30.916 91.8843 30.9522 92.2261 30.8884 92.5657C30.8225 92.9053 30.661 93.2154 30.3996 93.498C30.1191 93.8018 29.8045 94.0043 29.4581 94.1034C29.1117 94.2046 28.7568 94.2025 28.3933 94.0971C28.0299 93.9916 27.6835 93.7891 27.3562 93.4896ZM27.9619 92.8884C28.0937 93.0086 28.2425 93.0782 28.4103 93.0993C28.5782 93.1204 28.7504 93.0909 28.9247 93.0129C29.1011 92.9348 29.2668 92.8104 29.4241 92.6395C29.575 92.4771 29.6791 92.3083 29.7386 92.1332C29.7982 91.9582 29.8088 91.7915 29.7705 91.6291C29.7323 91.4667 29.6451 91.3232 29.5091 91.1988C29.3773 91.0786 29.2286 91.0089 29.0649 90.9879C28.8992 90.9668 28.7291 90.9942 28.5549 91.068C28.3806 91.1439 28.2148 91.2642 28.0597 91.4329C27.9045 91.6017 27.7961 91.7725 27.7366 91.9518C27.6771 92.129 27.6665 92.2999 27.7026 92.4602C27.7409 92.6226 27.828 92.7661 27.9619 92.8884Z" fill="#F4B512"/>
<path d="M31.0816 96.4132C30.7862 96.1896 30.563 95.9386 30.4142 95.6643C30.2655 95.3901 30.1975 95.1138 30.2145 94.8354C30.2315 94.5569 30.3335 94.2975 30.5205 94.0549L31.8212 92.3695L32.8137 93.1247L31.5385 94.7784C31.4493 94.8923 31.394 95.0104 31.3685 95.1307C31.343 95.2509 31.3515 95.3648 31.3897 95.4703C31.428 95.5757 31.4981 95.6664 31.6002 95.7445C31.6979 95.8183 31.8042 95.8605 31.9147 95.8668C32.0273 95.8732 32.1378 95.85 32.2462 95.793C32.3546 95.7361 32.4545 95.6517 32.5417 95.5378L33.8147 93.8882L34.8114 94.6455L33.5172 96.3225C33.328 96.5672 33.1006 96.7359 32.8371 96.8245C32.5714 96.9152 32.2866 96.9257 31.9827 96.8561C31.6788 96.7844 31.3791 96.6389 31.0816 96.4132Z" fill="#F4B512"/>
<path d="M35.2369 94.9282L36.7352 95.8837C37.0221 96.0672 37.2474 96.2676 37.411 96.4891C37.5747 96.7085 37.6703 96.9321 37.6937 97.1578C37.7192 97.3835 37.6682 97.5923 37.5428 97.7864C37.4301 97.9614 37.2707 98.0859 37.0646 98.1597C36.8606 98.2336 36.6459 98.2441 36.4228 98.1893V99.959L35.3219 99.2566L35.3304 97.7611L35.0073 97.5543L34.3187 98.6154L33.2773 97.9509L35.2369 94.9282ZM35.7724 97.2189C35.9233 97.3139 36.0657 97.3582 36.1996 97.3497C36.3335 97.3413 36.4376 97.2822 36.5099 97.1683C36.5524 97.1029 36.5694 97.0333 36.5609 96.9553C36.5524 96.8793 36.5205 96.8034 36.4631 96.7275C36.4058 96.6536 36.3292 96.5861 36.2357 96.525L35.8404 96.2718L35.3877 96.97L35.7724 97.2189Z" fill="#F4B512"/>
<path d="M39.9614 97.818L41.0814 98.3686L40.4778 99.5772L41.7551 100.206L42.3587 98.9971L43.4787 99.5477L41.8699 102.771L40.7499 102.22L41.3789 100.959L40.1016 100.33L39.4726 101.592L38.3525 101.039L39.9614 97.818Z" fill="#F4B512"/>
<path d="M43.9805 99.748L46.7837 100.879L46.4692 101.646L44.8157 100.98L44.5989 101.511L45.9357 102.049L45.6488 102.748L44.312 102.21L44.0804 102.773L45.821 103.475L45.5064 104.245L42.6182 103.081L43.9805 99.748Z" fill="#F4B512"/>
<path d="M48.2093 101.368L49.7459 101.866L49.9287 105.707L48.662 105.298L48.6599 104.631L47.2764 104.184L46.8747 104.72L45.7695 104.361L48.2093 101.368ZM47.7227 103.558L48.6748 103.866L48.6238 102.416L47.7227 103.558Z" fill="#F4B512"/>
<path d="M51.2595 102.326L52.9874 102.748C53.3189 102.828 53.5973 102.946 53.8247 103.102C54.0521 103.258 54.2137 103.437 54.3114 103.642C54.4092 103.847 54.4283 104.062 54.373 104.285C54.322 104.488 54.2137 104.657 54.0436 104.794C53.8736 104.931 53.676 105.009 53.4464 105.028L54.0245 106.703L52.7536 106.393L52.2733 104.975L51.9014 104.884L51.5974 106.11L50.3945 105.817L51.2595 102.326ZM52.5134 104.321C52.6877 104.363 52.8365 104.359 52.9597 104.309C53.0851 104.258 53.1616 104.167 53.1956 104.037C53.2148 103.963 53.2063 103.889 53.1744 103.819C53.1425 103.75 53.0851 103.688 53.0065 103.636C52.9279 103.583 52.8343 103.545 52.7238 103.518L52.2669 103.406L52.0671 104.212L52.5134 104.321Z" fill="#F4B512"/>
<path d="M55.79 104.209L54.7295 104.022L54.8761 103.199L58.2319 103.792L58.0853 104.614L57.0248 104.427L56.5381 107.146L55.3012 106.928L55.79 104.209Z" fill="#F4B512"/>
<path d="M61.7394 107.958C61.3059 107.922 60.9318 107.808 60.6151 107.616C60.2985 107.424 60.0605 107.169 59.9032 106.852C59.7459 106.536 59.6822 106.184 59.714 105.791C59.7459 105.414 59.8628 105.087 60.0647 104.813C60.2666 104.539 60.5344 104.336 60.8723 104.203C61.2081 104.07 61.5885 104.022 62.0136 104.058C62.4153 104.091 62.7617 104.186 63.0486 104.342C63.3376 104.498 63.548 104.703 63.6798 104.956C63.8116 105.209 63.852 105.492 63.7988 105.804L62.7787 105.72C62.7808 105.6 62.7511 105.49 62.6852 105.391C62.6214 105.294 62.5279 105.216 62.4068 105.159C62.2856 105.102 62.1432 105.068 61.9796 105.057C61.8053 105.043 61.6502 105.07 61.512 105.135C61.3739 105.201 61.2634 105.3 61.1784 105.431C61.0933 105.562 61.0445 105.716 61.0296 105.893C61.0126 106.104 61.0317 106.287 61.0891 106.445C61.1465 106.604 61.2421 106.728 61.3781 106.823C61.5141 106.916 61.6884 106.973 61.9009 106.99C62.0178 107 62.1284 106.983 62.2346 106.943C62.3409 106.903 62.4344 106.844 62.513 106.764C62.5917 106.684 62.6512 106.593 62.6916 106.488L63.7521 106.574C63.7223 106.878 63.6182 107.139 63.4418 107.357C63.2632 107.574 63.0295 107.736 62.7362 107.842C62.4429 107.949 62.1113 107.987 61.7394 107.958Z" fill="#F4B512"/>
<path d="M64.2981 104.351L67.3224 104.403L67.3075 105.232L65.5223 105.203L65.5117 105.777L66.9547 105.802L66.942 106.557L65.4989 106.532L65.4883 107.139L67.367 107.171L67.3522 108L64.2344 107.947L64.2981 104.351Z" fill="#F4B512"/>
<path d="M67.8047 104.391L69.0544 104.342L69.1627 107.101L70.7142 107.042L70.7461 107.878L67.945 107.985L67.8047 104.391Z" fill="#F4B512"/>
<path d="M70.9688 104.256L73.9803 103.969L74.061 104.796L72.2843 104.965L72.3396 105.536L73.7762 105.399L73.8485 106.15L72.4118 106.287L72.4713 106.893L74.3416 106.715L74.4223 107.542L71.3194 107.838L70.9688 104.256Z" fill="#F4B512"/>
<path d="M74.4521 103.912L76.4563 103.591C76.7283 103.547 76.9749 103.549 77.1959 103.596C77.4169 103.642 77.5976 103.726 77.7357 103.851C77.8738 103.975 77.9567 104.131 77.9886 104.319C78.0162 104.494 77.9759 104.659 77.8611 104.811C77.7485 104.962 77.5891 105.081 77.3829 105.165L77.3893 105.199C77.6486 105.194 77.8675 105.258 78.0439 105.391C78.2224 105.521 78.3287 105.697 78.3648 105.916C78.3967 106.112 78.3627 106.293 78.2628 106.462C78.1629 106.631 78.0056 106.774 77.7931 106.895C77.5806 107.013 77.3255 107.097 77.0259 107.144L75.0281 107.462L74.4521 103.912ZM76.4202 105.041C76.5626 105.017 76.6709 104.967 76.7496 104.889C76.8282 104.811 76.858 104.716 76.8388 104.606C76.8218 104.501 76.7644 104.422 76.6667 104.374C76.5689 104.325 76.4457 104.313 76.3011 104.336L75.7677 104.42L75.8825 105.125L76.4202 105.041ZM76.6709 106.477C76.8282 106.452 76.9493 106.395 77.0322 106.308C77.1151 106.22 77.1491 106.114 77.1279 105.992C77.1151 105.912 77.079 105.846 77.0216 105.791C76.9642 105.739 76.8898 105.701 76.8006 105.68C76.7113 105.659 76.6114 105.656 76.5052 105.673L75.9823 105.758L76.1141 106.568L76.6709 106.477Z" fill="#F4B512"/>
<path d="M78.2607 103.288L79.995 102.889C80.3265 102.813 80.6304 102.792 80.9046 102.83C81.1787 102.866 81.404 102.954 81.5847 103.094C81.7653 103.233 81.8801 103.414 81.9332 103.64C81.98 103.842 81.9609 104.043 81.8716 104.241C81.7823 104.439 81.6399 104.598 81.4465 104.718L82.726 105.952L81.4508 106.245L80.3754 105.197L80.0013 105.283L80.2883 106.513L79.0811 106.791L78.2607 103.288ZM80.2883 104.505C80.4625 104.465 80.5922 104.395 80.6814 104.294C80.7686 104.193 80.7983 104.077 80.7664 103.946C80.7494 103.87 80.7091 103.809 80.6474 103.762C80.5858 103.714 80.5093 103.684 80.4158 103.674C80.3223 103.663 80.2203 103.669 80.1097 103.695L79.6507 103.8L79.8398 104.608L80.2883 104.505Z" fill="#F4B512"/>
<path d="M83.138 102.07L84.6809 101.594L87.0676 104.623L85.7967 105.015L85.4078 104.471L84.0199 104.899L84.0051 105.568L82.8936 105.912L83.138 102.07ZM84.0178 104.136L84.9721 103.84L84.0858 102.686L84.0178 104.136Z" fill="#F4B512"/>
<path d="M87.2486 101.579L86.2455 101.967L85.9395 101.189L89.1146 99.959L89.4207 100.737L88.4175 101.126L89.4292 103.699L88.2581 104.152L87.2486 101.579Z" fill="#F4B512"/>
<path d="M89.3848 99.8388L92.1264 98.5711L92.4792 99.3241L90.8597 100.073L91.1041 100.592L92.4112 99.9865L92.7321 100.67L91.425 101.275L91.6843 101.828L93.3867 101.041L93.7395 101.794L90.9128 103.1L89.3848 99.8388Z" fill="#F4B512"/>
<path d="M95.7238 100.853C95.3902 101.035 95.0778 101.144 94.7802 101.178C94.4848 101.212 94.2213 101.176 93.9896 101.069C93.758 100.961 93.5667 100.792 93.4158 100.562L94.0682 100.206C94.1958 100.286 94.3254 100.334 94.4572 100.358C94.5889 100.379 94.7186 100.379 94.8461 100.353C94.9736 100.328 95.1054 100.284 95.2371 100.221C95.3455 100.168 95.4348 100.109 95.5071 100.041C95.5772 99.9737 95.6239 99.9041 95.6452 99.8303C95.6665 99.7565 95.658 99.6869 95.6218 99.6194C95.5729 99.5308 95.4901 99.4865 95.3753 99.4865C95.2605 99.4865 95.0948 99.5287 94.8822 99.6151C94.5337 99.7628 94.2361 99.8577 93.9875 99.8999C93.7388 99.9421 93.522 99.9231 93.3393 99.8409C93.1565 99.7586 93.0014 99.6046 92.8738 99.3747C92.7633 99.1743 92.7251 98.9655 92.7591 98.7419C92.7931 98.5204 92.8972 98.3031 93.0736 98.0943C93.2479 97.8834 93.488 97.6935 93.7941 97.5269C94.0959 97.3623 94.3785 97.2569 94.6399 97.2126C94.9014 97.1683 95.1351 97.1894 95.3392 97.2759C95.5432 97.3602 95.7132 97.5142 95.845 97.7378L95.1776 98.1027C95.0565 97.9888 94.9077 97.9361 94.7271 97.9445C94.5486 97.953 94.3785 98.0078 94.217 98.1069C94.1278 98.1639 94.0555 98.2272 93.996 98.2968C93.9386 98.3664 93.9003 98.4381 93.8855 98.5098C93.8706 98.5816 93.8791 98.6491 93.9131 98.7102C93.9599 98.7946 94.0406 98.8389 94.1511 98.841C94.2638 98.8431 94.4253 98.7988 94.6357 98.7102C94.9779 98.5605 95.2733 98.4655 95.5219 98.4212C95.7706 98.3769 95.9874 98.3938 96.1765 98.4676C96.3635 98.5436 96.5208 98.6934 96.6462 98.9191C96.7631 99.1279 96.8056 99.3473 96.778 99.5751C96.7503 99.805 96.6483 100.031 96.4719 100.254C96.2955 100.476 96.0469 100.676 95.7238 100.853Z" fill="#F4B512"/>
<path d="M97.1201 95.7466L98.1424 95.0294L98.9266 96.1305L100.091 95.3141L99.307 94.213L100.329 93.4958L102.421 96.4321L101.398 97.1493L100.58 95.9997L99.4154 96.816L100.234 97.9656L99.2114 98.6828L97.1201 95.7466Z" fill="#F4B512"/>
<path d="M101.535 92.5066L102.768 91.4688L106.158 93.3292L105.142 94.1835L104.568 93.8355L103.459 94.7699L103.707 95.3922L102.821 96.1389L101.535 92.5066ZM103.159 94.0675L103.922 93.4241L102.651 92.7048L103.159 94.0675Z" fill="#F4B512"/>
<path d="M103.953 90.4268L105.169 89.216C105.407 88.9797 105.651 88.8068 105.904 88.7013C106.157 88.5958 106.399 88.5579 106.631 88.5895C106.863 88.6211 107.067 88.7245 107.243 88.8954C107.409 89.0578 107.507 89.2518 107.536 89.4733C107.566 89.6948 107.528 89.9268 107.424 90.1694C107.32 90.412 107.154 90.6461 106.926 90.8718L106.544 91.2515L107.394 92.0932L106.52 92.9643L103.953 90.4268ZM106.316 90.4457C106.438 90.3255 106.506 90.199 106.52 90.064C106.535 89.929 106.495 89.815 106.399 89.7201C106.34 89.6611 106.27 89.6252 106.191 89.6147C106.11 89.6041 106.03 89.6168 105.945 89.6526C105.859 89.6885 105.779 89.7475 105.7 89.8256L105.405 90.1209L106.025 90.7347L106.316 90.4457Z" fill="#F4B512"/>
<path d="M106.544 87.8154L107.655 86.5118C107.872 86.2565 108.104 86.0646 108.346 85.938C108.588 85.8114 108.829 85.7545 109.062 85.7672C109.296 85.7798 109.509 85.8663 109.696 86.0245C109.874 86.1743 109.987 86.3578 110.034 86.5772C110.08 86.7965 110.063 87.0307 109.978 87.2796C109.893 87.5285 109.749 87.7753 109.541 88.02L109.192 88.4292L110.108 89.1991L109.307 90.1378L106.544 87.8154ZM108.899 87.6466C109.009 87.5179 109.067 87.385 109.071 87.25C109.075 87.115 109.026 87.0054 108.922 86.9168C108.858 86.8619 108.786 86.8324 108.705 86.8282C108.625 86.8239 108.544 86.8429 108.463 86.8851C108.382 86.9273 108.306 86.9927 108.234 87.0771L107.964 87.3935L108.633 87.9546L108.899 87.6466Z" fill="#F4B512"/>
<path d="M108.927 84.9466L109.679 83.9404L112.589 86.0836L111.836 87.0897L108.927 84.9466Z" fill="#F4B512"/>
<path d="M110.036 83.4679L110.72 82.4301L113.048 83.9425L113.898 82.6537L114.601 83.1114L113.065 85.4402L110.036 83.4679Z" fill="#F4B512"/>
<path d="M114.046 80.9599L111.572 81.1729L112.223 79.9811L113.572 79.9579L113.585 79.9326L112.867 78.7978L113.434 77.7579L114.637 79.863L116.006 80.5992L115.406 81.6961L114.046 80.9599Z" fill="#F4B512"/>
</g>
<defs>
<clipPath id="clip0_355_692">
<rect width="131" height="108" fill="white" transform="translate(0.77832)"/>
</clipPath>
</defs>
</svg>
