<svg width="17" height="16" viewBox="0 0 17 16" fill="none" xmlns="http://www.w3.org/2000/svg">
<path d="M5.44482 10.4373L5.38513 9.875H13.7412C14.6318 9.875 15.4051 9.24109 15.5797 8.36772L16.7783 2.375H4.58923L4.51576 1.68259C4.41682 0.723344 3.61498 0 2.65066 0H0.77832V1.25H2.65066C2.9721 1.25 3.23935 1.49109 3.27251 1.81266L4.20157 10.5674C4.3006 11.5267 5.10241 12.25 6.06673 12.25H6.27832H13.7783H15.6533V11H6.06673C5.74526 11 5.47801 10.7589 5.44482 10.4373ZM4.72188 3.625H15.2535L14.354 8.12256C14.2958 8.41369 14.0381 8.625 13.7412 8.625H5.25251L4.72188 3.625ZM11.9033 14.125C11.9033 15.1589 12.7444 16 13.7783 16C14.8122 16 15.6533 15.1589 15.6533 14.125C15.6533 13.0911 14.8122 12.25 13.7783 12.25C12.7444 12.25 11.9033 13.0911 11.9033 14.125ZM13.7783 13.5C14.1229 13.5 14.4033 13.7804 14.4033 14.125C14.4033 14.4696 14.1229 14.75 13.7783 14.75C13.4337 14.75 13.1533 14.4696 13.1533 14.125C13.1533 13.7804 13.4337 13.5 13.7783 13.5ZM6.90332 7.375H8.15332V4.875H6.90332V7.375ZM4.40332 14.125C4.40332 15.1589 5.24445 16 6.27832 16C7.3122 16 8.15332 15.1589 8.15332 14.125C8.15332 13.0911 7.3122 12.25 6.27832 12.25C5.24445 12.25 4.40332 13.0911 4.40332 14.125ZM6.27832 13.5C6.62295 13.5 6.90332 13.7804 6.90332 14.125C6.90332 14.4696 6.62295 14.75 6.27832 14.75C5.9337 14.75 5.65332 14.4696 5.65332 14.125C5.65332 13.7804 5.9337 13.5 6.27832 13.5ZM9.40332 7.375H10.6533V4.875H9.40332V7.375ZM11.9033 7.375H13.1533V4.875H11.9033V7.375Z" fill="#F4B512"/>
</svg>
