<svg width="15" height="16" viewBox="0 0 15 16" fill="none" xmlns="http://www.w3.org/2000/svg">
<path d="M14.1538 13.6576C13.3726 10.6209 10.6345 8.5 7.49517 8.5C4.35586 8.5 1.61773 10.6209 0.836579 13.6576C0.693173 14.2149 0.818204 14.8192 1.17099 15.2741C1.52364 15.7286 2.07777 16 2.65333 16H12.337C12.9207 16 13.4608 15.7354 13.8187 15.274C14.1718 14.8189 14.297 14.2146 14.1538 13.6576ZM12.831 14.5078C12.7117 14.6617 12.5316 14.75 12.337 14.75H2.65333C2.4612 14.75 2.2763 14.6595 2.15867 14.5079C2.0393 14.354 1.99867 14.1576 2.04717 13.969C2.68617 11.4849 4.92645 9.75 7.49517 9.75C10.0639 9.75 12.3042 11.4849 12.9432 13.969C12.9909 14.1544 12.949 14.3558 12.831 14.5078ZM7.49517 7.5C9.56292 7.5 11.2452 5.81775 11.2452 3.75C11.2452 1.68225 9.56292 0 7.49517 0C5.42742 0 3.74517 1.68225 3.74517 3.75C3.74517 5.81775 5.42742 7.5 7.49517 7.5ZM7.49517 1.25C8.87367 1.25 9.99517 2.3715 9.99517 3.75C9.99517 5.1285 8.87367 6.25 7.49517 6.25C6.11667 6.25 4.99517 5.1285 4.99517 3.75C4.99517 2.3715 6.11664 1.25 7.49517 1.25Z" fill="#F4B512"/>
</svg>
