<svg width="32" height="26" viewBox="0 0 32 26" fill="none" xmlns="http://www.w3.org/2000/svg">
<path d="M29.9682 0.369141H2.03178C0.909744 0.369141 0 1.27883 0 2.40086V23.2263C0 24.3482 0.909744 25.2579 2.03178 25.2579H29.9682C31.0903 25.2579 32 24.3482 32 23.2262V2.40086C32 1.27883 31.0903 0.369141 29.9682 0.369141ZM29.9682 2.40086V17.1772L25.9641 13.5368C25.3623 12.9898 24.4368 13.0116 23.8618 13.5871L19.8094 17.6389L11.8192 8.09479C11.2152 7.37351 10.1089 7.36643 9.49587 8.07905L2.03178 16.7536V2.40086H29.9682ZM21.3334 7.73418C21.3334 6.19106 22.5838 4.94052 24.1269 4.94052C25.6701 4.94052 26.9206 6.19106 26.9206 7.73418C26.9206 9.2773 25.6701 10.5278 24.1269 10.5278C22.5838 10.5278 21.3334 9.2773 21.3334 7.73418Z" fill="#BDBDBD"/>
</svg>
