<svg width="18" height="14" viewBox="0 0 18 14" fill="none" xmlns="http://www.w3.org/2000/svg">
<path d="M17.3354 6.94962H8.75997C8.51512 6.94962 8.31641 6.75091 8.31641 6.50606C8.31641 6.26121 8.51512 6.0625 8.75997 6.0625H17.3354C17.5803 6.0625 17.779 6.26121 17.779 6.50606C17.779 6.75091 17.5803 6.94962 17.3354 6.94962Z" fill="#F14537"/>
<path d="M14.9698 9.3167C14.8562 9.3167 14.7427 9.2736 14.6563 9.18665C14.4831 9.01338 14.4831 8.73247 14.6563 8.5591L16.7085 6.50698L14.6563 4.45476C14.4831 4.2815 14.4831 4.00048 14.6563 3.82721C14.8297 3.65395 15.1106 3.65395 15.2839 3.82721L17.6495 6.19294C17.8227 6.36621 17.8227 6.64711 17.6495 6.82038L15.2839 9.186C15.1969 9.2736 15.0834 9.3167 14.9698 9.3167Z" fill="#F14537"/>
<path d="M7.28327 13.0112C9.97484 13.0112 12.3511 11.3919 13.3381 8.88539C13.428 8.6583 13.3157 8.40046 13.088 8.31058C12.8609 8.22189 12.6024 8.33245 12.5125 8.56138C11.6603 10.7254 9.60752 12.124 7.28327 12.124C4.18549 12.124 1.6648 9.60336 1.6648 6.50558C1.6648 3.40781 4.18549 0.88712 7.28327 0.88712C9.60752 0.88712 11.6603 2.28581 12.5125 4.44979C12.6031 4.67871 12.8609 4.78928 13.088 4.70059C13.3157 4.61071 13.428 4.35287 13.3381 4.12578C12.3511 1.61928 9.97484 0 7.28327 0C3.69634 0 0.777684 2.91866 0.777684 6.50558C0.777684 10.0925 3.69634 13.0112 7.28327 13.0112Z" fill="#F14537"/>
</svg>
