<svg width="17" height="16" viewBox="0 0 17 16" fill="none" xmlns="http://www.w3.org/2000/svg">
<g clip-path="url(#clip0_143_10157)">
<path d="M16.3096 0.96875H5.02832C4.76945 0.96875 4.55957 1.17862 4.55957 1.4375V7.56197C3.93229 7.66947 3.35385 7.98941 2.93004 8.46875H2.68457V8C2.68457 7.74113 2.4747 7.53125 2.21582 7.53125H1.24707C0.988195 7.53125 0.77832 7.74113 0.77832 8C0.77832 8.25887 0.988195 8.46875 1.24707 8.46875H1.74707V14.0938H1.24707C0.988195 14.0938 0.77832 14.3036 0.77832 14.5625C0.77832 14.8214 0.988195 15.0312 1.24707 15.0312H2.21582C2.4747 15.0312 2.68457 14.8214 2.68457 14.5625V14.0938H3.08035C6.06982 15.0399 5.95685 15.0312 6.09082 15.0312H12.5283C13.4981 15.0312 14.1774 14.0682 13.8539 13.1562H16.3096C16.5684 13.1562 16.7783 12.9464 16.7783 12.6875V1.4375C16.7783 1.17862 16.5684 0.96875 16.3096 0.96875ZM9.71582 1.90625H11.5908V4.25H9.71582V1.90625ZM12.9971 13.625C12.9971 13.8835 12.7868 14.0938 12.5283 14.0938H6.16379C3.17435 13.1476 3.28732 13.1562 3.15332 13.1562H2.68457V9.40625H3.15332C3.3022 9.40625 3.44223 9.33553 3.53057 9.21572C4.27298 8.20909 5.78307 8.20828 6.52604 9.21572C6.61441 9.33553 6.75445 9.40625 6.90332 9.40625H9.24707C9.50554 9.40625 9.71582 9.61653 9.71582 9.875C9.71582 10.1335 9.50554 10.3438 9.24707 10.3438H6.43457C6.1757 10.3438 5.96582 10.5536 5.96582 10.8125C5.96582 12.1048 7.01723 13.1562 8.30957 13.1562H12.5283C12.7868 13.1562 12.9971 13.3665 12.9971 13.625ZM15.8408 12.2188C15.5566 12.2188 8.69566 12.2188 8.30957 12.2188C7.69845 12.2188 7.1771 11.8269 6.98363 11.2812H9.24707C10.0225 11.2812 10.6533 10.6504 10.6533 9.875C10.6533 9.09959 10.0225 8.46875 9.24707 8.46875H7.1266C6.70282 7.98941 6.12435 7.66947 5.49707 7.56197V1.90625H8.77832V4.71875C8.77832 4.97762 8.9882 5.1875 9.24707 5.1875H12.0596C12.3184 5.1875 12.5283 4.97762 12.5283 4.71875V1.90625H15.8408V12.2188Z" fill="#F4B512"/>
</g>
<defs>
<clipPath id="clip0_143_10157">
<rect width="16" height="16" fill="white" transform="translate(0.77832)"/>
</clipPath>
</defs>
</svg>
