<svg width="13" height="16" viewBox="0 0 13 16" fill="none" xmlns="http://www.w3.org/2000/svg">
<path d="M6.77832 0C4.27832 0 2.27832 2 2.27832 4.5V6.5C1.42832 6.5 0.77832 7.15 0.77832 8V14.5C0.77832 15.35 1.42832 16 2.27832 16H11.2783C12.1283 16 12.7783 15.35 12.7783 14.5V8C12.7783 7.15 12.1283 6.5 11.2783 6.5V4.5C11.2783 2 9.27832 0 6.77832 0ZM11.7783 8V14.5C11.7783 14.8 11.5783 15 11.2783 15H2.27832C1.97832 15 1.77832 14.8 1.77832 14.5V8C1.77832 7.7 1.97832 7.5 2.27832 7.5H2.77832H10.7783H11.2783C11.5783 7.5 11.7783 7.7 11.7783 8ZM3.27832 6.5V4.5C3.27832 2.55 4.82832 1 6.77832 1C8.72832 1 10.2783 2.55 10.2783 4.5V6.5H3.27832Z" fill="#F4B512"/>
<path d="M6.77832 9C5.92832 9 5.27832 9.65 5.27832 10.5C5.27832 11.15 5.67832 11.7 6.27832 11.9V13C6.27832 13.3 6.47832 13.5 6.77832 13.5C7.07832 13.5 7.27832 13.3 7.27832 13V11.9C7.87832 11.7 8.27832 11.15 8.27832 10.5C8.27832 9.65 7.62832 9 6.77832 9ZM6.77832 11C6.47832 11 6.27832 10.8 6.27832 10.5C6.27832 10.2 6.47832 10 6.77832 10C7.07832 10 7.27832 10.2 7.27832 10.5C7.27832 10.8 7.07832 11 6.77832 11Z" fill="#F4B512"/>
</svg>
