<svg width="48" height="16" viewBox="0 0 48 16" fill="none" xmlns="http://www.w3.org/2000/svg">
<path d="M18.4972 0.263921L12.3873 14.8442H8.40113L5.39761 3.21292C5.36974 2.93914 5.2722 2.67708 5.11429 2.45171C4.95638 2.22634 4.74336 2.04518 4.49556 1.92551C3.31246 1.36043 2.06385 0.944223 0.77832 0.686432L0.871251 0.263921H7.28472C7.70366 0.264258 8.10868 0.414267 8.42676 0.686905C8.74484 0.959542 8.95503 1.33686 9.01943 1.75081L10.6079 10.1865L14.5309 0.263921H18.4959H18.4972ZM34.1095 10.0787C34.1269 6.23751 28.7889 6.0244 28.8274 4.30456C28.8373 3.77919 29.3354 3.22408 30.4258 3.08407C31.7008 2.96242 32.985 3.18715 34.143 3.73458L34.8047 0.645555C33.6769 0.222517 32.4827 0.00391496 31.2782 0C27.5511 0 24.928 1.98252 24.9057 4.81877C24.8809 6.91653 26.7779 8.08622 28.2078 8.78382C29.6761 9.49877 30.168 9.95476 30.1618 10.5954C30.1519 11.5742 28.9897 12.0017 27.9055 12.0203C26.5564 12.0494 25.2223 11.732 24.0309 11.0984L23.3481 14.294C24.6857 14.8118 26.1082 15.0749 27.5424 15.0697C31.5075 15.0697 34.0947 13.1082 34.1095 10.0787ZM43.9503 14.8392H47.4383L44.3939 0.263921H41.1723C40.8277 0.260074 40.4899 0.359836 40.2027 0.550284C39.9155 0.740732 39.6921 1.01308 39.5615 1.33201L33.9076 14.838H37.8652L38.6508 12.6609H43.4832L43.9503 14.8392ZM39.7374 9.67473L41.72 4.20171L42.8624 9.67473H39.7374ZM23.8772 0.257719L20.7647 14.8442H16.9929L20.108 0.263921L23.8772 0.257719Z" fill="#1A2ADF"/>
</svg>
