<svg width="12" height="13" viewBox="0 0 12 13" fill="none" xmlns="http://www.w3.org/2000/svg">
<path d="M0.586043 12.2495C0.470141 12.2495 0.356835 12.2152 0.260459 12.1508C0.164082 12.0864 0.0889649 11.9949 0.0446079 11.8878C0.000250994 11.7807 -0.0113526 11.6629 0.0112648 11.5492C0.0338822 11.4356 0.0897046 11.3312 0.171671 11.2492L10.9997 0.42115C11.1096 0.311252 11.2587 0.249512 11.4141 0.249512C11.5695 0.249512 11.7186 0.311252 11.8285 0.42115C11.9384 0.531049 12.0001 0.680103 12.0001 0.835523C12.0001 0.990942 11.9384 1.14 11.8285 1.24989L1.00042 12.078C0.94605 12.1324 0.881456 12.1756 0.810345 12.2051C0.739235 12.2345 0.663008 12.2496 0.586043 12.2495Z" fill="#949494"/>
<path d="M11.4141 12.2495C11.3371 12.2496 11.2609 12.2345 11.1898 12.2051C11.1187 12.1756 11.0541 12.1324 10.9997 12.078L0.171639 1.2499C0.0617403 1.14 0 0.990942 0 0.835523C0 0.680103 0.0617403 0.531049 0.171639 0.42115C0.281537 0.311252 0.430591 0.249512 0.586011 0.249512C0.741431 0.249512 0.890485 0.311252 1.00038 0.42115L11.8284 11.2492C11.9104 11.3312 11.9662 11.4356 11.9888 11.5492C12.0115 11.6629 11.9999 11.7807 11.9555 11.8878C11.9111 11.9949 11.836 12.0864 11.7397 12.1508C11.6433 12.2152 11.53 12.2495 11.4141 12.2495V12.2495Z" fill="#949494"/>
</svg>
