<svg width="16" height="17" viewBox="0 0 16 17" fill="none" xmlns="http://www.w3.org/2000/svg">
<path d="M11.3826 16.6785H5.38835C4.78863 16.6698 4.21428 16.4351 3.78016 16.0212C3.34604 15.6073 3.08414 15.0449 3.04684 14.4462L2.33658 3.64403C2.33294 3.56571 2.34486 3.48745 2.37165 3.41376C2.39844 3.34008 2.43958 3.27244 2.49268 3.21475C2.54738 3.15497 2.61361 3.10686 2.68738 3.07333C2.76115 3.03979 2.84094 3.02153 2.92196 3.01962H13.849C13.9293 3.01945 14.0088 3.03578 14.0824 3.06761C14.1561 3.09943 14.2225 3.14608 14.2774 3.20464C14.3323 3.2632 14.3746 3.33242 14.4016 3.40801C14.4286 3.4836 14.4398 3.56394 14.4344 3.64403L13.7554 14.4462C13.7177 15.0502 13.4514 15.6171 13.0106 16.0318C12.5699 16.4464 11.9878 16.6777 11.3826 16.6785ZM3.57758 4.19038L4.17857 14.376C4.19843 14.6831 4.3346 14.9711 4.55936 15.1814C4.78412 15.3917 5.08058 15.5084 5.38835 15.5077H11.3826C11.6899 15.5065 11.9853 15.3892 12.2097 15.1793C12.434 14.9694 12.5708 14.6825 12.5924 14.376L13.2246 4.22941L3.57758 4.19038Z" fill="#F14537"/>
<path d="M15.4099 4.19038H1.36077C1.20552 4.19038 1.05662 4.12871 0.946844 4.01893C0.837064 3.90915 0.775391 3.76025 0.775391 3.605C0.775391 3.44975 0.837064 3.30086 0.946844 3.19108C1.05662 3.0813 1.20552 3.01962 1.36077 3.01962H15.4099C15.5651 3.01962 15.714 3.0813 15.8238 3.19108C15.9336 3.30086 15.9952 3.44975 15.9952 3.605C15.9952 3.76025 15.9336 3.90915 15.8238 4.01893C15.714 4.12871 15.5651 4.19038 15.4099 4.19038Z" fill="#F14537"/>
<path d="M10.7245 4.19062H6.04143C5.88681 4.1886 5.73909 4.12628 5.62974 4.01693C5.5204 3.90759 5.45808 3.75986 5.45605 3.60524V2.20033C5.46595 1.79979 5.62948 1.41839 5.91279 1.13508C6.1961 0.851767 6.5775 0.688239 6.97804 0.678345H9.78786C10.1951 0.688528 10.5822 0.857476 10.8665 1.14913C11.1509 1.44078 11.31 1.83202 11.3098 2.23936V3.60524C11.3078 3.75986 11.2455 3.90759 11.1362 4.01693C11.0268 4.12628 10.8791 4.1886 10.7245 4.19062ZM6.62681 3.01986H10.1391V2.23936C10.1391 2.1462 10.1021 2.05687 10.0362 1.991C9.97035 1.92513 9.88101 1.88813 9.78786 1.88813H6.97804C6.88489 1.88813 6.79555 1.92513 6.72968 1.991C6.66382 2.05687 6.62681 2.1462 6.62681 2.23936V3.01986Z" fill="#F14537"/>
<path d="M10.728 13.5566C10.5733 13.5545 10.4256 13.4922 10.3163 13.3829C10.2069 13.2735 10.1446 13.1258 10.1426 12.9712V6.72713C10.1426 6.57188 10.2043 6.42299 10.314 6.31321C10.4238 6.20343 10.5727 6.14175 10.728 6.14175C10.8832 6.14175 11.0321 6.20343 11.1419 6.31321C11.2517 6.42299 11.3133 6.57188 11.3133 6.72713V12.9712C11.3113 13.1258 11.249 13.2735 11.1396 13.3829C11.0303 13.4922 10.8826 13.5545 10.728 13.5566Z" fill="#F14537"/>
<path d="M6.04143 13.5566C5.88681 13.5545 5.73909 13.4922 5.62974 13.3829C5.5204 13.2735 5.45808 13.1258 5.45605 12.9712V6.72713C5.45605 6.57188 5.51773 6.42299 5.62751 6.31321C5.73729 6.20343 5.88618 6.14175 6.04143 6.14175C6.19669 6.14175 6.34558 6.20343 6.45536 6.31321C6.56514 6.42299 6.62681 6.57188 6.62681 6.72713V12.9712C6.62479 13.1258 6.56247 13.2735 6.45312 13.3829C6.34378 13.4922 6.19606 13.5545 6.04143 13.5566Z" fill="#F14537"/>
<path d="M8.38421 13.5566C8.22958 13.5545 8.08186 13.4922 7.97252 13.3829C7.86317 13.2735 7.80085 13.1258 7.79883 12.9712V6.72713C7.79883 6.57188 7.8605 6.42299 7.97028 6.31321C8.08006 6.20343 8.22895 6.14175 8.38421 6.14175C8.53946 6.14175 8.68835 6.20343 8.79813 6.31321C8.90791 6.42299 8.96959 6.57188 8.96959 6.72713V12.9712C8.96756 13.1258 8.90524 13.2735 8.7959 13.3829C8.68655 13.4922 8.53883 13.5545 8.38421 13.5566Z" fill="#F14537"/>
</svg>
