<svg width="125" height="59" viewBox="0 0 125 59" fill="none" xmlns="http://www.w3.org/2000/svg">
<g clip-path="url(#clip0_698_1356)">
<path d="M118.129 23.2639C118.499 22.8722 119.202 22.6554 119.783 22.5874C120.694 22.4806 121.225 23.1457 120.953 23.9938C120.807 24.4518 120.56 24.9551 120.197 25.2643C117.656 27.4313 114.711 28.3894 111.296 27.8926C110.673 27.8036 110.025 27.8715 109.389 27.8651C109.379 28.0107 109.371 28.158 109.363 28.3037C110.865 28.425 112.372 28.6727 113.871 28.6273C115.56 28.5684 117.243 28.3818 118.904 28.069C120.888 27.7129 122.558 26.6917 123.952 25.3177C124.301 24.9721 124.569 24.5521 124.734 24.0889C124.899 23.6257 124.957 23.1313 124.905 22.6424C124.743 20.9852 123.298 20.0643 121.535 20.4705C119.608 20.9172 117.991 21.9271 116.518 23.1684C115.709 23.8498 114.838 24.4923 114.484 25.6494C115.865 25.1424 117.111 24.3264 118.129 23.2639Z" fill="#FC7CED"/>
<path d="M118.904 30.5936C117.243 30.2813 115.56 30.0952 113.871 30.0368C112.372 29.998 110.865 30.2456 109.363 30.3605C109.363 30.5078 109.379 30.6534 109.389 30.7991C110.025 30.7991 110.673 30.8622 111.296 30.7716C114.711 30.2763 117.656 31.2328 120.197 33.3999C120.56 33.709 120.807 34.2091 120.953 34.672C121.225 35.5184 120.694 36.1836 119.783 36.0768C119.202 36.0088 118.499 35.7935 118.129 35.4019C117.112 34.3355 115.864 33.5167 114.481 33.0082C114.835 34.1654 115.703 34.8079 116.515 35.4893C117.991 36.7258 119.608 37.7421 121.532 38.1872C123.295 38.595 124.743 37.6741 124.902 36.0153C124.954 35.5264 124.895 35.032 124.73 34.5688C124.565 34.1057 124.298 33.6857 123.949 33.34C122.558 31.9724 120.888 30.9496 118.904 30.5936Z" fill="#FC7CED"/>
<path d="M116.895 23.2639C117.266 22.8722 117.97 22.6554 118.549 22.5874C119.462 22.4806 119.991 23.1457 119.721 23.9938C119.574 24.4518 119.328 24.9551 118.965 25.2643C116.424 27.4313 113.479 28.3894 110.064 27.8926C109.441 27.8036 108.792 27.8715 108.156 27.8651C108.156 28.0107 108.14 28.158 108.13 28.3037C109.633 28.425 111.14 28.6727 112.639 28.6273C114.328 28.5683 116.011 28.3817 117.672 28.069C119.655 27.7129 121.327 26.6917 122.72 25.3177C123.069 24.9719 123.337 24.5518 123.502 24.0887C123.667 23.6256 123.725 23.1313 123.673 22.6424C123.511 20.9852 122.065 20.0643 120.302 20.4705C118.375 20.9172 116.758 21.9271 115.285 23.1684C114.476 23.8498 113.605 24.4923 113.252 25.6494C114.632 25.142 115.878 24.3261 116.895 23.2639Z" fill="#A54C85"/>
<path d="M117.672 30.5936C116.011 30.2814 114.328 30.0953 112.639 30.0368C111.14 29.998 109.633 30.2456 108.13 30.3605C108.14 30.5078 108.148 30.6534 108.156 30.7991C108.792 30.7991 109.441 30.8622 110.064 30.7716C113.479 30.2763 116.424 31.2328 118.965 33.3999C119.328 33.709 119.574 34.2091 119.721 34.672C119.991 35.5184 119.462 36.1836 118.549 36.0768C117.97 36.0088 117.266 35.7935 116.895 35.4019C115.879 34.3359 114.631 33.5171 113.249 33.0082C113.602 34.1654 114.469 34.8079 115.282 35.4893C116.758 36.7258 118.375 37.7421 120.299 38.1872C122.061 38.595 123.51 37.6741 123.67 36.0153C123.722 35.5264 123.663 35.0321 123.498 34.569C123.333 34.1059 123.066 33.6859 122.717 33.34C121.326 31.9724 119.655 30.9496 117.672 30.5936Z" fill="#A54C85"/>
<path d="M107.873 33.1152C108.208 34.4569 108.344 35.6481 108.822 36.7874C109.762 39.0354 108.946 41.0795 106.465 42.7303C102.922 45.0867 98.2339 46.15 92.906 45.9526C90.0479 45.8458 87.2189 45.48 84.3721 45.2518C81.9671 45.0592 79.554 44.7404 77.1491 44.7517C71.025 44.7841 65.8622 46.9285 64.1013 51.2626C63.8278 51.9342 63.3536 53.0121 62.86 56.1179C62.3648 53.0154 61.889 51.9375 61.6187 51.2626C59.8562 46.9285 54.6934 44.7889 48.571 44.7517C46.166 44.7404 43.7513 45.0592 41.3479 45.2518C38.5011 45.48 35.6705 45.8458 32.8124 45.9526C27.4862 46.15 22.796 45.0867 19.2549 42.7303C16.7738 41.0795 15.9565 39.0354 16.8968 36.7874C17.3823 35.6545 17.5118 34.4569 17.8452 33.1152C16.2996 33.3968 15.9759 34.0491 15.594 34.5605C13.4901 37.3749 13.0822 40.348 14.0274 43.3307C14.7184 45.5107 17.0667 47.147 20.2275 48.3187C25.2446 50.1783 30.668 50.6007 36.4215 49.8789C39.4463 49.4985 42.4906 49.1554 45.5478 48.8787C48.66 48.5971 51.8774 48.5679 54.4976 49.7089C56.1403 50.4259 57.4529 51.4892 58.5631 52.5363C59.7737 53.6692 62.8438 57.2605 62.86 57.2556C62.8762 57.2508 65.9464 53.6724 67.1569 52.5363C68.2672 51.494 69.5846 50.4324 71.2224 49.7089C73.8426 48.576 77.06 48.5971 80.1707 48.8787C83.2279 49.1554 86.2721 49.4985 89.2986 49.8789C95.0504 50.6007 100.475 50.1783 105.492 48.3187C108.652 47.147 110.995 45.5107 111.691 43.3307C112.636 40.348 112.23 37.3749 110.126 34.5605C109.744 34.0491 109.419 33.3968 107.873 33.1152Z" fill="#FC7CED"/>
<path d="M17.8443 25.4926C17.5109 24.1509 17.3734 22.9597 16.8959 21.8204C15.9556 19.5724 16.7729 17.5283 19.254 15.8775C22.7951 13.5211 27.4788 12.4578 32.8196 12.6488C35.6777 12.7556 38.5083 13.1214 41.3551 13.3496C43.7585 13.5421 46.1732 13.861 48.5782 13.848C54.7006 13.8173 59.8634 11.6729 61.6259 7.33873C61.8994 6.66708 62.372 5.58922 62.8672 2.48346C63.3608 5.58598 63.8382 6.66385 64.1085 7.33873C65.8694 11.6729 71.0321 13.8124 77.1562 13.848C79.5612 13.861 81.9743 13.5421 84.3793 13.3496C87.2261 13.1214 90.0551 12.7556 92.9132 12.6488C98.2411 12.4513 102.93 13.5146 106.472 15.871C108.953 17.5218 109.769 19.5659 108.829 21.8139C108.351 22.9468 108.215 24.1444 107.88 25.4861C109.426 25.2045 109.751 24.5523 110.133 24.0408C112.237 21.2264 112.643 18.2518 111.698 15.2706C111.009 13.0906 108.659 11.4544 105.5 10.2826C100.483 8.42307 95.0576 8.00066 89.3057 8.72248C86.2793 9.10281 83.235 9.44591 80.1778 9.72266C77.0672 10.0043 73.8498 10.0334 71.2296 8.89241C69.5853 8.17545 68.2743 7.11215 67.1641 6.06503C65.9535 4.93214 62.8818 1.34085 62.8672 1.34571C62.8526 1.35056 59.7809 4.9289 58.5703 6.06503C57.4601 7.1073 56.1427 8.16898 54.5048 8.89241C51.8846 10.0253 48.6672 10.0043 45.5549 9.72266C42.4977 9.44591 39.4535 9.10281 36.4287 8.72248C30.6752 8.00066 25.2502 8.42307 20.2347 10.2826C17.0739 11.4544 14.7321 13.0906 14.0346 15.2706C13.0894 18.2518 13.4956 21.2264 15.6012 24.0408C15.975 24.5587 16.2987 25.211 17.8443 25.4926Z" fill="#FC7CED"/>
<path d="M11.219 25.6559C9.83712 25.147 8.58989 24.3288 7.57273 23.2639C7.20211 22.8722 6.49811 22.6554 5.91871 22.5874C5.00592 22.4806 4.4767 23.1457 4.74697 23.9938C4.89425 24.4518 5.14024 24.9551 5.50276 25.2643C8.04369 27.4313 10.9892 28.3894 14.4041 27.8926C15.0272 27.8036 15.6746 27.8715 16.3122 27.8651C16.3122 28.0123 16.3284 28.158 16.3381 28.3037C14.8346 28.425 13.3279 28.6727 11.8292 28.6273C10.1397 28.5684 8.45717 28.3818 6.79588 28.069C4.81331 27.7129 3.14149 26.6917 1.74803 25.3177C1.39857 24.9719 1.13142 24.5518 0.966401 24.0887C0.801383 23.6256 0.742727 23.1313 0.79478 22.6424C0.956622 20.9852 2.40348 20.0643 4.16433 20.4705C6.09349 20.9172 7.71029 21.9271 9.18143 23.1684C10.0004 23.8562 10.8662 24.4988 11.219 25.6559Z" fill="#FC7CED"/>
<path d="M11.219 33.015C9.83663 33.5238 8.58927 34.3427 7.57266 35.4086C7.20204 35.8003 6.49803 36.0155 5.91864 36.0835C5.00585 36.1903 4.47662 35.5252 4.7469 34.6787C4.89418 34.2191 5.14016 33.7158 5.50269 33.4066C8.04361 31.2396 10.9891 30.2831 14.404 30.7783C15.0271 30.869 15.6745 30.801 16.3121 30.8058C16.3121 30.6602 16.3283 30.5145 16.338 30.3672C14.8345 30.2459 13.3278 29.9982 11.8291 30.0436C10.1397 30.1019 8.45713 30.2881 6.79581 30.6003C4.81324 30.9564 3.14142 31.9792 1.74796 33.3516C1.39859 33.6975 1.13152 34.1175 0.966504 34.5806C0.801493 35.0437 0.74277 35.538 0.794705 36.0269C0.956547 37.6857 2.40341 38.6066 4.16425 38.1988C6.09341 37.7537 7.71021 36.7422 9.18136 35.5009C10.0003 34.8211 10.8662 34.1738 11.219 33.015Z" fill="#FC7CED"/>
<path d="M12.4686 25.6559C11.0867 25.147 9.83946 24.3288 8.82231 23.2639C8.45169 22.8722 7.7493 22.6554 7.16829 22.5874C6.25711 22.4806 5.72627 23.1457 5.99817 23.9938C6.14383 24.4518 6.39143 24.9551 6.75396 25.2643C9.29488 27.4313 12.2388 28.3894 15.6553 27.8926C16.2784 27.8036 16.9257 27.8715 17.5618 27.8651C17.5618 28.0123 17.5796 28.158 17.5877 28.3037C16.0842 28.425 14.579 28.6727 13.0804 28.6273C11.3909 28.5684 9.70838 28.3818 8.0471 28.069C6.06291 27.7129 4.39269 26.6917 2.99923 25.3177C2.64947 24.9721 2.38214 24.5521 2.2171 24.0889C2.05207 23.6257 1.99357 23.1313 2.04598 22.6424C2.20782 20.9852 3.65308 20.0643 5.41554 20.4705C7.34308 20.9172 8.95989 21.9271 10.4327 23.1684C11.2483 23.8562 12.1158 24.4988 12.4686 25.6559Z" fill="#A54C85"/>
<path d="M12.4685 33.015C11.0862 33.5238 9.83885 34.3427 8.82224 35.4086C8.45162 35.8003 7.74923 36.0155 7.16821 36.0835C6.25704 36.1903 5.7262 35.5252 5.9981 34.6787C6.14376 34.2191 6.39136 33.7158 6.75389 33.4066C9.29481 31.2396 12.2387 30.2831 15.6552 30.7783C16.2783 30.869 16.9257 30.801 17.5617 30.8058C17.5617 30.6602 17.5795 30.5145 17.5876 30.3672C16.0841 30.2459 14.579 29.9982 13.0803 30.0436C11.3909 30.1019 9.70835 30.2881 8.04703 30.6003C6.06284 30.9564 4.39262 31.9792 2.99916 33.3516C2.6495 33.6973 2.38222 34.1173 2.21719 34.5804C2.05216 35.0436 1.99361 35.538 2.0459 36.0269C2.20775 37.6857 3.65301 38.6066 5.41547 38.1988C7.34301 37.7537 8.95981 36.7422 10.4326 35.5009C11.2483 34.8211 12.1157 34.1738 12.4685 33.015Z" fill="#A54C85"/>
<path d="M17.8443 24.5101C17.5109 23.1684 17.3734 21.9772 16.8959 20.8362C15.9556 18.5899 16.7729 16.5458 19.254 14.895C22.7951 12.5386 27.4788 11.4753 32.8196 11.6776C35.6777 11.7844 38.5083 12.1502 41.3551 12.3784C43.7585 12.571 46.1732 12.8898 48.5782 12.8768C54.7006 12.8461 59.8634 10.7017 61.6259 6.36754C61.8994 5.69589 62.372 4.61802 62.8672 1.51227C63.3608 4.61479 63.8382 5.69266 64.1085 6.36754C65.8694 10.7017 71.0321 12.8412 77.1562 12.8768C79.5612 12.8898 81.9743 12.571 84.3793 12.3784C87.2261 12.1502 90.0551 11.7844 92.9132 11.6776C98.2411 11.4801 102.93 12.5434 106.472 14.8999C108.953 16.5506 109.769 18.5947 108.829 20.8411C108.351 21.9821 108.215 23.1732 107.88 24.5149C109.426 24.2333 109.751 23.5811 110.133 23.0697C112.237 20.2552 112.643 17.2806 111.698 14.2994C111.009 12.1194 108.659 10.4832 105.5 9.31145C100.483 7.45188 95.0576 7.02947 89.3057 7.75129C86.2793 8.13162 83.235 8.47472 80.1778 8.75147C77.0672 9.03146 73.8498 9.06222 71.2296 7.91961C69.5853 7.20427 68.2743 6.13934 67.1641 5.09384C65.9535 3.96095 62.8818 0.369661 62.8672 0.374517C62.8526 0.379372 59.7809 3.95771 58.5703 5.09384C57.4601 6.13611 56.1427 7.19779 54.5048 7.91961C51.8846 9.06222 48.6672 9.03146 45.5549 8.75147C42.4977 8.47472 39.4535 8.13162 36.4287 7.75129C30.6752 7.02947 25.2502 7.45188 20.2347 9.31145C17.0739 10.4832 14.7321 12.1194 14.0346 14.2994C13.0894 17.2806 13.4956 20.2552 15.6012 23.0697C15.975 23.5762 16.2987 24.2285 17.8443 24.5101Z" fill="#C9558A"/>
<path d="M107.873 34.1606C108.208 35.5023 108.344 36.6935 108.822 37.8345C109.762 40.0808 108.946 42.1249 106.465 43.7757C102.922 46.1321 98.2339 47.197 92.906 46.998C90.0479 46.8911 87.2189 46.5254 84.3721 46.2972C81.9671 46.1062 79.554 45.7858 77.1491 45.7987C71.025 45.8295 65.8622 47.9755 64.1013 52.308C63.8278 52.9813 63.3536 54.0575 62.86 57.1633C62.3648 54.0608 61.889 52.9845 61.6187 52.308C59.8562 47.9755 54.6934 45.8343 48.571 45.7987C46.166 45.7858 43.7513 46.1062 41.3479 46.2972C38.5011 46.5254 35.6705 46.8911 32.8124 46.998C27.4862 47.197 22.796 46.1321 19.2549 43.7757C16.7738 42.1249 15.9565 40.0808 16.8968 37.8345C17.3823 36.7016 17.5118 35.5023 17.8452 34.1606C16.2996 34.4423 15.9759 35.0961 15.594 35.6059C13.4901 38.4219 13.0822 41.395 14.0274 44.3777C14.7184 46.5561 17.0667 48.194 20.2275 49.3641C25.2446 51.2237 30.668 51.6477 36.4215 50.9243C39.4463 50.5455 42.4906 50.2024 45.5478 49.9257C48.66 49.6441 51.8774 49.6133 54.4976 50.7559C56.1403 51.4729 57.4529 52.5362 58.5631 53.5817C59.7737 54.7146 62.8438 58.3075 62.86 58.3026C62.8762 58.2978 65.9464 54.7178 67.1569 53.5817C68.2672 52.5411 69.5846 51.4777 71.2224 50.7559C73.8426 49.6133 77.06 49.6441 80.1707 49.9257C83.2279 50.2024 86.2721 50.5455 89.2986 50.9243C95.0504 51.6477 100.475 51.2237 105.492 49.3641C108.652 48.194 110.995 46.5561 111.691 44.3777C112.636 41.395 112.23 38.4219 110.126 35.6059C109.744 35.0961 109.419 34.4423 107.873 34.1606Z" fill="#C9558A"/>
<path d="M27.0971 19.8618C23.87 19.8618 21.5783 21.2294 20.8257 23.3366C20.502 24.2575 21.4407 24.4695 21.7628 23.6425C21.9754 23.0208 22.353 22.4687 22.8552 22.0451C22.8552 23.1359 22.8244 25.3499 22.8244 29.1661C22.8244 34.9148 23.4087 34.9763 25.3136 34.9763C28.6184 34.9763 33.3232 32.9468 33.3232 26.6916C33.3232 22.5258 30.2336 19.8667 27.0971 19.8667V19.8618ZM25.914 33.8029C25.914 33.8029 25.9755 33.0503 25.9755 27.517C25.9755 24.4727 25.8978 22.1988 25.3751 21.3071H25.7295C28.6653 21.3071 29.6024 23.1359 29.6024 27.2548C29.6024 32.8351 27.6813 34.0343 25.914 33.8029Z" fill="#A54C85"/>
<path d="M38.7177 26.0554C37.8114 26.5021 36.6883 28.1933 36.0118 30.0221C36.1936 29.054 36.4562 28.1029 36.7967 27.1786C37.3502 25.5488 36.3112 24.7186 34.5519 25.196C34.2606 25.2721 33.7217 27.4084 33.7217 29.8215C33.7217 32.7573 33.8835 34.4485 34.1684 34.6638C35.0132 35.3112 36.5199 34.8256 36.3662 34.4032C36.3193 34.2333 36.2578 34.065 36.2044 33.895C36.207 33.8486 36.2015 33.802 36.1882 33.7575C35.8969 31.851 37.0184 29.2065 37.9409 28.5008C38.2646 28.2548 38.7242 28.5461 38.5252 29.4719C38.4491 29.8409 40.8314 29.9946 41.1535 28.1966C41.4917 26.3208 40.3232 25.2607 38.7097 26.0586L38.7177 26.0554Z" fill="#A54C85"/>
<path d="M48.8309 31.4222C47.8599 33.0827 45.1264 34.0668 44.3123 32.6053C44.3431 32.5908 44.3576 32.5907 44.3738 32.5746C46.9859 31.5452 48.6157 28.7486 47.5864 27.1642C46.1719 24.9825 41.7455 26.9344 41.192 29.9932C40.6854 32.8206 41.9915 34.7125 44.144 34.9423C45.9728 35.1414 48.7856 33.4518 49.3229 31.8528C49.6304 30.961 49.2776 30.6697 48.8374 31.4222H48.8309ZM44.0194 30.5305C44.343 27.7339 45.2656 26.5815 45.7268 27.3179C46.1881 28.0252 45.6491 30.5305 44.0194 31.6877C43.9739 31.3044 43.9739 30.917 44.0194 30.5337V30.5305Z" fill="#A54C85"/>
<path d="M58.2078 33.0408C57.4083 33.9325 56.5473 33.549 56.209 32.8255C55.7785 31.9192 55.963 29.5984 56.2236 28.2146C56.6849 25.6948 55.5471 24.926 53.5192 26.2321C53.4304 26.3422 53.3743 26.4751 53.3574 26.6156C51.8361 25.91 49.2385 27.1012 48.6996 30.0143C48.193 32.7964 49.2676 34.7644 51.0981 34.9651C52.0044 35.0719 52.7165 34.7191 53.3104 34.1348C53.4734 33.9561 53.6082 33.7537 53.7102 33.5344C53.9018 33.9071 54.181 34.2277 54.5237 34.4687C54.8665 34.7097 55.2627 34.8639 55.6782 34.9181C56.8613 35.1334 58.1673 34.3501 58.7985 33.7189C59.844 32.6896 58.983 32.1814 58.1997 33.0424L58.2078 33.0408ZM52.5805 33.4875C51.9979 34.0555 50.8747 32.8401 51.1369 30.5516C51.3829 28.5076 52.3507 26.9911 53.2732 27.2776C53.181 28.2923 53.181 29.8136 53.181 30.7669C53.181 31.0129 53.1955 31.2427 53.2117 31.4579C53.1648 31.8884 53.0272 33.057 52.5805 33.4875Z" fill="#A54C85"/>
<path d="M72.1329 33.4648C71.4726 34.1882 70.7184 33.9875 70.3802 32.9113C70.0727 31.9402 70.1504 30.0677 70.4109 28.6856C70.8965 26.1802 69.0288 25.5491 66.9831 26.8098C66.2613 27.2711 65.601 28.2858 65.1397 29.5142C65.1705 29.2536 65.2158 28.9769 65.2627 28.6856C65.7078 26.1641 64.0942 25.5491 62.0502 26.8098C61.296 27.2856 60.6195 28.3473 60.1744 29.6226C60.2414 28.8651 60.3702 28.1144 60.5596 27.3779C61.0354 25.5652 60.6826 24.5958 58.4686 25.1962C58.1757 25.2723 57.8682 26.9328 57.8682 29.3459C57.8682 32.2817 58.0834 34.4488 58.3764 34.664C59.2212 35.2936 60.6826 34.8258 60.5742 34.3873C60.4673 33.9729 60.3751 33.5424 60.2974 33.065C60.3282 31.2524 60.7441 29.2989 61.5922 28.6386C62.0987 28.2551 62.683 28.5771 62.6069 31.2281C62.5292 34.0264 62.8367 34.3339 63.175 34.5637C64.0505 35.1479 65.5573 34.7255 65.465 34.2869C65.3728 33.8872 65.3032 33.4874 65.2352 33.1184C65.2498 31.2896 65.6803 29.2908 66.53 28.6305C67.0381 28.247 67.391 28.569 67.391 31.22C67.391 33.8338 68.2374 34.6187 69.8817 34.9246C70.3737 35.0297 70.8841 35.0107 71.3669 34.8695C71.8497 34.7282 72.2898 34.4691 72.6476 34.1154C73.6931 33.0844 72.9243 32.5779 72.141 33.4534L72.1329 33.4648Z" fill="#A54C85"/>
<path d="M76.5447 33.0506C75.7355 33.9731 74.7467 33.6655 74.423 32.8191C73.8549 31.3285 74.1931 26.6562 75.4992 22.8286C76.3084 20.401 75.4523 19.37 72.8709 20.3233C72.4857 20.4608 71.8254 25.1041 71.7785 27.9622C71.7331 31.513 71.6716 34.6949 73.8695 34.9409C75.0687 35.0639 76.5755 34.4035 77.1597 33.727C78.1421 32.5941 77.4203 32.0973 76.5447 33.0506Z" fill="#A54C85"/>
<path d="M85.7829 33.0408C84.9834 33.9325 84.1224 33.549 83.7841 32.8255C83.3536 31.9192 83.5381 29.5984 83.7987 28.2146C84.2599 25.6948 83.1238 24.926 81.0943 26.2321C81.0054 26.3422 80.9494 26.4751 80.9325 26.6156C79.4111 25.91 76.8136 27.1012 76.2746 30.0143C75.7681 32.7964 76.8443 34.7644 78.6731 34.9651C79.5795 35.0719 80.2916 34.7191 80.8855 34.1348C81.0485 33.9561 81.1832 33.7537 81.2853 33.5344C81.4769 33.9071 81.756 34.2277 82.0988 34.4687C82.4416 34.7097 82.8378 34.8639 83.2533 34.9181C84.4363 35.1334 85.744 34.3501 86.3736 33.7189C87.4191 32.6896 86.5581 32.1814 85.7748 33.0424L85.7829 33.0408ZM80.1556 33.4875C79.573 34.0555 78.4498 32.8401 78.712 30.5516C78.958 28.5076 79.9258 26.9911 80.8483 27.2776C80.7561 28.2923 80.756 29.8136 80.756 30.7669C80.756 31.0129 80.7706 31.2427 80.7868 31.4579C80.7399 31.8884 80.6023 33.057 80.1556 33.4875Z" fill="#A54C85"/>
<path d="M94.9127 33.2803C94.2523 34.0183 93.3444 33.973 93.0062 32.8805C92.6987 31.9095 92.7763 29.9916 93.0369 28.5933C93.5224 26.088 91.6532 25.473 89.6091 26.7321C88.8711 27.1934 88.1962 28.2389 87.735 29.5142C87.8026 28.7878 87.9309 28.0683 88.1185 27.3633C88.5943 25.5345 88.2415 24.5812 86.0275 25.1655C85.7524 25.2416 85.4287 26.9166 85.4287 29.3297C85.4287 32.2429 85.6439 34.418 85.9353 34.6478C86.7817 35.279 88.2415 34.8097 88.1347 34.3727C88.0205 33.9377 87.9329 33.4961 87.8725 33.0505C87.8725 31.2216 88.303 29.2229 89.1478 28.5626C89.6706 28.1774 90.0088 28.5011 90.0088 31.1601C90.0088 33.7496 90.8553 34.6187 92.5141 34.91C93.6988 35.1253 94.7896 34.5863 95.4273 33.9568C96.4728 32.9275 95.7041 32.4047 94.9207 33.2803H94.9127Z" fill="#A54C85"/>
<path d="M103.857 33.3645C103.135 34.164 102.383 33.3952 102.198 32.811C101.713 31.2896 101.628 26.6464 102.92 22.8204C103.75 20.4058 102.781 19.3619 100.199 20.3151C99.8756 20.4381 99.4467 23.9258 99.3075 26.7241C97.8008 25.9408 95.2339 27.0316 94.6966 29.9609C94.1901 32.7575 95.2647 34.7256 97.0951 34.9246C98.0015 35.0169 98.7136 34.6802 99.293 34.0798C99.4686 33.8938 99.6139 33.6814 99.7235 33.4502C100.029 34.2951 100.552 34.8485 101.413 34.957C102.629 35.0784 103.826 34.6479 104.457 34.0183C105.501 32.989 104.642 32.4808 103.857 33.358V33.3645ZM98.5695 33.4567C97.9853 34.0102 96.9511 32.7948 97.2165 30.5047C97.448 28.5529 98.3494 27.1384 99.2768 27.5543V27.9541C99.2622 29.0756 99.246 30.1665 99.3075 31.1359C99.246 31.5971 99.0308 33.01 98.5695 33.4567Z" fill="#A54C85"/>
</g>
<defs>
<clipPath id="clip0_698_1356">
<rect width="124.143" height="57.933" fill="white" transform="translate(0.77832 0.369629)"/>
</clipPath>
</defs>
</svg>
