<svg width="81" height="108" viewBox="0 0 81 108" fill="none" xmlns="http://www.w3.org/2000/svg">
<g clip-path="url(#clip0_698_1109)">
<path d="M10.5697 65.4004C10.2982 61.7533 9.29615 56.305 9.71036 56.2672C30.2782 54.3938 54.2593 54.0982 71.0528 56.5267C71.2247 60.2443 69.5936 65.1615 68.8494 65.1581C61.667 65.1237 53.742 64.8796 46.5595 64.8642C37.5758 64.8453 28.5921 64.9587 19.6084 65.0635C16.6316 65.0979 13.6634 65.2818 10.5697 65.4004Z" fill="#AD6A46"/>
<path d="M71.3764 26.8945C70.8264 27.142 70.285 27.582 69.7281 27.6061C61.9166 27.8673 54.1051 28.1715 46.2901 28.2592C36.3336 28.3726 26.3737 28.2746 16.4155 28.3262C14.4149 28.3365 12.416 28.6304 10.4137 28.7318C9.99436 28.7542 9.22267 28.5599 9.19861 28.3726C9.13158 27.8862 9.21235 27.099 9.53031 26.8945C10.3433 26.3789 11.2954 25.8633 12.2321 25.7705C21.4255 24.9111 30.6137 23.9246 39.8277 23.4347C46.3382 23.091 52.8899 23.3059 59.421 23.5705C62.7656 23.7063 66.0931 24.4419 69.4085 25.028C70.1509 25.1603 70.8058 25.798 71.5001 26.2036L71.3764 26.8945Z" fill="#BF7782"/>
<path d="M9.20518 41.1116C8.13958 38.9941 9.31688 37.846 10.3034 36.8629C13.2115 33.9411 16.8345 33.4702 20.5297 35.7595C22.8431 37.1912 24.6546 36.6516 26.6776 35.3728C28.1763 34.4258 29.7713 33.5218 31.4367 32.9666C33.9907 32.1296 36.3281 32.7432 38.4439 34.5375C42.225 37.7395 42.6874 37.6776 46.9566 35.1322C48.247 34.355 49.6217 33.727 51.054 33.2605C54.2079 32.2585 56.2617 32.8824 58.1523 35.6289C59.3949 37.437 60.849 37.5831 62.6209 36.8922C64.2228 36.2648 65.749 35.4485 67.3543 34.8297C69.1366 34.1422 70.6593 34.7575 71.682 36.2717C72.0257 36.777 71.8367 37.6467 71.8917 38.3428C71.2042 38.3187 70.2555 38.5748 69.9066 38.2242C68.315 36.6275 66.8834 37.1929 65.2781 38.1348C64.1815 38.7776 62.9888 39.3585 61.7616 39.6593C59.1577 40.2986 56.8805 39.6387 55.4642 37.2153C54.3574 35.3247 52.8673 35.1133 51.0729 35.9142C50.0265 36.3826 49.0185 36.9326 48.0583 37.559C43.7272 40.3691 40.3912 40.1835 36.4897 36.8612C33.7948 34.565 31.5776 34.4894 28.7813 36.6086C25.4573 39.1282 22.0697 40.2333 18.0514 37.9028C15.341 36.3319 13.3404 36.8922 11.1009 39.1643C10.5543 39.7229 10.0216 40.2746 9.20518 41.1116Z" fill="#B63A63"/>
<path d="M61.8283 34.0325C61.8513 34.1311 61.8481 34.2339 61.8189 34.3309C61.7898 34.4278 61.7358 34.5154 61.6622 34.585C61.5887 34.6545 61.4982 34.7036 61.3997 34.7273C61.3013 34.751 61.1984 34.7484 61.1013 34.72C60.5152 34.5481 60.089 34.4347 59.9136 34.1597C59.5044 33.4548 59.2975 32.6508 59.3155 31.836C59.3155 31.6246 59.6593 31.4166 60.003 31.2086C60.0685 31.1692 60.1412 31.1431 60.2168 31.1318C60.2924 31.1205 60.3695 31.1244 60.4437 31.1431C60.5178 31.1618 60.5875 31.1949 60.6487 31.2407C60.71 31.2865 60.7616 31.3439 60.8005 31.4097C61.0477 31.8048 61.2648 32.2179 61.4502 32.6455C61.6121 33.0973 61.7385 33.561 61.8283 34.0325Z" fill="#B63A63"/>
<path d="M23.5308 34.0802C23.5592 34.1675 23.5666 34.2603 23.5524 34.351C23.5382 34.4416 23.5027 34.5277 23.449 34.6021C23.3952 34.6765 23.3246 34.7371 23.2429 34.779C23.1613 34.8209 23.0708 34.843 22.9791 34.8433C21.1693 34.8588 20.9029 33.8121 21.1143 32.6537C21.1761 32.31 21.5525 32.0092 21.9478 31.7187C22.0213 31.6644 22.1066 31.6282 22.1967 31.6133C22.2868 31.5983 22.3792 31.6049 22.4663 31.6326C22.5534 31.6603 22.6326 31.7082 22.6976 31.7725C22.7625 31.8368 22.8113 31.9155 22.8399 32.0023L23.5308 34.0802Z" fill="#B63A63"/>
<path d="M41.2664 32.1415C41.2115 32.0686 41.1745 31.9839 41.1585 31.8941C41.1424 31.8042 41.1477 31.7119 41.174 31.6245C41.2003 31.5372 41.2468 31.4572 41.3097 31.3912C41.3727 31.3251 41.4503 31.2748 41.5362 31.2443C42.0519 31.0725 42.4764 30.9109 42.6053 31.0432C43.1621 31.6701 43.573 32.4127 43.8084 33.2174C43.8496 33.3515 43.5763 33.5869 43.2824 33.8276C43.2219 33.8769 43.1521 33.9134 43.0772 33.9352C43.0022 33.9569 42.9237 33.9633 42.8462 33.954C42.7687 33.9447 42.6939 33.9199 42.6262 33.881C42.5586 33.8422 42.4994 33.7901 42.4523 33.7279L41.2664 32.1415Z" fill="#B63A63"/>
<path d="M11.0406 33.5012L9.7567 34.651C9.698 34.7033 9.62922 34.7432 9.55458 34.768C9.47993 34.7929 9.40099 34.8022 9.32262 34.7954C9.24424 34.7887 9.16807 34.766 9.09878 34.7287C9.02949 34.6915 8.96856 34.6404 8.91969 34.5788C8.63438 34.2247 8.35422 33.8707 8.435 33.6421C8.65156 33.0199 9.23764 32.3427 9.83576 32.0953C10.0901 31.9938 10.4957 32.2671 10.9701 32.5731C11.0467 32.6213 11.1109 32.6867 11.1576 32.7643C11.2043 32.8418 11.2322 32.9291 11.2391 33.0194C11.2459 33.1096 11.2315 33.2002 11.1971 33.2839C11.1626 33.3675 11.109 33.4419 11.0406 33.5012Z" fill="#B63A63"/>
<path d="M71.7201 33.7433C71.6502 33.8107 71.5644 33.8596 71.4707 33.8854C71.3771 33.9112 71.2784 33.9132 71.1838 33.8911C71.0892 33.8691 71.0016 33.8237 70.9289 33.7592C70.8563 33.6947 70.801 33.613 70.768 33.5216C70.5377 32.8737 70.3589 32.3907 70.3555 31.9043C70.3555 31.7324 70.6184 31.5451 70.914 31.3629C70.9835 31.3207 71.0611 31.2936 71.1418 31.2834C71.2224 31.2732 71.3043 31.2801 71.3821 31.3036C71.4599 31.3271 71.5319 31.3667 71.5934 31.4198C71.6549 31.473 71.7045 31.5385 71.739 31.6121C71.9744 32.0574 72.1478 32.5327 72.2547 33.0249C72.2718 33.2002 72.0536 33.4168 71.7201 33.7433Z" fill="#B63A63"/>
<path d="M35.3504 61.8943L27.6162 61.9871C28.1078 60.0828 29.0909 58.8539 30.8818 58.3778C33.5526 57.6577 33.5819 60.2804 35.3504 61.8943Z" fill="#E5A3A5"/>
<path d="M20.1357 58.1064L26.1719 58.17L26.6411 58.6272C25.6923 59.533 24.8845 60.9062 23.7657 61.2431C21.5949 61.8979 20.9951 59.9541 20.1357 58.1064Z" fill="#E5A3A5"/>
<path d="M19.6872 62.1952L13.878 62.8431C13.7439 61.0299 14.7717 60.009 16.2429 59.5776C18.3225 58.9846 18.4755 61.0471 19.6872 62.1952Z" fill="#E5A3A5"/>
<path d="M48.5141 57.3154L53.6273 57.1436L53.9934 57.776C53.0945 58.522 52.2197 59.823 51.2881 59.8643C50.2775 59.9107 49.2154 58.7832 48.1738 58.1679L48.5141 57.3154Z" fill="#E5A3A5"/>
<path d="M47.9514 61.7035L42.2796 61.6708L41.96 61.2016C42.962 60.4471 43.9588 59.1031 44.9643 59.0962C46.0556 59.0962 47.1573 60.3251 48.2539 61.0194C48.1593 61.2532 48.0545 61.48 47.9514 61.7035Z" fill="#E5A3A5"/>
<path d="M61.1309 57.7832L66.4984 58.5515L66.8043 59.086C65.8349 59.6669 64.8879 60.6827 63.8928 60.7308C62.358 60.8047 61.3766 59.6635 61.1309 57.7832Z" fill="#E5A3A5"/>
<path d="M41.6045 58.2368C40.6283 58.9552 39.7139 60.0947 38.6535 60.2494C37.9265 60.3559 37.0001 59.0944 36.1631 58.4447C36.2777 58.2007 36.3922 57.9578 36.5068 57.716L41.2144 57.5562C41.3439 57.783 41.4739 58.0099 41.6045 58.2368Z" fill="#E5A3A5"/>
<path d="M54.9023 61.4386C56.7448 58.4704 57.4478 58.4842 59.6701 61.8219L54.9023 61.4386Z" fill="#E5A3A5"/>
<path d="M66.5892 43.6912C55.0136 42.1203 43.3866 41.7267 31.7234 42.2973C24.7145 42.6411 9.09659 44.1673 8.80957 44.2738C9.11378 46.9275 9.66893 49.2684 10.0127 51.6729C11.0439 51.6729 28.8222 51.2518 35.6438 51.2398C42.7266 51.2295 49.8111 51.1641 56.8905 51.3085C60.5496 51.3841 65.4978 51.9238 69.1569 52.1111C69.7808 50.8788 70.69 48.7562 71.8673 44.8582C70.0369 44.4457 68.3319 43.9284 66.5892 43.6912ZM14.8663 49.5004L12.8709 49.2959C12.8846 48.2131 12.8967 47.1647 12.9139 45.8585L15.2169 46.0957C15.0915 47.2816 14.9849 48.3231 14.8663 49.5004ZM19.7096 49.5004L17.7125 49.2959C17.7262 48.2131 17.74 47.1647 17.7555 45.8585L20.0585 46.0957C19.9348 47.2816 19.8265 48.3231 19.7062 49.5004H19.7096ZM22.6624 48.8628C22.6985 47.6477 22.7311 46.57 22.7706 45.2879L24.7712 45.4924C24.7798 46.6319 24.7867 47.6666 24.7936 48.8267L22.6624 48.8628ZM29.4444 48.4228C27.4112 48.5586 27.2891 48.3197 27.8219 45.0782L29.4496 45.1521C29.5028 46.2022 29.5544 47.12 29.5871 48.0395C29.5645 48.1774 29.5149 48.3094 29.441 48.428L29.4444 48.4228ZM34.2877 48.2802C32.2545 48.4159 32.1308 48.177 32.6653 44.9338L34.2912 45.0094C34.3444 46.0596 34.3977 46.9774 34.4287 47.8969C34.4075 48.0343 34.3596 48.1663 34.2877 48.2853V48.2802ZM37.4502 44.9046L39.3648 44.9648C39.394 46.0991 39.4215 47.1303 39.4525 48.2939C36.7885 48.4692 36.7249 48.3506 37.4467 44.9098L37.4502 44.9046ZM42.2935 44.7121L44.2064 44.7723C44.2356 45.9083 44.2631 46.9378 44.2941 48.1014C41.6301 48.2698 41.5665 48.1581 42.2901 44.7173L42.2935 44.7121ZM47.7624 48.2303C47.3877 47.2799 47.2004 46.259 46.8343 44.8273C47.7899 45.1418 48.7249 45.2123 48.8022 45.5148C49.06 46.4308 48.9861 47.4397 49.0428 48.4125C48.5943 48.3661 47.8363 48.4331 47.759 48.2355L47.7624 48.2303ZM51.8993 45.3824C53.5321 45.348 53.5321 45.348 53.7624 48.4658C51.0933 48.4537 51.9268 46.7144 51.8959 45.3876L51.8993 45.3824ZM56.7427 45.226C58.3737 45.1916 58.3737 45.1916 58.604 48.3094C55.9435 48.2973 56.7685 46.558 56.7392 45.2312L56.7427 45.226ZM61.5843 45.4632C63.2153 45.4288 63.2153 45.4288 63.4456 48.5465C60.7782 48.5345 61.6152 46.7952 61.5809 45.4683L61.5843 45.4632ZM67.9658 48.9195C67.9521 49.1876 67.6513 49.607 67.4279 49.6534C67.2045 49.6998 66.6218 49.3629 66.6287 49.2151C66.6854 48.043 66.8453 46.8777 66.9724 45.709L67.9469 45.8327C67.9573 46.8674 68.0105 47.8986 67.9624 48.9247L67.9658 48.9195Z" fill="#E5A3A5"/>
<path d="M43.3969 6.72883C45.5831 4.98434 47.7659 3.18828 50.0122 1.47816C50.6636 0.981455 51.4817 0.680695 52.262 0.397108C52.5164 0.304298 52.9908 0.464135 53.1798 0.673818C53.3087 0.81819 53.1953 1.29254 53.0543 1.54519C50.9747 5.28339 49.7888 9.53032 49.433 13.834C49.3282 15.0921 49.2801 16.3622 49.0601 17.6014C49.0119 17.8781 48.3589 18.2287 47.979 18.2373C45.9028 18.2837 43.8215 18.1565 41.7487 18.2373C39.0709 18.3353 36.3829 18.4504 33.7309 18.8028C32.6412 18.9489 31.9056 18.3765 31.5825 17.457C30.9225 15.5836 30.1801 13.7394 29.563 11.854C28.9116 9.86031 27.8203 5.66666 27.4507 3.9978C27.4352 3.92915 27.4392 3.85751 27.4623 3.79101C27.4853 3.72452 27.5266 3.66583 27.5814 3.62162C27.6362 3.57741 27.7022 3.54943 27.7721 3.54089C27.842 3.53234 27.9129 3.54357 27.9767 3.57328C29.4857 4.26076 33.0572 6.184 34.1211 6.81132C35.7143 4.87434 37.0996 3.15907 38.5227 1.48332C39.3373 0.519127 39.7773 0.546632 40.4236 1.61739C41.4599 3.3275 42.443 5.08402 43.3969 6.72883ZM50.5485 2.87719C48.2437 4.55466 46.9564 5.78525 44.6911 8.1141C43.9761 9.19861 42.8005 9.39627 42.0701 8.33754C41.484 7.47818 41.1299 6.45899 40.6814 5.50683C40.2328 4.55466 39.8083 3.61624 39.3717 2.68126C39.2187 2.6572 36.8039 5.84026 35.9343 7.55038C35.4359 8.53348 34.7175 8.58159 33.9956 8.31348C32.9386 7.9113 31.9606 7.28225 30.9706 6.72023C30.3261 6.34899 29.9755 6.06197 29.3259 5.63573C30.3966 9.33955 31.8111 12.1926 32.8234 15.7469C33.0331 16.4791 33.3786 16.687 34.1709 16.5152C35.984 16.1495 37.8229 15.9259 39.6708 15.8466C42.3863 15.6902 44.6396 15.9531 46.9306 16.0184C47.2245 11.1734 48.5531 7.25131 50.545 2.87719H50.5485Z" fill="#E6A171"/>
<path d="M2.99388 89.5962C2.264 89.5962 1.73749 89.4501 1.41437 89.1579C1.09125 88.8658 0.908506 88.4344 0.866112 87.8637C0.854081 87.6919 0.843759 87.4255 0.835166 87.056C0.826572 86.6864 0.824864 86.2464 0.824864 85.7411C0.824864 85.2358 0.824864 84.6824 0.824864 84.086C0.824864 83.4896 0.824864 82.8829 0.824864 82.2556C0.834031 81.489 0.839756 80.8302 0.842047 80.2791C0.844339 79.7279 0.844339 79.2536 0.842047 78.856C0.842047 78.4607 0.842047 78.129 0.842047 77.8643C0.842047 77.5996 0.842034 77.3641 0.828284 77.1631C0.814534 76.962 0.812815 76.7763 0.80594 76.6079C0.799065 76.4395 0.790483 76.2642 0.775015 76.0614C0.767959 76.0205 0.771515 75.9785 0.785358 75.9393C0.799202 75.9002 0.822862 75.8653 0.854069 75.8379C0.907979 75.7963 0.973401 75.7723 1.04142 75.7692C1.37485 75.7692 1.73922 75.7692 2.13624 75.74C2.53326 75.7108 2.92683 75.697 3.32213 75.6712C3.71744 75.6454 4.10072 75.6214 4.47024 75.6025C4.83976 75.5836 5.15772 75.5732 5.44818 75.5732C6.17239 75.5581 6.89433 75.6597 7.58626 75.874C8.14524 76.0481 8.65719 76.3473 9.08325 76.7489C9.48304 77.142 9.79319 77.6169 9.99246 78.141C10.2187 78.7401 10.3531 79.37 10.3912 80.0092C10.4496 80.7492 10.4044 81.4937 10.2571 82.2212C10.1248 82.8952 9.85505 83.5346 9.4648 84.0998C9.06919 84.6568 8.54035 85.1059 7.92657 85.406C7.19321 85.751 6.38887 85.9182 5.5788 85.8941C5.10095 85.9046 4.62407 85.8467 4.16259 85.7222V89.3057C4.16519 89.3851 4.14427 89.4634 4.10244 89.5309C4.072 89.5577 4.03609 89.5776 3.99722 89.5891C3.95835 89.6007 3.91744 89.6037 3.8773 89.5979L2.99388 89.5962ZM5.28663 78.4933C5.10118 78.4943 4.9159 78.5047 4.73149 78.5243C4.52639 78.5438 4.30983 78.5661 4.08181 78.5913C4.09671 79.1379 4.1139 79.8001 4.13338 80.5781C4.15286 81.3561 4.16201 82.1742 4.16087 83.0325C4.34971 83.0829 4.54224 83.1186 4.73665 83.139C4.92399 83.1579 5.09414 83.1682 5.25226 83.1682C5.63386 83.1891 6.01057 83.0746 6.31613 82.8451C6.57337 82.6347 6.7742 82.3636 6.9005 82.0562C7.03095 81.7468 7.11047 81.4183 7.13596 81.0834C7.16181 80.792 7.16582 80.499 7.14798 80.2069C7.10674 79.6489 6.95034 79.2238 6.67878 78.9316C6.40722 78.6394 5.94318 78.4933 5.28663 78.4933Z" fill="#B63A63"/>
<path d="M14.2974 89.5897C13.5675 89.5897 13.0405 89.4442 12.7162 89.1532C12.3948 88.861 12.2109 88.4296 12.1697 87.8573C12.1576 87.7026 12.1473 87.4396 12.1404 87.0684C12.1336 86.6971 12.1284 86.2606 12.1284 85.7536C12.1284 85.2465 12.1284 84.6931 12.1284 84.0898C12.1284 83.4866 12.1284 82.873 12.137 82.2491C12.137 80.9383 12.1318 79.8738 12.1215 79.0557C12.1112 78.2376 12.0986 77.5948 12.0837 77.1273C12.0702 76.7535 12.0811 76.3792 12.1164 76.0067C12.1427 75.8452 12.2201 75.7644 12.3484 75.7644C12.746 75.7644 13.1522 75.7541 13.567 75.7335C13.9817 75.7129 14.3828 75.6899 14.77 75.6647L15.8511 75.596C16.1949 75.5771 16.4922 75.5668 16.762 75.5668C17.4864 75.5522 18.2083 75.6573 18.8984 75.8778C19.4556 76.0559 19.9668 76.3546 20.3954 76.7527C20.7935 77.1359 21.1036 77.6009 21.3046 78.1156C21.5268 78.6888 21.6589 79.2929 21.6965 79.9065C21.7855 80.8275 21.6499 81.7564 21.3011 82.6135C20.9544 83.4147 20.3249 84.0601 19.5326 84.4267L21.3201 86.7624C21.6483 87.2024 21.8976 87.5445 22.0694 87.7834C22.2006 87.9382 22.2931 88.122 22.3393 88.3196C22.3313 88.4566 22.2842 88.5884 22.2035 88.6994C22.0852 88.8862 21.9352 89.0509 21.76 89.1858C21.5367 89.3627 21.2874 89.5042 21.021 89.6052C20.7033 89.7254 20.3655 89.7838 20.0259 89.7771C19.6224 89.7797 19.2318 89.6348 18.9276 89.3697C18.5754 89.0598 18.2758 88.6947 18.0408 88.2887C17.7496 87.7972 17.5056 87.2793 17.312 86.7418C17.0955 86.1575 16.8864 85.5473 16.6847 84.9114C16.3008 84.8956 15.9187 84.8502 15.5418 84.7756C15.5418 85.3462 15.5418 85.8928 15.5418 86.4118C15.5418 86.9309 15.5418 87.3949 15.5418 87.804C15.5418 88.213 15.5418 88.5499 15.5418 88.8163C15.5418 89.0827 15.5418 89.2408 15.5418 89.2941C15.5442 89.3729 15.5233 89.4506 15.4816 89.5175C15.4513 89.5446 15.4155 89.5648 15.3766 89.5767C15.3377 89.5886 15.2967 89.5918 15.2565 89.5863L14.2974 89.5897ZM16.5885 78.4886C16.4162 78.4891 16.2441 78.4989 16.0728 78.5178C15.8821 78.5367 15.6793 78.5608 15.4627 78.5865C15.4627 79.0403 15.4816 79.5817 15.4971 80.2124C15.5125 80.8432 15.5194 81.5135 15.5211 82.2268C15.9089 82.3225 16.306 82.375 16.7053 82.3832C17.0394 82.3992 17.3709 82.3173 17.6592 82.1477C17.8858 82.0052 18.0726 81.8078 18.2023 81.5737C18.3259 81.3479 18.4025 81.0994 18.4275 80.8432C18.4527 80.6103 18.4579 80.3757 18.443 80.142C18.4355 79.6893 18.2666 79.2541 17.9669 78.9148C17.6896 78.6295 17.229 78.4874 16.585 78.4886H16.5885Z" fill="#B63A63"/>
<path d="M26.1564 89.5826C25.4397 89.5826 24.9155 89.44 24.5873 89.1547C24.4177 88.9979 24.2815 88.8087 24.1867 88.5981C24.0919 88.3876 24.0405 88.1601 24.0355 87.9292C24.0172 87.6691 24.0035 87.224 23.9943 86.5938C23.9851 85.9636 23.9851 85.2463 23.9943 84.442C23.9943 83.6399 23.9943 82.7897 23.9943 81.8914C23.9943 80.9931 23.9943 80.1492 23.9943 79.3597C23.9943 78.5668 23.9943 77.8725 23.9943 77.2767C23.9943 76.6785 23.9771 76.2695 23.9599 76.0495C23.9427 75.8295 24.0407 75.7573 24.2469 75.7573H31.0135C31.0888 75.7571 31.1629 75.7767 31.2283 75.814C31.2636 75.8375 31.2923 75.8695 31.3118 75.9071C31.3314 75.9446 31.3411 75.9865 31.3401 76.0289L31.3487 77.1787C31.3673 77.5114 31.2807 77.8415 31.1012 78.1223C30.9293 78.3629 30.5615 78.4832 29.984 78.4832H27.332L27.3423 81.2331H30.0734C30.149 81.2327 30.2232 81.2529 30.2882 81.2916C30.3237 81.3144 30.3526 81.346 30.3722 81.3834C30.3917 81.4207 30.4013 81.4625 30.3999 81.5047V82.6545C30.4188 82.9872 30.3322 83.3175 30.1524 83.5981C29.9806 83.8387 29.6128 83.959 29.0353 83.959H27.363V86.8602H31.5927C31.67 86.8602 31.7455 86.8836 31.8093 86.9272C31.8425 86.9502 31.87 86.9807 31.8894 87.0162C31.9088 87.0518 31.9196 87.0913 31.921 87.1317V88.2816C31.9396 88.6146 31.8537 88.9451 31.6752 89.2269C31.5068 89.4663 31.1344 89.5866 30.5581 89.5878L26.1564 89.5826Z" fill="#B63A63"/>
<path d="M38.0364 75.5548C39.2395 75.5548 40.1527 75.8206 40.776 76.3523C41.0819 76.6099 41.3313 76.9279 41.5088 77.2863C41.6862 77.6447 41.7878 78.0359 41.8072 78.4354C41.8599 79.163 41.7024 79.7181 41.3346 80.1008C40.9668 80.4835 40.4105 80.6749 39.6657 80.6749C39.5135 80.689 39.3602 80.666 39.2188 80.6078C39.1797 80.5725 39.1489 80.5288 39.1287 80.4801C39.1084 80.4313 39.0993 80.3787 39.102 80.326C39.0917 80.1953 39.071 80.0269 39.0349 79.8189C39.0006 79.6102 38.9376 79.4072 38.8476 79.2157C38.7544 79.0208 38.6166 78.8507 38.4454 78.719C38.2388 78.5738 37.9895 78.5018 37.7373 78.5145C37.3469 78.5071 36.9673 78.6428 36.67 78.896C36.525 79.0124 36.4116 79.1636 36.3404 79.3354C36.2692 79.5072 36.2425 79.6942 36.2627 79.8791C36.2718 80.047 36.3175 80.2108 36.3964 80.3592C36.4754 80.5076 36.5858 80.637 36.7198 80.7385C37.0374 80.9841 37.3837 81.1902 37.7511 81.352C38.1618 81.5394 38.6104 81.7319 39.0899 81.9261C39.5735 82.1209 40.0289 82.3793 40.4443 82.6943C40.8734 83.0212 41.2392 83.4237 41.5236 83.882C41.8437 84.4303 42.0243 85.0488 42.0496 85.6832C42.0954 86.2234 42.0418 86.7675 41.8914 87.2885C41.7499 87.7735 41.5001 88.2201 41.161 88.5947C40.7945 88.9806 40.3423 89.275 39.841 89.454C39.2227 89.6752 38.5691 89.7813 37.9126 89.7668C36.7841 89.7745 35.6694 89.5185 34.6574 89.0192C34.2877 88.841 33.9488 88.6048 33.6537 88.3197C33.4467 88.1426 33.3066 87.9 33.2566 87.6322C33.1869 87.0171 33.1869 86.3962 33.2566 85.7811C33.3254 85.4053 33.4875 85.2168 33.743 85.2157C33.9577 85.2297 34.1623 85.3115 34.3274 85.4494C34.5371 85.6053 34.7777 85.7806 35.0493 85.9754C35.3415 86.1793 35.6543 86.3521 35.9825 86.491C36.3624 86.6534 36.7725 86.7331 37.1856 86.7247C37.362 86.7254 37.5381 86.7093 37.7115 86.6766C37.87 86.6461 38.0218 86.5879 38.1601 86.5047C38.2865 86.4289 38.3913 86.3217 38.4643 86.1936C38.5406 86.0504 38.5717 85.8874 38.5537 85.7262C38.5455 85.5731 38.5033 85.4238 38.4302 85.2891C38.357 85.1545 38.2548 85.0378 38.1309 84.9476C37.8334 84.7298 37.5101 84.5497 37.1684 84.4113C36.7846 84.2498 36.3721 84.0814 35.931 83.906C35.4805 83.7271 35.058 83.4846 34.6763 83.1859C34.2652 82.8638 33.9218 82.4637 33.6657 82.0086C33.3624 81.3916 33.1889 80.7188 33.1561 80.0321C33.1233 79.3453 33.2318 78.6592 33.4749 78.016C33.7257 77.4586 34.1043 76.9681 34.58 76.5843C35.057 76.2092 35.6065 75.9371 36.1939 75.7851C36.7954 75.6285 37.4148 75.5511 38.0364 75.5548Z" fill="#B63A63"/>
<path d="M49.5935 78.4695L49.6639 89.2767C49.6639 89.4727 49.602 89.5689 49.4749 89.5689H48.4161C47.6988 89.5689 47.1758 89.4263 46.8469 89.141C46.6772 88.984 46.5408 88.7945 46.446 88.5836C46.3512 88.3728 46.2999 88.1449 46.2952 87.9138C46.2815 87.7202 46.2695 87.428 46.2592 87.0373C46.2488 86.6488 46.2437 86.1899 46.2437 85.6623C46.2437 85.1347 46.2437 84.564 46.2437 83.9436C46.2437 83.3231 46.2437 82.7044 46.2437 82.0753C46.2437 81.4463 46.2437 80.819 46.2437 80.1951C46.2437 79.5712 46.2437 78.992 46.2437 78.4626H43.1741C43.0314 78.4626 42.9558 78.3715 42.942 78.1893L42.918 77.0997C42.918 76.9329 42.9347 76.7665 42.9678 76.603C42.9985 76.4449 43.063 76.2954 43.1569 76.1647C43.2532 76.0317 43.3807 75.9243 43.5281 75.8519C43.709 75.7687 43.9067 75.7287 44.1056 75.735H52.6992C52.7752 75.7352 52.8499 75.7554 52.9157 75.7935C52.9507 75.8172 52.9793 75.8492 52.9988 75.8867C53.0183 75.9242 53.0281 75.966 53.0274 76.0083V77.1564C53.0455 77.4896 52.959 77.8201 52.7799 78.1017C52.6115 78.3423 52.2391 78.4626 51.6628 78.4626L49.5935 78.4695Z" fill="#B63A63"/>
<path d="M56.6437 89.5655C55.927 89.5655 55.4028 89.4229 55.0746 89.1376C54.9048 88.9806 54.7684 88.7911 54.6736 88.5802C54.5788 88.3694 54.5276 88.1415 54.5229 87.9104C54.5039 87.6509 54.4902 87.2075 54.4816 86.5767C54.473 85.9459 54.4713 85.2309 54.4816 84.4249C54.4919 83.6188 54.4816 82.7697 54.4816 81.8743C54.4816 80.9789 54.4816 80.135 54.4816 79.3426C54.4816 78.5503 54.4816 77.856 54.4816 77.2596C54.4816 76.6632 54.4644 76.2524 54.4472 76.0324C54.4301 75.8124 54.528 75.7402 54.7343 75.7402H55.7913C56.5716 75.7402 57.1112 75.9121 57.4051 76.2455C57.699 76.579 57.8709 77.0825 57.9207 77.746C57.9207 77.8113 57.9311 78.0175 57.9379 78.3681C57.9448 78.7187 57.95 79.1605 57.95 79.6933C57.95 80.2261 57.95 80.819 57.95 81.4738C57.95 82.1287 57.95 82.8024 57.9654 83.4899C57.9809 84.1774 57.9757 84.8511 57.9792 85.5059C57.9826 86.1608 57.9792 86.7554 57.9792 87.2882C57.9792 87.821 57.9792 88.2645 57.9792 88.622C57.9792 88.9794 57.9792 89.196 57.9792 89.2734C57.981 89.3526 57.9601 89.4307 57.919 89.4985C57.8883 89.5254 57.8521 89.5455 57.813 89.5574C57.7739 89.5692 57.7327 89.5726 57.6922 89.5672L56.6437 89.5655Z" fill="#B63A63"/>
<path d="M69.2159 89.5588C68.549 89.5588 68.0609 89.4196 67.7515 89.1411C67.4487 88.872 67.2544 88.5017 67.205 88.0996C67.0769 88.5676 66.7909 88.9769 66.3955 89.258C65.9658 89.5903 65.3213 89.7564 64.4619 89.7564C63.9525 89.754 63.4484 89.6512 62.9787 89.4539C62.4584 89.2307 61.9984 88.8873 61.6364 88.4519C61.1813 87.8975 60.8318 87.2642 60.6051 86.5837C60.2921 85.6457 60.1065 84.6699 60.0534 83.6825C60.0208 83.2408 60.0087 82.7321 60.0173 82.1528C60.0278 81.5579 60.0899 80.965 60.203 80.3809C60.3211 79.7705 60.5098 79.1758 60.765 78.6089C61.0239 78.0306 61.3888 77.5059 61.8409 77.062C62.3399 76.5822 62.9302 76.2076 63.5768 75.9603C64.3904 75.6603 65.2536 75.518 66.1205 75.541C66.7191 75.533 67.3162 75.6046 67.8959 75.7541C68.3841 75.8779 68.8486 76.0811 69.2709 76.3556C69.6428 76.6022 69.9556 76.9279 70.1869 77.3095C70.4164 77.6946 70.5508 78.1288 70.5788 78.5762C70.6361 79.329 70.4344 79.8967 69.9738 80.2794C69.5132 80.6621 68.8424 80.8541 67.9612 80.8552C67.7865 80.8731 67.61 80.8502 67.4456 80.7882C67.3705 80.7129 67.3258 80.6125 67.3201 80.5063C67.2754 80.2726 67.2428 80.0388 67.2187 79.8051C67.1985 79.5857 67.1506 79.3697 67.0761 79.1623C67.0114 78.978 66.8958 78.8159 66.7426 78.6948C66.5385 78.5637 66.297 78.5033 66.0552 78.5229C65.4284 78.5229 64.942 78.7051 64.596 79.0695C64.2454 79.4458 63.9892 79.9 63.8483 80.3946C63.6947 80.9168 63.612 81.4573 63.6026 82.0016C63.5923 82.5539 63.6008 83.0179 63.6283 83.3938C63.6605 83.9219 63.7381 84.4464 63.8604 84.9612C63.9449 85.3239 64.084 85.6716 64.2729 85.9924C64.4088 86.2288 64.6059 86.4242 64.8435 86.5579C65.0673 86.6728 65.3155 86.7318 65.5671 86.7298C65.9899 86.7441 66.4078 86.6355 66.7702 86.417C67.0864 86.209 67.2583 85.8326 67.2858 85.2878L67.3201 84.1964C67.3239 83.8864 67.352 83.5773 67.4044 83.2717C67.4144 83.1663 67.4657 83.0691 67.5472 83.0015C67.6287 82.9338 67.7337 82.9012 67.8392 82.9108H68.8962C69.1627 82.9025 69.4287 82.9385 69.6834 83.0174C69.8768 83.0795 70.0466 83.1995 70.1698 83.3611C70.3036 83.5502 70.395 83.7659 70.4379 83.9936C70.5039 84.308 70.547 84.6268 70.5668 84.9475C70.5863 85.2064 70.6023 85.5502 70.6149 85.9787C70.6275 86.4072 70.6338 86.8426 70.6338 87.2849C70.6338 87.7249 70.6287 88.1305 70.6183 88.5018C70.608 88.8713 70.5943 89.1274 70.5788 89.27C70.5739 89.3534 70.5472 89.434 70.5015 89.5038C70.4363 89.5519 70.3549 89.5728 70.2746 89.5622L69.2159 89.5588Z" fill="#B63A63"/>
<path d="M74.9819 89.5553C74.2635 89.5553 73.7404 89.4126 73.4127 89.1273C73.2426 88.9706 73.1059 88.781 73.0108 88.5702C72.9157 88.3593 72.8642 88.1314 72.8593 87.9002C72.8404 87.6406 72.8266 87.1972 72.8197 86.5665C72.8129 85.9357 72.8094 85.2207 72.8197 84.4146C72.83 83.6086 72.8197 82.7595 72.8197 81.8641C72.8197 80.9686 72.8197 80.1247 72.8197 79.3324C72.8197 78.5401 72.8197 77.8457 72.8197 77.2476C72.8197 76.6495 72.8043 76.2422 72.7871 76.0222C72.7699 75.8022 72.8679 75.73 73.0724 75.73H79.839C79.915 75.7302 79.9897 75.7503 80.0555 75.7884C80.091 75.8117 80.1199 75.8436 80.1394 75.8812C80.159 75.9189 80.1686 75.9609 80.1672 76.0032V77.1514C80.1861 77.4846 80.0995 77.8154 79.9197 78.0966C79.7479 78.3373 79.3801 78.4576 78.8026 78.4576H76.1506L76.1609 81.2075H78.8902C78.9661 81.2071 79.0408 81.2267 79.1068 81.2642C79.142 81.2877 79.1707 81.3197 79.1903 81.3573C79.2098 81.3949 79.2195 81.4368 79.2185 81.4791V82.6289C79.2374 82.9616 79.1508 83.2918 78.971 83.5725C78.7991 83.8131 78.4313 83.9334 77.8538 83.9334H76.1815V86.8346H80.4113C80.4885 86.8351 80.5638 86.8584 80.6278 86.9016C80.661 86.9246 80.6882 86.9551 80.7074 86.9907C80.7265 87.0262 80.7369 87.0658 80.7378 87.1061V88.2559C80.7567 88.5887 80.6701 88.9189 80.4903 89.1995C80.323 89.4401 79.9507 89.5604 79.3732 89.5604L74.9819 89.5553Z" fill="#B63A63"/>
<path d="M28.3668 105.156C28.6955 105.165 29.0226 105.107 29.3276 104.984C29.5603 104.885 29.7792 104.756 29.979 104.601C30.1509 104.458 30.3107 104.331 30.4465 104.217C30.5646 104.111 30.717 104.05 30.8761 104.046C31.0618 104.046 31.1666 104.187 31.1872 104.47C31.1968 104.652 31.1916 104.835 31.1718 105.017C31.1494 105.23 31.1168 105.469 31.0704 105.733C31.0308 105.92 30.951 106.096 30.8366 106.249C30.6852 106.459 30.4971 106.639 30.2815 106.782C30.0033 106.964 29.6991 107.103 29.3791 107.194C28.9715 107.312 28.5488 107.37 28.1245 107.366C27.6357 107.364 27.1496 107.293 26.6808 107.155C26.1914 107.011 25.7385 106.764 25.3522 106.431C24.9225 106.049 24.5781 105.58 24.3416 105.056C24.0375 104.371 23.8627 103.635 23.826 102.885C23.8036 102.574 23.7985 102.212 23.8088 101.801C23.8223 101.374 23.8729 100.949 23.9601 100.531C24.0519 100.089 24.1914 99.6586 24.376 99.2469C24.5622 98.8287 24.8205 98.4465 25.1391 98.1178C25.482 97.7724 25.8913 97.5 26.3422 97.3168C26.9038 97.0987 27.5033 96.9947 28.1056 97.0109C28.5958 97.0022 29.0845 97.0689 29.5544 97.2086C29.9352 97.3224 30.2909 97.5073 30.6029 97.7534C30.8775 97.9738 31.0994 98.2527 31.2525 98.5698C31.4011 98.8811 31.4903 99.2174 31.5155 99.5615C31.5602 100.166 31.4175 100.61 31.0875 100.888C30.7575 101.167 30.2712 101.308 29.6284 101.308C29.4962 101.32 29.363 101.303 29.2382 101.258C29.2078 101.234 29.1837 101.202 29.1678 101.167C29.152 101.131 29.1449 101.092 29.1471 101.053C29.1127 100.732 29.0835 100.452 29.056 100.216C29.0382 100.014 28.9907 99.8153 28.9151 99.6268C28.8608 99.4842 28.7611 99.3635 28.6315 99.2831C28.4798 99.2053 28.3102 99.1692 28.1399 99.1782C27.8771 99.1688 27.617 99.235 27.3906 99.369C27.191 99.4961 27.022 99.6657 26.8956 99.8657C26.7626 100.079 26.6618 100.311 26.5965 100.553C26.5264 100.809 26.4753 101.07 26.4436 101.333C26.4132 101.587 26.3994 101.843 26.4023 102.098C26.4023 102.346 26.4161 102.557 26.4298 102.738C26.494 103.607 26.6819 104.227 26.9936 104.596C27.315 104.972 27.7687 105.156 28.3668 105.156Z" fill="#AD6A46"/>
<path d="M37.3658 97.1503C37.5711 97.1438 37.7747 97.1899 37.9571 97.2843C38.1166 97.374 38.2563 97.495 38.3678 97.6401C38.4859 97.7945 38.583 97.9638 38.6566 98.1437C38.7357 98.3328 38.8061 98.5253 38.868 98.7246C39.3538 100.255 39.7548 101.516 40.0711 102.506C40.3873 103.496 40.6383 104.298 40.8239 104.912C41.0095 105.522 41.1407 105.973 41.2175 106.266C41.277 106.466 41.3207 106.67 41.3481 106.876C41.3576 106.924 41.3561 106.973 41.3436 107.02C41.3311 107.067 41.3079 107.11 41.2759 107.146C41.1924 107.2 41.0932 107.225 40.994 107.217H40.2808C39.9507 107.229 39.6212 107.179 39.3097 107.069C39.0802 106.982 38.8801 106.832 38.7322 106.636C38.5831 106.428 38.4731 106.195 38.4074 105.948C38.3317 105.679 38.2624 105.374 38.1994 105.034H35.7657L35.4478 106.992C35.4355 107.061 35.3972 107.123 35.3407 107.165C35.2841 107.208 35.2136 107.227 35.1435 107.218H34.4011C34.2446 107.218 34.0885 107.202 33.9353 107.17C33.781 107.137 33.633 107.079 33.497 106.998C33.3643 106.925 33.2474 106.827 33.1533 106.708C33.0578 106.583 33.0026 106.432 32.9952 106.275C32.9937 105.931 33.0341 105.588 33.1155 105.254C33.21 104.781 33.3372 104.243 33.4936 103.644C33.65 103.044 33.827 102.413 34.0247 101.753C34.2223 101.093 34.4182 100.474 34.6073 99.8865C34.7964 99.2987 34.9717 98.7848 35.1229 98.3396C35.2311 98.0212 35.3556 97.7086 35.4959 97.4029C35.5295 97.3058 35.5949 97.2229 35.6815 97.1675C35.7936 97.1382 35.9096 97.1266 36.0252 97.1331L37.3658 97.1503ZM36.1163 102.982H37.725L36.8657 99.2385L36.1163 102.982Z" fill="#AD6A46"/>
<path d="M45.5507 103.124L45.5731 107.012C45.5731 107.088 45.5731 107.141 45.5645 107.184C45.5559 107.227 45.5198 107.234 45.4356 107.234H44.6656C44.1414 107.234 43.7615 107.131 43.5209 106.923C43.3973 106.808 43.2979 106.67 43.2288 106.517C43.1597 106.363 43.1223 106.197 43.1188 106.029C43.105 105.84 43.0947 105.513 43.0895 105.056C43.0844 104.599 43.0895 104.076 43.0895 103.489C43.0895 102.901 43.0895 102.286 43.0895 101.631C43.0895 100.976 43.0895 100.364 43.0895 99.7866C43.0895 99.2091 43.0895 98.7038 43.0895 98.269C43.0895 97.8341 43.0758 97.5368 43.0655 97.3752C43.0551 97.2137 43.1239 97.1621 43.2734 97.1621H48.2096C48.265 97.1619 48.3195 97.1761 48.3677 97.2034C48.3932 97.2206 48.4139 97.2439 48.428 97.2713C48.4421 97.2986 48.4492 97.329 48.4485 97.3597V98.1968C48.4616 98.4391 48.3985 98.6796 48.268 98.8842C48.1465 99.0595 47.8756 99.1472 47.4551 99.1472H45.5215L45.5301 101.148H47.5221C47.5772 101.147 47.6314 101.162 47.6785 101.191C47.7051 101.207 47.7269 101.23 47.7414 101.258C47.7559 101.285 47.7627 101.316 47.761 101.347V102.184C47.7773 102.426 47.7171 102.666 47.5891 102.872C47.4654 103.044 47.1955 103.135 46.7745 103.135L45.5507 103.124Z" fill="#AD6A46"/>
<path d="M52.0025 107.213C51.4869 107.213 51.0985 107.11 50.8579 106.902C50.7342 106.788 50.6349 106.65 50.5658 106.496C50.4967 106.342 50.4592 106.177 50.4557 106.008C50.4419 105.819 50.4316 105.493 50.4265 105.037C50.4213 104.582 50.4265 104.056 50.4265 103.47C50.4265 102.884 50.4265 102.267 50.4265 101.612C50.4265 100.957 50.4265 100.343 50.4265 99.7675C50.4265 99.1918 50.4265 98.6848 50.4265 98.2499C50.4265 97.8151 50.4127 97.516 50.4007 97.3562C50.3887 97.1964 50.4609 97.1431 50.6104 97.1431H55.5379C55.5936 97.1427 55.6483 97.1575 55.6961 97.186C55.7218 97.203 55.7427 97.2263 55.7568 97.2537C55.7709 97.2811 55.7778 97.3117 55.7768 97.3425V98.1795C55.7923 98.4209 55.7322 98.6612 55.605 98.8669C55.4824 99.0423 55.2114 99.1299 54.792 99.1299H52.8585V101.129H54.847C54.9019 101.128 54.9559 101.143 55.0034 101.17C55.0294 101.187 55.0507 101.21 55.0651 101.237C55.0796 101.265 55.0867 101.295 55.0859 101.326V102.163C55.1018 102.405 55.0417 102.645 54.914 102.851C54.7903 103.023 54.5205 103.112 54.0994 103.112H52.8808V105.226H55.9607C56.0171 105.226 56.0722 105.243 56.1189 105.274C56.1431 105.291 56.163 105.314 56.177 105.339C56.191 105.365 56.1988 105.394 56.1996 105.424V106.261C56.2153 106.502 56.1552 106.743 56.0278 106.948C55.9052 107.124 55.6336 107.211 55.2131 107.211L52.0025 107.213Z" fill="#AD6A46"/>
</g>
<defs>
<clipPath id="clip0_698_1109">
<rect width="79.9888" height="107" fill="white" transform="translate(0.77832 0.369629)"/>
</clipPath>
</defs>
</svg>
