<svg width="118" height="94" viewBox="0 0 118 94" fill="none" xmlns="http://www.w3.org/2000/svg">
<g clip-path="url(#clip0_698_1412)">
<path d="M10.2623 50.6895C14.9813 50.6895 18.1375 52.4351 18.1375 56.2857C18.1375 58.2473 16.577 60.2068 15.4551 61.2758C18.1001 62.5586 19.5305 64.626 19.5305 67.1938C19.5305 71.5072 17.0178 74.6877 11.1439 74.6877H4.66163V54.5488L4.18555 50.8768L10.2623 50.6895ZM9.07425 60.2421C10.3681 60.2198 11.6617 60.2934 12.9447 60.4625C13.6141 59.4305 13.9897 58.2358 14.0313 57.0064C14.0313 54.8662 12.9447 54.1191 10.465 54.1191C10.0595 54.1191 9.5834 54.1543 9.07425 54.1896V60.2421ZM9.07425 71.2207H11.1792C13.6566 71.2207 15.0496 69.7594 15.0496 67.3371C15.0496 65.1969 13.758 63.665 10.3306 63.665H9.07425V71.2207Z" fill="#702B2B"/>
<path d="M29.3059 51.152L32.191 50.4048L39.1163 70.2594L41.0163 74.6676H36.1055L34.1703 69.1419H26.6764L24.6728 74.6676H20.582L29.3059 51.152ZM27.7432 65.4787H33.1763L30.8333 58.5622L30.527 57.1714L30.1875 58.5974L27.7432 65.4787Z" fill="#702B2B"/>
<path d="M49.0964 74.6786H44.3091V54.5397L43.833 50.8677H48.7217V61.8111L54.1879 53.398L55.2745 50.8677H60.9435L53.0329 62.1306L61.4857 74.6786H56.0548L48.7217 63.0586V71.6127L49.0964 74.6786Z" fill="#702B2B"/>
<path d="M64.3716 54.5397L63.8955 50.8677H76.8997V54.3942H68.7842V60.7024H75.9476L75.099 64.229H68.7842V71.1432H77.3383L76.4898 74.6698H64.3672L64.3716 54.5397Z" fill="#702B2B"/>
<path d="M93.4628 74.6786L87.8269 66.2655H86.0967V71.6127L86.4692 74.6786H81.6841V54.5397L81.208 50.8677H88.2347C92.3079 50.8677 96.2466 53.2195 96.2466 58.2823C96.2466 60.9272 94.5142 63.8785 91.9685 65.2318L98.9951 74.6786H93.4628ZM87.6242 62.88C89.7621 62.88 91.6643 60.8126 91.6643 58.2823C91.6643 55.5734 89.7621 54.1474 87.6242 54.1474H86.0967V62.88H87.6242Z" fill="#702B2B"/>
<path d="M110.097 71.6127L110.47 74.6786H105.683V64.3766L100.49 53.8961L98.3848 50.8677H103.783L107.787 58.9942L108.228 60.385L108.669 58.9942L112.637 50.8677H117.045L110.086 64.0196L110.097 71.6127Z" fill="#702B2B"/>
<path d="M11.001 85.2319C12.6959 85.2319 14.3578 86.4266 14.3578 89.1751C14.3578 91.4806 12.9141 93.213 10.6593 93.213H8.08936V86.464L7.93066 85.2319H11.001ZM9.56831 92.0647H10.796C11.9576 92.0647 12.7995 90.8568 12.7995 89.2566C12.7995 87.6565 11.9576 86.3913 10.796 86.3913H9.56831V92.0647Z" fill="#F26D44"/>
<path d="M15.8589 86.464L15.7002 85.2319H20.0577V86.4155H17.3378V88.5315H19.7403L19.456 89.7129H17.3378V92.0272H20.2032L19.9188 93.2086H15.8589V86.464Z" fill="#F26D44"/>
<path d="M21.6626 86.464L21.5039 85.2319H23.1416V92.0073H26.0422L25.7578 93.213H21.6626V86.464Z" fill="#F26D44"/>
<path d="M28.625 92.1859L28.7506 93.213H27.146V86.464L26.9873 85.2319H28.625V92.1859Z" fill="#F26D44"/>
<path d="M35.9405 87.2291C35.3035 86.548 34.6181 86.2725 33.9568 86.2725C32.6696 86.2725 31.7042 87.6699 31.7042 89.2723C31.7042 91.1347 32.8416 92.1508 34.0692 92.1508C34.5096 92.1338 34.9415 92.025 35.3373 91.8315C35.7332 91.6379 36.0843 91.3638 36.3681 91.0267L36.6414 92.2588C35.8783 92.9552 34.8862 93.3473 33.8532 93.3609C31.9753 93.3609 30.168 92.023 30.168 89.3935C30.168 86.872 31.8166 85.0911 33.9436 85.0911C34.9076 85.0613 35.8439 85.4157 36.5466 86.0763L35.9405 87.2291Z" fill="#F26D44"/>
<path d="M39.4121 92.1859L39.5377 93.213H37.9331V86.464L37.7744 85.2319H39.4121V92.1859Z" fill="#F26D44"/>
<path d="M48.0676 89.1622C48.0676 91.5515 46.4762 93.3676 44.4044 93.3676C42.176 93.3676 40.9131 91.5867 40.9131 89.3055C40.9131 86.9273 42.4824 85.1177 44.5521 85.1177C46.906 85.1133 48.0676 86.7994 48.0676 89.1622ZM44.497 92.2083C45.7026 92.2083 46.4983 90.9431 46.4983 89.2327C46.4983 87.5223 45.7026 86.2594 44.497 86.2594C43.2913 86.2594 42.4824 87.5245 42.4824 89.2327C42.4824 90.9409 43.2891 92.2105 44.497 92.2105V92.2083Z" fill="#F26D44"/>
<path d="M54.4284 86.464L54.2697 85.2319H55.7355V90.0126C55.7355 92.0184 54.4615 93.3695 52.4602 93.3695C49.5464 93.3695 49.478 90.5262 49.478 90.3234V86.464L49.3193 85.2319H50.957V90.2264C50.957 91.421 51.6865 92.2101 52.6652 92.2101C53.6438 92.2101 54.4284 91.3483 54.4284 90.1537V86.464Z" fill="#F26D44"/>
<path d="M57.1703 91.2182C57.1703 91.2182 58.1026 92.2101 59.2972 92.2101C59.433 92.2172 59.5689 92.197 59.6967 92.1506C59.8246 92.1043 59.9418 92.0327 60.0415 91.9402C60.1412 91.8477 60.2213 91.7362 60.2771 91.6122C60.3329 91.4881 60.3632 91.3542 60.3662 91.2182C60.3662 89.8561 57.135 89.7855 57.135 87.4426C57.135 86.1532 58.0167 85.0886 59.4449 85.0886C60.1929 85.0805 60.9275 85.2878 61.5609 85.6859L61.2765 86.8828C60.7456 86.4615 60.0896 86.2288 59.4119 86.2215C59.1709 86.2259 58.9409 86.3225 58.7691 86.4914C58.5972 86.6604 58.4968 86.8888 58.4883 87.1296C58.4883 88.516 61.7548 88.505 61.7548 90.9537C61.7548 92.3159 60.8335 93.3672 59.3766 93.3672C58.5301 93.3852 57.7058 93.0963 57.0557 92.5539L57.1703 91.2182Z" fill="#F26D44"/>
<path d="M68.2856 85.2319C69.65 85.2319 70.9702 86.021 70.9702 87.7181C70.9702 89.1398 69.672 90.3939 67.8977 90.3939H67.5671V92.1859L67.6927 93.213H66.0815V86.464L65.9229 85.2319H68.2856ZM68.0807 89.1993C68.4563 89.1816 68.8095 89.0158 69.0632 88.7382C69.3168 88.4606 69.4501 88.0938 69.434 87.7181C69.434 86.8101 68.797 86.3957 68.0807 86.3957H67.5671V89.2037L68.0807 89.1993Z" fill="#F26D44"/>
<path d="M73.6111 85.3289L74.5765 85.0776L76.8974 91.7318L77.5344 93.213H75.8857L75.2377 91.3615H72.7228L72.0616 93.213H70.6973L73.6111 85.3289ZM73.0865 90.1317H74.8983L74.1136 87.8129L74.01 87.3479L73.8976 87.8261L73.0865 90.1317Z" fill="#F26D44"/>
<path d="M78.1488 91.2182C78.1488 91.2182 79.0811 92.21 80.2758 92.21C80.4117 92.2171 80.5476 92.197 80.6756 92.1506C80.8036 92.1043 80.9209 92.0328 81.0208 91.9403C81.1207 91.8479 81.201 91.7363 81.257 91.6123C81.313 91.4882 81.3436 91.3542 81.347 91.2182C81.347 89.8561 78.1157 89.7855 78.1157 87.4426C78.1157 86.1532 78.9974 85.0886 80.4234 85.0886C81.1721 85.0809 81.9072 85.2882 82.5416 85.6859L82.2573 86.8827C81.7257 86.4611 81.0688 86.2285 80.3904 86.2215C80.1497 86.2259 79.9198 86.3226 79.7484 86.4916C79.5769 86.6606 79.4769 86.889 79.4691 87.1296C79.4691 88.516 82.7333 88.5049 82.7333 90.9537C82.7333 92.3158 81.812 93.3672 80.3573 93.3672C79.5101 93.3855 78.6849 93.0966 78.0342 92.5539L78.1488 91.2182Z" fill="#F26D44"/>
<path d="M83.1104 85.2319H89.4449V86.4398H86.9786V92.1859L87.102 93.213H85.4996V86.4398H83.1104V85.2319Z" fill="#F26D44"/>
<path d="M94.4861 93.213L92.5994 90.3939H92.0175V92.1859L92.1431 93.213H90.5474V86.464L90.3887 85.2319H92.7448C94.1092 85.2319 95.4295 86.021 95.4295 87.7181C95.4084 88.197 95.2646 88.6624 95.0117 89.0696C94.7589 89.4769 94.4056 89.8122 93.9858 90.0435L96.3419 93.2086L94.4861 93.213ZM92.5311 89.2588C93.2474 89.2588 93.8844 88.5667 93.8844 87.7159C93.8963 87.5336 93.8697 87.3508 93.8063 87.1794C93.743 87.0081 93.6443 86.8519 93.5167 86.7212C93.389 86.5904 93.2353 86.488 93.0655 86.4205C92.8957 86.3531 92.7136 86.3221 92.5311 86.3296H92.0175V89.2566L92.5311 89.2588Z" fill="#F26D44"/>
<path d="M98.9228 92.1859L99.0484 93.213H97.4438V86.464L97.2852 85.2319H98.9228V92.1859Z" fill="#F26D44"/>
<path d="M101.165 86.464L101.006 85.2319H105.363V86.4155H102.644V88.5315H105.046L104.762 89.7129H102.644V92.0272H105.509L105.225 93.2086H101.165V86.464Z" fill="#F26D44"/>
<path d="M106.478 91.2182C106.478 91.2182 107.41 92.2101 108.605 92.2101C108.741 92.2172 108.877 92.197 109.004 92.1506C109.132 92.1043 109.249 92.0327 109.349 91.9402C109.449 91.8477 109.529 91.7362 109.585 91.6122C109.64 91.4881 109.671 91.3542 109.674 91.2182C109.674 89.8561 106.443 89.7855 106.443 87.4426C106.443 86.1532 107.324 85.0886 108.753 85.0886C109.501 85.0805 110.235 85.2878 110.868 85.6859L110.584 86.8828C110.053 86.461 109.397 86.2283 108.719 86.2215C108.479 86.2259 108.249 86.3226 108.077 86.4916C107.906 86.6606 107.806 86.889 107.798 87.1296C107.798 88.516 111.062 88.505 111.062 90.9537C111.062 92.3159 110.141 93.3672 108.684 93.3672C107.838 93.3852 107.013 93.0963 106.363 92.5539L106.478 91.2182Z" fill="#F26D44"/>
<path d="M103.563 19.7041C102.474 13.5943 95.5487 8.20966 88.7072 7.93635C82.4387 7.44042 78.4096 9.21694 75.7669 11.5819C74.1468 6.38026 69.8422 0.391705 58.328 0.369664C48.8702 0.352031 42.7868 6.96434 41.6143 14.5288C43.4393 13.894 48.9649 12.3247 53.7368 14.4737C54.4862 12.3159 56.3333 11.1676 59.2802 11.1676C62.4144 11.1676 64.6251 13.7376 64.6538 15.9549C64.6912 18.7938 63.3754 21.626 59.0774 21.8178C56.6683 21.8178 54.7882 20.621 53.9066 19.0627C53.7656 19.0892 53.6201 19.077 53.4856 19.0274C49.4543 17.705 43.6993 19.3404 41.7553 19.9708C42.6943 24.3988 45.5508 29.5983 49.97 31.6657C57.356 35.1218 64.473 35.2562 71.4953 29.4969C73.4944 34.7074 81.4402 39.195 88.1605 38.8533C97.5192 38.3618 100.861 35.6419 103.093 30.33C104.654 26.5654 103.616 20.0104 103.563 19.7041ZM92.4079 22.0294C87.5081 23.731 88.3435 26.334 85.8881 25.7235C84.5502 25.1416 84.0852 24.4892 83.7259 22.7567C83.7259 19.6401 84.8522 18.5866 87.5875 17.9077C89.2979 17.4845 90.66 18.6836 91.3874 19.6313C92.4652 21.4299 92.831 21.7164 92.4079 22.0294Z" fill="#E2A56D"/>
<path d="M59.8045 15.6575C60.5958 14.8618 62.6412 13.8942 62.6963 13.9493C62.7514 14.0044 62.6963 14.13 62.6544 14.2028C62.0291 15.2972 61.6437 16.512 61.5237 17.7668C61.4862 18.1327 61.4642 18.5029 61.3937 18.8688C61.376 18.9504 61.1733 19.0496 61.0741 19.0496C60.4679 19.0496 59.8618 19.0011 59.2557 19.0099C58.4732 19.0231 57.6886 19.0408 56.9127 19.1289C56.7778 19.1502 56.6398 19.1205 56.5257 19.0455C56.4116 18.9705 56.3295 18.8556 56.2956 18.7234C56.1126 18.1724 55.9077 17.6213 55.7401 17.0769C55.5616 16.4906 55.2685 15.2585 55.1693 14.7714C55.1651 14.7512 55.1667 14.7302 55.1738 14.7109C55.181 14.6916 55.1934 14.6746 55.2097 14.662C55.226 14.6494 55.2455 14.6415 55.266 14.6395C55.2866 14.6374 55.3073 14.6411 55.3258 14.6502C55.7666 14.8596 56.7915 15.4437 57.089 15.6332C57.5651 15.0778 57.9707 14.584 58.4115 14.1014C58.6562 13.8258 58.784 13.8347 58.9669 14.1521C59.2623 14.6634 59.5378 15.1726 59.8045 15.6575Z" fill="#F26D44"/>
<path d="M100.518 18.5713C100.518 18.5713 100.518 18.5581 100.518 18.5537C99.8129 15.9484 98.2965 13.7509 95.0389 11.8267C88.9798 9.15314 82.7598 8.82252 76.6125 12.9486C76.6713 13.4952 76.7073 14.0367 76.7205 14.573C76.7618 16.3607 76.5947 18.147 76.2224 19.8959C75.6405 22.7197 74.632 25.4384 73.2314 27.9585C79.3655 35.9815 86.6192 36.1644 89.7622 36.0454C95.2064 35.6641 104.067 31.6637 100.518 18.5713ZM90.0752 27.2929C87.8557 28.2495 85.3452 28.0996 83.5577 26.4796C81.1706 24.313 81.2213 19.7416 83.6503 18.0665C87.8932 15.1417 92.0104 16.4002 93.9434 20.491C94.2696 23.7002 93.5026 25.814 90.0752 27.2929ZM100.501 18.4765C100.501 18.5008 100.501 18.5206 100.501 18.5338C100.501 18.547 100.505 18.4964 100.501 18.4765Z" fill="#702B2B"/>
<path d="M86.084 26.1005C86.084 26.1005 92.9167 17.284 102.767 17.8461C112.617 18.4081 117.422 20.8415 117.38 21.3308C117.338 21.8201 112.796 22.6533 112.796 22.6533C112.796 22.6533 115.478 27.4053 114.801 27.467C114.125 27.5287 102.967 21.8135 86.084 26.1005Z" fill="#F26D44"/>
<path d="M45.804 26.5061L42.5838 14.0662L42.4846 11.3C42.4537 11.3948 42.4229 11.4896 42.3942 11.5821C39.7493 9.21712 35.7202 7.44061 29.4539 7.93653C22.6102 8.20984 15.6849 13.5945 14.5983 19.7043C14.5432 20.0106 13.4962 26.5745 15.0743 30.3258C17.3071 35.6377 20.6485 38.3576 30.0072 38.8491C36.7297 39.1996 44.6755 34.7032 46.6746 29.4927C46.8333 29.6249 46.9942 29.7506 47.1529 29.8762L45.804 26.5061ZM32.2708 25.7237C29.8154 26.3342 30.6508 23.74 25.7532 22.0296C25.33 21.7078 25.6937 21.4301 26.7715 19.6359C27.4989 18.6882 28.8632 17.4891 30.5736 17.9123C33.3067 18.5868 34.4352 19.6403 34.4352 22.7613C34.0737 24.4894 33.6087 25.1418 32.2686 25.7237H32.2708Z" fill="#E2A56D"/>
<path d="M28.4066 36.0562C31.5386 36.1752 38.7923 35.9922 44.9374 27.9693C43.5366 25.4491 42.5273 22.7304 41.9442 19.9067C41.5741 18.1574 41.407 16.3713 41.4461 14.5838C41.4593 14.0474 41.496 13.506 41.5563 12.9593C35.4068 8.83326 29.189 9.16388 23.1278 11.8375C19.8701 13.7616 18.3537 15.9591 17.6505 18.5644C17.6513 18.5702 17.6513 18.5762 17.6505 18.582C14.0887 31.6634 22.9492 35.6638 28.4066 36.0562ZM24.2188 20.4908C26.154 16.3999 30.269 15.1414 34.5119 18.0662C36.9365 19.7414 36.9916 24.3127 34.6045 26.4793C32.8192 28.0993 30.3087 28.2426 28.087 27.2926C24.6552 25.8137 23.886 23.6999 24.2034 20.4908H24.2188ZM17.6528 18.5335L17.6638 18.4762C17.6528 18.4961 17.6483 18.5159 17.6461 18.5335H17.6528Z" fill="#702B2B"/>
<path d="M32.0725 26.1005C32.0725 26.1005 25.2288 17.284 15.3918 17.8461C5.55491 18.4081 0.734538 20.8415 0.77862 21.3308C0.822702 21.8201 5.36316 22.6533 5.36316 22.6533C5.36316 22.6533 2.68077 27.4053 3.35743 27.467C4.03409 27.5287 15.1891 21.8135 32.0725 26.1005Z" fill="#F26D44"/>
<path d="M32.0725 26.1005C32.0725 26.1005 25.2288 17.284 15.3918 17.8461C5.55491 18.4081 0.734538 20.8415 0.77862 21.3308C0.822702 21.8201 5.36316 22.6533 5.36316 22.6533C5.36316 22.6533 2.68077 27.4053 3.35743 27.467C4.03409 27.5287 15.1891 21.8135 32.0725 26.1005Z" fill="#F26D44"/>
<path d="M3.1436 22.1856C1.98424 21.9145 0.800632 21.5795 0.778591 21.3304C0.736713 20.8411 5.55268 18.399 15.3918 17.8457C19.1388 17.6253 22.467 18.7891 25.134 20.2967C15.167 18.7649 6.54894 21.0549 3.1436 22.1856Z" fill="#F26D44"/>
<path d="M32.0723 26.1003C15.1888 21.8133 4.01844 27.5197 3.35721 27.4624C2.94504 27.425 3.77158 25.6639 4.4835 24.2841C14.3535 21.3108 23.5622 21.7714 28.1291 22.3004C29.582 23.415 30.9047 24.6897 32.0723 26.1003Z" fill="#F26D44"/>
<path d="M66.148 18.6307C65.8064 20.0832 64.9909 21.2315 63.999 22.1881C61.9536 24.2357 57.9289 24.1586 56.0466 23.4246C54.0144 22.7083 52.5906 20.8502 52.1101 18.7056C52.004 18.2328 51.9442 17.7508 51.9315 17.2664C51.8842 16.1534 52.065 15.0426 52.4627 14.0021C53.1967 12.1727 54.6999 10.8899 56.9855 10.3477C60.4372 9.52554 64.3979 10.4909 65.6918 13.8742C68.4425 13.1469 71.2637 13.3496 73.426 13.7464C73.3929 13.526 73.351 13.3056 73.3069 13.0851C73.146 9.70626 69.0707 2.6311 58.632 2.6333C48.7356 2.6333 46.0466 9.42634 45.0415 11.4651C44.6805 12.2112 44.4125 12.9989 44.2436 13.8103C43.8727 15.6147 43.8533 17.4736 44.1863 19.2853C45.209 25.0402 49.6833 30.9494 59.4784 30.9428C65.6807 30.9428 69.1985 28.0334 71.1601 24.7713C72.2152 23.0521 72.9431 21.1525 73.3069 19.1685C71.7795 18.4103 70.3204 17.7226 66.148 18.6307Z" fill="#702B2B"/>
<path d="M54.1398 19.4441C50.2429 17.3061 45.0743 18.8072 42.0172 20.339C41.6249 18.8953 41.3207 15.2365 41.4265 14.5488C42.2795 13.6495 48.354 11.1633 53.7298 14.4342C53.4476 15.2792 53.3134 16.1665 53.3331 17.0571C53.3463 17.7492 53.7805 18.8138 54.1398 19.4441Z" fill="#F26D44"/>
<path d="M41.4511 15.9418C41.4096 15.4786 41.406 15.0127 41.4401 14.5488C42.2909 13.6495 48.3676 11.1633 53.7412 14.4342C53.5812 14.8911 53.4718 15.3641 53.415 15.8448C48.4867 13.8523 43.3797 15.0271 41.4511 15.9418Z" fill="#F26D44"/>
<path d="M54.1395 19.4438C50.2426 17.3058 45.0762 18.8068 42.0169 20.3386C41.8292 19.5401 41.6937 18.7303 41.6113 17.9141C43.6325 16.887 48.5631 15.4037 53.3394 17.2242C53.4099 17.9031 53.8066 18.8509 54.1395 19.4438Z" fill="#F26D44"/>
<path d="M53.3443 17.0567C53.3443 17.1074 53.3443 17.1603 53.3443 17.2132C48.568 15.3926 43.6462 16.876 41.6163 17.9031C41.5391 17.222 41.4796 16.5278 41.4443 15.9415C43.3795 15.0268 48.4798 13.852 53.4082 15.8445C53.3604 16.2467 53.3391 16.6517 53.3443 17.0567Z" fill="#FFAB5F"/>
<path d="M75.978 20.892C74.2522 19.3006 68.689 16.7835 63.5645 19.7436C64.3403 18.8951 64.6445 17.0414 64.6312 15.9504C64.6173 15.4029 64.4928 14.8638 64.2654 14.3656C68.6449 11.5818 75.2859 13.7242 76.6987 14.586C76.8552 16.9378 76.3549 19.488 75.978 20.892Z" fill="#F26D44"/>
<path d="M22.7162 16.0737C22.5656 15.6677 22.4412 15.2525 22.3437 14.8306C22.3194 14.6939 22.5354 14.5132 22.6434 14.3545C22.7735 14.4669 23.0049 14.5749 23.0181 14.6961C23.0472 15.1363 23.0531 15.5778 23.0358 16.0186L22.7162 16.0737Z" fill="#F26D44"/>
<path d="M40.5404 22.4061C40.2726 22.0647 40.0274 21.7062 39.8064 21.3327C39.7425 21.2115 39.8946 20.9735 39.9475 20.7905C40.1062 20.8589 40.3575 20.8853 40.4082 21.0109C40.5695 21.4222 40.7093 21.8415 40.8269 22.2673L40.5404 22.4061Z" fill="#FF9E5C"/>
<path d="M33.9411 30.5328C33.8221 30.7223 33.7979 30.7532 33.7935 30.7532L32.5371 30.2286L32.784 29.8032L33.9411 30.5328Z" fill="#F26D44"/>
<path d="M31.1306 15.2762C31.0094 15.4657 30.9873 15.4966 30.9829 15.4966L29.7266 14.972L29.9734 14.5488L31.1306 15.2762Z" fill="#F26D44"/>
<path d="M38.0303 31.1568C37.972 30.7924 37.9454 30.4237 37.9509 30.0547C37.9663 29.8828 38.1867 29.7285 38.3146 29.5654C38.416 29.7682 38.6232 29.9864 38.5945 30.1716C38.5074 30.5199 38.3825 30.8577 38.222 31.1788L38.0303 31.1568Z" fill="#F26D44"/>
<path d="M97.0691 17.1735C96.9038 17.0545 96.8641 17.0347 96.8663 17.0259C96.9875 16.6335 97.111 16.2434 97.2322 15.8511C97.3561 15.9114 97.4754 15.9806 97.5892 16.0582C97.4328 16.4263 97.252 16.7944 97.0691 17.1735Z" fill="#F26D44"/>
<path d="M19.7956 26.4421C19.6303 26.3231 19.5907 26.3033 19.5929 26.2944C19.7141 25.9021 19.8375 25.512 19.9587 25.1196C20.0822 25.1808 20.2014 25.25 20.3158 25.3268C20.1615 25.7015 19.9808 26.063 19.7956 26.4421Z" fill="#F26D44"/>
<path d="M41.4594 27.967C41.3891 27.9226 41.3221 27.8732 41.2588 27.8193C41.3778 27.427 41.5012 27.0369 41.6247 26.6445C41.749 26.7039 41.8684 26.7732 41.9817 26.8517C41.8363 27.2264 41.6445 27.5879 41.4594 27.967Z" fill="#F26D44"/>
<path d="M26.7048 33.3586C26.5395 33.2396 26.4998 33.2198 26.502 33.2109C26.6233 32.8186 26.7467 32.4285 26.8701 32.0361C26.9931 32.0968 27.1117 32.166 27.225 32.2433C27.0685 32.618 26.8878 32.9795 26.7048 33.3586Z" fill="#F26D44"/>
<path d="M27.1328 13.4354C27.0271 13.37 26.9269 13.2963 26.833 13.2149C27.0115 12.6264 27.1967 12.0424 27.3818 11.4517C27.5662 11.5414 27.7437 11.6445 27.913 11.7602C27.6816 12.3245 27.4083 12.8667 27.1328 13.4354Z" fill="#FF9E5C"/>
<path d="M94.1796 14.8284C93.9592 14.5088 93.7234 14.1914 93.4941 13.8718L93.7983 13.6514L94.4132 14.7027L94.1796 14.8284Z" fill="#F26D44"/>
<path d="M25.2066 28.8666L24.1553 27.4031L24.6203 27.0747L25.5615 28.6859L25.2066 28.8666Z" fill="#F26D44"/>
<path d="M30.0596 34.1455L30.4497 33.0435L30.7979 33.1713L30.2888 34.2733L30.0596 34.1455Z" fill="#F26D44"/>
<path d="M56.7207 25.8337C56.994 25.5545 57.2688 25.2753 57.545 24.9961L57.8073 25.2584L56.875 26.043L56.7207 25.8337Z" fill="#FF9E5C"/>
<path d="M64.3296 24.6346C64.3106 24.7234 64.2863 24.811 64.2569 24.8969C63.805 24.8594 63.3532 24.8175 62.9014 24.7757C62.9388 24.617 62.9741 24.4561 63.0094 24.2974L64.3296 24.6346Z" fill="#F26D44"/>
<path d="M47.5228 21.2028C47.4526 21.1584 47.3856 21.109 47.3223 21.0551C47.4413 20.6628 47.5647 20.2705 47.6881 19.8804C47.8125 19.9398 47.9319 20.0091 48.0452 20.0875C47.8887 20.46 47.708 20.8347 47.5228 21.2028Z" fill="#F26D44"/>
<path d="M79.0854 20.3386C78.9223 20.2196 78.8826 20.1997 78.8849 20.1909C79.0039 19.7986 79.1273 19.4084 79.2507 19.0161C79.3745 19.0754 79.4932 19.1446 79.6056 19.2233C79.4601 19.5958 79.2794 19.9529 79.0854 20.3386Z" fill="#F26D44"/>
<path d="M47.5165 11.6415C47.4912 11.5621 47.4713 11.4811 47.457 11.399C47.8009 11.1786 48.1469 10.9582 48.493 10.7378C48.5477 10.8632 48.5941 10.992 48.6318 11.1235C48.2725 11.3065 47.9023 11.4674 47.5165 11.6415Z" fill="#F26D44"/>
<path d="M54.4333 28.1193C54.3622 28.0751 54.2944 28.0257 54.2305 27.9717C54.351 27.5793 54.4737 27.1877 54.5986 26.7969C54.722 26.8566 54.8407 26.9259 54.9534 27.004C54.7991 27.3765 54.6206 27.738 54.4333 28.1193Z" fill="#F26D44"/>
<path d="M52.9344 23.6274L51.8809 22.1617L52.3481 21.8354L53.2893 23.4466L52.9344 23.6274Z" fill="#F26D44"/>
<path d="M59.0791 28.9038L59.4692 27.8018L59.8175 27.9274L59.3083 29.0295L59.0791 28.9038Z" fill="#F26D44"/>
<path d="M49.2441 24.9279L50.0707 24.0903L50.333 24.3526L49.4006 25.1351L49.2441 24.9279Z" fill="#FF9E5C"/>
<path d="M85.3672 30.2285L86.4692 29.1265L86.8153 29.4747L85.5832 30.5084L85.3672 30.2285Z" fill="#FF9E5C"/>
<path d="M76.8285 26.7287C76.7583 26.6843 76.6912 26.6349 76.6279 26.581C76.7484 26.1887 76.8704 25.7971 76.9938 25.4062C77.1182 25.4657 77.2376 25.535 77.3509 25.6134C77.1944 25.9859 77.0137 26.3452 76.8285 26.7287Z" fill="#F26D44"/>
<path d="M83.7389 33.6452C83.6678 33.601 83.6001 33.5516 83.5361 33.4975C83.6566 33.1052 83.7793 32.7136 83.9042 32.3228C84.0277 32.3825 84.1463 32.4518 84.2591 32.53C84.1048 32.9024 83.9218 33.2639 83.7389 33.6452Z" fill="#F26D44"/>
<path d="M82.2401 29.1533L81.1865 27.6875L81.6538 27.3613L82.5949 28.9725L82.2401 29.1533Z" fill="#F26D44"/>
<path d="M78.5498 30.4533L79.3763 29.6157L79.6386 29.878L78.7063 30.6605L78.5498 30.4533Z" fill="#FF9E5C"/>
<path d="M37.7256 26.0959L38.5521 25.2583L38.8144 25.5206L37.8821 26.3053L37.7256 26.0959Z" fill="#FF9E5C"/>
<path d="M64.7917 28.0379C64.6705 28.2275 64.6484 28.2715 64.644 28.2583C64.2252 28.0864 63.8065 27.9101 63.3877 27.7337C63.4715 27.5927 63.553 27.4516 63.6346 27.3105L64.7917 28.0379Z" fill="#F26D44"/>
<path d="M79.8089 23.6648C79.7516 23.8853 79.7428 23.9271 79.7383 23.9271C79.2865 23.8897 78.8347 23.8478 78.3828 23.8059L78.4886 23.3276L79.8089 23.6648Z" fill="#F26D44"/>
<path d="M88.7422 32.0557L89.1323 30.9536L89.4828 31.0814L88.9714 32.1835L88.7422 32.0557Z" fill="#F26D44"/>
<path d="M93.3842 32.8714C93.2652 33.0609 93.2432 33.1028 93.2388 33.1028L91.9824 32.5782L92.2293 32.1528L93.3842 32.8714Z" fill="#F26D44"/>
<path d="M67.2082 26.1248C67.1496 25.7605 67.1238 25.3917 67.1311 25.0228C67.1443 24.8508 67.3647 24.6944 67.4926 24.5312C67.594 24.7362 67.8011 24.9544 67.7747 25.1374C67.687 25.4862 67.5621 25.8246 67.4022 26.1468L67.2082 26.1248Z" fill="#F26D44"/>
<path d="M70.64 22.9284C70.5698 22.884 70.5027 22.8346 70.4395 22.7807C70.5585 22.3884 70.6819 21.9961 70.8053 21.606C70.9288 21.6657 71.0475 21.735 71.1602 21.8131C71.0059 22.1856 70.823 22.5493 70.64 22.9284Z" fill="#F26D44"/>
<path d="M70.6394 11.1211C70.4741 11.002 70.4344 10.9822 70.4388 10.9734C70.5578 10.5833 70.6812 10.1909 70.8047 9.80078C70.9275 9.861 71.046 9.9295 71.1595 10.0058C71.0052 10.3805 70.8223 10.742 70.6394 11.1211Z" fill="#F26D44"/>
<path d="M66.9062 21.0553L67.7306 20.2178L67.9929 20.4801L67.0605 21.2647L66.9062 21.0553Z" fill="#FF9E5C"/>
<path d="M93.9211 30.9185C93.8625 30.5542 93.8367 30.1854 93.844 29.8165C93.8572 29.6445 94.0776 29.4903 94.2054 29.3271C94.3068 29.5299 94.5162 29.7481 94.4876 29.9333C94.4005 30.2816 94.2756 30.6194 94.1151 30.9405L93.9211 30.9185Z" fill="#F26D44"/>
<path d="M97.8982 28.6328C97.7329 28.5137 97.6932 28.4939 97.6954 28.4851C97.8166 28.0949 97.94 27.7026 98.0635 27.3125C98.1863 27.3727 98.3048 27.4412 98.4184 27.5175C98.2619 27.8878 98.0811 28.2537 97.8982 28.6328Z" fill="#F26D44"/>
<path d="M94.1641 26.7636L94.9884 25.9238L95.2507 26.1883L94.3184 26.9708L94.1641 26.7636Z" fill="#FF9E5C"/>
<path d="M94.4131 18.1369C94.6886 17.857 94.9619 17.577 95.2374 17.2993C95.3256 17.3853 95.4137 17.4735 95.4997 17.5616L94.5674 18.3463L94.4131 18.1369Z" fill="#F26D44"/>
<path d="M38.6166 15.7653C38.5463 15.7209 38.4793 15.6715 38.416 15.6176C38.535 15.2253 38.6585 14.833 38.7819 14.4429C38.9054 14.5026 39.024 14.5719 39.1368 14.65C38.9825 15.0269 38.7995 15.3884 38.6166 15.7653Z" fill="#F26D44"/>
<path d="M35.7284 13.4223L35.043 12.468L35.3449 12.2476L35.9599 13.2989L35.7284 13.4223Z" fill="#F26D44"/>
<path d="M35.96 16.7306L36.7865 15.8931L37.0488 16.1576L36.1165 16.94C36.0636 16.8673 36.0129 16.8012 35.96 16.7306Z" fill="#F26D44"/>
<path d="M52.3675 9.52534C52.2157 9.11976 52.0913 8.70448 51.995 8.28225C51.9708 8.14559 52.1868 7.96705 52.2926 7.80615C52.4248 7.92077 52.6541 8.02655 52.6673 8.14777C52.6962 8.58798 52.7021 9.02941 52.6849 9.47024L52.3675 9.52534Z" fill="#F26D44"/>
<path d="M60.4809 8.42998C60.3619 8.61732 60.3376 8.65039 60.3354 8.65039C59.9145 8.47847 59.4957 8.30214 59.0791 8.12581L59.3238 7.70264L60.4809 8.42998Z" fill="#F26D44"/>
<path d="M66.5222 7.27071C66.3569 7.15168 66.3172 7.13186 66.3194 7.12305C66.4406 6.73072 66.5641 6.34057 66.6875 5.94824C66.811 6.008 66.9296 6.07728 67.0424 6.15544C66.8925 6.52794 66.7095 6.8916 66.5222 7.27071Z" fill="#F26D44"/>
<path d="M49.8178 8.28877C49.7475 8.24434 49.6805 8.19501 49.6172 8.14111C49.7362 7.74878 49.8596 7.35644 49.9831 6.96631C50.1066 7.02606 50.2252 7.09535 50.3379 7.17351C50.1836 7.546 49.9919 7.90746 49.8178 8.28877Z" fill="#F26D44"/>
<path d="M56.4846 6.58721C56.3793 6.52025 56.2785 6.44663 56.1826 6.3668C56.3634 5.77904 56.5463 5.19128 56.7314 4.60352C56.916 4.69372 57.0936 4.79761 57.2626 4.9143C57.0312 5.47635 56.7601 6.01855 56.4846 6.58721Z" fill="#FF9E5C"/>
<path d="M62.3586 5.5095L61.6709 4.55293L61.9751 4.33252L62.59 5.38388L62.3586 5.5095Z" fill="#F26D44"/>
<path d="M80.9993 16.4531C80.8468 16.0476 80.7216 15.6323 80.6246 15.21C80.6026 15.0733 80.8186 14.8948 80.9244 14.7339C81.0566 14.8485 81.2858 14.9543 81.2991 15.0777C81.3281 15.5179 81.334 15.9594 81.3167 16.4002L80.9993 16.4531Z" fill="#F26D44"/>
<path d="M89.1118 15.3577C89.0665 15.4338 89.0172 15.5074 88.9641 15.5781C88.5453 15.4062 88.1265 15.2299 87.71 15.0536L87.9546 14.6304L89.1118 15.3577Z" fill="#F26D44"/>
<path d="M78.4489 15.2165C78.3778 15.1723 78.31 15.1229 78.2461 15.0688C78.3666 14.6765 78.4893 14.2849 78.6142 13.894C78.7377 13.9538 78.8563 14.0231 78.969 14.1012C78.8147 14.4737 78.6318 14.8352 78.4489 15.2165Z" fill="#F26D44"/>
<path d="M85.1164 13.5149C85.01 13.4498 84.909 13.3761 84.8145 13.2945C84.993 12.7082 85.1781 12.122 85.3633 11.5312C85.5478 11.6215 85.7254 11.7253 85.8945 11.842C85.663 12.4041 85.3919 12.9463 85.1164 13.5149Z" fill="#FF9E5C"/>
<path d="M90.9875 12.4372L90.2998 11.4807L90.604 11.2603L91.2189 12.3116L90.9875 12.4372Z" fill="#F26D44"/>
<path d="M66.6855 11.2887L67.5121 10.4512L67.7744 10.7134L66.842 11.4981L66.6855 11.2887Z" fill="#F26D44"/>
<path d="M21.955 22.0361L22.0608 23.4159L21.7787 23.4798L21.501 22.1023L21.955 22.0361Z" fill="#F26D44"/>
<path d="M28.8608 22.8647C23.3858 21.7163 14.3534 21.3218 4.4834 24.2841C4.94626 23.387 5.36504 22.6509 5.36504 22.6509C5.36504 22.6509 4.26299 22.4481 3.14551 22.1858C6.55085 21.0573 15.9602 19.2588 25.9293 20.7906C26.9848 21.3641 27.9688 22.0602 28.8608 22.8647Z" fill="#FFAB5F"/>
<path d="M89.3037 22.8647C94.7809 21.7163 103.813 21.3218 113.681 24.2841C113.218 23.387 112.799 22.6509 112.799 22.6509C112.799 22.6509 113.902 22.4481 115.019 22.1858C111.614 21.0573 102.204 19.2588 92.2352 20.7906C91.1795 21.3638 90.1955 22.06 89.3037 22.8647Z" fill="#FFAB5F"/>
<path d="M64.5391 17.2509C69.3771 15.4061 74.5677 16.8829 76.6153 17.9122C76.6947 17.2223 76.7542 16.5192 76.7895 15.9285C74.83 15.0006 69.6261 13.7905 64.636 15.8095C64.6348 16.2915 64.6024 16.773 64.5391 17.2509Z" fill="#FFAB5F"/>
</g>
<defs>
<clipPath id="clip0_698_1412">
<rect width="116.602" height="93" fill="white" transform="translate(0.77832 0.369629)"/>
</clipPath>
</defs>
</svg>
