<svg width="132" height="67" viewBox="0 0 132 67" fill="none" xmlns="http://www.w3.org/2000/svg">
<g clip-path="url(#clip0_698_1380)">
<path fill-rule="evenodd" clip-rule="evenodd" d="M37.7803 4.45139C40.2206 4.45139 47.5543 6.42232 53.485 6.42232C61.5281 6.42232 63.7087 0.371582 65.891 0.371582C68.0734 0.371582 70.2396 6.42232 78.2756 6.42232C84.6811 6.42232 91.0867 4.45139 94.0018 4.45139C86.2973 19.5666 83.5631 33.1552 86.5141 45.5774H45.268C48.219 33.1552 45.0476 17.9845 37.7803 4.45139Z" fill="#D8853A"/>
<path fill-rule="evenodd" clip-rule="evenodd" d="M47.9634 12.2165C60.9858 8.79248 72.8938 8.9627 83.8199 12.2165C80.7596 21.3365 79.8458 32.1049 80.541 39.9886H51.2369C52.2815 31.8111 51.5953 20.9011 47.958 12.2165H47.9634ZM51.8407 14.0083C62.0537 11.0716 71.3708 11.2167 79.9426 14.0083C77.1582 21.4566 77.3087 29.3313 77.5685 37.8385H54.2148C54.6251 29.059 54.2345 21.6035 51.8407 14.0083Z" fill="#FFF5C4"/>
<path fill-rule="evenodd" clip-rule="evenodd" d="M51.8408 14.019C62.0538 11.0824 71.3709 11.2275 79.9426 14.019C77.1583 21.4673 77.3088 29.3421 77.5686 37.8493H54.2149C54.6252 29.0697 54.2346 21.6143 51.8408 14.019Z" fill="#EA4B21"/>
<path fill-rule="evenodd" clip-rule="evenodd" d="M6.05957 46.2832C6.1482 46.2903 6.23586 46.3065 6.32117 46.3315C11.7215 47.9101 14.2927 64.0949 12.5117 63.5323C11.8577 63.3299 13.6548 63.3729 12.7948 63.5825C14.5453 63.3478 16.2224 63.088 17.8421 62.8103C18.772 58.3309 17.2168 49.6337 13.6046 44.6562C11.2156 45.1149 8.70061 45.6525 6.05957 46.2688V46.2832Z" fill="#EA4B21"/>
<path fill-rule="evenodd" clip-rule="evenodd" d="M9.18231 50.75C6.54127 51.3126 4.65276 52.3393 1.79492 53.3015C3.89844 55.5053 4.80865 58.1911 4.69935 61.1852L11.8198 60.4935C12.3895 56.8903 10.3487 52.5632 9.18231 50.7536V50.75Z" fill="#D8853A" stroke="#FFF5C4" stroke-width="11.37" stroke-linecap="round" stroke-linejoin="round"/>
<path fill-rule="evenodd" clip-rule="evenodd" d="M126.239 46.2832C126.15 46.2902 126.061 46.3065 125.976 46.3315C120.575 47.9101 118.004 64.0949 119.787 63.5323C120.439 63.3299 118.642 63.3729 119.502 63.5825C117.753 63.3478 116.076 63.088 114.455 62.8103C113.526 58.3309 115.08 49.6337 118.694 44.6562C121.083 45.1149 123.598 45.6525 126.239 46.2688V46.2832Z" fill="#EA4B21"/>
<path fill-rule="evenodd" clip-rule="evenodd" d="M123.114 50.75C125.757 51.3108 127.644 52.3393 130.502 53.3015C128.398 55.5053 127.49 58.1911 127.597 61.1852L120.479 60.4935C119.907 56.8903 121.948 52.5632 123.114 50.7536V50.75Z" fill="#D8853A" stroke="#FFF5C4" stroke-width="11.37" stroke-linecap="round" stroke-linejoin="round"/>
<path fill-rule="evenodd" clip-rule="evenodd" d="M66.825 16.2964C66.825 17.2711 66.4165 17.5094 65.913 17.5094C65.4095 17.5094 65.001 17.2711 65.001 16.2964C65.001 15.3217 65.913 13.9814 65.913 13.9814C65.913 13.9814 66.825 15.3217 66.825 16.2964Z" fill="#FFF5C4" stroke="#DEA363" stroke-width="2.43" stroke-miterlimit="10"/>
<path d="M67.0002 16.481H64.834V32.9095H67.0002V16.481Z" fill="#DEA363"/>
<path fill-rule="evenodd" clip-rule="evenodd" d="M67.4856 17.7603C66.7026 18.4233 66.2313 18.3122 65.8909 17.9753C65.5505 17.6385 65.4609 17.2031 66.2492 16.5419C67.0376 15.8808 68.729 15.5762 68.729 15.5762C68.729 15.5762 68.2685 17.0974 67.4856 17.7603Z" fill="#FFF5C4" stroke="#DEA363" stroke-width="2.43" stroke-miterlimit="10"/>
<path fill-rule="evenodd" clip-rule="evenodd" d="M64.297 17.7602C65.08 18.4231 65.5512 18.312 65.8917 17.9752C66.2321 17.6383 66.3199 17.2029 65.5333 16.5418C64.7467 15.8806 63.0625 15.5742 63.0625 15.5742C63.0625 15.5742 63.514 17.0972 64.297 17.7602Z" fill="#FFF5C4" stroke="#DEA363" stroke-width="2.43" stroke-miterlimit="10"/>
<path fill-rule="evenodd" clip-rule="evenodd" d="M67.4856 19.796C66.7026 20.4589 66.2313 20.3478 65.8909 20.011C65.5505 19.6741 65.4609 19.2387 66.2492 18.5776C67.0376 17.9164 68.729 17.6118 68.729 17.6118C68.729 17.6118 68.2685 19.133 67.4856 19.796Z" fill="#FFF5C4" stroke="#DEA363" stroke-width="2.43" stroke-miterlimit="10"/>
<path fill-rule="evenodd" clip-rule="evenodd" d="M64.297 19.7958C65.08 20.4587 65.5512 20.3477 65.8917 20.0108C66.2321 19.674 66.3199 19.2386 65.5333 18.5774C64.7467 17.9163 63.0625 17.6099 63.0625 17.6099C63.0625 17.6099 63.514 19.1329 64.297 19.7958Z" fill="#FFF5C4" stroke="#DEA363" stroke-width="2.43" stroke-miterlimit="10"/>
<path fill-rule="evenodd" clip-rule="evenodd" d="M67.4856 21.8297C66.7026 22.4926 66.2313 22.3815 65.8909 22.0447C65.5505 21.7078 65.4609 21.2724 66.2492 20.6113C67.0376 19.9501 68.729 19.6455 68.729 19.6455C68.729 19.6455 68.2685 21.1757 67.4856 21.8297Z" fill="#FFF5C4" stroke="#DEA363" stroke-width="2.43" stroke-miterlimit="10"/>
<path fill-rule="evenodd" clip-rule="evenodd" d="M64.297 21.8297C65.08 22.4926 65.5512 22.3815 65.8917 22.0447C66.2321 21.7078 66.3199 21.2724 65.5333 20.6113C64.7467 19.9501 63.0518 19.6455 63.0518 19.6455C63.0518 19.6455 63.514 21.1757 64.297 21.8297Z" fill="#FFF5C4" stroke="#DEA363" stroke-width="2.43" stroke-miterlimit="10"/>
<path fill-rule="evenodd" clip-rule="evenodd" d="M67.4856 23.8629C66.7026 24.5258 66.2313 24.4147 65.8909 24.0779C65.5505 23.741 65.4609 23.3056 66.2492 22.6445C67.0376 21.9833 68.729 21.6787 68.729 21.6787C68.729 21.6787 68.2685 23.2017 67.4856 23.8629Z" fill="#FFF5C4" stroke="#DEA363" stroke-width="2.43" stroke-miterlimit="10"/>
<path fill-rule="evenodd" clip-rule="evenodd" d="M64.297 23.8629C65.08 24.5258 65.5512 24.4147 65.8917 24.0779C66.2321 23.741 66.3199 23.3056 65.5333 22.6445C64.7467 21.9833 63.0518 21.6787 63.0518 21.6787C63.0518 21.6787 63.514 23.2017 64.297 23.8629Z" fill="#FFF5C4" stroke="#DEA363" stroke-width="2.43" stroke-miterlimit="10"/>
<path d="M66.1419 30.6431H65.6904V35.7298H66.1419V30.6431Z" fill="#FFF5C4" stroke="#DEA363" stroke-width="2.43" stroke-miterlimit="10"/>
<path fill-rule="evenodd" clip-rule="evenodd" d="M67.4856 25.8985C66.7026 26.5614 66.2313 26.4504 65.8909 26.1135C65.5505 25.7767 65.4609 25.3413 66.2492 24.6801C67.0376 24.019 68.729 23.7144 68.729 23.7144C68.729 23.7144 68.2685 25.2355 67.4856 25.8985Z" fill="#FFF5C4" stroke="#DEA363" stroke-width="2.43" stroke-miterlimit="10"/>
<path fill-rule="evenodd" clip-rule="evenodd" d="M64.297 25.8985C65.08 26.5614 65.5512 26.4504 65.8917 26.1135C66.2321 25.7767 66.3199 25.3413 65.5333 24.6801C64.7467 24.019 63.0518 23.7144 63.0518 23.7144C63.0518 23.7144 63.514 25.2355 64.297 25.8985Z" fill="#FFF5C4" stroke="#DEA363" stroke-width="2.43" stroke-miterlimit="10"/>
<path fill-rule="evenodd" clip-rule="evenodd" d="M67.4856 27.9341C66.7026 28.5971 66.2313 28.486 65.8909 28.1492C65.5505 27.8123 65.4609 27.3769 66.2492 26.7158C67.0376 26.0546 68.729 25.75 68.729 25.75C68.729 25.75 68.2685 27.2676 67.4856 27.9341Z" fill="#FFF5C4" stroke="#DEA363" stroke-width="2.43" stroke-miterlimit="10"/>
<path fill-rule="evenodd" clip-rule="evenodd" d="M64.297 27.9341C65.08 28.5971 65.5512 28.486 65.8917 28.1492C66.2321 27.8123 66.3199 27.3769 65.5333 26.7158C64.7467 26.0546 63.0518 25.75 63.0518 25.75C63.0518 25.75 63.514 27.2676 64.297 27.9341Z" fill="#FFF5C4" stroke="#DEA363" stroke-width="2.43" stroke-miterlimit="10"/>
<path fill-rule="evenodd" clip-rule="evenodd" d="M67.4856 29.9675C66.7026 30.6304 66.2313 30.5194 65.8909 30.1825C65.5505 29.8457 65.4609 29.4103 66.2492 28.7491C67.0376 28.088 68.729 27.7852 68.729 27.7852C68.729 27.7852 68.2685 29.3045 67.4856 29.9675Z" fill="#FFF5C4" stroke="#DEA363" stroke-width="2.43" stroke-miterlimit="10"/>
<path fill-rule="evenodd" clip-rule="evenodd" d="M64.297 29.9675C65.08 30.6304 65.5512 30.5194 65.8917 30.1825C66.2321 29.8457 66.3199 29.4103 65.5333 28.7491C64.7467 28.088 63.0518 27.7852 63.0518 27.7852C63.0518 27.7852 63.514 29.3045 64.297 29.9675Z" fill="#FFF5C4" stroke="#DEA363" stroke-width="2.43" stroke-miterlimit="10"/>
<path fill-rule="evenodd" clip-rule="evenodd" d="M67.4856 32.003C66.7026 32.666 66.2313 32.5549 65.8909 32.218C65.5505 31.8812 65.4609 31.4458 66.2492 30.7846C67.0376 30.1234 68.729 29.8188 68.729 29.8188C68.729 29.8188 68.2685 31.3401 67.4856 32.003Z" fill="#FFF5C4" stroke="#DEA363" stroke-width="2.43" stroke-miterlimit="10"/>
<path fill-rule="evenodd" clip-rule="evenodd" d="M64.297 32.003C65.08 32.666 65.5512 32.5549 65.8917 32.218C66.2321 31.8812 66.3199 31.4458 65.5333 30.7846C64.7467 30.1234 63.0518 29.8188 63.0518 29.8188C63.0518 29.8188 63.514 31.3401 64.297 32.003Z" fill="#FFF5C4" stroke="#DEA363" stroke-width="2.43" stroke-miterlimit="10"/>
<path fill-rule="evenodd" clip-rule="evenodd" d="M67.4856 34.0369C66.7026 34.6998 66.2313 34.5887 65.8909 34.2519C65.5505 33.915 65.4609 33.4796 66.2492 32.8185C67.0376 32.1573 68.729 31.8545 68.729 31.8545C68.729 31.8545 68.2685 33.3739 67.4856 34.0369Z" fill="#FFF5C4" stroke="#DEA363" stroke-width="2.43" stroke-miterlimit="10"/>
<path fill-rule="evenodd" clip-rule="evenodd" d="M64.297 34.0369C65.08 34.6998 65.5512 34.5887 65.8917 34.2519C66.2321 33.915 66.3199 33.4796 65.5333 32.8185C64.7467 32.1573 63.0518 31.8545 63.0518 31.8545C63.0518 31.8545 63.514 33.3739 64.297 34.0369Z" fill="#FFF5C4" stroke="#DEA363" stroke-width="2.43" stroke-miterlimit="10"/>
<path fill-rule="evenodd" clip-rule="evenodd" d="M66.1494 61.7907C82.984 61.8198 99.7929 63.1099 116.435 65.6501C111.68 64.9047 114.708 43.3105 123.362 41.1031C124.734 40.7447 123.69 41.0314 123.858 41.0314C104.183 36.6882 84.9556 34.4951 66.1494 34.2891C47.336 34.4951 28.1141 36.6882 8.43887 41.0314C8.61804 41.0314 7.5627 40.7519 8.93697 41.1031C17.5893 43.3052 20.6174 64.8993 15.8621 65.6501C32.5046 63.1098 49.3141 61.8198 66.1494 61.7907ZM7.99272 41.0852H7.93359L7.99272 41.0726V41.0852ZM124.304 41.0852H124.363L124.304 41.0726V41.0852Z" fill="#D8853A" stroke="#FFF5C4" stroke-width="11.37" stroke-linecap="round" stroke-linejoin="round"/>
<path d="M23.4146 51.5115C23.5684 52.2768 23.8315 53.016 24.1958 53.7064C24.5075 54.2859 24.9285 54.7994 25.4357 55.2186C26.3871 55.9962 27.5858 56.3205 28.935 56.1288C29.973 55.9824 30.9526 55.5597 31.7713 54.9051C31.6961 54.4679 31.619 54.0307 31.5438 53.5899C30.6748 54.2672 29.7878 54.9409 28.7146 55.0986C28.332 55.1619 27.9405 55.1468 27.5638 55.0545C27.1872 54.9621 26.8332 54.7942 26.5233 54.561C26.0434 54.1785 25.6686 53.6803 25.4339 53.1133C25.1894 52.5197 25.0092 51.9016 24.8964 51.2696C24.753 50.6312 24.6761 49.9798 24.667 49.3256C24.6592 48.6983 24.8175 48.0802 25.1257 47.5338C25.5575 46.8064 26.2581 46.3781 27.1271 46.2205C28.1197 46.0413 29.2199 46.2617 30.3182 46.5268C30.2429 46.0932 30.1677 45.6614 30.0906 45.2224C29.052 44.9589 27.9706 44.909 26.9121 45.0755C25.45 45.3461 24.3839 46.1129 23.7819 47.24C23.4727 47.839 23.2897 48.4952 23.2444 49.1679C23.1892 49.9578 23.2496 50.7515 23.4235 51.524L23.4146 51.5115ZM40.5061 46.7526C40.3932 45.846 40.0044 44.9609 39.2214 44.3839C38.1661 43.6278 36.8473 43.8052 35.5143 43.9897L33.108 44.3212C33.2561 45.2673 33.4048 46.2043 33.5541 47.1325C33.7034 48.0606 33.848 48.972 33.9877 49.8667C34.1287 50.7637 34.269 51.6524 34.4088 52.5328C34.5467 53.4054 34.6847 54.2726 34.8209 55.129C35.2831 55.0771 35.7275 55.0305 36.1898 54.9839C36.0858 54.2959 35.9813 53.6043 35.8762 52.9091C35.7711 52.2139 35.6636 51.5073 35.5537 50.7894C35.7508 50.7643 35.9658 50.7428 36.179 50.7177C36.3922 50.6927 36.6431 50.6622 36.8742 50.63C37.5246 51.2839 38.1607 51.9397 38.7914 52.583C39.4221 53.2262 40.0456 53.8748 40.6745 54.5198L42.2584 54.3873C41.6188 53.71 40.9702 53.0309 40.3233 52.3447C39.6765 51.6584 39.0154 50.9883 38.365 50.3074C39.5368 49.9097 40.0976 49.1965 40.3359 48.496C40.5204 47.9344 40.5755 47.3385 40.4971 46.7526H40.5061ZM35.3853 49.675C35.2766 48.9583 35.1673 48.2374 35.0574 47.5123C34.9463 46.7795 34.8352 46.0449 34.7223 45.3031C35.1703 45.244 35.6074 45.1812 36.0572 45.1239C36.8563 45.02 37.6483 44.9125 38.304 45.3873C38.7582 45.7684 39.0424 46.3143 39.0942 46.9049C39.1496 47.2131 39.1411 47.5294 39.0693 47.8342C38.9975 48.139 38.8639 48.4259 38.6767 48.6769C38.1177 49.3435 37.2433 49.4492 36.3672 49.5549L35.3853 49.6767V49.675ZM51.8515 48.1627C51.9086 48.8547 51.8852 49.551 51.7816 50.2376C51.6984 50.8762 51.4488 51.4818 51.0577 51.9935C50.7834 52.3077 50.4479 52.5627 50.0718 52.7429C49.6957 52.9231 49.2867 53.0247 48.87 53.0416C48.0218 53.1125 47.1801 52.8452 46.5282 52.2981C46.0528 51.848 45.6974 51.2863 45.4943 50.664C45.0863 49.339 44.942 47.9468 45.0697 46.5663C45.1419 45.8939 45.385 45.2512 45.7756 44.6993C46.0575 44.3647 46.4027 44.0891 46.7915 43.8885C47.1802 43.6879 47.6048 43.5662 48.0409 43.5304C48.4769 43.4946 48.9157 43.5454 49.3319 43.6799C49.7482 43.8144 50.1338 44.0299 50.4664 44.314C50.9483 44.8084 51.2982 45.4159 51.4841 46.0807C51.6856 46.7574 51.8106 47.4546 51.8568 48.1591L51.8515 48.1627ZM47.9186 42.3073C46.3884 42.4399 45.17 43.1404 44.4049 44.2782C44.0072 44.8887 43.7344 45.572 43.6022 46.2885C43.4498 47.116 43.4245 47.9619 43.527 48.797C43.609 49.6181 43.8163 50.4217 44.1416 51.18C44.4157 51.8184 44.8133 52.3962 45.3116 52.8804C46.2576 53.7763 47.5047 54.2439 48.9632 54.1543C50.3876 54.0647 51.5612 53.4699 52.3316 52.4539C52.7466 51.8982 53.0435 51.2635 53.2042 50.5887C53.3998 49.7679 53.4687 48.922 53.4085 48.0803C53.36 47.2224 53.1825 46.3767 52.8817 45.5718C52.6193 44.8764 52.2251 44.2382 51.7207 43.6923C50.7675 42.671 49.4416 42.1639 47.9186 42.3001V42.3073ZM58.11 53.4681C58.0706 52.5591 58.0312 51.6423 57.9918 50.7177C57.9524 49.7932 57.9106 48.8507 57.8664 47.8904C57.8258 46.9348 57.7839 45.966 57.7409 44.9841C57.6997 43.9987 57.6567 43.0007 57.6137 41.9955L56.1337 42.0511C56.1839 43.0544 56.2335 44.0495 56.2825 45.0361C56.3314 46.0228 56.3798 46.9891 56.4276 47.9352C56.4742 48.883 56.5226 49.8255 56.5691 50.7554C56.6157 51.6853 56.6605 52.5955 56.7053 53.5039C57.1694 53.4896 57.6334 53.4788 58.1065 53.4681H58.11ZM68.4162 50.3038C68.4408 49.5857 68.2082 48.8824 67.7604 48.3204C67.2963 47.7399 66.5331 47.2453 65.4491 46.8619L64.7807 46.6451C63.0786 46.0323 62.369 45.7492 62.3457 44.6742C62.3153 43.2569 63.5283 42.7767 64.6517 42.7624C65.7268 42.748 66.7535 43.1709 67.7353 43.6242C67.7353 43.153 67.7353 42.6817 67.7353 42.2069C66.8023 41.7486 65.7789 41.5037 64.7395 41.4902C63.7021 41.5046 62.7148 41.8199 62.0107 42.4327C61.3065 43.0455 60.8658 43.9575 60.898 45.1526C60.9177 45.8693 61.0987 46.4068 61.5681 46.8745C62.0376 47.3421 62.8223 47.747 64.0121 48.1752C64.2235 48.2505 64.4278 48.3293 64.6499 48.4064C66.2213 48.9439 67.0115 49.5639 67.0115 50.6532C67.0115 51.9612 65.8504 52.4755 64.6661 52.4808C63.4817 52.4862 62.2257 51.9953 61.0718 51.3305C61.0844 51.8054 61.0987 52.2766 61.1112 52.746C62.1472 53.3202 63.3132 53.6188 64.4976 53.6132C65.5727 53.6132 66.5438 53.3158 67.2426 52.7639C67.616 52.4714 67.9159 52.0956 68.1184 51.6666C68.3209 51.2377 68.4204 50.7673 68.409 50.2931L68.4162 50.3038ZM78.2959 50.544C78.3497 49.8334 78.1483 49.1269 77.7279 48.5515C77.2961 47.962 76.5615 47.4478 75.49 47.0106C75.2714 46.9246 75.0528 46.8458 74.8432 46.7634C73.1751 46.0735 72.4691 45.7653 72.4978 44.6867C72.5354 43.2676 73.761 42.8394 74.8898 42.8824C75.9648 42.9236 76.9754 43.3913 77.9358 43.8715C77.9608 43.4032 77.9853 42.9332 78.0092 42.4614C77.0965 41.9756 76.0902 41.6914 75.0582 41.6282C74.0208 41.5888 73.021 41.8504 72.2882 42.4416C71.5553 43.0329 71.0698 43.9306 71.0465 45.1293C71.0321 45.846 71.1809 46.396 71.6324 46.8816C72.0839 47.3672 72.8418 47.7918 74.0029 48.2648C74.2179 48.3526 74.4186 48.444 74.6371 48.5246C76.1781 49.1303 76.9288 49.7789 76.8768 50.8665C76.8123 52.1673 75.6405 52.6331 74.4598 52.5973C73.279 52.5615 72.0445 52.0293 70.9229 51.3269L70.896 52.7478C71.9076 53.3529 73.0575 53.6885 74.2358 53.7225C75.3001 53.7566 76.2945 53.5111 77.0238 52.9789C77.4076 52.697 77.722 52.331 77.9428 51.909C78.1636 51.487 78.285 51.0201 78.2977 50.544H78.2959ZM88.9873 54.2296C88.7687 53.3104 88.5393 52.3823 88.3261 51.447C88.1129 50.5117 87.8782 49.5495 87.656 48.5802C87.4338 47.6108 87.1919 46.6236 86.9662 45.631C86.7404 44.6383 86.4896 43.617 86.2584 42.585L84.8 42.456C84.395 43.4271 83.9829 44.3947 83.5923 45.355C83.2017 46.3154 82.8075 47.2543 82.4241 48.1914C82.0407 49.1285 81.6554 50.0476 81.2845 50.9614C80.9137 51.8752 80.5446 52.7693 80.1844 53.6616L81.3329 53.7189C81.539 53.2262 81.7486 52.7245 81.9582 52.2264L82.5925 50.7088C84.0259 50.7948 85.436 50.8987 86.8641 51.0044C86.9859 51.5312 87.1131 52.0544 87.2224 52.5722C87.3317 53.09 87.4733 53.6007 87.6005 54.1113C88.061 54.1454 88.5214 54.174 88.9801 54.2117L88.9873 54.2296ZM86.5756 49.8434C85.4002 49.7556 84.2338 49.6642 83.0655 49.5889C83.4239 48.7313 83.7822 47.8695 84.1406 47.0035C84.4989 46.1374 84.871 45.2589 85.2569 44.3678C85.4814 45.3055 85.703 46.2318 85.9216 47.1468C86.1402 48.0618 86.3564 48.9576 86.5702 49.8344L86.5756 49.8434ZM92.7177 54.5539C92.8085 53.8372 92.9011 53.1121 92.9954 52.3787C93.0886 51.6441 93.1854 50.9005 93.2803 50.1516C93.3753 49.4026 93.4738 48.6429 93.5706 47.8796C93.6673 47.1163 93.7677 46.3351 93.8662 45.5503C94.1887 46.3763 94.5256 47.197 94.8517 48.014C95.1778 48.831 95.511 49.6266 95.83 50.4239C96.1489 51.2212 96.4589 51.9953 96.7706 52.7693C97.0824 53.5433 97.3942 54.2977 97.7077 55.052L99.0605 55.1917C99.1979 54.3281 99.337 53.4567 99.478 52.5776C99.6177 51.6925 99.7611 50.7966 99.9044 49.89C100.048 48.9833 100.196 48.0624 100.343 47.136C100.49 46.2097 100.644 45.2565 100.795 44.3051C100.401 44.2477 100.005 44.1904 99.616 44.1384C99.4965 44.9173 99.377 45.6937 99.2576 46.4677C99.1393 47.231 99.0229 47.9907 98.9082 48.7414C98.7935 49.4922 98.6789 50.2304 98.566 50.9668C98.4531 51.7032 98.342 52.4235 98.2309 53.142C97.9156 52.3739 97.602 51.5975 97.2903 50.8127C96.9785 50.0261 96.6542 49.2252 96.3388 48.4207C96.0235 47.6162 95.6884 46.7831 95.3659 45.9553C95.0434 45.1275 94.7012 44.2764 94.3697 43.4289L92.9363 43.2677C92.8168 44.2483 92.6974 45.2189 92.5779 46.1793C92.4615 47.1289 92.3468 48.0767 92.2321 49.0102C92.1175 49.9437 92.0064 50.8557 91.8971 51.7659C91.7878 52.6761 91.6767 53.5577 91.5692 54.4535L92.7123 54.5521L92.7177 54.5539ZM111.173 47.3349C111.252 46.9658 111.33 46.5914 111.407 46.2205C108.763 45.7152 106.125 45.2063 103.461 44.7602C103.395 45.1508 103.327 45.5396 103.26 45.9266C104.353 46.1058 105.445 46.285 106.53 46.4641C106.376 47.2848 106.223 48.0988 106.072 48.9063C105.92 49.7138 105.77 50.5087 105.622 51.2911L105.183 53.6204L104.755 55.8977C105.201 55.9604 105.651 56.0213 106.095 56.0858C106.24 55.3369 106.389 54.5843 106.536 53.8246C106.683 53.0649 106.837 52.2873 106.987 51.5133C107.138 50.7392 107.294 49.9401 107.449 49.1464L107.923 46.7239C108.998 46.9264 110.073 47.1271 111.173 47.326V47.3349Z" fill="#FFF5C4"/>
</g>
<defs>
<clipPath id="clip0_698_1380">
<rect width="130.744" height="66.3199" fill="white" transform="translate(0.777344 0.369629)"/>
</clipPath>
</defs>
</svg>
