<svg width="33" height="33" viewBox="0 0 33 33" fill="none" xmlns="http://www.w3.org/2000/svg">
<g clip-path="url(#clip0_698_1092)">
<path d="M16.7782 0.369629C7.9417 0.369629 0.77832 7.53301 0.77832 16.3695C0.77832 25.2061 7.9417 32.3697 16.7782 32.3697C25.6147 32.3697 32.7784 25.2061 32.7784 16.3695C32.7685 7.53711 25.6109 0.37959 16.7782 0.369629ZM16.7782 30.7695C8.82529 30.7695 2.37822 24.3225 2.37822 16.3695C2.37822 8.4166 8.82529 1.96953 16.7782 1.96953C24.7312 1.96953 31.1782 8.4166 31.1782 16.3695C31.1691 24.3187 24.7273 30.7604 16.7782 30.7695Z" fill="url(#paint0_linear_698_1092)"/>
<path d="M14.9042 10.1675C14.5714 9.87661 14.066 9.91059 13.7751 10.2431C13.4845 10.5759 13.5185 11.0813 13.851 11.3722L19.5627 16.3697L13.8507 21.3674C13.5179 21.6583 13.4842 22.1637 13.7748 22.4962C14.0657 22.829 14.5711 22.863 14.9039 22.5721L21.3038 16.972C21.4775 16.8203 21.5771 16.6005 21.5771 16.3697C21.5771 16.1388 21.4775 15.9194 21.3038 15.7673L14.9042 10.1675Z" fill="url(#paint1_linear_698_1092)"/>
</g>
<defs>
<linearGradient id="paint0_linear_698_1092" x1="1.6622" y1="31.4858" x2="29.1131" y2="4.03495" gradientUnits="userSpaceOnUse">
<stop stop-color="#8146F6"/>
<stop offset="1" stop-color="#F14537"/>
</linearGradient>
<linearGradient id="paint1_linear_698_1092" x1="13.7981" y1="22.4163" x2="23.6681" y2="16.2476" gradientUnits="userSpaceOnUse">
<stop stop-color="#8146F6"/>
<stop offset="1" stop-color="#F14537"/>
</linearGradient>
<clipPath id="clip0_698_1092">
<rect width="32" height="32" fill="white" transform="translate(0.77832 0.369629)"/>
</clipPath>
</defs>
</svg>
