<svg width="33" height="33" viewBox="0 0 33 33" fill="none" xmlns="http://www.w3.org/2000/svg">
<g clip-path="url(#clip0_698_1096)">
<path d="M16.7784 0.369629C25.6149 0.369629 32.7783 7.53301 32.7783 16.3695C32.7783 25.2061 25.6149 32.3697 16.7784 32.3697C7.9419 32.3697 0.778225 25.2061 0.778225 16.3695C0.788187 7.53711 7.94571 0.37959 16.7784 0.369629ZM16.7784 30.7695C24.7313 30.7695 31.1784 24.3225 31.1784 16.3695C31.1784 8.4166 24.7313 1.96953 16.7784 1.96953C8.82549 1.96953 2.37842 8.4166 2.37842 16.3695C2.3875 24.3187 8.8293 30.7604 16.7784 30.7695Z" fill="url(#paint0_linear_698_1096)"/>
<path d="M18.6524 10.1675C18.9853 9.87661 19.4906 9.91059 19.7815 10.2431C20.0722 10.5759 20.0382 11.0813 19.7057 11.3722L13.9939 16.3697L19.706 21.3674C20.0388 21.6583 20.0725 22.1637 19.7818 22.4962C19.4909 22.829 18.9856 22.863 18.6527 22.5721L12.2528 16.972C12.0791 16.8203 11.9795 16.6005 11.9795 16.3697C11.9795 16.1388 12.0791 15.9194 12.2528 15.7673L18.6524 10.1675Z" fill="url(#paint1_linear_698_1096)"/>
</g>
<defs>
<linearGradient id="paint0_linear_698_1096" x1="31.8944" y1="31.4858" x2="4.44355" y2="4.03495" gradientUnits="userSpaceOnUse">
<stop stop-color="#8146F6"/>
<stop offset="1" stop-color="#F14537"/>
</linearGradient>
<linearGradient id="paint1_linear_698_1096" x1="19.7585" y1="22.4163" x2="9.8885" y2="16.2476" gradientUnits="userSpaceOnUse">
<stop stop-color="#8146F6"/>
<stop offset="1" stop-color="#F14537"/>
</linearGradient>
<clipPath id="clip0_698_1096">
<rect width="32" height="32" fill="white" transform="matrix(-1 0 0 1 32.7783 0.369629)"/>
</clipPath>
</defs>
</svg>
