<svg width="111" height="111" viewBox="0 0 111 111" fill="none" xmlns="http://www.w3.org/2000/svg">
<path fill-rule="evenodd" clip-rule="evenodd" d="M40.0726 62.4957C37.4003 63.9533 34.3113 64.3916 30.8435 63.377C20.1163 60.2379 15.7768 51.8376 15.1909 41.8797C14.3359 27.3394 21.6048 9.44571 28.1021 0.552442C28.4094 0.130881 29.0001 0.0403509 29.4193 0.34759C29.8408 0.65483 29.9336 1.2455 29.6264 1.66706C23.3196 10.2983 16.246 27.6585 17.0749 41.7701C17.6131 50.9135 21.5215 58.6826 31.3746 61.5645C34.3065 62.4243 36.9121 62.0456 39.1747 60.819C38.3959 59.3281 37.6694 57.8347 36.9978 56.3414C35.1448 52.2187 32.3749 40.7722 33.4086 32.3553C34.1517 26.3177 36.8454 21.8424 42.7329 21.9996C46.0054 22.0877 48.3728 24.1265 49.8208 27.3704C51.8143 31.8289 52.0382 38.6597 50.6354 45.2046C49.4683 50.6539 47.182 55.896 43.9381 59.4138C43.2236 60.1855 42.4661 60.8786 41.6635 61.474C52.8575 81.9471 73.6522 101.091 95.0065 109.165C95.4924 109.351 95.74 109.894 95.5543 110.382C95.3709 110.87 94.8254 111.116 94.3396 110.932C72.6375 102.725 51.4976 83.3022 40.0726 62.4957ZM40.7608 59.7806C40.032 58.3777 39.3509 56.9726 38.7198 55.5674C36.9454 51.6161 34.2921 40.6508 35.2829 32.5863C35.8903 27.6371 37.8576 23.7573 42.6829 23.886C45.2171 23.955 46.9747 25.6293 48.0989 28.1396C49.3326 30.9024 49.8042 34.6441 49.6065 38.6334C49.3064 44.6901 47.4559 51.316 44.2358 56.0056C43.2164 57.4917 42.0565 58.7803 40.7608 59.7806Z" fill="url(#paint0_linear_689_780)"/>
<path fill-rule="evenodd" clip-rule="evenodd" d="M78.1326 78.2701C80.0332 89.3689 87.2879 101.187 95.107 109.37C95.4667 109.747 95.4524 110.345 95.0761 110.704C94.6998 111.064 94.102 111.052 93.7423 110.676C85.6779 102.237 78.2327 90.031 76.2725 78.5893C76.1844 78.0772 76.5298 77.589 77.0442 77.5008C77.5563 77.4127 78.0445 77.7581 78.1326 78.2701Z" fill="url(#paint1_linear_689_780)"/>
<path fill-rule="evenodd" clip-rule="evenodd" d="M93.6207 110.875C85.48 106.226 72.9928 105.583 63.8899 107.938C63.385 108.069 62.8681 107.767 62.7395 107.262C62.6085 106.757 62.911 106.242 63.4159 106.111C72.9522 103.644 86.0278 104.366 94.5566 109.236C95.0092 109.493 95.1665 110.072 94.9092 110.525C94.6496 110.977 94.0732 111.134 93.6207 110.875Z" fill="url(#paint2_linear_689_780)"/>
<defs>
<linearGradient id="paint0_linear_689_780" x1="18.919" y1="37.1081" x2="86.4443" y2="59.7923" gradientUnits="userSpaceOnUse">
<stop stop-color="#8146F6"/>
<stop offset="1" stop-color="#F14537"/>
</linearGradient>
<linearGradient id="paint1_linear_689_780" x1="77.1602" y1="88.6468" x2="93.8372" y2="93.0495" gradientUnits="userSpaceOnUse">
<stop stop-color="#8146F6"/>
<stop offset="1" stop-color="#F14537"/>
</linearGradient>
<linearGradient id="paint2_linear_689_780" x1="64.2337" y1="106.821" x2="68.7462" y2="117.582" gradientUnits="userSpaceOnUse">
<stop stop-color="#8146F6"/>
<stop offset="1" stop-color="#F14537"/>
</linearGradient>
</defs>
</svg>
