<svg width="154" height="139" viewBox="0 0 154 139" fill="none" xmlns="http://www.w3.org/2000/svg">
<path d="M11.1602 12.5975C8.70222 14.2811 10.5988 20.4214 10.5988 20.4214C10.5988 20.4214 5.3021 16.4199 3.02293 17.8506C0.233745 19.5975 2.03336 23.5748 4.81559 26.1055C7.45925 28.5123 15.3027 32.2922 17.3284 30.7699C18.9757 29.5363 18.8091 21.5881 17.377 17.2532C15.9448 12.9183 13.7531 10.821 11.1602 12.5975" fill="#F6C137"/>
<path d="M41.941 105.131C37.6713 103.118 30.7933 110.626 30.7933 110.626C30.7933 110.626 32.0202 100.184 28.2447 98.2078C27.7803 97.9605 27.28 97.7877 26.7619 97.6959C22.7861 97.0197 19.4903 102.069 18.3909 107.266C17.2182 112.809 18.3296 126.554 22.031 128.111C23.3417 128.662 26.12 127.721 29.2329 126.035C33.4423 123.761 37.2635 120.832 40.5539 117.358C45.3362 111.93 46.4484 107.254 41.945 105.131" fill="#8146F6"/>
<path d="M143.738 35.2558C140.998 34.0744 136.826 38.9661 136.826 38.9661C136.826 38.9661 137.372 32.3525 134.947 31.1893C131.979 29.7651 129.581 33.4141 128.931 37.1178C128.312 40.6404 129.315 49.2865 131.681 50.1861C133.605 50.9182 140.231 46.5269 143.125 43.0031C146.019 39.4793 146.616 36.5013 143.734 35.2602" fill="#F9D9C2"/>
<path d="M132.247 125.353C134.118 125.824 139.81 121.012 142.121 117.413C144.433 113.813 144.667 110.976 141.843 110.136C139.166 109.34 135.813 114.346 135.813 114.346C135.813 114.346 135.598 108.127 133.213 107.31C130.294 106.308 128.459 109.967 128.259 113.486C128.067 116.833 129.944 124.774 132.247 125.354" fill="#F25649"/>
<path d="M115.693 70.4849L107.56 96.6053C107.166 96.4966 41.6841 78.4183 41.3485 78.3268C42.1454 75.0372 46.422 57.3816 47.2961 53.7567C60.7377 56.6232 102.956 67.4921 115.691 70.485" fill="#F9D9C2"/>
<path d="M45.595 60.7724L104.022 75.4637C104.675 75.6628 105.278 75.996 105.794 76.4419C106.31 76.8877 106.727 77.4364 107.019 78.0528C107.311 78.6692 107.47 79.3397 107.488 80.0214C107.505 80.7031 107.38 81.381 107.121 82.0116C105.86 85.5697 104.61 91.3176 99.6303 90.0573L42.3871 74.0215L45.595 60.7724Z" fill="#F6C137"/>
<path d="M54.3694 67.9535C54.3222 68.151 54.2348 68.3367 54.1128 68.4992C53.9908 68.6616 53.8367 68.7972 53.6601 68.8976C53.4835 68.998 53.2882 69.0611 53.0862 69.0829C52.8843 69.1047 52.68 69.0848 52.486 69.0244C52.2921 68.964 52.1126 68.8645 51.9587 68.7319C51.8048 68.5993 51.6798 68.4365 51.5914 68.2536C51.503 68.0707 51.4531 67.8716 51.4449 67.6686C51.4366 67.4657 51.4701 67.2632 51.5433 67.0737C51.5906 66.8761 51.6779 66.6904 51.8 66.528C51.922 66.3656 52.076 66.23 52.2526 66.1296C52.4292 66.0291 52.6245 65.9661 52.8265 65.9443C53.0284 65.9224 53.2327 65.9423 53.4267 66.0027C53.6206 66.0631 53.8001 66.1627 53.954 66.2953C54.1079 66.4278 54.2329 66.5906 54.3213 66.7735C54.4097 66.9564 54.4596 67.1555 54.4679 67.3585C54.4761 67.5615 54.4426 67.764 54.3694 67.9535" fill="#8146F6"/>
<path d="M60.8142 74.6278C60.7731 74.8076 60.6952 74.977 60.5855 75.1254C60.4758 75.2737 60.3366 75.3978 60.1767 75.4898C60.0168 75.5819 59.8396 75.6399 59.6563 75.6603C59.4729 75.6807 59.2873 75.663 59.1111 75.6083C58.9349 75.5536 58.7719 75.4631 58.6323 75.3424C58.4927 75.2218 58.3795 75.0736 58.2998 74.9072C58.2201 74.7408 58.1757 74.5597 58.1693 74.3753C58.1628 74.191 58.1946 74.0072 58.2625 73.8357C58.3037 73.6558 58.3815 73.4864 58.4912 73.3381C58.601 73.1897 58.7401 73.0657 58.9 72.9736C59.0599 72.8816 59.2371 72.8235 59.4205 72.8032C59.6038 72.7828 59.7894 72.8005 59.9657 72.8552C60.1419 72.9099 60.3049 73.0004 60.4445 73.121C60.5841 73.2416 60.6973 73.3898 60.7769 73.5562C60.8566 73.7226 60.901 73.9037 60.9074 74.0881C60.9139 74.2725 60.8821 74.4562 60.8142 74.6278Z" fill="#8146F6"/>
<path d="M72.0461 72.0443C72.0133 72.1937 71.9498 72.3346 71.8597 72.4581C71.7695 72.5816 71.6547 72.685 71.5224 72.7617C71.3902 72.8385 71.2434 72.887 71.0915 72.904C70.9395 72.9211 70.7857 72.9063 70.6397 72.8608C70.4938 72.8152 70.3589 72.7398 70.2436 72.6394C70.1283 72.5389 70.0352 72.4156 69.9701 72.2772C69.905 72.1388 69.8694 71.9885 69.8655 71.8356C69.8616 71.6827 69.8895 71.5308 69.9475 71.3893C69.9823 71.2419 70.047 71.1033 70.1377 70.9821C70.2284 70.8609 70.3431 70.7596 70.4746 70.6846C70.6061 70.6096 70.7516 70.5624 70.9021 70.5461C71.0527 70.5297 71.2049 70.5445 71.3495 70.5896C71.494 70.6346 71.6277 70.7089 71.7423 70.8078C71.8569 70.9068 71.9499 71.0282 72.0156 71.1647C72.0812 71.3011 72.118 71.4496 72.1238 71.6009C72.1296 71.7521 72.1042 71.903 72.0491 72.044" fill="#8146F6"/>
<path d="M72.424 78.067C72.3869 78.2257 72.3175 78.375 72.22 78.5057C72.1226 78.6363 71.9993 78.7455 71.8578 78.8264C71.7164 78.9073 71.5597 78.9582 71.3977 78.9759C71.2357 78.9935 71.0717 78.9776 70.9161 78.9292C70.7605 78.8807 70.6166 78.8006 70.4933 78.694C70.37 78.5874 70.27 78.4566 70.1995 78.3096C70.129 78.1627 70.0896 78.0028 70.0836 77.8399C70.0777 77.677 70.1054 77.5147 70.1649 77.363C70.2021 77.2043 70.2715 77.055 70.3689 76.9243C70.4664 76.7936 70.5897 76.6844 70.7312 76.6035C70.8726 76.5226 71.0293 76.4718 71.1913 76.4541C71.3533 76.4364 71.5172 76.4523 71.6729 76.5008C71.8285 76.5493 71.9724 76.6293 72.0957 76.7359C72.219 76.8425 72.319 76.9733 72.3895 77.1203C72.46 77.2673 72.4994 77.4272 72.5054 77.59C72.5113 77.7529 72.4836 77.9153 72.424 78.067" fill="#8146F6"/>
<path d="M82.2437 80.1057C82.2033 80.2715 82.1295 80.4274 82.0266 80.5635C81.9237 80.6997 81.794 80.8133 81.6455 80.8974C81.497 80.9815 81.3328 81.0342 81.1631 81.0524C80.9934 81.0705 80.8218 81.0537 80.6589 81.003C80.4959 80.9523 80.3451 80.8687 80.2157 80.7574C80.0864 80.6461 79.9812 80.5094 79.9067 80.3559C79.8321 80.2024 79.7899 80.0352 79.7825 79.8647C79.7751 79.6942 79.8027 79.524 79.8637 79.3646C79.904 79.1988 79.9779 79.043 80.0808 78.9068C80.1837 78.7706 80.3134 78.657 80.4619 78.5729C80.6104 78.4889 80.7745 78.4361 80.9442 78.4179C81.1139 78.3998 81.2855 78.4166 81.4485 78.4673C81.6114 78.5181 81.7622 78.6017 81.8916 78.7129C82.021 78.8242 82.1262 78.9609 82.2007 79.1144C82.2752 79.2679 82.3175 79.4351 82.3249 79.6056C82.3323 79.7761 82.3046 79.9463 82.2437 80.1057" fill="#8146F6"/>
<path d="M88.7086 77.8249C88.6758 77.9628 88.6149 78.0925 88.5299 78.206C88.4448 78.3194 88.3373 78.4141 88.2141 78.4843C88.0909 78.5545 87.9546 78.5986 87.8136 78.6139C87.6727 78.6292 87.5301 78.6153 87.3947 78.5732C87.2593 78.531 87.134 78.4615 87.0266 78.369C86.9192 78.2764 86.832 78.1627 86.7703 78.035C86.7087 77.9074 86.6739 77.7683 86.6682 77.6267C86.6626 77.485 86.6861 77.3437 86.7373 77.2114C86.7701 77.0735 86.831 76.9438 86.916 76.8303C87.0011 76.7169 87.1086 76.6222 87.2318 76.552C87.355 76.4818 87.4913 76.4377 87.6323 76.4224C87.7733 76.4071 87.9159 76.421 88.0513 76.4631C88.1866 76.5053 88.3119 76.5748 88.4193 76.6673C88.5267 76.7599 88.614 76.8736 88.6756 77.0013C88.7372 77.1289 88.772 77.268 88.7777 77.4096C88.7833 77.5513 88.7598 77.6926 88.7086 77.8249" fill="#8146F6"/>
<path d="M96.7812 79.2775C96.2738 80.8825 94.5412 80.3427 95.0329 78.7329C95.5246 77.1231 97.2729 77.6677 96.7812 79.2775Z" fill="#8146F6"/>
<path d="M100.771 85.4915C100.198 87.3022 98.0679 86.6397 98.6237 84.8225C99.1963 83.0119 101.327 83.6743 100.771 85.4915Z" fill="#8146F6"/>
<path d="M116.903 69.652C116.752 69.9973 116.487 70.2798 116.152 70.4512C115.817 70.6226 115.432 70.6724 115.064 70.592L111.19 69.6696L47.1395 54.4059C47.0693 54.3803 47.0098 54.3319 46.9706 54.2685C46.9313 54.205 46.9145 54.1302 46.9229 54.056C46.9313 53.9819 46.9645 53.9127 47.017 53.8597C47.0695 53.8066 47.1383 53.7728 47.2124 53.7636L47.769 53.7152C50.6378 53.4654 69.4792 51.8009 72.8103 51.514C79.0854 50.9789 89.5286 50.0323 95.7108 49.5013L112.652 64.1659L112.935 64.411L116.536 67.5277C116.827 67.789 117.021 68.1408 117.088 68.5263C117.154 68.9117 117.089 69.3083 116.903 69.652" fill="#F4B512"/>
<path d="M117.561 68.7563C117.286 69.6706 116.659 70.4381 115.818 70.8902C114.977 71.3423 113.991 71.4418 113.077 71.167C110.109 70.329 109.761 65.988 112.4 64.5584C115.113 62.8455 118.628 65.7881 117.561 68.7573" fill="#6821F4"/>
<path d="M112.836 64.8053C112.567 65.6472 111.994 66.3593 111.23 66.8035C110.466 67.2478 109.564 67.3926 108.699 67.21C107.834 67.0273 107.067 66.5302 106.548 65.8149C106.028 65.0996 105.793 64.217 105.887 63.338C105.981 62.4589 106.397 61.646 107.056 61.0566C107.715 60.4672 108.569 60.1432 109.453 60.1475C110.337 60.1517 111.188 60.4838 111.842 61.0795C112.495 61.6752 112.904 62.4921 112.989 63.372V63.372C113.035 63.8551 112.983 64.3424 112.837 64.8052" fill="#6821F4"/>
<path d="M108.674 61.0018C108.54 61.4544 108.317 61.8759 108.019 62.2417C107.72 62.6075 107.352 62.9104 106.935 63.1327C106.519 63.355 106.062 63.4923 105.592 63.5367C105.122 63.5811 104.648 63.5317 104.197 63.3913C103.746 63.2509 103.328 63.0224 102.966 62.719C102.604 62.4155 102.306 62.0432 102.09 61.6237C101.873 61.2042 101.742 60.7459 101.704 60.2753C101.666 59.8046 101.721 59.3311 101.868 58.8822C102.002 58.4296 102.225 58.0081 102.524 57.6423C102.822 57.2765 103.19 56.9737 103.607 56.7513C104.023 56.529 104.48 56.3917 104.95 56.3473C105.42 56.3029 105.894 56.3523 106.345 56.4927C106.796 56.6331 107.214 56.8616 107.576 57.1651C107.938 57.4685 108.236 57.8408 108.452 58.2603C108.669 58.6798 108.8 59.1382 108.838 59.6088C108.876 60.0794 108.821 60.5529 108.674 61.0018" fill="#6821F4"/>
<path d="M104.181 57.084C104.048 57.5382 103.826 57.9613 103.528 58.3288C103.23 58.6962 102.861 59.0006 102.444 59.2242C102.027 59.4478 101.57 59.5861 101.099 59.6311C100.628 59.6761 100.152 59.6268 99.7004 59.4862C99.2485 59.3456 98.8292 59.1164 98.4669 58.812C98.1045 58.5076 97.8064 58.1341 97.59 57.7133C97.3735 57.2925 97.2429 56.8328 97.206 56.361C97.169 55.8893 97.2263 55.4149 97.3746 54.9655C97.5076 54.5113 97.7296 54.0882 98.0278 53.7207C98.326 53.3533 98.6944 53.0488 99.1114 52.8252C99.5285 52.6016 99.9859 52.4633 100.457 52.4183C100.928 52.3734 101.403 52.4226 101.855 52.5633C102.307 52.7039 102.726 52.9331 103.089 53.2375C103.451 53.5419 103.749 53.9154 103.966 54.3362C104.182 54.757 104.313 55.2167 104.35 55.6884C104.387 56.1602 104.329 56.6346 104.181 57.084" fill="#6821F4"/>
<path d="M99.6918 52.9202C99.5575 53.3729 99.3346 53.7944 99.0361 54.1602C98.7376 54.526 98.3693 54.8288 97.9528 55.0511C97.5362 55.2734 97.0796 55.4108 96.6096 55.4552C96.1395 55.4996 95.6653 55.4502 95.2145 55.3098C94.7637 55.1694 94.3453 54.9409 93.9835 54.6374C93.6218 54.334 93.3239 53.9617 93.1072 53.5422C92.8905 53.1227 92.7593 52.6643 92.7213 52.1937C92.6832 51.7231 92.739 51.2496 92.8854 50.8007C93.0197 50.348 93.2426 49.9266 93.5412 49.5608C93.8397 49.195 94.2079 48.8921 94.6245 48.6698C95.041 48.4475 95.4976 48.3102 95.9677 48.2658C96.4377 48.2214 96.912 48.2708 97.3628 48.4112C97.8136 48.5515 98.232 48.7801 98.5937 49.0835C98.9555 49.387 99.2534 49.7592 99.4701 50.1787C99.6867 50.5982 99.8179 51.0566 99.856 51.5272C99.8941 51.9979 99.8383 52.4714 99.6918 52.9202" fill="#6821F4"/>
<path d="M98.0531 63.5897C98.1823 63.7061 98.2705 63.8611 98.3046 64.0317C98.3387 64.2022 98.3169 64.3792 98.2424 64.5364C98.168 64.6935 98.0448 64.8225 97.8912 64.9041C97.7376 64.9857 97.5618 65.0155 97.3899 64.9893L52.5009 53.2991C63.3642 52.3423 80.9988 50.796 91.7282 49.8509C88.0517 54.3729 93.9754 60.3107 98.0531 63.5897" fill="#F6C137"/>
<path d="M83.9524 52.6802C80.8201 61.8101 68.7 57.72 71.3446 48.7543C74.4713 39.6989 86.5319 43.5609 83.9524 52.6802Z" fill="#F25649"/>
<path d="M83.9527 52.6808C82.3738 58.3691 74.6936 59.7852 71.9191 54.6635C77.7311 60.4366 86.2705 52.0206 82.3975 45.4529C83.2763 46.4104 83.8838 47.585 84.1571 48.8556C84.4305 50.1262 84.36 51.4467 83.9527 52.6808Z" fill="#F14537"/>
<path d="M76.9281 47.1051C76.9281 47.1051 77.4026 39.9389 71.3359 37.6241C71.2378 37.5974 71.1333 37.6092 71.0435 37.6569C70.9538 37.7047 70.8857 37.7848 70.8531 37.8811C70.8204 37.9773 70.8258 38.0824 70.8679 38.1749C70.9101 38.2673 70.986 38.3402 71.0801 38.3787C72.3751 38.7731 76.7678 40.5925 76.5521 47.1551L76.9281 47.1051Z" fill="#F9D9C2"/>
<path d="M78.4149 46.7822C78.5709 47.293 75.4955 47.9887 75.443 47.4203C75.288 46.9094 78.3624 46.2138 78.4149 46.7822Z" fill="#F9D9C2"/>
<path d="M74.6208 49.0307C74.5791 49.2071 74.5015 49.3731 74.3929 49.5182C74.2843 49.6634 74.1469 49.7847 73.9895 49.8745C73.832 49.9643 73.6577 50.0208 73.4774 50.0404C73.2972 50.06 73.1149 50.0422 72.9418 49.9883C72.7687 49.9344 72.6085 49.8455 72.4712 49.7271C72.334 49.6086 72.2226 49.4632 72.1439 49.2998C72.0652 49.1365 72.021 48.9587 72.014 48.7775C72.007 48.5964 72.0374 48.4157 72.1032 48.2468C72.1449 48.0703 72.2225 47.9044 72.3311 47.7592C72.4397 47.614 72.5771 47.4928 72.7345 47.403C72.892 47.3131 73.0663 47.2567 73.2466 47.2371C73.4268 47.2175 73.6091 47.2352 73.7822 47.2891C73.9553 47.343 74.1155 47.4319 74.2528 47.5504C74.39 47.6688 74.5014 47.8142 74.5801 47.9776C74.6587 48.141 74.7029 48.3187 74.7099 48.4999C74.7169 48.6811 74.6866 48.8617 74.6208 49.0307" fill="#FFF0F0"/>
<path d="M99.5398 51.3895C97.4273 56.4356 92.0387 51.577 95.7359 48.2835C97.4602 47.9011 100.099 49.4706 99.5398 51.3895Z" fill="#8146F6"/>
<path d="M104.256 55.4512C102.261 60.3532 96.8276 55.9112 100.351 52.4269C100.807 52.3641 101.27 52.3929 101.715 52.5116C102.159 52.6303 102.576 52.8365 102.939 53.1182C103.303 53.3999 103.607 53.7513 103.833 54.1519C104.059 54.5525 104.203 54.9942 104.256 55.4512" fill="#8146F6"/>
<path d="M108.742 59.223C107.215 63.4767 101.992 60.7031 104.238 56.8899C104.355 56.7055 104.492 56.5338 104.645 56.3778C105.101 56.29 105.571 56.2944 106.026 56.3905C106.481 56.4866 106.912 56.6726 107.294 56.9376C107.676 57.2026 108.001 57.5412 108.25 57.9336C108.5 58.326 108.668 58.7642 108.746 59.2226" fill="#8146F6"/>
<path d="M112.988 63.3716C110.916 67.3553 106.314 63.767 108.809 60.3885C108.875 60.3021 108.946 60.2197 109.021 60.1418C109.495 60.0862 109.974 60.1261 110.432 60.2591C110.89 60.3921 111.316 60.6156 111.686 60.9162C112.056 61.2169 112.361 61.5887 112.585 62.0095C112.809 62.4304 112.946 62.8918 112.988 63.3666" fill="#8146F6"/>
<path d="M117.729 67.6336C115.139 72.6675 110.167 66.8719 114.363 64.0726C115.272 64.1258 116.126 64.5239 116.752 65.1857C117.377 65.8475 117.727 66.723 117.729 67.6336" fill="#8146F6"/>
</svg>
