<svg width="31" height="40" viewBox="0 0 31 40" fill="none" xmlns="http://www.w3.org/2000/svg">
<path d="M30.3248 5.63455L16.1099 0.78173C15.9384 0.72306 15.7083 0.693726 15.4782 0.693726C15.2481 0.693726 15.0181 0.72306 14.8465 0.78173L0.631679 5.63455C0.284465 5.75189 0 6.1542 0 6.52298V26.7389C0 27.1077 0.238449 27.5938 0.527096 27.8243L14.9469 39.0805C15.0934 39.1936 15.2816 39.2523 15.474 39.2523C15.6665 39.2523 15.8589 39.1936 16.0011 39.0805L30.421 27.8243C30.7096 27.598 30.9481 27.1119 30.9481 26.7389V6.52298C30.9564 6.1542 30.672 5.75608 30.3248 5.63455ZM23.1128 12.7923L14.219 25.0584C14.1565 25.1441 14.0747 25.2139 13.9802 25.262C13.8857 25.31 13.7812 25.3351 13.6752 25.3351C13.5692 25.3351 13.4647 25.31 13.3702 25.262C13.2758 25.2139 13.1939 25.1441 13.1314 25.0584L7.84369 17.7666C7.68473 17.5445 7.84369 17.2344 8.11561 17.2344H10.4248C10.6381 17.2344 10.8431 17.3392 10.9686 17.511L13.6752 21.2407L19.9878 12.5324C20.1133 12.3606 20.3141 12.2558 20.5317 12.2558H22.8408C23.1128 12.26 23.2717 12.5701 23.1128 12.7923Z" fill="#9D87DA"/>
</svg>
