<svg width="93" height="88" viewBox="0 0 93 88" fill="none" xmlns="http://www.w3.org/2000/svg">
<path d="M53.4858 0.00584758C48.8122 8.63877 40.391 11.4541 31.0614 11.5307C23.8744 11.5897 18.3742 11.6264 17.0408 19.092C17.0013 18.8355 16.9414 18.5997 16.9137 18.3314V19.8938C16.9005 19.9896 16.8801 20.0722 16.8684 20.171C16.4957 23.6962 16.508 27.252 16.9049 30.7746C16.9049 30.7908 16.9049 30.8055 16.9137 30.8217V30.8866V30.8615C17.9594 39.3589 24.0394 42.3583 30.8073 44.9451C28.1796 47.1444 25.0096 48.5825 21.6354 49.1061C13.8043 50.356 2.97626 45.9032 0.291882 56.4463C-0.714394 60.3921 1.28501 65.0999 0.291882 69C2.97626 58.4568 13.8043 62.9111 21.6354 61.6597C29.5338 60.398 34.9025 54.9223 37.5548 47.5525C37.9593 46.4294 38.1214 35.2392 37.5548 34.9989C31.209 32.2913 23.9386 30.6669 19.9048 25.7631C23.7926 22.8741 30.2947 24.472 35.5729 23.903C43.35 23.0658 49.7016 19.5431 53.4858 12.5536C55.2515 9.29615 51.7624 3.17931 53.4858 0" fill="#F14537"/>
<path d="M55.125 83.6343L55.017 79.7013C55.017 79.7013 53.85 80.7533 49.582 79.8573C45.314 78.9613 40.917 77.7723 38 80.3523L38.925 87.2203C39.773 86.332 40.803 85.6376 41.9444 85.1845C43.0858 84.7314 44.3117 84.5304 45.538 84.5953C49.982 84.6623 51.444 85.2953 55.125 83.6343Z" fill="#F14537"/>
<path d="M69.207 64.8104L70.2751 72.8104C70.2751 72.8104 79.2831 62.1994 92.2401 65.6414L90.3661 59.5034C86.6666 58.7543 82.8464 58.8422 79.1853 59.7606C75.5242 60.6791 72.1149 62.4048 69.207 64.8114" fill="#F4B512"/>
</svg>
