<svg width="84" height="99" viewBox="0 0 84 99" fill="none" xmlns="http://www.w3.org/2000/svg">
<path d="M74.7032 24.9452L88.0342 48.5124C87.6889 48.7229 30.2785 83.7117 29.9851 83.8918C28.152 81.0881 18.3131 66.0399 16.2904 62.9532C27.466 55.1989 63.9125 32.1076 74.7008 24.9483" fill="#F9D9C2"/>
<path d="M20.2033 68.9297L70.3904 36.7351C70.976 36.3995 71.6251 36.19 72.2964 36.1199C72.9676 36.0498 73.6462 36.1206 74.2885 36.3278C74.9308 36.535 75.5227 36.8741 76.0264 37.3234C76.5301 37.7726 76.9343 38.3221 77.2134 38.9366C78.9256 42.2574 82.2257 47.0531 77.9422 49.7917L27.5859 80.2184L20.2033 68.9297Z" fill="#F6C137"/>
<path d="M31.3272 67.4677C31.4377 67.6356 31.5124 67.8245 31.5469 68.0226C31.5814 68.2207 31.5749 68.4237 31.5276 68.6191C31.4804 68.8145 31.3935 68.9982 31.2724 69.1587C31.1513 69.3191 30.9986 69.4529 30.8237 69.552C30.6487 69.651 30.4552 69.713 30.2553 69.7342C30.0554 69.7554 29.8532 69.7352 29.6614 69.675C29.4696 69.6149 29.2921 69.516 29.1401 69.3845C28.9881 69.2529 28.8647 69.0915 28.7776 68.9103C28.6672 68.7423 28.5923 68.5535 28.5578 68.3554C28.5233 68.1574 28.5299 67.9543 28.5772 67.7589C28.6244 67.5634 28.7112 67.3799 28.8323 67.2194C28.9534 67.0589 29.1062 66.925 29.2812 66.826C29.4561 66.727 29.6496 66.6649 29.8495 66.6437C30.0494 66.6226 30.2516 66.6427 30.4434 66.7029C30.6352 66.7631 30.8126 66.862 30.9646 66.9936C31.1167 67.1251 31.2401 67.2865 31.3272 67.4677Z" fill="#8146F6"/>
<path d="M40.5084 67.3402C40.6102 67.4918 40.6797 67.6627 40.7124 67.8423C40.7451 68.022 40.7403 68.2064 40.6983 68.3842C40.6564 68.5619 40.5782 68.7291 40.4686 68.8752C40.3591 69.0212 40.2205 69.1431 40.0617 69.2332C39.9028 69.3232 39.7271 69.3795 39.5455 69.3984C39.3639 69.4174 39.1803 69.3987 39.0063 69.3435C38.8322 69.2882 38.6715 69.1975 38.5341 69.0772C38.3968 68.9569 38.2857 68.8095 38.208 68.6443C38.1061 68.4927 38.0367 68.3218 38.004 68.1421C37.9714 67.9624 37.9761 67.778 38.0181 67.6002C38.06 67.4225 38.1382 67.2554 38.2478 67.1093C38.3573 66.9632 38.4959 66.8413 38.6547 66.7512C38.8136 66.6612 38.9893 66.6049 39.1709 66.586C39.3525 66.567 39.5361 66.5858 39.7101 66.6411C39.8841 66.6963 40.0449 66.7869 40.1823 66.9072C40.3196 67.0275 40.4306 67.175 40.5084 67.3402Z" fill="#8146F6"/>
<path d="M46.2554 57.4884C46.3381 57.6133 46.3942 57.754 46.4202 57.9015C46.4462 58.0491 46.4416 58.2004 46.4066 58.3461C46.3716 58.4918 46.307 58.6288 46.2168 58.7484C46.1266 58.8681 46.0128 58.9678 45.8823 59.0416C45.7519 59.1153 45.6077 59.1615 45.4587 59.1771C45.3096 59.1927 45.159 59.1775 45.0161 59.1324C44.8732 59.0873 44.7411 59.0134 44.6281 58.915C44.515 58.8167 44.4235 58.6961 44.359 58.5608C44.2763 58.4359 44.2202 58.2953 44.1942 58.1477C44.1682 58.0001 44.1728 57.8488 44.2078 57.7031C44.2428 57.5574 44.3074 57.4205 44.3976 57.3008C44.4878 57.1812 44.6016 57.0814 44.732 57.0076C44.8625 56.9339 45.0067 56.8877 45.1557 56.8721C45.3047 56.8565 45.4554 56.8717 45.5983 56.9168C45.7412 56.9619 45.8732 57.0359 45.9863 57.1342C46.0993 57.2325 46.1909 57.3531 46.2554 57.4884Z" fill="#8146F6"/>
<path d="M50.8558 61.2962C50.9451 61.4305 51.0058 61.5817 51.0341 61.7406C51.0623 61.8994 51.0576 62.0623 51.0201 62.2192C50.9825 62.3761 50.9131 62.5236 50.8161 62.6524C50.719 62.7813 50.5965 62.8888 50.4561 62.9682C50.3156 63.0476 50.1604 63.0972 49.9999 63.1139C49.8395 63.1306 49.6774 63.114 49.5236 63.0653C49.3699 63.0166 49.2278 62.9367 49.1062 62.8307C48.9847 62.7246 48.8863 62.5946 48.8173 62.4489C48.728 62.3145 48.6673 62.1633 48.639 62.0045C48.6108 61.8456 48.6155 61.6827 48.653 61.5258C48.6905 61.369 48.76 61.2215 48.857 61.0926C48.9541 60.9638 49.0766 60.8562 49.217 60.7768C49.3574 60.6975 49.5127 60.6479 49.6732 60.6311C49.8336 60.6144 49.9958 60.6309 50.1495 60.6796C50.3033 60.7283 50.4453 60.8083 50.5669 60.9144C50.6884 61.0204 50.7868 61.1504 50.8558 61.2962Z" fill="#8146F6"/>
<path d="M58.9801 55.5942C59.0737 55.7357 59.1373 55.895 59.1668 56.0622C59.1963 56.2293 59.1911 56.4007 59.1515 56.5657C59.1119 56.7307 59.0387 56.8859 58.9366 57.0215C58.8345 57.157 58.7055 57.2701 58.5578 57.3537C58.4101 57.4373 58.2468 57.4896 58.078 57.5073C57.9092 57.5251 57.7386 57.5079 57.5767 57.4569C57.4148 57.4059 57.2653 57.322 57.1372 57.2107C57.0091 57.0994 56.9052 56.9629 56.8321 56.8097C56.7385 56.6682 56.6749 56.509 56.6454 56.3419C56.6159 56.1747 56.6212 56.0032 56.6608 55.8382C56.7004 55.6732 56.7734 55.5181 56.8756 55.3826C56.9777 55.247 57.1066 55.1339 57.2543 55.0503C57.402 54.9667 57.5653 54.9144 57.7341 54.8967C57.9029 54.8789 58.0735 54.8961 58.2354 54.9471C58.3973 54.9981 58.5469 55.0819 58.675 55.1932C58.8031 55.3045 58.907 55.441 58.9801 55.5942Z" fill="#8146F6"/>
<path d="M61.7144 49.3857C61.7916 49.5029 61.8439 49.6347 61.8681 49.7729C61.8923 49.9112 61.8879 50.0529 61.855 50.1893C61.8221 50.3257 61.7616 50.454 61.6771 50.566C61.5926 50.6781 61.486 50.7715 61.3639 50.8406C61.2418 50.9098 61.1067 50.9531 60.9671 50.9679C60.8276 50.9826 60.6865 50.9685 60.5526 50.9265C60.4187 50.8844 60.2949 50.8153 60.1889 50.7234C60.0828 50.6314 59.9968 50.5187 59.9361 50.3922C59.8589 50.275 59.8065 50.1433 59.7823 50.0051C59.7581 49.8668 59.7626 49.7251 59.7954 49.5887C59.8283 49.4522 59.8888 49.324 59.9733 49.212C60.0578 49.0999 60.1645 49.0064 60.2866 48.9373C60.4087 48.8681 60.5437 48.8249 60.6833 48.8101C60.8228 48.7954 60.9639 48.8095 61.0978 48.8515C61.2317 48.8936 61.3555 48.9627 61.4615 49.0546C61.5676 49.1465 61.6537 49.2592 61.7144 49.3857Z" fill="#8146F6"/>
<path d="M68.2321 44.5473C69.0462 46.0009 67.4827 46.885 66.6546 45.4395C65.8412 43.9852 67.404 43.1018 68.2321 44.5473Z" fill="#8146F6"/>
<path d="M75.4186 45.8775C76.3361 47.5181 74.4151 48.6056 73.4809 46.9733C72.5627 45.3335 74.4843 44.2452 75.4186 45.8775Z" fill="#8146F6"/>
<path d="M74.922 23.509C75.0694 23.8513 75.0933 24.2341 74.9899 24.5921C74.8864 24.9501 74.6619 25.2611 74.3546 25.4719L71.064 27.642L16.6539 63.5051C16.588 63.5384 16.5128 63.5485 16.4404 63.5338C16.368 63.5192 16.3026 63.4806 16.2548 63.4243C16.207 63.368 16.1796 63.2972 16.1769 63.2234C16.1742 63.1496 16.1965 63.077 16.2401 63.0173L16.5823 62.5829C18.3459 60.3442 29.9116 45.6243 31.9617 43.0269C35.8275 38.1375 42.2207 29.9625 46.0265 25.143L68.0844 22.858L68.453 22.82L73.1412 22.334C73.5269 22.3012 73.9124 22.3993 74.2355 22.6125C74.5586 22.8257 74.8005 23.1415 74.922 23.509Z" fill="#F4B512"/>
<path d="M74.722 22.4276C75.1952 23.2455 75.3242 24.2178 75.0805 25.1307C74.8369 26.0436 74.2406 26.8223 73.4229 27.2957C70.8069 28.8694 67.4398 26.1787 68.1969 23.3061C68.7995 20.1883 73.3039 19.6465 74.7228 22.4282" fill="#6821F4"/>
<path d="M68.6693 23.1587C69.0942 23.9235 69.22 24.8189 69.0226 25.6713C68.8252 26.5237 68.3185 27.2725 67.6007 27.7727C66.8829 28.2729 66.005 28.489 65.1369 28.3791C64.2689 28.2692 63.4726 27.8411 62.9021 27.1777C62.3316 26.5144 62.0275 25.6629 62.0488 24.7882C62.0701 23.9135 62.4151 23.0778 63.0172 22.443C63.6193 21.8081 64.4355 21.4192 65.3078 21.3516C66.1801 21.284 67.0465 21.5426 67.7391 22.0771C68.1184 22.3717 68.4349 22.7391 68.67 23.1579" fill="#6821F4"/>
<path d="M63.1058 23.5844C63.3413 23.988 63.4943 24.4344 63.5559 24.8976C63.6175 25.3609 63.5865 25.8316 63.4646 26.2828C63.3428 26.7339 63.1325 27.1563 62.846 27.5255C62.5596 27.8947 62.2026 28.2033 61.7959 28.4334C61.3891 28.6635 60.9408 28.8105 60.4767 28.8658C60.0127 28.9212 59.5423 28.8838 59.0929 28.7559C58.6435 28.628 58.2239 28.412 57.8586 28.1206C57.4933 27.8292 57.1895 27.4681 56.9649 27.0583C56.7294 26.6547 56.5763 26.2084 56.5147 25.7452C56.4531 25.282 56.4842 24.8111 56.6061 24.3599C56.7279 23.9088 56.9382 23.4864 57.2247 23.1172C57.5112 22.748 57.8681 22.4394 58.2748 22.2093C58.6816 21.9793 59.13 21.8323 59.594 21.7769C60.058 21.7215 60.5284 21.7589 60.9778 21.8868C61.4273 22.0148 61.8468 22.2307 62.2121 22.5221C62.5774 22.8135 62.8812 23.1746 63.1058 23.5844Z" fill="#6821F4"/>
<path d="M57.2375 24.1687C57.475 24.5723 57.6298 25.0192 57.6929 25.4833C57.7559 25.9474 57.7259 26.4194 57.6046 26.8717C57.4833 27.3241 57.2732 27.7478 56.9865 28.1181C56.6997 28.4884 56.3421 28.7979 55.9345 29.0286C55.5269 29.2592 55.0774 29.4064 54.6123 29.4616C54.1472 29.5167 53.6759 29.4787 53.2256 29.3497C52.7754 29.2208 52.3553 29.0035 51.9899 28.7105C51.6245 28.4175 51.3211 28.0547 51.0974 27.6433C50.8598 27.2396 50.705 26.7927 50.642 26.3287C50.579 25.8646 50.609 25.3926 50.7303 24.9402C50.8515 24.4878 51.0617 24.0641 51.3485 23.6938C51.6352 23.3235 51.9928 23.014 52.4004 22.7834C52.808 22.5527 53.2575 22.4055 53.7225 22.3504C54.1876 22.2952 54.6591 22.3332 55.1093 22.4621C55.5596 22.5911 55.9796 22.8085 56.345 23.1015C56.7104 23.3945 57.0138 23.7572 57.2375 24.1687Z" fill="#6821F4"/>
<path d="M51.1908 24.5878C51.4263 24.9914 51.5793 25.4377 51.6409 25.901C51.7025 26.3642 51.6715 26.8351 51.5496 27.2862C51.4277 27.7373 51.2175 28.1597 50.931 28.5289C50.6445 28.8981 50.2876 29.2067 49.8808 29.4368C49.4741 29.6669 49.0257 29.8139 48.5617 29.8692C48.0977 29.9246 47.6273 29.8872 47.1779 29.7593C46.7284 29.6314 46.3089 29.4154 45.9436 29.124C45.5783 28.8326 45.2745 28.4715 45.05 28.0617C44.8144 27.6581 44.6614 27.2117 44.5998 26.7485C44.5382 26.2853 44.5692 25.8145 44.691 25.3634C44.8129 24.9122 45.0232 24.4897 45.3097 24.1205C45.5962 23.7514 45.9532 23.4428 46.3599 23.2127C46.7666 22.9826 47.215 22.8356 47.679 22.7802C48.143 22.7249 48.6134 22.7622 49.0628 22.8901C49.5123 23.0181 49.9318 23.234 50.2971 23.5255C50.6624 23.8169 50.9662 24.178 51.1908 24.5878Z" fill="#6821F4"/>
<path d="M57.7773 32.9986C57.9489 32.9843 58.1204 33.0257 58.2665 33.1167C58.4127 33.2076 58.5256 33.3433 58.5885 33.5035C58.6514 33.6637 58.661 33.8399 58.6158 34.006C58.5706 34.1721 58.473 34.3191 58.3376 34.4253L19.4888 58.8869C26.1592 50.4019 36.9926 36.6327 43.5807 28.2523C44.3517 33.9684 52.649 33.7184 57.7773 32.9986Z" fill="#F6C137"/>
<path d="M40.3562 35.7752C44.8194 44.2218 33.6566 50.1937 28.9807 42.211C24.5674 33.819 35.5248 27.7361 40.3562 35.7752Z" fill="#F25649"/>
<path d="M40.3563 35.775C43.3893 40.769 39.2075 47.2682 33.6322 45.8001C41.735 45.5191 41.4498 33.6564 34.0877 32.0003C35.3739 32.0149 36.633 32.3724 37.7349 33.0359C38.8368 33.6995 39.7417 34.645 40.3563 35.775Z" fill="#F14537"/>
<path d="M31.5723 37.0675C31.5723 37.0675 26.7242 31.8694 20.9437 34.6775C20.858 34.7302 20.7956 34.8135 20.7693 34.9106C20.7429 35.0077 20.7545 35.1112 20.8018 35.2C20.8492 35.2887 20.9286 35.356 21.0239 35.3883C21.1192 35.4205 21.2232 35.4152 21.3146 35.3733C22.4766 34.7064 26.7656 32.7703 31.3536 37.3726L31.5723 37.0675Z" fill="#F9D9C2"/>
<path d="M32.3459 35.7777C32.8201 36.0112 31.2381 38.7012 30.7931 38.3531C30.3189 38.1196 31.9002 35.4304 32.3459 35.7777Z" fill="#F9D9C2"/>
<path d="M31.396 40.0389C31.495 40.1885 31.5621 40.357 31.5933 40.5337C31.6244 40.7104 31.6188 40.8916 31.5769 41.0661C31.535 41.2406 31.4576 41.4045 31.3497 41.5478C31.2417 41.6911 31.1053 41.8106 30.9492 41.899C30.793 41.9873 30.6203 42.0426 30.4418 42.0614C30.2634 42.0802 30.083 42.062 29.9119 42.008C29.7408 41.9541 29.5825 41.8655 29.4471 41.7478C29.3117 41.6301 29.2019 41.4858 29.1246 41.3239C29.0256 41.1743 28.9585 41.0058 28.9273 40.8291C28.8962 40.6524 28.9018 40.4712 28.9437 40.2967C28.9856 40.1222 29.0629 39.9583 29.1709 39.815C29.2789 39.6717 29.4153 39.552 29.5715 39.4637C29.7277 39.3753 29.9003 39.3201 30.0787 39.3014C30.2572 39.2826 30.4376 39.3007 30.6088 39.3547C30.7799 39.4086 30.938 39.4972 31.0735 39.6149C31.2089 39.7326 31.3187 39.8769 31.396 40.0389Z" fill="#FFF0F0"/>
<path d="M49.9837 23.6595C52.1919 28.6033 45.0358 29.1985 45.1656 24.299C46.0575 22.7968 48.9783 21.9559 49.9837 23.6595Z" fill="#8146F6"/>
<path d="M56.1087 23.0095C58.293 27.7703 51.4064 28.681 51.2808 23.7777C51.5443 23.4063 51.8793 23.0913 52.266 22.8511C52.6528 22.6109 53.0836 22.4504 53.5332 22.3789C53.9829 22.3073 54.4423 22.3262 54.8845 22.4345C55.3268 22.5428 55.743 22.7383 56.1087 23.0095Z" fill="#8146F6"/>
<path d="M61.8693 22.3292C63.9024 26.314 58.3623 28.2028 57.1334 23.9986C57.0802 23.7887 57.049 23.5738 57.0403 23.3574C57.2864 22.9687 57.6078 22.633 57.9854 22.37C58.363 22.1071 58.7892 21.9222 59.2392 21.8262C59.6892 21.7301 60.1538 21.7248 60.6059 21.8107C61.0579 21.8965 61.4883 22.0717 61.8718 22.326" fill="#8146F6"/>
<path d="M67.7357 22.0815C69.2055 26.2756 63.4984 27.1645 62.7517 23.0754C62.7342 22.9692 62.7228 22.8622 62.7179 22.7547C62.9985 22.3756 63.3524 22.0566 63.7584 21.8166C64.1645 21.5765 64.6146 21.4204 65.082 21.3573C65.5495 21.2943 66.0248 21.3256 66.48 21.4495C66.9351 21.5733 67.3608 21.7872 67.7318 22.0784" fill="#8146F6"/>
<path d="M74.0266 21.5442C75.9036 26.8228 68.3537 26.4829 69.1771 21.5594C69.8314 20.9397 70.6976 20.593 71.5988 20.5902C72.5001 20.5874 73.3684 20.9286 74.0266 21.5442Z" fill="#8146F6"/>
</svg>
