<svg width="42" height="42" viewBox="0 0 42 42" fill="none" xmlns="http://www.w3.org/2000/svg">
<path d="M1.54034 21.0733L4.71788 17.8414L2.69931 13.7834L6.82978 11.9176L6.41344 7.40439L10.939 7.15667L12.1811 2.79787L16.4905 4.2017L19.2234 0.585941L22.7347 3.45172L26.5891 1.06734L28.8281 5.00803L33.2836 4.17704L33.9478 8.66044L38.4026 9.49508L37.4024 13.9157L41.2549 16.3032L38.7253 20.064L41.4552 23.682L37.7379 26.275L38.9764 30.6348L34.5734 31.7099L34.1534 36.2227L29.6594 35.6346L27.6375 39.691L23.6594 37.5192L20.3087 40.5712L17.3838 37.109L13.1568 38.7446L11.6801 34.4596L7.14775 34.4577L7.31866 29.9286L3.09306 28.2896L4.88852 24.1281L1.54034 21.0733Z" fill="url(#paint0_linear_689_792)"/>
<path fill-rule="evenodd" clip-rule="evenodd" d="M4.71788 17.8414L1.54034 21.0733L4.88852 24.1281L3.09306 28.2896L7.31866 29.9286L7.14775 34.4577L11.6801 34.4596L13.1568 38.7446L17.3838 37.109L20.3087 40.5712L23.6594 37.5192L27.6375 39.691L29.6594 35.6346L34.1534 36.2227L34.5734 31.7099L38.9764 30.6348L37.7379 26.275L41.4552 23.682L38.7253 20.064L41.2549 16.3032L37.4024 13.9157L38.4026 9.49508L33.9478 8.66044L33.2836 4.17704L28.8281 5.00803L26.5891 1.06734L22.7347 3.45172L19.2234 0.585941L16.4905 4.2017L12.1811 2.79787L10.939 7.15667L6.41344 7.40439L6.82978 11.9176L2.69931 13.7834L4.71788 17.8414ZM3.60829 14.1074L5.52988 17.9705L2.505 21.0471L5.69232 23.9551L3.98312 27.9167L8.0057 29.477L7.843 33.7885L12.1576 33.7902L13.5634 37.8694L17.5872 36.3124L20.3716 39.6083L23.5613 36.7029L27.3483 38.7703L29.2731 34.9088L33.5512 35.4686L33.951 31.1726L38.1425 30.1492L36.9634 25.9989L40.5021 23.5304L37.9034 20.0863L40.3115 16.5062L36.6441 14.2334L37.5962 10.0252L33.3554 9.23063L32.7231 4.96264L28.4817 5.75371L26.3503 2.00234L22.6811 4.27216L19.3384 1.54407L16.7369 4.98611L12.6345 3.64973L11.4521 7.79911L7.14397 8.03493L7.54031 12.3313L3.60829 14.1074Z" fill="#2A2A2A"/>
<path fill-rule="evenodd" clip-rule="evenodd" d="M15.5648 17.0964C15.6282 16.9793 15.7355 16.8922 15.8631 16.8543L20.453 15.4899C20.7188 15.4109 20.9982 15.5623 21.0772 15.8281C21.1562 16.0939 21.0048 16.3734 20.7391 16.4524L16.6304 17.6737L17.8517 21.7823C17.9307 22.0481 17.7793 22.3276 17.5136 22.4066C17.2478 22.4856 16.9683 22.3342 16.8893 22.0684L15.525 17.4785C15.487 17.3509 15.5013 17.2134 15.5648 17.0964Z" fill="white"/>
<path fill-rule="evenodd" clip-rule="evenodd" d="M15.8104 17.2289C15.9425 16.9851 16.2473 16.8945 16.4911 17.0266L28.2638 23.4041C28.5077 23.5362 28.5982 23.8409 28.4662 24.0848C28.3341 24.3286 28.0293 24.4192 27.7855 24.2871L16.0128 17.9096C15.7689 17.7775 15.6784 17.4728 15.8104 17.2289Z" fill="white"/>
<defs>
<linearGradient id="paint0_linear_689_792" x1="40.768" y1="38.9106" x2="5.54036" y2="5.68743" gradientUnits="userSpaceOnUse">
<stop stop-color="#8146F6"/>
<stop offset="1" stop-color="#F14537"/>
</linearGradient>
</defs>
</svg>
