<svg width="40" height="36" viewBox="0 0 40 36" fill="none" xmlns="http://www.w3.org/2000/svg">
<path d="M22.5295 0.657654C13.0291 0.657654 5.30056 8.28425 5.06973 17.7779V18.2168H0L7.68154 26.5542L15.1493 18.2168H9.43842V17.7779C9.66711 10.7058 15.44 5.04905 22.5295 5.04905C29.7665 5.04905 35.6334 10.9456 35.6334 18.2168C35.6334 25.488 29.7665 31.3846 22.5295 31.3846C19.7392 31.3862 17.022 30.4909 14.7775 28.8302L11.7724 32.0504C14.8395 34.4653 18.6285 35.7761 22.5295 35.7717C32.1795 35.7717 40 27.9138 40 18.2168C40 8.51977 32.1795 0.657654 22.5295 0.657654ZM20.3922 7.51131V18.2168C20.3946 18.7841 20.6196 19.3278 21.0184 19.7306L27.8579 26.5821C28.4627 26.1903 29.0334 25.7492 29.5399 25.2375L24.6668 20.3579V7.51131H20.3922Z" fill="#FF8F38"/>
</svg>
