<svg width="88" height="111" viewBox="0 0 88 111" fill="none" xmlns="http://www.w3.org/2000/svg">
<path d="M58.6163 1.22564L55.4454 6.76714L49.1946 5.46233L53.4879 10.191L50.317 15.7325L56.1416 13.1138L60.4351 17.8436L59.7443 11.4955L65.5689 8.87674L59.3178 7.57087L58.6163 1.22564Z" fill="#F14537"/>
<path d="M67.0996 39.9744L58.3294 55.165L47.2806 48.786L43.5889 35.0083L67.0996 39.9744Z" fill="#6821F4"/>
<path d="M34.4151 58.4535C34.5213 58.524 34.6004 58.5936 34.7039 58.6625L35.8286 59.3109C35.5991 59.1885 35.3738 59.0905 35.1481 58.9869C45.8392 66.9806 25.1817 73.6402 23.8891 82.3995C30.6334 82.01 37.1932 81.6619 43.3862 84.1973C43.2765 84.0661 43.1984 83.931 43.0683 83.8018L45.3064 85.0912C45.6046 85.244 45.9071 85.3958 46.203 85.5621C47.2235 86.0856 48.2113 86.6707 49.1609 87.3139L49.1857 87.3282L49.1739 87.3232C49.6674 87.6544 50.0888 88.082 50.4129 88.5802C50.737 89.0784 50.9571 89.637 51.06 90.2224C51.7907 94.9477 45.2664 100.02 42.0805 102.43C41.2944 103.024 36.5544 98.3133 35.8467 98.8474C39.3494 96.199 46.1398 90.6084 44.3516 85.7765C38.0562 84.6699 30.4743 86.0776 24.6366 86.245C23.7128 86.2726 18.836 83.445 18.4042 82.6633C12.7208 72.3687 36.2315 66.8791 31.4801 58.0515C22.7427 57.64 16.6845 70.1636 7.70419 66.9038C7.77366 66.9806 7.8272 67.0676 7.90152 67.1408L6.8821 66.5549C6.80761 66.5202 6.73487 66.4966 6.6598 66.4597C4.87599 65.7163 3.19797 64.741 1.66911 63.559C-2.97637 59.1971 1.06203 48.8826 2.83715 43.7442C2.70522 44.1206 9.23524 46.8497 9.07062 47.3257C7.62748 51.4963 4.84901 58.7635 6.10455 63.8185C12.4063 62.6072 16.9914 54.9979 23.8348 54.4701C27.6767 54.174 31.293 56.3802 34.4129 58.4541" fill="#6821F4"/>
<path d="M8.86422 35.9814C13.3164 31.221 18.0825 26.9933 22.5353 22.2351L20.1914 13.4875C13.8928 15.1753 11.0025 20.8953 5.81721 24.8442C6.71976 29.229 7.96355 31.5949 8.86422 35.9814Z" fill="#F14537"/>
</svg>
