<svg width="112" height="84" viewBox="0 0 112 84" fill="none" xmlns="http://www.w3.org/2000/svg">
<path d="M75.4591 0.0235003C86.2244 -0.336454 96.7174 3.44999 104.774 10.6021C108.813 14.1887 111.265 19.2307 111.593 24.623C111.999 27.442 112.102 30.2963 111.901 33.1372C111.183 37.6814 108.974 41.8574 105.622 45.007C103.809 46.9122 101.776 48.5949 99.5663 50.0196C98.9073 50.4351 98.9666 50.9212 99.1109 51.5115C100.407 56.7444 100.27 62.23 98.7133 67.3914C96.8453 73.7113 93.4813 78.9534 87.4076 82.0219C83.3361 84.0071 78.7022 84.5172 74.2966 83.4654C73.9845 83.4374 73.6963 83.2864 73.4954 83.0457C73.2946 82.8051 73.1975 82.4945 73.2255 82.1822C73.2255 80.5782 73.248 78.9742 73.2672 77.3701C73.3213 76.6806 73.3299 75.9883 73.2929 75.2977C73.1806 74.3738 73.4532 74.1557 74.3639 74.3353C77.7403 75.0369 81.2415 74.8405 84.5183 73.7658C87.9636 72.7278 91.0717 70.7934 93.5248 68.16C95.978 65.5267 97.6882 62.2889 98.4808 58.7777C98.615 58.2449 98.5763 57.6831 98.3701 57.1737C97.8617 55.845 97.2444 54.5607 96.5246 53.3337C96.0789 52.5429 95.7005 52.3712 94.825 52.8284C91.56 54.628 88.0485 55.938 84.4029 56.7166C80.2536 57.5793 75.9331 56.9547 72.1977 54.9521C70.9751 54.4066 69.9201 53.5446 69.1416 52.4551C68.3631 51.3655 67.8893 50.088 67.7691 48.7542C67.4319 46.6322 67.2663 44.4866 67.2737 42.338C67.5944 37.8804 68.9011 36.2426 73.3169 35.2802C76.7001 34.4616 80.229 34.4563 83.6147 35.2648C87.0003 36.0734 90.1463 37.6728 92.7951 39.932C93.6686 40.6545 94.4357 41.4969 95.0735 42.4342C95.1246 42.5494 95.2021 42.6509 95.2997 42.7305C95.3973 42.8101 95.5123 42.8657 95.6354 42.8925C95.7584 42.9194 95.8861 42.9169 96.008 42.8852C96.1299 42.8535 96.2426 42.7935 96.337 42.7101C101.159 40.1427 105.267 36.4152 108.29 31.8636C108.611 31.3359 108.879 30.768 109.228 30.2596C111.207 27.3723 110.389 25.8004 108.401 23.2868C103.932 17.9736 98.0435 14.042 91.4242 11.9511C86.423 9.97638 81.0678 9.05731 75.6948 9.25151C74.6429 9.31567 73.5943 9.48247 72.5521 9.64929C71.9797 9.73912 71.8113 9.59151 71.7696 8.98678C71.6221 6.87908 71.4201 4.77306 71.186 2.67177C70.9936 0.949031 71.1619 0.705138 72.8327 0.344229C73.6986 0.18902 74.5729 0.0846655 75.451 0.0315283M88.4563 46.2775C88.2799 45.8925 87.9528 45.8796 87.6995 45.7625C85.5123 44.8397 83.1828 44.2998 80.8128 44.1665C78.0571 43.8106 75.2583 44.0042 72.5777 44.736C72.1047 44.882 71.3287 44.9124 71.295 45.3776C71.2421 45.9647 72.0358 46.085 72.5008 46.2999C74.6734 47.2636 77.019 47.7754 79.3954 47.8045C82.4922 47.9521 85.5845 47.4319 88.4627 46.2791" fill="#6821F4"/>
<path d="M23.2141 32.6683L31.673 41.1883L42.389 35.7763L36.8996 46.4541L45.3585 54.9741L33.5079 53.053L28.0184 63.7297L26.1836 51.865L14.333 49.9439L25.049 44.533L23.2141 32.6683Z" fill="#F14537"/>
<path d="M16.9919 36.7822C11.6235 33.4397 6.0959 30.6731 0.727539 27.3327V18.5455C7.05481 18.5455 11.2003 23.1807 17.0519 25.5797C17.3072 29.916 16.7355 32.4458 16.9919 36.7822Z" fill="#6821F4"/>
</svg>
