<svg width="300" height="277" viewBox="0 0 300 277" fill="none" xmlns="http://www.w3.org/2000/svg">
<path d="M209.585 221.606C189.798 228.562 169.426 233.726 148.715 237.035C128.549 240.476 108.087 241.874 87.6391 241.21C87.2032 241.181 86.7963 240.98 86.5082 240.652C86.2202 240.323 86.0743 239.894 86.1026 239.458C86.1309 239.022 86.3313 238.616 86.6593 238.328C86.9874 238.04 87.4166 237.894 87.8523 237.922C108.087 238.574 128.336 237.182 148.292 233.767C188.308 227.48 226.833 213.911 261.957 193.733C262.493 194.688 263.035 195.642 263.583 196.595C246.421 206.633 228.338 215.009 209.582 221.606" fill="#F6C137"/>
<path d="M109.322 256.669C106.871 261.932 101.254 270.746 91.0313 271.04C89.2574 271.142 87.4921 270.727 85.9488 269.847C84.4055 268.966 83.1503 267.658 82.3347 266.08C77.0063 270.542 70.2879 273.007 63.3375 273.047C54.9415 272.587 51.8238 268.672 50.6899 265.469C48.5359 259.353 52.0082 251.162 56.5198 246.957L56.6896 246.799C61.0389 242.943 66.1882 240.097 71.7676 238.467C72.1841 238.378 72.6189 238.454 72.9808 238.678C73.3427 238.903 73.6036 239.259 73.7092 239.671C73.8147 240.084 73.7565 240.521 73.5469 240.892C73.3372 241.262 72.9922 241.538 72.5843 241.66C67.5294 243.17 62.8616 245.757 58.9008 249.242C55.1709 252.633 52.1328 259.681 53.786 264.371C54.9498 267.657 58.2223 269.47 63.5098 269.759C70.0021 269.653 76.2407 267.22 81.0897 262.902C80.4112 260.266 80.302 257.516 80.769 254.835C81.236 252.154 82.2685 249.604 83.7981 247.353C84.5314 246.304 85.5647 245.501 86.762 245.05C87.9594 244.598 89.2652 244.519 90.5083 244.822C91.1054 244.965 91.6678 245.226 92.1618 245.59C92.6557 245.955 93.0711 246.415 93.3834 246.943C93.6958 247.472 93.8985 248.058 93.9796 248.666C94.0606 249.275 94.0184 249.893 93.8553 250.485C93.265 254.328 89.8071 259.48 84.9166 263.91C84.9511 263.988 84.9881 264.064 85.0253 264.141C85.5144 265.282 86.3462 266.241 87.4054 266.888C88.4645 267.534 89.6985 267.835 90.9363 267.748C102.846 267.407 107.632 252.04 107.678 251.888C107.782 251.545 107.995 251.246 108.284 251.036C108.574 250.825 108.923 250.714 109.281 250.72C109.639 250.725 109.985 250.847 110.268 251.066C110.55 251.286 110.753 251.591 110.847 251.937C111.148 253.062 112.443 256.438 114.397 257.192C114.709 257.312 115.663 257.678 117.375 256.566C121.38 253.472 124.436 249.315 126.194 244.569C126.339 244.156 126.641 243.819 127.035 243.63C127.429 243.44 127.882 243.415 128.294 243.56C128.706 243.705 129.044 244.007 129.233 244.401C129.422 244.795 129.447 245.248 129.302 245.66C127.318 251.1 123.798 255.847 119.17 259.327C118.331 259.964 117.347 260.384 116.306 260.547C115.265 260.71 114.2 260.613 113.206 260.264C111.555 259.528 110.191 258.271 109.324 256.685M90.6108 249.999C90.8683 248.333 90.1672 248.152 89.7019 248.027C89.0681 247.87 88.4006 247.924 87.7997 248.179C87.1987 248.434 86.6968 248.877 86.369 249.442C84.2547 252.667 83.3929 256.554 83.9459 260.37C87.1088 257.616 89.4206 254.016 90.6102 249.994" fill="#8146F6"/>
<path d="M130.132 233.588C129.738 233.775 129.285 233.798 128.873 233.652C128.462 233.506 128.124 233.203 127.936 232.809C125.946 228.633 119.574 217.563 114.045 216.549C113.368 216.43 112.672 216.485 112.022 216.709C111.372 216.932 110.788 217.316 110.327 217.826C109.701 218.413 109.131 219.058 108.625 219.751C110.64 222.474 112.224 225.49 113.323 228.694C114.599 232.824 113.442 234.394 112.254 235.011C110.107 236.106 107.374 234.991 105.45 232.263C104.237 230.47 103.526 228.386 103.389 226.226C103.253 224.066 103.696 221.909 104.673 219.977C102.127 216.845 96.9675 211.622 91.3681 212.37C90.5216 212.418 89.7001 212.674 88.9759 213.115C88.2517 213.555 87.6473 214.168 87.2161 214.898C86.1976 217.359 85.9844 220.079 86.607 222.668C87.8081 225.671 88.7379 228.774 89.3854 231.943C89.4613 232.34 89.3886 232.751 89.1808 233.098C88.9729 233.445 88.6446 233.703 88.2585 233.823C87.8725 233.944 87.4554 233.918 87.0873 233.751C86.7191 233.583 86.4255 233.286 86.2622 232.916C84.9794 229.945 84.0293 226.841 83.429 223.66C81.7265 218.687 78.5696 214.341 74.3674 211.183C72.9009 210.254 71.2493 209.656 69.5279 209.429C67.8065 209.203 66.0566 209.355 64.3998 209.874C58.5394 211.464 55.4712 214.649 55.5241 219.086C55.7922 222.074 56.8972 224.926 58.7123 227.314C60.5273 229.702 62.979 231.53 65.7857 232.589C66.0024 232.633 66.2079 232.72 66.3901 232.845C66.5723 232.971 66.7276 233.131 66.8464 233.318C66.9652 233.504 67.0449 233.713 67.0814 233.931C67.1178 234.149 67.1102 234.372 67.0585 234.587C67.0068 234.802 66.9124 235.004 66.7808 235.182C66.6492 235.36 66.4831 235.509 66.2926 235.621C66.102 235.733 65.891 235.806 65.6718 235.835C65.4525 235.863 65.2296 235.848 65.0166 235.788C58.5549 234.231 52.3339 226.136 52.2421 219.131C52.2019 217.543 52.5018 215.965 53.1214 214.503C53.7411 213.041 54.6662 211.728 55.8348 210.653C58.0395 208.724 60.6838 207.365 63.5358 206.696C65.6336 206.058 67.8444 205.88 70.0172 206.174C72.1899 206.468 74.2735 207.227 76.1264 208.4C79.0764 210.377 81.5378 213 83.3237 216.069C83.5179 215.101 83.8553 214.166 84.325 213.297C84.9976 212.113 85.9501 211.113 87.099 210.382C88.2479 209.652 89.5581 209.215 90.9152 209.108C96.6833 208.339 102.28 212.21 106.501 217.092C106.975 216.511 107.485 215.961 108.029 215.443C108.871 214.578 109.911 213.931 111.061 213.559C112.21 213.188 113.432 213.103 114.622 213.312C122.772 214.819 130.083 229.703 130.888 231.395C131.075 231.789 131.098 232.242 130.952 232.654C130.805 233.066 130.502 233.403 130.108 233.591M106.945 223.142C106.609 224.36 106.54 225.636 106.742 226.883C106.944 228.13 107.413 229.319 108.116 230.368C108.991 231.616 109.987 232.202 110.568 232.127C110.174 228.866 108.927 225.766 106.953 223.141" fill="#8146F6"/>
<path d="M276.265 214.089C274.468 213.954 268.82 205.643 263.589 196.594C263.04 195.645 262.497 194.692 261.961 193.732C256.847 184.581 252.595 175.471 253.517 173.914C255.456 170.644 287.679 171.389 290.248 173.824C292.817 176.259 280.063 214.372 276.276 214.087" fill="#F6C137"/>
<path d="M226.92 129.179C224.992 139.009 207.268 149.956 186.017 157.813C186.863 162.241 187.435 166.716 187.729 171.214C204.923 163.504 218.36 155.598 220.939 151.938C225.461 145.521 226.863 133.613 227.299 126.475C227.205 127.44 227.081 128.349 226.92 129.179Z" fill="#6821F4"/>
<path d="M181.209 164.978C181.139 164.367 181.057 163.78 180.973 163.182C180.937 162.93 180.898 162.672 180.863 162.417C180.841 162.278 180.819 162.137 180.797 162.001C180.679 161.259 180.543 160.526 180.411 159.785C155.48 168.138 127.324 171.956 114.39 164.927C103.969 159.271 92.061 143.022 82.5916 124.847L82.5513 124.891C82.4624 124.993 82.3706 125.095 82.2813 125.2C82.1025 125.41 81.9131 125.613 81.7485 125.828C81.3998 126.25 81.0569 126.673 80.7238 127.11C79.3342 128.897 78.0995 130.799 77.033 132.795C76.8884 133.071 76.7526 133.33 76.6012 133.593L76.425 133.951C76.1829 134.435 76.4361 133.884 76.4633 133.864C76.3146 133.947 76.1999 134.441 76.1324 134.595C76.0112 134.875 75.8928 135.155 75.7774 135.435C75.3632 136.452 74.9937 137.488 74.6622 138.549C74.3371 139.637 74.0691 140.742 73.8595 141.858C73.8039 142.194 73.7493 142.523 73.6947 142.853L73.6841 142.917C73.6715 142.993 73.659 143.069 73.662 143.141C73.5964 143.682 73.5464 144.22 73.5105 144.762C73.4894 145.243 73.3344 145.708 73.0631 146.105C72.7919 146.501 72.4151 146.815 71.9753 147.009C80.9498 166.217 92.4868 183.457 104.987 188.471C121.406 195.06 154.974 185.19 181.856 173.783C181.836 173.18 181.814 172.553 181.784 171.939C181.665 169.629 181.462 167.31 181.179 165" fill="#6821F4"/>
<path d="M68.2863 60.5251C64.0067 63.055 60.4172 66.6012 57.8357 70.8498C55.2542 75.0984 53.7605 79.9182 53.4868 84.882C53.1967 93.262 58.9561 116.37 68.3731 138.772C70.2507 131.301 74.1942 124.509 79.7522 119.174C68.0043 94.8413 61.1865 68.7101 68.2863 60.5251Z" fill="#6821F4"/>
<path d="M227.491 120.621C227.495 120.832 227.497 121.039 227.502 121.246C227.505 120.845 227.502 120.626 227.502 120.626" fill="#BE2E2E"/>
<path d="M199.997 120.186C191.374 117.808 183.207 114.012 175.829 108.955C172.304 106.755 168.949 104.295 165.789 101.596C168.628 107.883 171.442 114.177 174.088 120.519C177.883 129.367 181.092 138.454 183.694 147.723C184.597 151.071 185.37 154.438 186.015 157.825C207.269 149.951 224.999 139.019 226.918 129.188C227.08 128.357 227.208 127.437 227.297 126.483C227.455 124.745 227.519 122.999 227.488 121.253C227.487 121.046 227.485 120.839 227.478 120.628C227.464 119.987 227.443 119.336 227.41 118.665C226.871 118.917 226.325 119.154 225.767 119.373C217.462 122.275 208.468 122.564 199.994 120.203" fill="#8146F6"/>
<path d="M93.4646 90.5391C93.3935 90.4253 93.1438 90.1591 93.3619 90.4171L93.4646 90.5391Z" fill="#EA5B4B"/>
<path d="M95.0942 92.1039L95.0027 92.0228L94.9463 91.9834C94.9998 92.0181 95.0494 92.0585 95.0942 92.1039Z" fill="#EA5B4B"/>
<path d="M141.445 140.758C141.484 140.722 141.52 140.684 141.554 140.644L141.577 140.615L141.518 140.683L141.445 140.758Z" fill="#EA5B4B"/>
<path d="M156.038 96.2789C155.136 96.7291 154.246 97.1813 153.376 97.67C152.745 98.0213 152.128 98.3837 151.514 98.7559C151.368 98.8456 151.221 98.9352 151.077 99.0282C151.133 98.9926 151.123 99.0029 150.863 99.1607C150.603 99.3185 150.329 99.5071 150.066 99.6824C147.967 101.075 145.964 102.607 144.069 104.266C143.114 105.108 142.19 105.972 141.298 106.86C140.852 107.307 140.415 107.761 139.987 108.22C139.773 108.448 139.564 108.677 139.354 108.909L139.044 109.263C135.851 112.93 133.167 117.012 131.065 121.398C130.269 123.112 129.567 124.869 128.962 126.659C128.257 128.679 127.724 130.754 127.368 132.863C127.172 134.289 127.16 135.736 127.333 137.165C127.53 138.574 128.053 139.917 128.861 141.088C128.94 141.206 129.023 141.322 129.104 141.428L129.269 141.644L129.42 141.822C129.513 141.932 129.61 142.038 129.709 142.14C129.928 142.374 130.161 142.598 130.404 142.813L130.688 143.055L130.744 143.094C131.187 143.41 131.655 143.688 132.145 143.925C132.543 144.087 132.953 144.221 133.37 144.326C134.393 144.54 135.453 144.492 136.452 144.186C137.077 143.979 137.681 143.713 138.256 143.393C138.405 143.31 138.543 143.216 138.692 143.136C138.055 143.483 138.649 143.158 138.794 143.06C139.092 142.855 139.38 142.639 139.657 142.411C140.169 141.996 140.656 141.552 141.116 141.081C141.224 140.97 141.333 140.856 141.439 140.742C141.489 140.676 141.546 140.614 141.607 140.557C141.792 140.345 141.977 140.133 142.152 139.913C143.005 138.832 143.793 137.701 144.511 136.526C146.083 134.014 147.509 131.414 148.781 128.738C149.473 127.255 150.124 125.753 150.727 124.23C152.903 118.666 154.438 112.872 155.301 106.959C155.792 103.414 156.043 99.8395 156.053 96.2603" fill="#8146F6"/>
<path d="M94.951 91.9841L94.9277 91.9803L94.8993 91.9548C94.8224 91.8974 94.7847 91.8733 94.9437 91.9919" fill="#EA5B4B"/>
<path d="M141.682 140.498L141.602 140.58L141.566 140.622L141.682 140.498Z" fill="#EA5B4B"/>
<path d="M139.385 108.872L139.486 108.761C139.469 108.758 139.422 108.827 139.385 108.872Z" fill="#EA5B4B"/>
<path d="M151.078 99.0259L150.963 99.0933L150.912 99.1295L151.056 99.0371L151.078 99.0259Z" fill="#EA5B4B"/>
<path d="M158.955 112.269C158.049 116.857 156.733 121.355 155.024 125.709C153.269 130.189 151.112 134.5 148.58 138.59C146.544 142.499 143.337 145.673 139.407 147.667C137.085 148.643 134.505 148.821 132.071 148.174C129.744 147.518 127.668 146.179 126.111 144.33C124.493 142.474 123.407 140.215 122.969 137.792C122.564 135.048 122.704 132.251 123.381 129.561C124.373 125.394 125.886 121.368 127.884 117.579C129.747 113.975 132.011 110.592 134.633 107.495C137.37 104.239 140.453 101.29 143.827 98.7003L144.147 98.4534L143.965 98.5013C138.357 99.9413 132.711 101.282 127.102 102.725C124.312 103.441 121.527 104.201 118.77 104.988C118.083 105.19 117.397 105.395 116.711 105.601L115.804 105.88L115.137 106.09C113.82 106.509 112.51 106.947 111.207 107.403C105.974 109.188 100.909 111.435 96.0731 114.117C95.5479 114.416 95.0276 114.721 94.5121 115.034C94.239 115.198 93.9713 115.367 93.7011 115.532C93.5976 115.596 93.4995 115.664 93.3994 115.725C92.4184 116.362 91.4577 117.028 90.5173 117.721C88.6208 119.113 86.8145 120.624 85.1093 122.244C84.2548 123.059 83.4338 123.906 82.6372 124.77L82.6003 124.812C92.0692 142.99 103.978 159.233 114.395 164.897C127.323 171.922 155.485 168.103 180.419 159.753C180.346 159.342 180.283 158.927 180.204 158.518C179.318 153.924 178.201 149.378 176.855 144.897C174.016 135.664 170.643 126.604 166.753 117.763C164.642 112.838 162.455 107.934 160.247 103.038C159.988 106.126 159.556 109.198 158.954 112.238" fill="#8146F6"/>
<path d="M150.785 99.2104L150.865 99.1639L150.912 99.1301C150.871 99.1591 150.828 99.1847 150.785 99.2104Z" fill="#EA5B4B"/>
<path d="M73.5432 144.744C73.582 144.202 73.6301 143.658 73.6951 143.12C73.7063 143.053 73.7188 142.977 73.7168 142.899L73.7274 142.835C73.7825 142.502 73.8376 142.169 73.8922 141.839C74.0994 140.722 74.3666 139.616 74.6925 138.527C75.0068 137.474 75.3786 136.436 75.8077 135.413C75.9202 135.132 76.0385 134.852 76.1598 134.572C76.2267 134.421 76.3449 133.925 76.4907 133.842C76.4605 133.861 76.2131 134.413 76.4519 133.931C76.5135 133.812 76.5697 133.69 76.6314 133.571C76.7672 133.294 76.9032 133.034 77.0459 132.77C78.1142 130.775 79.3487 128.873 80.7365 127.085C81.0697 126.654 81.4121 126.228 81.7637 125.807C81.9395 125.596 82.1153 125.385 82.2965 125.179L82.567 124.866L82.6043 124.822L82.6413 124.78C83.4379 123.916 84.2583 123.072 85.1133 122.254C86.8186 120.634 88.6249 119.123 90.5214 117.731C91.4592 117.041 92.4197 116.377 93.4029 115.738C93.5006 115.673 93.6016 115.606 93.7052 115.542L94.5133 115.043C95.0294 114.733 95.5509 114.427 96.0768 114.13C100.912 111.446 105.977 109.198 111.212 107.413C112.512 106.957 113.822 106.519 115.141 106.1L115.808 105.89L116.715 105.611C117.399 105.404 118.085 105.201 118.774 105.001C121.533 104.199 124.313 103.451 127.106 102.735C132.715 101.292 138.361 99.9514 143.969 98.5114L144.148 98.463C146.935 96.3657 149.898 94.513 153.004 92.9255C152.864 92.7962 152.74 92.6498 152.636 92.4897C152.265 91.8856 151.871 91.2928 151.465 90.7067C149.44 91.2531 147.421 91.8033 145.391 92.3306C133.872 95.3375 122.137 97.8558 110.886 101.537C100.606 104.575 91.03 109.619 82.7101 116.378C81.685 117.264 80.694 118.197 79.7371 119.16C74.1779 124.494 70.2341 131.286 68.3579 138.758C68.2383 139.281 68.1305 139.806 68.0396 140.337C67.8102 141.642 67.6463 142.958 67.5487 144.279C67.6028 145.054 67.9382 145.782 68.4918 146.327C69.0454 146.872 69.7791 147.196 70.5548 147.238C71.0485 147.259 71.5405 147.167 71.9934 146.97C72.4338 146.778 72.8113 146.466 73.0827 146.07C73.3541 145.674 73.5083 145.209 73.5277 144.729" fill="#F6C137"/>
<path d="M183.692 147.715C181.095 138.447 177.892 129.361 174.104 120.513C171.458 114.171 168.644 107.877 165.805 101.59L165.661 101.467C163.673 99.7233 161.946 97.7038 160.531 95.4702C160.543 96.2517 160.545 97.0345 160.53 97.8146C160.501 99.5727 160.41 101.325 160.259 103.071C162.468 107.967 164.654 112.871 166.765 117.796C170.655 126.638 174.029 135.698 176.871 144.93C178.215 149.411 179.332 153.957 180.216 158.55C180.295 158.962 180.358 159.377 180.434 159.786C180.564 160.524 180.703 161.26 180.818 161.999L180.883 162.417C180.921 162.676 180.957 162.93 180.993 163.185C181.074 163.798 181.158 164.382 181.229 164.981C181.512 167.293 181.714 169.605 181.835 171.918C181.867 172.522 181.891 173.137 181.907 173.761C181.925 174.304 181.935 174.848 181.937 175.392C181.996 176.165 182.333 176.89 182.886 177.434C183.438 177.978 184.169 178.304 184.943 178.351C185.305 178.394 185.672 178.362 186.021 178.257C186.37 178.153 186.694 177.977 186.973 177.742C187.252 177.508 187.479 177.218 187.641 176.891C187.803 176.565 187.897 176.209 187.916 175.845C187.895 174.302 187.835 172.76 187.734 171.218C187.442 166.721 186.871 162.245 186.025 157.818C185.386 154.435 184.604 151.062 183.701 147.716" fill="#F6C137"/>
<path d="M141.444 140.758L141.517 140.683L141.576 140.615L141.613 140.573C141.552 140.631 141.496 140.692 141.444 140.758Z" fill="#F8BA89"/>
<path d="M151.08 99.0261L151.057 99.0373L150.913 99.1303L150.863 99.161C151.123 99.0032 151.136 98.9934 151.08 99.0261Z" fill="#F8BA89"/>
<path d="M155.711 93.4667C155.259 93.6563 154.76 93.7073 154.279 93.6132C153.798 93.5191 153.355 93.2841 153.008 92.938C149.902 94.5255 146.938 96.3783 144.151 98.4756C144.048 98.5545 143.94 98.6295 143.835 98.723C140.46 101.311 137.377 104.259 134.64 107.515C132.012 110.61 129.742 113.993 127.874 117.599C125.878 121.389 124.366 125.414 123.371 129.581C122.693 132.271 122.553 135.068 122.962 137.812C123.399 140.234 124.485 142.493 126.104 144.347C127.66 146.198 129.736 147.538 132.064 148.194C134.498 148.84 137.079 148.661 139.401 147.685C143.331 145.692 146.538 142.519 148.573 138.61C151.103 134.519 153.258 130.208 155.014 125.729C156.725 121.376 158.042 116.878 158.948 112.289C159.548 109.248 159.98 106.177 160.241 103.088C160.386 101.34 160.477 99.5876 160.511 97.8324C160.527 97.0494 160.524 96.2694 160.516 95.4855C160.149 94.8896 159.813 94.2746 159.511 93.6431L159.432 93.7049C158.961 94.0468 158.384 94.2115 157.804 94.1703C157.223 94.129 156.676 93.8843 156.258 93.4792C156.189 93.4125 156.126 93.3398 156.069 93.262C155.956 93.354 155.834 93.4343 155.706 93.5017M139.479 108.804L139.376 108.916C139.405 108.874 139.439 108.836 139.479 108.804ZM150.706 124.293C150.109 125.817 149.459 127.319 148.761 128.801C147.489 131.477 146.063 134.077 144.491 136.588C143.774 137.764 142.986 138.896 142.131 139.976C141.954 140.195 141.76 140.406 141.586 140.623C141.612 140.597 141.637 140.571 141.667 140.537L141.552 140.665L141.527 140.694C141.489 140.739 141.432 140.795 141.421 140.805C141.312 140.919 141.206 141.034 141.095 141.147C140.635 141.618 140.148 142.062 139.636 142.477C139.359 142.701 139.072 142.917 138.774 143.123C138.631 143.225 138.035 143.549 138.674 143.199C138.526 143.282 138.385 143.373 138.236 143.456C137.661 143.776 137.058 144.043 136.434 144.252C135.954 144.378 135.464 144.465 134.97 144.513C134.428 144.52 133.887 144.479 133.353 144.39C132.934 144.287 132.523 144.153 132.124 143.988C131.635 143.752 131.166 143.473 130.724 143.157L130.668 143.115C130.573 143.036 130.475 142.957 130.384 142.873C130.141 142.658 129.911 142.435 129.689 142.203L129.399 141.885L129.249 141.707C129.191 141.626 129.111 141.526 129.084 141.488C129.002 141.373 128.919 141.257 128.841 141.148C128.539 140.694 128.27 140.22 128.035 139.729C127.705 138.923 127.462 138.085 127.31 137.228C127.138 135.797 127.15 134.35 127.346 132.922C127.701 130.813 128.235 128.738 128.939 126.719C129.544 124.928 130.246 123.172 131.043 121.457C133.144 117.073 135.828 112.992 139.021 109.325L139.332 108.969C139.541 108.74 139.75 108.508 139.964 108.282C140.395 107.82 140.829 107.367 141.278 106.92C142.169 106.028 143.092 105.163 144.046 104.326C145.943 102.669 147.946 101.137 150.043 99.742C150.306 99.5666 150.574 99.3951 150.84 99.2232L150.763 99.2704L150.89 99.1925L150.941 99.156L151.054 99.0878L151.491 98.8184C152.105 98.4462 152.726 98.0813 153.354 97.7296C154.222 97.2438 155.114 96.7858 156.015 96.3384C156.005 99.9176 155.754 103.492 155.263 107.037C154.4 112.95 152.865 118.744 150.689 124.308" fill="#F6C137"/>
<path d="M94.9522 91.9843L95.0111 92.0239L94.9023 91.9434L94.9308 91.9689L94.9541 91.9727" fill="#F8BA89"/>
<path d="M152.639 92.5019C152.743 92.6621 152.867 92.8085 153.008 92.9377C153.355 93.2838 153.798 93.5188 154.279 93.6129C154.761 93.707 155.259 93.656 155.711 93.4664C155.84 93.3981 155.962 93.3179 156.075 93.2267C155.748 92.8481 155.583 92.3563 155.614 91.857C155.646 91.3577 155.872 90.8907 156.244 90.5564L156.34 90.4853C155.032 88.4003 153.546 86.4319 151.899 84.602C143.676 75.4842 132.247 69.8975 120.001 69.0097C112.462 68.4513 104.909 69.8746 98.0901 73.1383C94.7934 74.6228 91.8863 76.8519 89.5972 79.6504C88.5 81.0198 87.7784 82.6514 87.5036 84.3845C87.2287 86.1175 87.4101 87.8923 88.0298 89.5339C88.7869 91.3091 89.9043 92.9078 91.3113 94.2287C92.7183 95.5496 94.3843 96.564 96.2037 97.2076C99.9715 98.515 104.103 98.2856 107.703 96.569C108.553 96.1542 109.359 95.656 110.111 95.0818C110.314 94.8985 110.476 94.6742 110.587 94.4237C110.698 94.1732 110.754 93.9021 110.752 93.6282C110.751 93.3544 110.691 93.084 110.577 92.8348C110.464 92.5857 110.299 92.3634 110.093 92.1826C109.678 91.7752 109.132 91.5277 108.553 91.4838C107.973 91.4399 107.396 91.6025 106.925 91.9428C106.794 92.0412 106.664 92.1395 106.529 92.2311L106.306 92.386C106.063 92.5497 106.469 92.3021 106.48 92.2739C106.44 92.3693 106.102 92.5112 106.008 92.5526C105.863 92.6335 105.718 92.7115 105.569 92.7797C105.032 93.0443 104.478 93.271 103.909 93.4584C103.039 93.7007 102.147 93.8543 101.246 93.9168C100.425 93.9328 99.6054 93.8723 98.7963 93.7362C97.5518 93.4932 96.3723 92.9914 95.3342 92.2634C95.2184 92.1843 95.1056 92.1057 94.9961 92.0246C95.0274 92.0486 95.0571 92.0745 95.0851 92.1023C95.0394 92.058 94.9899 92.0176 94.9372 91.9818C94.7766 91.8653 94.815 91.8867 94.8924 91.9445C94.6276 91.7328 94.3905 91.5166 94.1559 91.2858C93.9213 91.0551 93.7041 90.8272 93.4967 90.577L93.4616 90.5352C93.3818 90.4138 93.2926 90.2988 93.1949 90.1912C92.8756 89.7349 92.5943 89.2532 92.3539 88.7508C92.1513 88.2482 91.9966 87.7277 91.8918 87.1961C91.8311 86.6449 91.8296 86.0889 91.8875 85.5374C92.0063 84.8865 92.2 84.2516 92.4647 83.6452C92.6684 83.2388 92.8987 82.8461 93.154 82.47C93.3007 82.2544 93.4526 82.0427 93.6124 81.8383C93.6886 81.74 93.7673 81.6451 93.846 81.5502C93.9296 81.4141 94.0338 81.2918 94.1549 81.1876C94.1549 81.1876 93.7906 81.577 94.0213 81.3424L94.1306 81.2255L94.389 80.9685C94.5906 80.765 94.8005 80.5659 95.0152 80.3736C95.4286 79.9953 95.8655 79.6389 96.3149 79.2965C96.7644 78.9542 97.21 78.6532 97.6711 78.3488L98.0433 78.1106C98.3092 77.9537 98.5745 77.7998 98.8433 77.6434C99.8673 77.0724 100.928 76.5495 102.018 76.0703C103.205 75.5596 104.416 75.1087 105.648 74.7194C108.798 73.7767 112.048 73.2078 115.331 73.0245C121.958 72.7 128.566 73.9843 134.589 76.7679C137.539 78.1469 140.335 79.834 142.931 81.8009L143.122 81.9465L143.52 82.2612C143.864 82.54 144.201 82.8207 144.537 83.1072C145.162 83.6424 145.771 84.1929 146.363 84.7587C147.555 85.8959 148.68 87.1023 149.731 88.3716C149.843 88.5072 150.354 89.1553 149.877 88.5426L150.293 89.0732C150.568 89.4186 150.836 89.7899 151.097 90.1538C151.223 90.3336 151.337 90.5144 151.469 90.6952C151.876 91.2812 152.269 91.874 152.64 92.4781M93.4641 90.5387L93.3614 90.4167C93.1433 90.1587 93.3934 90.422 93.4641 90.5387Z" fill="#F6C137"/>
<path d="M230.353 111.251L230.382 111.215L230.342 111.261" fill="#F8BA89"/>
<path d="M214.965 91.935C214.398 91.901 213.838 92.0721 213.386 92.4171C213.185 92.589 213.023 92.8023 212.911 93.0425C212.799 93.2827 212.741 93.5442 212.739 93.8091C212.783 94.3895 213.035 94.9345 213.45 95.3428C213.865 95.7511 214.414 95.9951 214.995 96.0295C218.038 95.9111 221.086 96.0993 224.091 96.5912L224.194 96.6081C225.437 96.8714 226.652 97.2553 227.821 97.7543C228.294 97.9784 228.752 98.2316 229.194 98.5124C229.427 98.662 229.652 98.8251 229.874 98.9848L229.906 99.011C230.033 99.116 230.17 99.2287 230.281 99.337C230.505 99.542 230.719 99.7543 230.922 99.9738C231.026 100.087 231.128 100.2 231.224 100.324L231.239 100.326C231.606 100.831 231.929 101.367 232.203 101.928C232.46 102.556 232.653 103.209 232.779 103.876C233.027 105.555 232.768 107.269 232.036 108.799C231.67 109.516 231.234 110.194 230.733 110.823C230.627 110.953 230.518 111.087 230.412 111.205C230.437 111.173 230.465 111.143 230.495 111.117C230.491 111.14 230.404 111.218 230.386 111.233L230.329 111.305C230.259 111.386 230.312 111.32 230.375 111.244C230.295 111.329 230.215 111.415 230.132 111.503C229.818 111.82 229.492 112.126 229.15 112.414C228.809 112.702 228.456 112.986 228.082 113.251C227.891 113.39 227.695 113.525 227.497 113.654C227.469 113.677 227.392 113.724 227.335 113.759L227.255 113.812C227.198 113.845 227.14 113.874 227.086 113.907C226.343 114.348 225.576 114.748 224.789 115.104C223.804 115.543 222.794 115.927 221.766 116.252C219.174 117.008 216.504 117.464 213.808 117.609C210.317 117.729 206.823 117.452 203.394 116.784C198.887 115.832 194.502 114.372 190.323 112.434C185.891 110.333 181.618 107.912 177.538 105.191C175.592 103.909 173.66 102.594 171.8 101.203L171.131 100.697L171.1 100.671L170.835 100.462C170.398 100.114 169.969 99.76 169.547 99.4003C168.722 98.697 167.929 97.9659 167.178 97.194C166.76 96.768 166.356 96.3264 165.972 95.8761L165.676 95.5272L165.664 95.5102C165.494 95.2901 165.326 95.0705 165.174 94.8474C164.761 94.273 164.382 93.6756 164.037 93.0581C163.864 92.7476 163.699 92.4356 163.548 92.1197C163.387 91.7483 163.233 91.3779 163.1 91.0021L163.081 90.954C161.918 91.8488 160.743 92.7317 159.558 93.6027C159.859 94.2341 160.193 94.8489 160.56 95.4447C161.971 97.6799 163.698 99.6997 165.686 101.441L165.83 101.567C168.99 104.266 172.346 106.726 175.87 108.926C183.248 113.984 191.415 117.779 200.039 120.157C208.513 122.517 217.506 122.228 225.811 119.327C226.364 119.118 226.915 118.871 227.451 118.618C230.454 117.298 233.068 115.229 235.042 112.61C236.812 110.212 237.624 107.241 237.318 104.276C237.012 101.312 235.61 98.5684 233.387 96.5832C231.906 95.2834 230.2 94.2653 228.353 93.579C226.699 92.959 224.98 92.5266 223.23 92.2899C221.347 92.0329 219.449 91.898 217.549 91.886C216.699 91.8743 215.853 91.881 215.008 91.897M231.346 100.476L231.373 100.51L231.346 100.476Z" fill="#F6C137"/>
<path d="M133.564 30.9381C134.021 31.3416 134.373 31.8493 134.591 32.4182L136.201 35.9829L149.079 64.5386L150.833 68.427L156.485 80.9599C156.425 77.1174 156.616 73.275 157.055 69.4572C157.128 68.8136 157.208 68.1702 157.297 67.5273C158.105 61.4873 159.535 55.5469 161.563 49.8005C162.107 48.2675 162.695 46.746 163.329 45.2358C158.101 44.3462 153.678 44.4714 151.419 39.5579C147.672 31.403 160.798 27.4958 172.456 29.9119C173.194 29.0805 173.929 28.2608 174.715 27.4795C176.028 26.1679 177.454 24.9743 178.976 23.9125C167.591 22.6272 150.744 25.8342 133.563 30.926" fill="#8146F6"/>
<path d="M173.111 49.0953C171.496 47.9138 169.709 46.987 167.813 46.3471C164.893 53.1799 162.873 60.3631 161.804 67.7162C161.691 68.5449 161.587 69.3743 161.494 70.2043C161.413 70.9465 161.337 71.6775 161.272 72.4342C160.873 77.2029 160.858 81.9959 161.225 86.767C163.844 84.7141 166.406 82.6037 168.912 80.4361C171.753 77.9683 174.513 75.4271 177.193 72.8125C177.929 72.095 178.664 71.3711 179.387 70.6423C180.155 69.868 180.913 69.0861 181.661 68.2965C182.034 67.9025 182.406 67.5054 182.776 67.1049L183.307 66.5242C183.402 66.42 183.497 66.3158 183.59 66.2082L183.689 66.1017L183.891 65.8773C183.969 65.7853 184.05 65.6938 184.129 65.6169C184.302 65.4178 184.476 65.2217 184.647 65.0221L184.677 64.988C179.185 61.9351 179.025 53.4326 173.108 49.1158" fill="#8146F6"/>
<path d="M202.342 41.1564C201.477 45.9808 199.805 50.625 197.396 54.8939C198.61 61.2713 196.276 66.2246 189.584 66.118C188.585 67.3179 187.558 68.496 186.501 69.6522C185.248 71.0278 183.965 72.3794 182.651 73.7071C179.812 76.586 176.854 79.3673 173.82 82.0641C172.51 83.2283 171.181 84.3755 169.832 85.5054C170.611 85.2746 171.406 85.0524 172.168 84.8158C173.641 84.3701 175.115 83.9205 176.589 83.467L177.885 83.082L178.176 82.9892L178.47 82.8999L180.542 82.2475C186.542 80.3547 192.508 78.3842 198.439 76.3361C204.15 74.3674 209.827 72.3311 215.471 70.2272C215.772 70.121 216.085 70.053 216.404 70.0249C212.841 59.9005 208.126 50.2196 202.352 41.1729" fill="#8146F6"/>
<path d="M224.188 96.622L224.089 96.6056C221.082 96.1135 218.034 95.9252 214.99 96.0434C214.409 96.0089 213.86 95.7649 213.446 95.3566C213.032 94.9484 212.78 94.4036 212.737 93.8235C212.737 93.5583 212.794 93.2964 212.906 93.0559C213.018 92.8155 213.181 92.6024 213.384 92.4316C213.835 92.0865 214.396 91.9153 214.963 91.9494C215.811 91.9339 216.657 91.9301 217.504 91.9384C219.405 91.9491 221.304 92.0841 223.188 92.3428C222.185 88.243 221.026 84.0515 219.72 79.8596C219.248 78.3303 218.755 76.8035 218.242 75.2794C216.941 75.7627 215.644 76.2436 214.337 76.7317C212.913 77.2545 211.469 77.756 210.05 78.2705C199.926 81.9012 189.701 85.3202 179.374 88.5274C174.273 90.1094 169.146 91.6351 163.993 93.1047C164.338 93.7222 164.718 94.3195 165.13 94.894C165.291 95.1185 165.461 95.3386 165.62 95.5567L165.635 95.5742C165.73 95.6918 165.831 95.8075 165.928 95.9226C166.315 96.3764 166.719 96.8151 167.137 97.244C167.885 98.0125 168.687 98.7479 169.503 99.4497C169.924 99.8194 170.353 100.163 170.79 100.511L171.056 100.72L171.087 100.746L171.756 101.25C173.624 102.645 175.548 103.956 177.494 105.237C181.574 107.961 185.848 110.384 190.281 112.484C194.461 114.421 198.846 115.88 203.353 116.834C206.781 117.502 210.274 117.778 213.764 117.659C216.46 117.514 219.13 117.059 221.721 116.302C222.751 115.977 223.761 115.593 224.745 115.15C225.533 114.796 226.299 114.398 227.042 113.957C226.421 108.14 225.464 102.365 224.176 96.659" fill="#8146F6"/>
<path d="M106.49 92.2668C106.485 92.2986 106.408 92.3306 106.355 92.3635C106.403 92.336 106.448 92.3035 106.49 92.2668Z" fill="#8146F6"/>
<path d="M151.095 90.1866C150.834 89.8227 150.564 89.4631 150.293 89.1064L149.875 88.5725C150.352 89.1881 149.842 88.537 149.729 88.4014C148.677 87.1329 147.553 85.9266 146.361 84.7885C145.771 84.2231 145.16 83.6723 144.535 83.1371C144.199 82.8534 143.862 82.5698 143.518 82.2939L143.12 81.9793L142.931 81.834C140.335 79.8674 137.538 78.1803 134.587 76.8007C128.564 74.0171 121.956 72.7328 115.328 73.0573C112.046 73.2403 108.797 73.8093 105.648 74.7527C104.415 75.1406 103.203 75.5913 102.016 76.1031C100.928 76.5766 99.8707 77.1011 98.844 77.6766C98.5733 77.8267 98.3079 77.9807 98.044 78.1439L97.6689 78.3816C97.2077 78.686 96.7543 78.9977 96.3126 79.3293C95.8709 79.6609 95.4264 80.0281 95.01 80.4059C94.7982 80.5987 94.5883 80.7978 94.3838 81.0008L94.1254 81.2578L94.0162 81.3746C93.7908 81.6131 94.1395 81.2272 94.1493 81.2228C94.0282 81.327 93.924 81.4493 93.8403 81.5854C93.7617 81.6803 93.683 81.7752 93.6101 81.8711C93.4499 82.0785 93.295 82.2897 93.1484 82.5052C92.8942 82.8806 92.6651 83.2723 92.4625 83.6779C92.1955 84.2845 92.0005 84.9205 91.8819 85.5726C91.8254 86.1241 91.8269 86.6801 91.8861 87.2313C91.9918 87.7618 92.1467 88.2813 92.3488 88.7831C92.59 89.2866 92.872 89.7695 93.192 90.2269C93.2883 90.3358 93.3774 90.4506 93.4589 90.5709L93.491 90.6122C93.6999 90.8537 93.9219 91.0883 94.1503 91.321C94.3786 91.5537 94.6336 91.7698 94.8896 91.9801L94.9957 92.0637L95.334 92.3025C95.8017 92.6156 96.29 92.8969 96.7957 93.1442C97.4414 93.4103 98.1087 93.6211 98.7901 93.7743C99.5993 93.9104 100.419 93.9709 101.24 93.9549C102.141 93.891 103.033 93.7375 103.903 93.4965C104.473 93.3088 105.028 93.0812 105.566 92.8154C105.713 92.7408 105.858 92.6658 106.002 92.5878C106.069 92.5508 106.218 92.4796 106.332 92.4055C106.235 92.4674 106.149 92.5191 106.294 92.4173L106.518 92.2654C106.653 92.1709 106.783 92.0754 106.913 91.977C107.384 91.6346 107.96 91.4695 108.541 91.5107C109.122 91.552 109.669 91.7971 110.087 92.2027C110.292 92.384 110.457 92.6067 110.57 92.8561C110.684 93.1056 110.743 93.3763 110.744 93.6503C110.746 93.9244 110.689 94.1956 110.578 94.4461C110.467 94.6967 110.305 94.921 110.101 95.1043C109.351 95.6787 108.545 96.177 107.696 96.592C104.096 98.3072 99.9649 98.5356 96.1975 97.2277C94.3775 96.5852 92.7107 95.5716 91.3031 94.251C89.8954 92.9305 88.7775 91.3318 88.0202 89.5565C87.401 87.9146 87.2202 86.1398 87.4956 84.4069C87.7709 82.6739 88.493 81.0425 89.5906 79.6734C91.8791 76.8744 94.7864 74.6451 98.0834 73.1613C104.901 69.8966 112.454 68.4721 119.992 69.0293C132.238 69.9198 143.666 75.5072 151.89 84.6246C149.295 78.8661 146.7 73.1106 144.105 67.358L141.69 62.0231L128.833 33.4319C128.691 33.1169 128.638 32.7691 128.679 32.426C106.801 39.3424 85.1739 48.9089 74.374 55.7736C72.146 57.0807 70.0996 58.6754 68.2878 60.5166C61.188 68.7015 68.0024 94.8351 79.7532 119.168C80.7125 118.204 81.7047 117.276 82.7298 116.384C91.0498 109.627 100.625 104.583 110.903 101.542C122.145 97.8599 133.876 95.344 145.407 92.3391C147.435 91.8084 149.457 91.2587 151.478 90.7119C151.355 90.5326 151.238 90.3513 151.106 90.1735" fill="#8146F6"/>
<path d="M195.329 48.786C195.441 48.5257 195.556 48.263 195.663 48.0017C196.049 47.0462 196.399 46.0768 196.714 45.0935C197.332 43.1632 197.795 41.1864 198.097 39.1822C198.253 38.0539 198.352 36.9185 198.394 35.7803C195.133 31.4014 190.845 27.8926 185.907 25.5636C185.738 25.4938 185.556 25.4366 185.381 25.3716C184.886 25.5696 184.403 25.7894 183.931 26.0311C183.495 26.2587 183.073 26.4886 182.656 26.7463L182.565 26.8033L182.39 26.9182C182.188 27.0527 181.988 27.1905 181.792 27.3289C180.971 27.9143 180.182 28.5421 179.426 29.2099C178.75 29.8055 178.098 30.4241 177.47 31.0657C177.387 31.1509 177.31 31.237 177.226 31.3251C178.506 31.8214 179.741 32.4271 180.917 33.1355C187.118 36.8736 192.118 42.3097 195.327 48.8006" fill="#8146F6"/>
<path d="M151.417 39.5697C153.68 44.4808 158.098 44.358 163.33 45.2481C164.907 41.3845 166.862 37.686 169.167 34.2066C170.177 32.7148 171.276 31.2848 172.457 29.9242C160.798 27.5081 147.661 31.4134 151.417 39.5697Z" fill="#FFF0F0"/>
<path d="M189.584 66.1182C196.273 66.2273 198.611 61.2686 197.397 54.8912C197.153 55.3364 196.908 55.7787 196.654 56.2132C194.584 59.7107 192.219 63.0244 189.584 66.1182Z" fill="#FFF0F0"/>
<path d="M184.68 64.9677C185.028 64.5666 185.37 64.1646 185.711 63.7562C186.398 62.9366 187.069 62.1063 187.724 61.2653C190.363 57.9286 192.65 54.3285 194.549 50.5223C194.612 50.3978 194.671 50.2727 194.731 50.1476C194.835 49.9161 194.943 49.685 195.047 49.4534C195.151 49.2218 195.235 49.0077 195.328 48.7864C192.119 42.2953 187.12 36.8585 180.919 33.1185C179.744 32.4114 178.51 31.8058 177.231 31.3085C177.003 31.5466 176.772 31.7812 176.552 32.0265L176.523 32.0577C176.248 32.375 176.427 32.1648 176.523 32.0577L176.575 31.9974C176.522 32.0607 176.467 32.1205 176.412 32.1803C176.253 32.3638 176.094 32.5474 175.937 32.7314C174.803 34.0764 173.751 35.4879 172.785 36.9586C171.816 38.4292 170.929 39.9493 170.108 41.4985C169.679 42.2819 169.296 43.0759 168.911 43.8787L168.851 44.0038C168.824 44.0592 168.8 44.1152 168.773 44.1706C168.673 44.391 168.571 44.608 168.472 44.8284C168.302 45.2001 168.136 45.5723 167.972 45.9449C167.919 46.068 167.871 46.195 167.817 46.3181C169.713 46.9599 171.5 47.8877 173.115 49.0692C179.036 53.3865 179.19 61.8881 184.684 64.9414" fill="#FFF0F0"/>
<path d="M219.569 71.5028C219.228 70.9861 218.752 70.5735 218.191 70.3104C217.631 70.0473 217.01 69.9439 216.394 70.0118C216.076 70.0366 215.762 70.1047 215.461 70.2141C209.818 72.318 204.14 74.3531 198.428 76.3196C192.493 78.3631 186.528 80.3338 180.533 82.2315L178.458 82.8834L178.167 82.9761L177.876 83.0659L176.58 83.4509C175.106 83.9064 173.631 84.3618 172.157 84.8173C171.38 85.0515 170.582 85.2702 169.821 85.504C167.599 87.3727 165.335 89.1966 163.03 90.9756L163.049 91.0208C163.181 91.3995 163.336 91.7728 163.496 92.1412C163.647 92.4659 163.812 92.7692 163.983 93.0793C169.132 91.6052 174.26 90.0796 179.366 88.5024C189.691 85.2988 199.915 81.8797 210.039 78.2451C211.47 77.7325 212.907 77.2208 214.33 76.7068C215.632 76.2308 216.933 75.7466 218.234 75.2544L218.508 75.153C218.839 75.0044 219.133 74.7853 219.371 74.5112C219.608 74.2372 219.783 73.9147 219.883 73.5662C219.983 73.2177 220.006 72.8515 219.95 72.4933C219.893 72.1351 219.76 71.7934 219.558 71.4921" fill="#F6C137"/>
<path d="M156.672 85.5485C156.571 84.0206 156.509 82.4953 156.486 80.9722L150.834 68.4393L149.079 64.5509L136.202 35.9952L134.591 32.4305C134.374 31.8616 134.022 31.3539 133.565 30.9504C133.453 30.8563 133.334 30.7705 133.209 30.6935C132.517 30.2763 131.7 30.1176 130.902 30.2457C130.359 30.3581 129.859 30.6259 129.464 31.0166C129.07 31.4074 128.797 31.9043 128.679 32.447C128.638 32.7892 128.691 33.1362 128.834 33.4501C133.128 42.97 137.421 52.4895 141.711 62.0087L144.126 67.3406C146.721 73.0991 149.316 78.8546 151.911 84.6072C153.558 86.4365 155.044 88.4049 156.352 90.4904C156.597 90.3122 156.84 90.1305 157.083 89.9518C156.915 88.4889 156.782 87.0257 156.682 85.5621" fill="#F6C137"/>
<path d="M197.348 29.0078C197.422 29.158 197.523 29.4715 197.348 29.0078V29.0078Z" fill="#F8BA89"/>
<path d="M199.237 24.4008C196.945 22.1054 193.903 20.711 190.668 20.4725C187.57 20.2229 184.463 20.8517 181.706 22.2867C180.762 22.7702 179.85 23.3154 178.977 23.9186C177.456 24.9823 176.03 26.1768 174.716 27.4886C173.929 28.2578 173.184 29.0848 172.461 29.9186C171.28 31.2792 170.181 32.7091 169.17 34.2009C166.867 37.682 164.91 41.3811 163.33 45.2449C162.7 46.7506 162.112 48.2752 161.565 49.8066C159.538 55.5535 158.108 61.4938 157.298 67.5335C157.21 68.1755 157.133 68.8193 157.059 69.4667C156.619 73.2833 156.428 77.1246 156.486 80.966C156.51 82.4891 156.572 84.0145 156.673 85.5423C156.77 87.0075 156.904 88.4708 157.074 89.9321L156.346 90.4712L156.25 90.5423C156.06 90.7338 155.91 90.9609 155.808 91.2105C155.707 91.4601 155.655 91.7274 155.657 91.9969C155.658 92.2665 155.713 92.5331 155.818 92.7815C155.922 93.0299 156.075 93.2552 156.267 93.4444C156.685 93.8492 157.232 94.0937 157.812 94.1349C158.392 94.176 158.968 94.0113 159.438 93.6696L159.52 93.6083C160.708 92.7375 161.882 91.8546 163.044 90.9596C165.353 89.1831 167.617 87.3592 169.835 85.4879C171.18 84.3553 172.509 83.2083 173.823 82.0466C176.858 79.3469 179.827 76.5704 182.654 73.6895C183.966 72.3596 185.249 71.0081 186.504 69.6347C187.556 68.4737 188.583 67.2955 189.587 66.1004C192.223 63.0011 194.59 59.6815 196.659 56.178C196.914 55.7435 197.161 55.3017 197.402 54.8589C199.811 50.591 201.483 45.9479 202.348 41.1243C202.366 41.0164 202.383 40.9113 202.401 40.8033C203.229 35.4956 203.558 29.0019 199.239 24.3892M196.715 45.0697C196.4 46.053 196.05 47.0214 195.664 47.975C195.557 48.2391 195.442 48.4989 195.33 48.7621C195.217 49.0253 195.145 49.2082 195.045 49.4286C194.946 49.649 194.837 49.8918 194.73 50.1229L194.551 50.498C192.649 54.3034 190.361 57.9033 187.723 61.2406C187.068 62.0816 186.398 62.9121 185.712 63.732C185.372 64.1375 185.027 64.5419 184.681 64.9435L184.652 64.9775L184.134 65.5695L183.896 65.8299C183.859 65.8688 183.757 65.9807 183.693 66.0571L183.595 66.1638C183.502 66.2684 183.407 66.3726 183.312 66.4767C183.136 66.6724 182.948 66.8632 182.781 67.0574C182.413 67.4582 182.041 67.8564 181.666 68.252C180.918 69.0396 180.16 69.8206 179.392 70.5949C178.671 71.3271 177.934 72.0476 177.197 72.7681C174.516 75.3823 171.755 77.9235 168.916 80.3917C166.416 82.5641 163.854 84.6744 161.23 86.7225C160.862 81.9513 160.878 77.1583 161.276 72.3896C161.34 71.6446 161.416 70.9136 161.498 70.1627C161.592 69.3307 161.695 68.5014 161.808 67.6746C162.878 60.3205 164.898 53.1365 167.817 46.3027C167.871 46.1796 167.919 46.0526 167.973 45.9266C168.137 45.5491 168.301 45.1744 168.472 44.81C168.569 44.5891 168.671 44.3692 168.773 44.1522L168.849 43.9849L168.912 43.8574C169.293 43.057 169.692 42.2625 170.106 41.4796C170.93 39.928 171.814 38.4074 172.785 36.9402C173.751 35.4698 174.802 34.058 175.935 32.7125L176.413 32.162C176.465 32.0987 176.52 32.0417 176.572 31.9785L176.524 32.0364L176.55 32.0048C176.773 31.7628 177.001 31.5277 177.229 31.2897C177.312 31.2045 177.39 31.1154 177.473 31.0302C178.1 30.3906 178.753 29.772 179.429 29.1744C180.183 28.5065 180.972 27.8785 181.791 27.2929C181.992 27.1522 182.191 27.0143 182.394 26.8798L182.569 26.7649L182.658 26.7109C183.072 26.4585 183.499 26.2173 183.934 25.9956C184.37 25.7739 184.889 25.5331 185.384 25.3361C185.611 25.2449 185.842 25.1572 186.077 25.0791L186.255 25.0186L186.371 24.984C187.258 24.7344 188.168 24.5737 189.086 24.504C189.958 24.4831 190.83 24.5461 191.69 24.6924C192.146 24.7919 192.596 24.9174 193.037 25.0683C193.289 25.158 193.537 25.256 193.784 25.3598L193.828 25.3821C193.935 25.4389 194.041 25.4923 194.145 25.5515C194.389 25.6849 194.629 25.8295 194.864 25.9703C194.983 26.0499 195.095 26.1315 195.21 26.2136C195.618 26.5557 195.998 26.9294 196.348 27.3313C196.381 27.3668 196.41 27.4047 196.44 27.4426L196.553 27.6112C196.704 27.825 196.847 28.0466 196.976 28.2809C197.105 28.5152 197.228 28.7304 197.34 28.9589L197.307 28.8694C197.356 29.0065 197.424 29.1407 197.479 29.2787C197.821 30.1634 198.071 31.0809 198.225 32.0167C198.385 33.2516 198.443 34.4975 198.397 35.7419C198.355 36.8811 198.256 38.0175 198.1 39.1467C197.797 41.1509 197.335 43.1276 196.717 45.058" fill="#F6C137"/>
<path d="M8.68574 56.8846C6.48626 58.0246 7.42554 63.2848 7.42554 63.2848C7.42554 63.2848 3.46007 59.447 1.43366 60.393C-1.04643 61.5516 0.0356684 65.0138 2.07468 67.3872C4.01372 69.6421 10.1013 73.5554 11.9278 72.512C13.4123 71.6601 14.0819 65.0843 13.3409 61.3617C12.5999 57.639 11.0028 55.6857 8.68318 56.8879" fill="#F8BA89"/>
<path d="M259.031 17.307C256.862 16.1106 253.01 19.8139 253.01 19.8139C253.01 19.8139 254 14.3849 252.086 13.2256C249.746 11.8049 247.465 14.6286 246.625 17.6405C245.826 20.5054 245.953 27.7406 247.835 28.679C249.368 29.441 255.209 26.3477 257.894 23.6643C260.579 20.9809 261.317 18.5689 259.029 17.307" fill="#F8BA89"/>
</svg>
