<svg width="57" height="57" viewBox="0 0 57 57" fill="none" xmlns="http://www.w3.org/2000/svg">
<path d="M16.0153 56.4764C17.9125 55.2964 18.4806 46.6879 17.3401 41.866C16.1996 37.0441 14.0272 34.5701 11.0564 36.2468C8.24024 37.8359 9.71304 44.6536 9.71304 44.6536C9.71304 44.6536 4.36256 39.8284 1.76355 41.1609C-1.41668 42.7861 0.154775 47.257 2.92376 50.2552C5.55568 53.1064 13.6817 57.9316 16.0153 56.4764Z" fill="#F6C137"/>
<path d="M44.8249 0.31291C41.5723 -1.16425 39.0534 2.84941 38.4316 6.88282C37.8394 10.721 39.1235 20.0775 41.7127 21.0008C43.816 21.752 50.9068 16.8336 53.9708 12.9417C57.0348 9.04977 57.6171 5.80702 54.4566 4.52616C51.4595 3.31219 47.0412 8.70872 47.0412 8.70872C47.0412 8.70872 47.4798 1.5203 44.8249 0.31291Z" fill="#F6C137"/>
</svg>
