<svg width="108" height="89" viewBox="0 0 108 89" fill="none" xmlns="http://www.w3.org/2000/svg">
<g clip-path="url(#clip0_689_843)">
<path d="M106.596 11.8894C106.585 10.8742 106.594 9.85908 106.592 8.84393C106.592 8.47193 106.592 8.0982 106.592 7.72621H102.264V9.11336C102.317 9.06469 102.37 9.01602 102.424 8.96734C102.823 9.35846 103.501 9.70959 103.568 10.1511C103.734 11.2514 103.622 12.3918 103.622 13.5338H99.0668V7.7349H94.7443V9.19506C95.4346 9.22983 96.0654 9.46623 96.1144 10.2224C96.1863 11.321 96.132 12.4265 96.132 13.5303H91.5501V7.75055H87.2626C87.154 8.53104 86.97 9.26111 88.0669 9.4193C88.2649 9.44711 88.5469 9.83475 88.5575 10.0659C88.6083 11.2115 88.5802 12.3622 88.5802 13.539H87.9144V13.5164H66.9361C67.4845 11.9833 68.0277 10.424 68.6041 8.87522C68.746 8.49453 68.944 8.11906 69.1893 7.79748C70.1863 6.48508 72.0015 6.71801 72.7146 8.23031C72.4133 8.3798 72.0839 8.49279 71.8175 8.68922C71.1885 9.14813 70.9432 10.0399 71.1938 10.7734C71.4654 11.5661 72.1136 12.0476 72.9442 12.0719C73.7904 12.0962 74.4633 11.686 74.7226 10.8447C75.2622 9.09772 74.5877 7.61148 73.3839 6.43293C72.6113 5.67678 71.6143 5.05273 70.6068 4.6425C68.4885 3.78031 66.2633 3.80117 64.0976 4.51039C60.4637 5.69764 59.1461 9.22287 61.0349 12.5499C61.2101 12.8576 61.3993 13.1566 61.6306 13.539H57.0996V13.5164H40.3649V0.489746H36.0617C36.0424 0.734844 36.0301 0.899981 36.0161 1.06512C35.9758 1.59355 35.9618 2.01422 36.71 2.14807C37.0113 2.20195 37.3197 2.77906 37.4301 3.17191C37.558 3.62039 37.4739 4.12971 37.4739 4.61295C37.4739 7.1265 37.4739 9.64006 37.4704 12.1536C37.4704 12.7724 37.346 13.3791 36.6311 13.4938C36.0739 13.5825 36.0039 13.8415 36.0056 14.316C36.0231 17.4814 36.0144 20.6469 36.0161 23.814C36.0161 24.0452 36.0354 24.2746 36.0459 24.4798H54.135H57.0978H84.9516H87.9144H107.997V13.6624C106.769 13.3339 106.608 13.1323 106.596 11.8894Z" fill="#6821F4"/>
<path d="M32.8251 13.567C32.0401 13.4366 31.7966 12.9342 31.7755 12.2268C31.751 11.3594 31.7738 10.4833 31.6652 9.62456C31.2517 6.34616 29.1982 4.3367 25.8884 4.0186C23.8349 3.82044 21.9023 4.22198 20.3096 5.63172C19.3827 6.45219 19.1794 7.68463 19.7471 8.57985C20.1221 9.1726 20.8457 9.47506 21.5816 9.3586C22.1808 9.26299 22.5488 8.90317 22.6907 8.34518C22.8729 7.63596 22.5435 7.13534 21.9443 6.77204C21.9163 6.75465 21.918 6.68686 21.8725 6.51651C22.6066 6.29922 23.332 6.01067 24.0837 5.87508C26.0601 5.51874 27.7544 6.41221 28.4693 8.18004C29.1736 9.91659 28.8285 11.7331 28.9196 13.5844C28.5499 13.5844 28.3116 13.5844 28.0715 13.5844C25.5414 13.5844 23.0096 13.5861 20.4795 13.5826C19.0165 13.5809 18.8378 13.4227 18.6047 11.9712C18.5977 11.9313 18.5504 11.8982 18.5136 11.8513C18.0686 11.8513 17.6183 11.8513 16.9893 11.8513C17.0856 14.497 16.9945 17.1148 17.3239 19.6823C17.6726 22.4079 19.6297 24.2174 22.4034 24.3617C25.9655 24.5477 29.5433 24.4069 33.2298 24.4069C33.2298 20.946 33.2351 17.4486 33.2123 13.9529C33.2123 13.8173 32.9775 13.5931 32.8251 13.567Z" fill="#6821F4"/>
<path d="M2.30277 10.3078C1.04474 12.2947 0.624227 14.5023 0.566406 17.2853C0.636492 17.8207 0.703073 18.8375 0.909825 19.8249C1.68777 23.5274 4.30722 25.3909 8.11461 25.0658C10.5133 24.8607 12.4494 23.8838 13.3482 21.6171C14.8866 17.7372 14.6991 13.8608 12.4809 10.2765C9.84923 6.02294 4.97654 6.08725 2.30277 10.3078ZM7.45055 14.139C6.11017 14.1459 5.37953 13.4489 5.38303 12.166C5.38654 10.7771 6.31692 9.57598 7.40149 9.56208C8.5176 9.54817 9.47252 10.7684 9.46376 12.1956C9.455 13.461 8.7594 14.132 7.45055 14.139Z" fill="#6821F4"/>
<path d="M4.60704 4.71368C3.31747 4.71194 2.36431 3.74024 2.38008 2.44522C2.39409 1.18497 3.34375 0.260205 4.61756 0.263682C5.87209 0.267158 6.84978 1.22147 6.86555 2.45565C6.88307 3.70374 5.87033 4.71542 4.60704 4.71368Z" fill="#6821F4"/>
<path d="M10.1396 4.71391C8.8623 4.70001 7.89862 3.70223 7.92841 2.42112C7.95819 1.1713 8.93063 0.24653 10.1974 0.263913C11.4432 0.279557 12.4349 1.25995 12.4384 2.47848C12.4419 3.71614 11.4011 4.72782 10.1396 4.71391Z" fill="#6821F4"/>
<path d="M4.57525 39.9194C4.50867 40.5052 4.36499 41.0945 4.39478 41.6751C4.42982 42.3739 4.88538 42.8119 5.59324 42.9423C5.85431 42.9909 6.12414 43.0205 6.39046 43.0205C10.6026 43.0257 14.8147 43.024 19.0269 43.0222C19.1688 43.0222 19.3125 43.0014 19.5087 42.9857C19.5087 41.8402 19.5665 40.7138 19.4877 39.5978C19.4404 38.9199 18.8674 38.6626 18.1613 38.6574C18.1613 38.1551 18.1613 37.6857 18.1613 37.1625C19.556 37.1625 20.956 37.1625 22.4838 37.1625C22.4838 37.7361 22.4838 38.3289 22.4838 38.9199C22.4838 39.8134 22.4733 40.7086 22.4909 41.6021C22.5101 42.6103 22.8273 42.9527 23.8418 43.0066C24.5917 43.0466 25.3451 43.024 26.0985 43.024C31.3094 43.024 36.5202 43.024 41.7311 43.024C41.8975 43.024 42.064 43.0049 42.2199 42.9944C42.467 41.7794 41.7398 40.533 40.4888 40.1732C39.7757 39.9681 39.0065 39.8742 38.2618 39.869C34.3423 39.8394 30.421 39.8551 26.5015 39.8551C26.2369 39.8551 25.9741 39.8551 25.6622 39.8551C25.6622 39.0346 25.6622 38.2733 25.6622 37.4563C27.3986 37.4024 28.2326 36.2447 29.0316 34.9288C29.8025 33.6581 30.6208 32.3631 31.6598 31.3132C33.5591 29.3976 36.8321 29.5332 38.3582 31.4522C39.2203 32.5352 39.4375 33.825 39.25 35.1565C39.1099 36.1473 38.3074 36.7696 37.3735 36.7592C36.4326 36.7488 35.6862 36.13 35.5162 35.2208C35.3428 34.2943 35.8684 33.4391 36.8391 33.0706C36.946 33.0306 37.0529 32.9871 37.1632 32.9454C36.5272 31.7373 34.896 31.2228 33.6204 31.9824C32.8372 32.4483 32.1504 33.1627 31.5915 33.8945C30.7609 34.9827 30.0794 36.1838 29.3014 37.3902C29.5309 37.4006 29.7832 37.4215 30.0338 37.4215C32.9073 37.4232 35.7808 37.3902 38.6526 37.4406C39.639 37.458 40.6465 37.5866 41.6014 37.8265C43.69 38.3532 44.8218 39.7873 45.16 41.868C45.2178 42.2244 45.2546 42.5825 45.3072 42.9805C51.0857 42.9805 56.845 42.9805 62.7445 42.9805C61.0116 41.5308 60.5105 39.4049 59.333 37.6857C58.4027 36.3299 57.1569 35.6537 55.4818 35.8449C54.6443 35.9405 54.1467 36.2534 53.6439 37.0547C53.8226 37.1225 53.9925 37.1851 54.1625 37.2511C54.986 37.5727 55.4924 38.4297 55.3627 39.2762C55.2313 40.128 54.5024 40.8059 53.6316 40.8876C52.7503 40.9711 52.0424 40.5035 51.7253 39.6274C51.1628 38.0768 51.9723 35.4538 53.3495 34.3621C54.8195 33.1975 57.227 33.0862 58.8477 34.0979C59.9953 34.8141 60.7856 35.8501 61.4461 36.9887C62.175 38.2437 62.8338 39.537 63.5732 40.7851C64.2671 41.9567 65.0958 42.9996 66.6868 43.0414C66.6868 46.6726 66.6868 50.257 66.6868 53.9439C66.3626 53.9439 66.056 53.9439 65.7511 53.9439C46.3935 53.9439 27.0359 53.8865 7.68004 53.9838C2.60585 54.0099 0.398152 50.7871 0.0669985 47.1246C-0.192318 44.2564 0.392896 41.5847 2.26418 39.3075C3.32773 38.0125 4.70841 37.2616 6.44303 37.2859C7.54863 37.3016 8.32657 37.9047 8.50179 38.866C8.65422 39.7039 8.20568 40.5452 7.42773 40.8824C6.50961 41.2805 5.602 40.9832 4.96247 40.0793C4.92392 40.0237 4.86961 39.9785 4.8223 39.9298C4.73469 39.9281 4.65409 39.9229 4.57525 39.9194Z" fill="#6821F4"/>
<path d="M103.608 42.9755C103.608 41.8178 103.645 40.6896 103.58 39.5684C103.564 39.3007 103.224 38.8505 103.001 38.8297C102.05 38.7445 102.215 38.1065 102.225 37.5225C102.227 37.4269 102.248 37.333 102.267 37.1748C103.666 37.1748 105.062 37.1748 106.597 37.1748C106.597 37.5277 106.597 37.8997 106.597 38.2734C106.597 39.2886 106.59 40.302 106.599 41.3171C106.609 42.5878 106.732 42.7425 107.997 43.0867C107.997 46.6763 107.997 50.2815 107.997 53.9423C104.384 53.9423 100.81 53.9423 97.2124 53.9423C97.0372 54.8601 96.9146 55.7397 96.6973 56.5966C96.2785 58.255 95.5374 59.736 94.0218 60.6851C91.5548 62.2304 88.2625 61.0484 87.1236 58.1819C86.852 57.4988 86.6716 56.734 86.6575 56.0021C86.6032 53.2018 86.6313 50.3979 86.6313 47.5958C86.6313 47.4811 86.6575 47.3646 86.6751 47.2134C87.1797 47.2134 87.6563 47.2134 87.9646 47.2134C88.4219 48.0321 88.7145 48.8561 89.2542 49.461C90.7243 51.1106 93.0178 50.6917 93.8308 48.6492C94.0761 48.0356 94.1987 47.3403 94.2128 46.678C94.2601 44.5295 94.2268 42.3775 94.2373 40.229C94.2408 39.4224 94.0463 38.7949 93.1001 38.6593C92.9775 38.6419 92.811 38.4177 92.7935 38.2717C92.748 37.9205 92.7795 37.5607 92.7795 37.1592C94.2566 37.1592 95.6548 37.1592 97.1563 37.1592C97.1563 38.0214 97.1563 38.8575 97.1563 39.6936C97.1563 40.5871 97.1704 41.4823 97.1511 42.3758C97.1423 42.7721 97.3 42.9737 97.6907 42.9737C99.6566 42.9772 101.619 42.9755 103.608 42.9755Z" fill="#6821F4"/>
<path d="M69.5232 45.7373C69.8649 45.7373 70.0856 45.7616 70.2976 45.732C70.8531 45.6573 71.0651 45.8607 71.2245 46.4274C71.7432 48.2717 73.1536 49.1773 74.9285 49.6466C77.4726 50.3194 79.9642 49.0661 80.7386 46.7055C80.8105 46.4882 80.8402 46.257 80.7439 45.9459C80.6212 46.0641 80.46 46.1597 80.3812 46.3005C78.4749 49.7301 73.3113 48.6802 71.8132 45.4713C70.3537 42.3476 71.2123 38.1723 73.7826 36.2341C74.9758 35.3336 76.3583 34.9895 77.8213 34.9634C79.81 34.9286 81.8004 34.9547 83.8364 34.9547C83.8522 35.2589 83.8732 35.4936 83.8732 35.7282C83.875 40.3434 83.8785 44.9568 83.8714 49.5719C83.8679 51.7326 83.6735 53.8689 82.8464 55.8958C81.6129 58.9186 79.1897 60.3858 76.0114 60.0676C72.6122 59.7269 70.2381 57.6984 69.7124 54.5104C69.4987 53.2119 69.553 51.8647 69.5302 50.5384C69.5022 48.9757 69.5232 47.4112 69.5232 45.7373ZM80.9506 37.4057C79.9029 37.4057 78.9725 37.3275 78.0614 37.4265C76.9698 37.543 76.1585 38.1253 75.8432 39.2378C75.5751 40.1869 75.6259 41.1499 76.1147 41.9774C76.4073 42.4728 76.9488 42.9421 77.4849 43.1542C78.6431 43.6113 79.7031 43.0273 80.7369 42.5475C80.8403 42.5006 80.9401 42.3233 80.9419 42.2051C80.9541 40.618 80.9506 39.031 80.9506 37.4057Z" fill="#6821F4"/>
<path d="M15.3823 30.2444C16.6561 30.227 17.6671 31.2126 17.6671 32.4728C17.6671 33.7157 16.7104 34.6648 15.4454 34.6752C14.1663 34.6874 13.1991 33.78 13.1641 32.5337C13.1273 31.27 14.105 30.2617 15.3823 30.2444Z" fill="#6821F4"/>
<path d="M9.83654 34.6766C8.5715 34.6679 7.60257 33.7222 7.59381 32.4881C7.58505 31.2382 8.60129 30.237 9.86983 30.2422C11.1331 30.2492 12.1441 31.2747 12.1143 32.5194C12.0828 33.757 11.1051 34.6835 9.83654 34.6766Z" fill="#6821F4"/>
<path d="M106.543 57.8774C106.559 59.1272 105.544 60.1441 104.286 60.1424C103.044 60.1389 102.057 59.1742 102.035 57.94C102.012 56.6884 103.025 55.675 104.295 55.6768C105.523 55.6802 106.527 56.6624 106.543 57.8774Z" fill="#6821F4"/>
<path d="M58.0644 55.6787C59.3189 55.6735 60.3404 56.68 60.3369 57.9176C60.3334 59.1275 59.3469 60.1183 58.1222 60.1426C56.8712 60.1687 55.8304 59.1744 55.8146 57.9385C55.7989 56.6991 56.8099 55.6839 58.0644 55.6787Z" fill="#6821F4"/>
<path d="M15.6773 63.4365L16.1346 64.3526L14.0793 65.3625L14.647 66.5011L14.025 66.807L13 64.7524L15.6773 63.4365Z" fill="#6821F4"/>
<path d="M16.8372 65.731L18.1198 67.8517L17.5293 68.2028L16.7724 66.9495L16.3641 67.1928L16.9756 68.2045L16.4377 68.5244L15.8262 67.5127L15.3935 67.77L16.1907 69.0876L15.6002 69.4387L14.2773 67.252L16.8372 65.731Z" fill="#6821F4"/>
<path d="M18.1445 69.0857L17.6277 68.3695L18.1919 67.9697L19.8284 70.2364L19.2642 70.6362L18.7473 69.9201L16.883 71.2446L16.2803 70.4085L18.1445 69.0857Z" fill="#6821F4"/>
<path d="M20.0786 73.1484L20.5849 71.1807L21.3436 72.0081L20.9932 73.0563L21.009 73.0737L22.0935 72.8286L22.7541 73.5499L20.7759 73.9063L19.8263 74.7615L19.1289 74.0019L20.0786 73.1484Z" fill="#6821F4"/>
<path d="M21.9134 77.0422C21.6523 76.8041 21.4666 76.5416 21.358 76.2565C21.2493 75.9714 21.223 75.6881 21.2809 75.4048C21.3387 75.1232 21.4771 74.8624 21.6979 74.626C21.9256 74.3809 22.1797 74.2175 22.46 74.1376C22.7404 74.0576 23.0277 74.0611 23.3239 74.148C23.6182 74.2349 23.8986 74.4 24.1649 74.6434C24.433 74.8885 24.6239 75.1527 24.7361 75.436C24.8482 75.7194 24.878 76.001 24.8254 76.2808C24.7711 76.5607 24.638 76.8162 24.4224 77.0492C24.1912 77.2995 23.9318 77.4664 23.6462 77.5481C23.3606 77.6315 23.068 77.6298 22.7684 77.5428C22.4688 77.4559 22.1832 77.2891 21.9134 77.0422ZM22.4127 76.5468C22.5214 76.6459 22.644 76.7033 22.7824 76.7206C22.9209 76.738 23.0628 76.7137 23.2065 76.6494C23.3519 76.5851 23.4886 76.4825 23.6182 76.3417C23.7426 76.2078 23.8285 76.0688 23.8775 75.9245C23.9266 75.7802 23.9353 75.6429 23.9038 75.5091C23.8723 75.3752 23.8004 75.257 23.6883 75.1544C23.5797 75.0554 23.457 74.998 23.3221 74.9806C23.1854 74.9632 23.0453 74.9858 22.9016 75.0467C22.7579 75.1093 22.6212 75.2083 22.4933 75.3474C22.3654 75.4865 22.2761 75.6273 22.227 75.775C22.178 75.921 22.1692 76.0618 22.199 76.1939C22.2305 76.3278 22.3024 76.446 22.4127 76.5468Z" fill="#6821F4"/>
<path d="M24.9846 79.4514C24.741 79.2672 24.557 79.0603 24.4344 78.8343C24.3117 78.6084 24.2557 78.3806 24.2697 78.1512C24.2837 77.9217 24.3678 77.7079 24.522 77.508L25.5943 76.1191L26.4126 76.7414L25.3613 78.1043C25.2877 78.1981 25.2421 78.2955 25.2211 78.3946C25.2001 78.4936 25.2071 78.5875 25.2386 78.6744C25.2702 78.7613 25.328 78.8361 25.4121 78.9004C25.4927 78.9612 25.5803 78.996 25.6714 79.0012C25.7643 79.0064 25.8554 78.9873 25.9447 78.9404C26.0341 78.8934 26.1164 78.8239 26.1883 78.73L27.2378 77.3707L28.0596 77.9947L26.9925 79.3767C26.8366 79.5783 26.6491 79.7174 26.4318 79.7904C26.2128 79.8651 25.978 79.8738 25.7275 79.8165C25.4769 79.7574 25.2299 79.6374 24.9846 79.4514Z" fill="#6821F4"/>
<path d="M28.4104 78.2275L29.6457 79.015C29.8822 79.1662 30.0679 79.3313 30.2028 79.5139C30.3377 79.6946 30.4166 79.8789 30.4359 80.0649C30.4569 80.2509 30.4148 80.423 30.3115 80.5829C30.2186 80.7272 30.0872 80.8297 29.9172 80.8906C29.749 80.9514 29.5721 80.9601 29.3881 80.9149V82.3733L28.4805 81.7945L28.4875 80.562L28.2212 80.3917L27.6535 81.2661L26.7949 80.7185L28.4104 78.2275ZM28.8519 80.1153C28.9763 80.1935 29.0937 80.23 29.2041 80.2231C29.3145 80.2161 29.4004 80.1675 29.4599 80.0736C29.495 80.0197 29.509 79.9623 29.502 79.898C29.495 79.8355 29.4687 79.7729 29.4214 79.7103C29.3741 79.6495 29.311 79.5938 29.2339 79.5434L28.908 79.3348L28.5348 79.9102L28.8519 80.1153Z" fill="#6821F4"/>
<path d="M32.3049 80.6089L33.2283 81.0626L32.7307 82.0586L33.7837 82.5766L34.2813 81.5806L35.2047 82.0343L33.8783 84.6904L32.9549 84.2367L33.4736 83.1972L32.4205 82.6792L31.9019 83.7187L30.9785 83.2632L32.3049 80.6089Z" fill="#6821F4"/>
<path d="M35.6182 82.1997L37.9293 83.1314L37.67 83.7642L36.3068 83.2149L36.1281 83.6529L37.2302 84.0962L36.9937 84.6715L35.8916 84.2283L35.7006 84.6924L37.1356 85.2712L36.8763 85.9057L34.4951 84.9462L35.6182 82.1997Z" fill="#6821F4"/>
<path d="M39.1052 83.5347L40.372 83.9449L40.5227 87.1103L39.4784 86.7731L39.4767 86.2238L38.336 85.8553L38.0049 86.2968L37.0938 86.0013L39.1052 83.5347ZM38.704 85.339L39.4889 85.5928L39.4469 84.3986L38.704 85.339Z" fill="#6821F4"/>
<path d="M41.6194 84.3237L43.0439 84.6714C43.3172 84.7374 43.5467 84.8348 43.7342 84.9634C43.9217 85.092 44.0548 85.2398 44.1354 85.4084C44.216 85.577 44.2318 85.7543 44.1862 85.9386C44.1442 86.1055 44.0548 86.2445 43.9147 86.3575C43.7745 86.4705 43.6116 86.5348 43.4223 86.5505L43.8989 87.9307L42.8511 87.6751L42.4551 86.507L42.1485 86.4323L41.898 87.4422L40.9062 87.2006L41.6194 84.3237ZM42.6531 85.9681C42.7968 86.0029 42.9195 85.9994 43.0211 85.9577C43.1245 85.916 43.1875 85.8412 43.2156 85.7335C43.2313 85.6726 43.2243 85.6118 43.198 85.5544C43.1718 85.4971 43.1245 85.4467 43.0596 85.4032C42.9948 85.3597 42.9177 85.3285 42.8266 85.3059L42.4499 85.2137L42.2852 85.8778L42.6531 85.9681Z" fill="#6821F4"/>
<path d="M45.3548 85.8761L44.4805 85.7214L44.6014 85.0435L47.368 85.5319L47.2471 86.2098L46.3728 86.0551L45.9715 88.2958L44.9518 88.1167L45.3548 85.8761Z" fill="#6821F4"/>
<path d="M50.2594 88.9647C49.9019 88.9352 49.5936 88.8413 49.3325 88.6831C49.0714 88.5249 48.8752 88.3146 48.7455 88.0539C48.6159 87.7931 48.5633 87.5028 48.5896 87.1795C48.6159 86.8683 48.7122 86.5989 48.8787 86.3729C49.0451 86.147 49.2659 85.9801 49.5445 85.8706C49.8213 85.7611 50.135 85.7211 50.4854 85.7506C50.8166 85.7784 51.1022 85.8567 51.3387 85.9853C51.577 86.1139 51.7504 86.2825 51.8591 86.4911C51.9677 86.6997 52.001 86.9327 51.9572 87.1899L51.1162 87.1204C51.1179 87.0213 51.0934 86.9309 51.0391 86.8492C50.9865 86.7693 50.9094 86.7049 50.8095 86.658C50.7097 86.6111 50.5923 86.5833 50.4574 86.5746C50.3137 86.5624 50.1858 86.585 50.0719 86.6389C49.958 86.6928 49.8669 86.7745 49.7968 86.8823C49.7267 86.99 49.6864 87.1169 49.6742 87.2629C49.6601 87.4368 49.6759 87.588 49.7232 87.7184C49.7705 87.8487 49.8494 87.9513 49.9615 88.0295C50.0736 88.106 50.2173 88.1529 50.3925 88.1668C50.4889 88.1755 50.58 88.1616 50.6676 88.1286C50.7552 88.0956 50.8323 88.0469 50.8972 87.9808C50.962 87.9148 51.011 87.84 51.0443 87.7531L51.9186 87.8244C51.8941 88.0747 51.8083 88.2903 51.6628 88.4693C51.5157 88.6483 51.3229 88.7822 51.0811 88.8691C50.8393 88.9578 50.566 88.989 50.2594 88.9647Z" fill="#6821F4"/>
<path d="M52.369 85.9927L54.8623 86.0361L54.85 86.7193L53.3782 86.6949L53.3694 87.1678L54.5591 87.1886L54.5486 87.8109L53.3589 87.7901L53.3502 88.2907L54.8991 88.3168L54.8868 88.9999L52.3164 88.9564L52.369 85.9927Z" fill="#6821F4"/>
<path d="M55.2598 86.0253L56.29 85.9854L56.3794 88.259L57.6584 88.2103L57.6847 88.8987L55.3754 88.9874L55.2598 86.0253Z" fill="#6821F4"/>
<path d="M57.8691 85.9141L60.3519 85.6777L60.4185 86.3591L58.9537 86.4982L58.9993 86.9693L60.1837 86.8563L60.2433 87.4751L59.0588 87.5881L59.1079 88.087L60.6498 87.941L60.7164 88.6224L58.1582 88.8657L57.8691 85.9141Z" fill="#6821F4"/>
<path d="M60.7402 85.6309L62.3925 85.3667C62.6168 85.3302 62.82 85.3319 63.0022 85.3701C63.1845 85.4084 63.3334 85.4779 63.4473 85.5805C63.5612 85.683 63.6295 85.8117 63.6558 85.9664C63.6786 86.1106 63.6453 86.2462 63.5507 86.3714C63.4578 86.4965 63.3264 86.5939 63.1564 86.6634L63.1617 86.6912C63.3754 86.6878 63.5559 86.7399 63.7013 86.8494C63.8485 86.9572 63.9361 87.1015 63.9659 87.2822C63.9922 87.4439 63.9642 87.5934 63.8818 87.7325C63.7995 87.8715 63.6698 87.9897 63.4946 88.0888C63.3194 88.1862 63.1091 88.2557 62.8621 88.2939L61.2151 88.5564L60.7402 85.6309ZM62.3627 86.5609C62.4801 86.5417 62.5695 86.5 62.6343 86.4357C62.6991 86.3714 62.7237 86.2932 62.7079 86.2028C62.6939 86.1159 62.6466 86.0515 62.566 86.0116C62.4854 85.9716 62.3837 85.9612 62.2646 85.9803L61.8248 86.0498L61.9194 86.6304L62.3627 86.5609ZM62.5695 87.7446C62.6991 87.7238 62.799 87.6768 62.8673 87.6056C62.9357 87.5326 62.9637 87.4456 62.9462 87.3448C62.9357 87.2788 62.9059 87.2249 62.8586 87.1797C62.8113 87.1362 62.7499 87.1049 62.6763 87.0876C62.6028 87.0702 62.5204 87.0684 62.4328 87.0823L62.0018 87.1519L62.1104 87.8194L62.5695 87.7446Z" fill="#6821F4"/>
<path d="M63.8799 85.116L65.3096 84.7875C65.583 84.7249 65.8335 84.7075 66.0595 84.7388C66.2856 84.7684 66.4713 84.8414 66.6202 84.9561C66.7692 85.0708 66.8638 85.2203 66.9076 85.4063C66.9461 85.5732 66.9304 85.7383 66.8568 85.9017C66.7832 86.0651 66.6658 86.1955 66.5063 86.2946L67.5611 87.3115L66.5098 87.5531L65.6233 86.6892L65.3149 86.7605L65.5514 87.7739L64.5562 88.0033L63.8799 85.116ZM65.5514 86.119C65.6951 86.086 65.802 86.0286 65.8756 85.9452C65.9474 85.8618 65.9719 85.7662 65.9457 85.6584C65.9316 85.5958 65.8983 85.5454 65.8475 85.5072C65.7967 85.4672 65.7336 85.4428 65.6566 85.4341C65.5795 85.4255 65.4954 85.4307 65.4042 85.4515L65.0258 85.5384L65.1817 86.2042L65.5514 86.119Z" fill="#6821F4"/>
<path d="M67.9017 84.1136L69.1737 83.7207L71.1414 86.2169L70.0936 86.5402L69.773 86.0917L68.6288 86.4446L68.6166 86.9956L67.7002 87.279L67.9017 84.1136ZM68.6271 85.8153L69.4138 85.572L68.6831 84.6211L68.6271 85.8153Z" fill="#6821F4"/>
<path d="M71.2903 83.7085L70.4632 84.0284L70.2109 83.387L72.8286 82.3735L73.0809 83.015L72.2539 83.3348L73.0879 85.4555L72.1225 85.8292L71.2903 83.7085Z" fill="#6821F4"/>
<path d="M73.0508 82.2742L75.311 81.2295L75.6019 81.8501L74.2668 82.4672L74.4683 82.8948L75.5458 82.3959L75.8104 82.9591L74.7328 83.458L74.9466 83.9134L76.3501 83.265L76.6409 83.8856L74.3106 84.9616L73.0508 82.2742Z" fill="#6821F4"/>
<path d="M78.2774 83.1106C78.0023 83.2601 77.7447 83.3505 77.4994 83.3783C77.2559 83.4061 77.0386 83.3766 76.8476 83.2879C76.6566 83.1993 76.499 83.0602 76.3746 82.8707L76.9125 82.577C77.0176 82.643 77.1245 82.683 77.2331 82.7021C77.3417 82.7195 77.4486 82.7195 77.5537 82.6986C77.6589 82.6778 77.7675 82.6413 77.8761 82.5891C77.9655 82.5457 78.0391 82.497 78.0987 82.4414C78.1565 82.3858 78.195 82.3284 78.2125 82.2675C78.2301 82.2067 78.2231 82.1493 78.1933 82.0937C78.153 82.0207 78.0846 81.9842 77.99 81.9842C77.8954 81.9842 77.7587 82.019 77.5835 82.0902C77.2962 82.2119 77.0509 82.2902 76.8459 82.3249C76.6409 82.3597 76.4622 82.344 76.3115 82.2762C76.1608 82.2085 76.0329 82.0816 75.9278 81.8921C75.8366 81.7269 75.8051 81.5549 75.8331 81.3706C75.8612 81.1881 75.947 81.009 76.0925 80.8369C76.2361 80.6631 76.4341 80.5067 76.6864 80.3693C76.9352 80.2338 77.1683 80.1468 77.3838 80.1103C77.5993 80.0738 77.792 80.0912 77.9602 80.1625C78.1284 80.232 78.2686 80.3589 78.3772 80.5432L77.8271 80.8439C77.7272 80.75 77.6045 80.7066 77.4556 80.7135C77.3084 80.7205 77.1683 80.7657 77.0351 80.8474C76.9615 80.8943 76.9019 80.9465 76.8529 81.0038C76.8056 81.0612 76.774 81.1203 76.7618 81.1794C76.7495 81.2385 76.7565 81.2941 76.7846 81.3445C76.8231 81.4141 76.8897 81.4506 76.9808 81.4523C77.0737 81.454 77.2068 81.4175 77.3803 81.3445C77.6624 81.2211 77.9059 81.1429 78.1109 81.1064C78.3159 81.0699 78.4946 81.0838 78.6506 81.1446C78.8048 81.2072 78.9344 81.3306 79.0378 81.5166C79.1342 81.6887 79.1692 81.8695 79.1464 82.0572C79.1237 82.2467 79.0395 82.4327 78.8941 82.6169C78.7487 82.7995 78.5437 82.9646 78.2774 83.1106Z" fill="#6821F4"/>
<path d="M79.4287 78.9021L80.2715 78.3111L80.918 79.2185L81.8782 78.5458L81.2317 77.6384L82.0744 77.0474L83.7985 79.4671L82.9558 80.0581L82.2812 79.1107L81.321 79.7834L81.9956 80.7308L81.1528 81.3218L79.4287 78.9021Z" fill="#6821F4"/>
<path d="M83.0684 76.2322L84.0846 75.377L86.8793 76.9101L86.0417 77.6141L85.5687 77.3273L84.654 78.0974L84.859 78.6102L84.1284 79.2255L83.0684 76.2322ZM84.407 77.5185L85.036 76.9883L83.9882 76.3956L84.407 77.5185Z" fill="#6821F4"/>
<path d="M85.0615 74.5181L86.0637 73.5203C86.26 73.3256 86.4615 73.1831 86.67 73.0962C86.8785 73.0092 87.0782 72.978 87.2692 73.004C87.4602 73.0301 87.6284 73.1153 87.7738 73.2561C87.9105 73.3899 87.9911 73.5498 88.0156 73.7324C88.0402 73.9149 88.0086 74.1061 87.9228 74.306C87.8369 74.5059 87.7002 74.6988 87.5128 74.8848L87.1974 75.1977L87.8982 75.8913L87.1781 76.6092L85.0615 74.5181ZM87.0099 74.5337C87.1098 74.4346 87.1658 74.3303 87.1781 74.2191C87.1904 74.1078 87.1571 74.014 87.0782 73.9357C87.0292 73.8871 86.9714 73.8575 86.9065 73.8488C86.8399 73.8401 86.7734 73.8506 86.7033 73.8801C86.6332 73.9097 86.5666 73.9583 86.5018 74.0227L86.2582 74.266L86.7699 74.7719L87.0099 74.5337Z" fill="#6821F4"/>
<path d="M87.1982 72.366L88.1146 71.2918C88.2933 71.0815 88.4843 70.9233 88.6841 70.819C88.8838 70.7147 89.0818 70.6678 89.2745 70.6782C89.4673 70.6886 89.6425 70.7599 89.7967 70.8903C89.9438 71.0137 90.0367 71.1649 90.0753 71.3457C90.1138 71.5265 90.0998 71.7194 90.0297 71.9245C89.9596 72.1296 89.8405 72.333 89.6688 72.5347L89.3814 72.8719L90.1366 73.5064L89.476 74.2799L87.1982 72.366ZM89.1396 72.227C89.2307 72.121 89.278 72.0114 89.2815 71.9002C89.285 71.7889 89.2447 71.6985 89.1589 71.6255C89.1063 71.5803 89.0467 71.556 88.9802 71.5525C88.9136 71.5491 88.847 71.5647 88.7804 71.5995C88.7138 71.6342 88.6508 71.6881 88.5912 71.7577L88.3687 72.0184L88.9206 72.4808L89.1396 72.227Z" fill="#6821F4"/>
<path d="M89.1621 70.002L89.7824 69.1729L92.181 70.9389L91.5608 71.7681L89.1621 70.002Z" fill="#6821F4"/>
<path d="M90.0762 68.7835L90.6404 67.9282L92.5589 69.1746L93.2598 68.1125L93.8398 68.4897L92.573 70.4087L90.0762 68.7835Z" fill="#6821F4"/>
<path d="M93.3832 66.7168L91.3438 66.8924L91.8799 65.9103L92.9925 65.8912L93.003 65.8703L92.4108 64.9351L92.8786 64.0781L93.8703 65.8129L94.9987 66.4196L94.5046 67.3235L93.3832 66.7168Z" fill="#6821F4"/>
</g>
<defs>
<clipPath id="clip0_689_843">
<rect width="108" height="89" fill="white"/>
</clipPath>
</defs>
</svg>
