<svg width="16" height="16" viewBox="0 0 16 16" fill="none" xmlns="http://www.w3.org/2000/svg">
<g clip-path="url(#clip0_689_895)">
<path d="M15.6844 11.3323C15.5981 11.3123 15.5104 11.2977 15.4254 11.2729C13.9562 10.8455 13.0476 9.82056 12.4597 8.46533C12.4215 8.37756 12.3748 8.29565 12.375 8.21973C12.3755 8.04871 12.5004 7.90857 12.6869 7.80237C12.8965 7.68323 13.1569 7.61353 13.3749 7.50757C13.6578 7.37 13.9613 7.25146 14.203 7.05847C14.5111 6.81274 14.4563 6.41724 14.124 6.19958C13.9534 6.08789 13.7769 6.03198 13.592 6.03198C13.4705 6.03198 13.3455 6.05615 13.2162 6.10437C12.9983 6.18579 12.7457 6.24377 12.5153 6.27795C12.4978 6.28064 12.4814 6.28186 12.4659 6.28186C12.348 6.28186 12.2894 6.2052 12.2993 6.03882C12.3383 5.38269 12.375 4.71936 12.375 4.06799C12.375 2.81287 11.8893 1.76599 10.9022 1.00806C10.0363 0.343018 9.11011 0.03125 8.15625 0.03125C7.375 0.03125 6.73816 0.165283 6.01978 0.465698C4.64514 1.04053 3.79431 2.12268 3.67932 3.64966C3.66284 3.87012 3.65625 4.09131 3.65625 4.31299C3.65625 4.87561 3.6936 5.45032 3.71619 6.01758C3.72339 6.19983 3.66724 6.28491 3.53259 6.28491C3.5155 6.28491 3.49707 6.28357 3.47742 6.28088C3.23206 6.24683 2.98132 6.18262 2.75 6.09802C2.63013 6.05432 2.51501 6.03198 2.40271 6.03198C2.25244 6.03198 2.10742 6.07202 1.96375 6.1543C1.56165 6.38428 1.51123 6.81604 1.88245 7.09436C2.10791 7.26343 2.38306 7.36926 2.64246 7.48926C2.84265 7.58203 3.0636 7.65454 3.2583 7.75635C3.4989 7.8822 3.60071 8.04321 3.59375 8.25098C3.59082 8.33691 3.56726 8.43091 3.52344 8.53369C3.42822 8.75696 3.31592 8.97571 3.18774 9.18176C2.50562 10.2778 1.61865 11.0884 0.303955 11.3345C0.121704 11.3687 0 11.5756 0 11.6564V11.693C0.0809326 11.9805 0.282471 12.1683 0.548462 12.2598C0.958496 12.4005 1.37683 12.5225 1.79883 12.6212C2.18188 12.7108 2.18616 12.6924 2.26758 13.071C2.37561 13.5729 2.4375 13.7203 2.75 13.7203C2.8573 13.7203 2.99353 13.6847 3.17102 13.6486C3.4375 13.5942 3.69824 13.5641 3.95264 13.5641C3.95801 13.5641 3.96338 13.5641 3.96875 13.5642C4.57935 13.5673 5.15271 13.7557 5.67834 14.1871C5.92212 14.3871 6.19543 14.5607 6.47681 14.7039C6.98584 14.963 7.49866 15.0938 8.01111 15.0938C8.52161 15.0938 9.03186 14.9639 9.53711 14.7021C9.91528 14.5063 10.2649 14.2506 10.6125 14.0012C11.0303 13.7018 11.4718 13.5953 11.9528 13.5953H11.9688C12.061 13.5958 12.1547 13.6003 12.25 13.6084C12.5291 13.6322 12.8055 13.6771 13.084 13.7091C13.1471 13.7164 13.2028 13.7203 13.2522 13.7203C13.5087 13.7203 13.5981 13.6125 13.6768 13.2904C13.7083 13.1613 13.7429 13.0326 13.7659 12.9019C13.7905 12.7614 13.881 12.6908 14.0292 12.6538C14.5355 12.5278 15.0399 12.3885 15.5328 12.2188C15.6862 12.1659 15.8312 12.0208 15.9257 11.881C16.0898 11.6382 15.9701 11.3984 15.6844 11.3323ZM12.6165 12.3895C12.5316 12.3796 12.4448 12.3705 12.3557 12.3629C12.2257 12.3519 12.0975 12.3459 11.9749 12.3453H11.9528C11.1614 12.3453 10.4847 12.5547 9.88416 12.9854L9.82166 13.0303C9.52124 13.246 9.23755 13.4496 8.96216 13.5923C8.6355 13.7615 8.32446 13.8438 8.01111 13.8438C7.69568 13.8438 7.37939 13.7607 7.04395 13.59C6.8291 13.4806 6.63647 13.3563 6.47131 13.2208C5.7439 12.6238 4.90405 12.3187 3.97485 12.3141H3.95264C3.75903 12.3141 3.55872 12.3269 3.35364 12.3524C3.21289 12.0071 3.00488 11.7727 2.69226 11.6106C3.27429 11.1661 3.79077 10.5785 4.24902 9.84216C4.40784 9.58691 4.55066 9.31165 4.67334 9.02393C4.77783 8.77869 4.83496 8.53271 4.84302 8.29297C4.85706 7.87512 4.73157 7.4928 4.48669 7.17883C4.51318 7.15515 4.53882 7.13049 4.5636 7.10474C4.75928 6.901 4.98792 6.53845 4.96521 5.9679C4.95862 5.8031 4.95081 5.63696 4.94324 5.47644C4.92419 5.07056 4.90625 4.68713 4.90625 4.31299C4.90625 4.1051 4.9126 3.91882 4.9259 3.74353C5.00244 2.72534 5.51807 2.03027 6.50208 1.6189C7.07556 1.37903 7.55481 1.28125 8.15625 1.28125C8.86243 1.28125 9.5116 1.51611 10.141 1.99939C10.8031 2.50793 11.125 3.18457 11.125 4.06799C11.125 4.67627 11.0902 5.31226 11.0515 5.96472C11.0183 6.52527 11.2429 6.88879 11.4373 7.09497C11.462 7.12134 11.4878 7.14661 11.5143 7.17065C11.2633 7.46936 11.1262 7.82947 11.125 8.21594C11.124 8.55225 11.243 8.81079 11.3003 8.93494C11.3044 8.94409 11.3088 8.95337 11.313 8.96277C11.8032 10.0929 12.472 10.9751 13.3113 11.6016C12.9883 11.778 12.7463 12.0515 12.6165 12.3895Z" fill="url(#paint0_linear_689_895)"/>
</g>
<defs>
<linearGradient id="paint0_linear_689_895" x1="8" y1="0.0312391" x2="8" y2="15.0937" gradientUnits="userSpaceOnUse">
<stop stop-color="#8146F6"/>
<stop offset="1" stop-color="#F14537"/>
</linearGradient>
<clipPath id="clip0_689_895">
<rect width="16" height="16" fill="white"/>
</clipPath>
</defs>
</svg>
