<svg width="224" height="225" viewBox="0 0 224 225" fill="none" xmlns="http://www.w3.org/2000/svg">
<path fill-rule="evenodd" clip-rule="evenodd" d="M17.8334 96.9425L0.0392053 115.041L18.789 132.148L8.7344 155.453L32.3978 164.631L31.4407 189.994L56.8217 190.004L65.0915 214L88.7623 204.841L105.142 224.23L123.906 207.138L146.183 219.3L157.506 196.585L182.672 199.878L185.025 174.606L209.681 168.586L202.745 144.171L223.562 129.65L208.275 109.389L222.441 88.3288L200.867 74.9586L206.468 50.2033L181.521 45.5293L177.801 20.4223L152.851 25.0758L140.312 3.00795L118.727 16.3605L99.0641 0.312132L83.7604 20.5604L59.6275 12.6989L52.6716 37.1082L27.3285 38.4954L29.66 63.7692L6.52943 74.2177L17.8334 96.9425ZM11.6197 76.0324L22.3806 97.6655L5.4413 114.895L23.2903 131.18L13.7187 153.364L36.2452 162.102L35.3341 186.246L59.4957 186.256L67.3681 209.099L89.9017 200.38L105.494 218.837L123.357 202.567L144.564 214.144L155.342 192.52L179.3 195.655L181.539 171.598L205.011 165.867L198.408 142.625L218.225 128.801L203.672 109.514L217.157 89.4656L196.62 76.7377L201.952 53.1718L178.204 48.7224L174.663 24.8216L150.911 29.2516L138.975 8.24397L118.427 20.955L99.7086 5.67765L85.1401 24.9531L62.1667 17.4693L55.545 40.7059L31.4195 42.0265L33.639 66.0859L11.6197 76.0324Z" fill="url(#paint0_linear_689_999)"/>
<defs>
<linearGradient id="paint0_linear_689_999" x1="219.714" y1="214.93" x2="22.4393" y2="28.8805" gradientUnits="userSpaceOnUse">
<stop stop-color="#8146F6"/>
<stop offset="1" stop-color="#F14537"/>
</linearGradient>
</defs>
</svg>
