<svg width="37" height="40" viewBox="0 0 37 40" fill="none" xmlns="http://www.w3.org/2000/svg">
<path fill-rule="evenodd" clip-rule="evenodd" d="M31.9083 7.92452C32.3134 9.51317 31.9287 11.1705 30.8956 12.4305L33.7999 13.4495C35.9822 14.2151 37.1106 16.5479 36.3166 18.6515L34.7157 22.8913C34.365 23.8198 33.31 24.2965 32.3529 23.9804V35.8683C32.3529 38.1069 30.4648 39.927 28.1425 39.927H4.73985C2.41763 39.927 0.529463 38.1069 0.529463 35.8683V20.0768C0.529463 19.0812 1.36677 18.2741 2.39962 18.2741H16.0882L1.53102 13.1667C0.560247 12.8262 0.0598616 11.7916 0.41308 10.856L1.07087 11.0868C0.849854 11.6722 1.16298 12.3196 1.77032 12.5325L20.0581 18.9488H2.39962C1.75337 18.9488 1.22946 19.4539 1.22946 20.0768V35.8683C1.22946 37.7342 2.80423 39.2522 4.73985 39.2522H28.1425C30.0782 39.2522 31.6529 37.7342 31.6529 35.8683V23.017L32.5582 23.3346C33.1626 23.5469 33.8359 23.2483 34.0579 22.6605L35.6588 18.4208C36.3207 16.6673 35.3795 14.7217 33.5605 14.0835L29.6396 12.7079C29.8422 12.5465 30.0282 12.3716 30.197 12.1853C31.209 11.0685 31.6005 9.54433 31.2286 8.08559C30.3757 4.74162 26.1461 3.4722 23.4739 5.74933L20.7667 8.05622L20.2312 4.59649C19.7016 1.19032 15.6108 -0.448419 12.7329 1.58117C11.4962 2.45327 10.757 3.86788 10.789 5.37584C10.7943 5.62258 10.8202 5.87182 10.8679 6.12159L7.17117 4.82461C5.35242 4.18636 3.33376 5.09369 2.67165 6.84712L1.07087 11.0868L0.41308 10.856L2.01386 6.61634C2.80819 4.51276 5.22852 3.42481 7.41058 4.19052C7.41057 4.19052 7.4106 4.19053 7.41058 4.19052L10.0902 5.13066C10.1386 3.49962 10.9711 1.98755 12.3196 1.03658C15.6215 -1.29206 20.3158 0.587799 20.9234 4.49649L21.2688 6.72773L23.0103 5.24378C26.0762 2.63108 30.9296 4.08731 31.9083 7.92452ZM25.4874 7.94513L23.3363 9.7783L26.0347 10.7251C27.3203 11.1754 28.6028 10.0658 28.2762 8.78542C27.9698 7.5845 26.4498 7.12496 25.4874 7.94513ZM25.7957 11.3593C27.6068 11.9937 29.4163 10.4289 28.9559 8.62428C28.5242 6.93169 26.3812 6.28275 25.0238 7.43958L21.9908 10.0243L25.7957 11.3593ZM14.5279 3.94664C13.4229 4.72576 13.6676 6.38562 14.9517 6.83642L17.6508 7.78339L17.2245 5.03107M14.7122 7.47046L18.5168 8.80532L17.9168 4.93102C17.6487 3.20756 15.5771 2.37072 14.1146 3.40201C12.5588 4.49897 12.9009 6.83462 14.7122 7.47046ZM28.6126 35.1936V22.6684L26.3645 21.8796H20.6515V36.3215H28.1424C28.401 36.3215 28.6125 36.1177 28.6125 35.8683L28.6126 35.1936ZM26.4879 21.2048L29.3126 22.1959V35.8683C29.3126 36.4903 28.7876 36.9963 28.1424 36.9963H19.9515V21.2048H26.4879ZM32.8016 17.4182C32.8901 17.184 32.7637 16.9226 32.5207 16.8374C32.5207 16.8374 32.5207 16.8374 32.5207 16.8374L23.2825 13.5961L22.1605 16.5677L31.8405 19.964L32.8016 17.4182ZM32.2589 20.8289L21.2633 16.971L22.8641 12.7313L32.7601 16.2033C33.3664 16.416 33.6801 17.0647 33.4594 17.6491L32.2589 20.8289ZM4.73977 36.3215H12.2307V21.8796H4.26962V35.8683C4.26962 36.1177 4.48114 36.3215 4.73977 36.3215ZM15.971 36.3215H16.9112V21.8796H15.971V36.3215ZM14.5279 3.94664C15.5647 3.21552 17.0341 3.80855 17.2245 5.03107L14.5279 3.94664ZM14.6658 14.6563L3.67024 10.7984L4.87086 7.61867C5.09157 7.03419 5.76446 6.7319 6.3707 6.9445L16.2666 10.4165L14.6658 14.6563ZM15.3694 10.8198L14.2475 13.7914L4.56744 10.3951L5.52864 7.84947C5.52864 7.84947 5.52864 7.84947 5.52864 7.84947C5.61706 7.61534 5.88817 7.49337 6.13131 7.57858C6.13128 7.57857 6.13134 7.57859 6.13131 7.57858L15.3694 10.8198ZM19.0641 16.1995L16.865 15.4279L18.4658 11.1882L20.665 11.9598L19.0641 16.1995ZM19.7678 12.3631L18.6458 15.3346L17.7622 15.0246L18.8842 12.0531L19.7678 12.3631ZM4.73977 36.9963H12.9307V21.2048H3.56962V35.8683C3.56962 36.4903 4.09454 36.9963 4.73977 36.9963ZM17.6112 36.9963V21.2048H15.271V36.9963H17.6112Z" fill="#FFB800"/>
</svg>
