<svg width="188" height="135" viewBox="0 0 188 135" fill="none" xmlns="http://www.w3.org/2000/svg">
<path d="M28.7454 98.9927C32.0583 96.9322 33.0503 81.8993 31.0587 73.479C29.0671 65.0587 25.2734 60.7383 20.0857 63.6664C15.1679 66.4413 17.7398 78.3469 17.7398 78.3469C17.7398 78.3469 8.39641 69.9209 3.85783 72.2476C-1.69571 75.0857 1.04851 82.8932 5.88584 88.1288C10.4819 93.1079 24.6702 101.534 28.7454 98.9927Z" fill="#F6C137"/>
<path d="M79.056 0.916056C73.376 -1.66347 68.9753 5.34548 67.8914 12.3889C66.8573 19.0915 69.0998 35.4304 73.6212 37.0428C77.2942 38.3546 89.6766 29.7658 95.0272 22.9694C100.378 16.173 101.395 10.5103 95.8755 8.27353C90.6418 6.15361 82.9262 15.5774 82.9262 15.5774C82.9262 15.5774 83.6922 3.02449 79.056 0.916056Z" fill="#F6C137"/>
<path d="M87.6763 100.55L102.809 133.371C103.307 133.162 185.985 98.2575 186.409 98.0802C184.802 93.9077 176.174 71.5129 174.407 66.9144C157.291 72.9731 103.851 94.4462 87.6816 100.549" fill="#F9D9C2"/>
<path d="M177.831 75.8141L103.813 105.072C102.993 105.445 102.26 105.985 101.66 106.657C101.061 107.33 100.608 108.12 100.332 108.977C100.056 109.835 99.9612 110.741 100.055 111.637C100.149 112.533 100.429 113.399 100.877 114.181C103.139 118.625 105.76 125.941 112.068 123.436L184.303 92.6159L177.831 75.8141Z" fill="#F6C137"/>
<path d="M167.571 86.7243C167.667 86.975 167.813 87.2033 168 87.3951C168.188 87.5869 168.413 87.7382 168.662 87.8395C168.91 87.9407 169.177 87.9898 169.445 87.9838C169.714 87.9778 169.978 87.9167 170.221 87.8044C170.465 87.6921 170.683 87.5309 170.862 87.3308C171.041 87.1307 171.177 86.8961 171.261 86.6413C171.346 86.3866 171.377 86.1172 171.353 85.85C171.329 85.5827 171.25 85.3232 171.122 85.0875C171.026 84.8368 170.88 84.6085 170.692 84.4166C170.505 84.2248 170.279 84.0736 170.031 83.9723C169.782 83.871 169.516 83.8219 169.248 83.8279C168.979 83.834 168.715 83.895 168.471 84.0074C168.228 84.1197 168.009 84.2809 167.831 84.481C167.652 84.681 167.516 84.9157 167.432 85.1704C167.347 85.4251 167.316 85.6945 167.34 85.9618C167.364 86.2291 167.442 86.4886 167.571 86.7243Z" fill="#8146F6"/>
<path d="M160.272 96.5714C160.357 96.7999 160.488 97.0085 160.657 97.184C160.826 97.3595 161.029 97.4982 161.255 97.5914C161.48 97.6846 161.722 97.7302 161.966 97.7255C162.209 97.7208 162.449 97.6657 162.671 97.5639C162.892 97.462 163.09 97.3156 163.252 97.1336C163.415 96.9517 163.538 96.7382 163.613 96.5065C163.689 96.2749 163.716 96.0301 163.693 95.7874C163.67 95.5448 163.597 95.3096 163.479 95.0965C163.394 94.868 163.263 94.6594 163.094 94.4839C162.925 94.3084 162.721 94.1697 162.496 94.0765C162.271 93.9833 162.028 93.9377 161.785 93.9424C161.541 93.9471 161.301 94.0022 161.079 94.104C160.858 94.2058 160.66 94.3523 160.498 94.5343C160.336 94.7162 160.213 94.9297 160.137 95.1614C160.061 95.393 160.034 95.6378 160.057 95.8805C160.08 96.1231 160.153 96.3583 160.272 96.5714Z" fill="#8146F6"/>
<path d="M145.117 95.1129C145.188 95.2999 145.296 95.4704 145.436 95.6136C145.576 95.7569 145.743 95.8699 145.928 95.9456C146.113 96.0213 146.312 96.0581 146.512 96.0538C146.712 96.0494 146.909 96.0039 147.091 95.9201C147.272 95.8364 147.435 95.7161 147.568 95.5669C147.701 95.4176 147.802 95.2426 147.865 95.0526C147.927 94.8627 147.95 94.6618 147.932 94.4627C147.913 94.2635 147.854 94.0703 147.758 93.8949C147.687 93.7079 147.578 93.5374 147.439 93.3942C147.299 93.2509 147.132 93.1379 146.947 93.0622C146.761 92.9865 146.563 92.9497 146.363 92.9541C146.163 92.9584 145.966 93.0039 145.784 93.0877C145.603 93.1715 145.44 93.2917 145.307 93.441C145.174 93.5902 145.073 93.7652 145.01 93.9552C144.948 94.1452 144.925 94.346 144.943 94.5451C144.962 94.7443 145.021 94.9375 145.117 95.1129Z" fill="#8146F6"/>
<path d="M145.655 103.066C145.731 103.268 145.847 103.452 145.997 103.606C146.147 103.76 146.328 103.882 146.527 103.964C146.726 104.046 146.94 104.086 147.155 104.081C147.37 104.076 147.582 104.027 147.778 103.937C147.974 103.847 148.148 103.718 148.292 103.557C148.435 103.396 148.543 103.207 148.61 103.003C148.678 102.798 148.702 102.582 148.682 102.368C148.662 102.153 148.598 101.945 148.494 101.757C148.418 101.555 148.301 101.372 148.151 101.217C148.001 101.063 147.821 100.941 147.622 100.859C147.423 100.777 147.209 100.738 146.993 100.742C146.778 100.747 146.566 100.796 146.37 100.886C146.175 100.976 146 101.106 145.857 101.266C145.714 101.427 145.605 101.616 145.538 101.82C145.471 102.025 145.447 102.241 145.467 102.455C145.487 102.67 145.551 102.878 145.655 103.066Z" fill="#8146F6"/>
<path d="M133.143 107.42C133.223 107.632 133.346 107.825 133.504 107.987C133.662 108.15 133.852 108.278 134.061 108.364C134.271 108.449 134.496 108.491 134.723 108.486C134.949 108.481 135.172 108.43 135.378 108.335C135.584 108.24 135.768 108.104 135.919 107.935C136.07 107.766 136.184 107.568 136.255 107.353C136.326 107.138 136.352 106.91 136.331 106.685C136.31 106.459 136.244 106.24 136.135 106.041C136.054 105.83 135.932 105.637 135.773 105.474C135.615 105.312 135.426 105.184 135.216 105.098C135.006 105.012 134.781 104.97 134.555 104.975C134.328 104.98 134.105 105.032 133.899 105.127C133.694 105.221 133.51 105.358 133.359 105.527C133.208 105.696 133.093 105.894 133.022 106.109C132.951 106.324 132.925 106.551 132.946 106.777C132.967 107.003 133.034 107.222 133.143 107.42Z" fill="#8146F6"/>
<path d="M124.283 105.54C124.35 105.715 124.452 105.875 124.582 106.009C124.713 106.143 124.87 106.249 125.044 106.319C125.217 106.39 125.403 106.425 125.591 106.42C125.778 106.416 125.962 106.374 126.132 106.295C126.302 106.217 126.455 106.104 126.58 105.965C126.704 105.825 126.799 105.661 126.858 105.483C126.917 105.306 126.939 105.118 126.922 104.931C126.905 104.744 126.85 104.563 126.76 104.399C126.693 104.224 126.592 104.064 126.461 103.93C126.33 103.796 126.173 103.691 125.999 103.62C125.826 103.549 125.64 103.515 125.453 103.519C125.265 103.523 125.081 103.565 124.911 103.644C124.74 103.722 124.588 103.835 124.463 103.974C124.339 104.114 124.244 104.278 124.185 104.456C124.126 104.634 124.105 104.822 124.121 105.008C124.138 105.195 124.193 105.376 124.283 105.54Z" fill="#8146F6"/>
<path d="M113.958 108.827C114.898 110.843 117.075 109.839 116.155 107.814C115.214 105.799 113.038 106.803 113.958 108.827Z" fill="#8146F6"/>
<path d="M109.796 117.65C110.857 119.923 113.534 118.69 112.494 116.405C111.434 114.132 108.756 115.365 109.796 117.65Z" fill="#8146F6"/>
<path d="M85.9508 99.6668C86.2067 100.093 86.6028 100.418 87.0713 100.585C87.5398 100.752 88.0518 100.751 88.5198 100.583L93.437 98.7108L174.723 67.7391C174.81 67.6936 174.88 67.62 174.92 67.5301C174.961 67.4403 174.97 67.3394 174.946 67.2437C174.923 67.148 174.867 67.063 174.789 67.0026C174.712 66.9421 174.616 66.9095 174.517 66.9102L173.78 66.9422C169.979 67.1067 145.013 68.1555 140.6 68.3505C132.288 68.7251 118.446 69.2749 110.257 69.6388L90.5784 91.7519L90.2498 92.1216L86.0669 96.8213C85.7306 97.2135 85.5361 97.7077 85.5151 98.224C85.494 98.7402 85.6475 99.2485 85.9508 99.6668Z" fill="#F4B512"/>
<path d="M84.9351 98.6061C85.452 99.7566 86.4047 100.655 87.5837 101.103C88.7627 101.551 90.0713 101.512 91.2218 100.995C94.9668 99.389 94.6781 93.6429 90.9758 92.2226C87.1283 90.4439 83.0284 94.9008 84.9351 98.6074" fill="#6821F4"/>
<path d="M90.4469 92.6198C90.9442 93.6766 91.816 94.5112 92.8933 94.9622C93.9706 95.4131 95.177 95.4482 96.2787 95.0607C97.3805 94.6732 98.2992 93.8907 98.8571 92.8647C99.4151 91.8387 99.5724 90.6421 99.2987 89.5067C99.0251 88.3713 98.3398 87.3779 97.3757 86.7187C96.4115 86.0596 95.2371 85.7816 94.0798 85.9387C92.9225 86.0958 91.8646 86.6767 91.1111 87.5689C90.3575 88.4612 89.9619 89.6014 90.0008 90.7686C90.0241 91.4092 90.1753 92.0386 90.4456 92.6199" fill="#6821F4"/>
<path d="M95.2489 86.9246C95.5024 87.4945 95.8667 88.0084 96.3205 88.4364C96.7742 88.8644 97.3084 89.198 97.8921 89.4178C98.4759 89.6377 99.0975 89.7393 99.7209 89.7169C100.344 89.6945 100.957 89.5485 101.523 89.2874C102.09 89.0262 102.599 88.6551 103.021 88.1956C103.443 87.7362 103.769 87.1974 103.981 86.6108C104.193 86.0241 104.286 85.4012 104.255 84.7782C104.224 84.1552 104.07 83.5445 103.802 82.9816C103.548 82.4117 103.184 81.8978 102.73 81.4698C102.276 81.0418 101.742 80.7082 101.158 80.4883C100.575 80.2685 99.9529 80.1669 99.3296 80.1893C98.7062 80.2117 98.0935 80.3577 97.527 80.6188C96.9606 80.88 96.4516 81.2511 96.0298 81.7105C95.6079 82.17 95.2815 82.7087 95.0696 83.2954C94.8576 83.8821 94.7644 84.505 94.7951 85.128C94.8259 85.751 94.9801 86.3617 95.2489 86.9246Z" fill="#6821F4"/>
<path d="M100.457 81.0235C100.709 81.5957 101.072 82.1119 101.526 82.5421C101.98 82.9724 102.514 83.308 103.099 83.5294C103.684 83.7508 104.306 83.8536 104.931 83.8318C105.556 83.81 106.17 83.664 106.738 83.4023C107.306 83.1407 107.816 82.7686 108.238 82.3077C108.661 81.8469 108.987 81.3066 109.199 80.7183C109.41 80.1299 109.502 79.5054 109.47 78.8811C109.437 78.2568 109.281 77.6451 109.01 77.0819C108.758 76.5098 108.394 75.9935 107.941 75.5633C107.487 75.1331 106.953 74.7974 106.368 74.576C105.783 74.3546 105.16 74.2518 104.536 74.2736C103.911 74.2954 103.297 74.4414 102.729 74.7031C102.161 74.9648 101.651 75.3369 101.229 75.7977C100.806 76.2585 100.48 76.7988 100.268 77.3872C100.057 77.9755 99.9646 78.6 99.9971 79.2243C100.029 79.8487 100.186 80.4603 100.457 81.0235Z" fill="#6821F4"/>
<path d="M105.628 74.8001C105.881 75.37 106.245 75.8839 106.699 76.3119C107.153 76.7399 107.687 77.0735 108.271 77.2933C108.855 77.5131 109.476 77.6148 110.1 77.5924C110.723 77.57 111.336 77.424 111.902 77.1628C112.469 76.9017 112.978 76.5306 113.4 76.0711C113.821 75.6116 114.148 75.0729 114.36 74.4863C114.572 73.8996 114.665 73.2767 114.634 72.6537C114.603 72.0307 114.449 71.42 114.18 70.8571C113.927 70.2872 113.563 69.7733 113.109 69.3453C112.655 68.9173 112.121 68.5836 111.537 68.3638C110.953 68.144 110.332 68.0424 109.708 68.0648C109.085 68.0872 108.472 68.2332 107.906 68.4943C107.339 68.7555 106.83 69.1266 106.409 69.586C105.987 70.0455 105.66 70.5842 105.448 71.1709C105.236 71.7575 105.143 72.3805 105.174 73.0035C105.205 73.6265 105.359 74.2372 105.628 74.8001Z" fill="#6821F4"/>
<path d="M109.602 88.4951C109.453 88.6697 109.364 88.8879 109.349 89.1171C109.333 89.3463 109.392 89.5745 109.517 89.7676C109.641 89.9607 109.824 90.1085 110.04 90.189C110.255 90.2696 110.49 90.2786 110.711 90.2147L167.509 67.2081C153.115 67.8165 129.75 68.8134 115.533 69.4142C121.124 74.7075 114.382 83.501 109.602 88.4951Z" fill="#F6C137"/>
<path d="M126.195 71.7881C131.864 83.2108 147.04 75.7758 142.039 64.4846C136.39 53.1586 121.255 60.2845 126.195 71.7881Z" fill="#F25649"/>
<path d="M126.195 71.7879C129.24 78.9685 139.542 79.5072 142.3 72.3226C135.676 80.8811 123.047 71.3203 126.995 62.0533C126.008 63.458 125.413 65.1007 125.272 66.8119C125.132 68.5232 125.45 70.2409 126.195 71.7879Z" fill="#F14537"/>
<path d="M134.447 63.2808C134.447 63.2808 132.597 53.9749 140.147 49.9029C140.271 49.8512 140.41 49.8486 140.536 49.8958C140.661 49.9429 140.764 50.0363 140.824 50.1568C140.883 50.2772 140.894 50.4158 140.855 50.5442C140.815 50.6725 140.728 50.781 140.612 50.8475C138.983 51.586 133.54 54.7223 134.948 63.2818L134.447 63.2808Z" fill="#F9D9C2"/>
<path d="M132.447 63.1123C132.33 63.8082 136.478 64.1924 136.448 63.4388C136.565 62.743 132.419 62.3587 132.447 63.1123Z" fill="#F9D9C2"/>
<path d="M137.803 65.4069C137.888 65.6309 138.018 65.835 138.185 66.0066C138.352 66.1781 138.553 66.3134 138.775 66.4041C138.996 66.4948 139.234 66.5388 139.474 66.5336C139.713 66.5284 139.949 66.4739 140.167 66.3737C140.384 66.2734 140.579 66.1294 140.738 65.9507C140.898 65.7721 141.019 65.5625 141.094 65.335C141.169 65.1076 141.196 64.8671 141.174 64.6286C141.152 64.3901 141.082 64.1586 140.967 63.9486C140.882 63.7246 140.752 63.5205 140.584 63.349C140.417 63.1774 140.217 63.0421 139.995 62.9515C139.773 62.8608 139.535 62.8167 139.296 62.8219C139.056 62.8272 138.82 62.8816 138.603 62.9819C138.385 63.0822 138.191 63.2261 138.031 63.4048C137.872 63.5835 137.751 63.7931 137.676 64.0205C137.601 64.248 137.573 64.4884 137.595 64.7269C137.617 64.9655 137.688 65.1969 137.803 65.4069Z" fill="#FFF0F0"/>
<path d="M105.562 72.768C109.195 79.0159 115.421 71.7279 110.012 68.0473C107.689 67.8419 104.5 70.3502 105.562 72.768Z" fill="#8146F6"/>
<path d="M100.081 78.8967C103.535 84.9761 109.892 78.2261 104.678 74.2659C104.071 74.2617 103.468 74.3789 102.906 74.6106C102.344 74.8422 101.835 75.1837 101.406 75.615C100.978 76.0463 100.64 76.5587 100.413 77.1222C100.185 77.6858 100.072 78.289 100.081 78.8967Z" fill="#8146F6"/>
<path d="M94.8513 84.6066C97.5824 89.9169 103.949 85.3884 100.353 80.7783C100.168 80.5569 99.959 80.3554 99.7314 80.1773C99.1183 80.1408 98.504 80.227 97.9247 80.431C97.3453 80.635 96.8126 80.9525 96.3576 81.3651C95.9026 81.7777 95.5345 82.2769 95.2749 82.8335C95.0154 83.3902 94.8695 83.9931 94.846 84.6068" fill="#8146F6"/>
<path d="M90.0081 90.768C93.4052 95.6313 98.8193 90.1421 94.9719 86.144C94.8707 86.0422 94.7635 85.9464 94.6509 85.8573C94.0214 85.8656 93.3998 86.0001 92.8231 86.2528C92.2464 86.5055 91.7262 86.8713 91.2933 87.3285C90.8605 87.7857 90.5237 88.3251 90.3029 88.9147C90.0821 89.5043 89.9818 90.1323 90.0078 90.7613" fill="#8146F6"/>
<path d="M84.5198 97.1645C88.7743 103.315 94.2943 94.8708 88.3186 91.9229C87.1369 92.1484 86.0858 92.8163 85.3799 93.7904C84.674 94.7645 84.3663 95.9713 84.5198 97.1645Z" fill="#8146F6"/>
</svg>
