<svg width="49" height="49" viewBox="0 0 49 49" fill="none" xmlns="http://www.w3.org/2000/svg">
<rect x="0.77832" y="0.369629" width="48" height="48" rx="24" fill="url(#paint0_linear_698_1102)"/>
<g clip-path="url(#clip0_698_1102)">
<path d="M26.5752 13.3696C22.052 13.3696 18.3721 17.0495 18.3721 21.5728C18.3721 23.5396 19.0681 25.3467 20.2264 26.7614L13.7783 33.2095L14.9384 34.3696L21.3865 27.9215C22.8013 29.0798 24.6084 29.7759 26.5752 29.7759C31.0984 29.7759 34.7783 26.096 34.7783 21.5728C34.7783 17.0495 31.0984 13.3696 26.5752 13.3696ZM26.5752 28.1353C22.9566 28.1353 20.0127 25.1913 20.0127 21.5728C20.0127 17.9542 22.9566 15.0103 26.5752 15.0103C30.1938 15.0103 33.1377 17.9542 33.1377 21.5728C33.1377 25.1913 30.1938 28.1353 26.5752 28.1353Z" fill="white"/>
</g>
<defs>
<linearGradient id="paint0_linear_698_1102" x1="24.7783" y1="0.369629" x2="24.7783" y2="48.3696" gradientUnits="userSpaceOnUse">
<stop stop-color="#6821F4"/>
<stop offset="1" stop-color="#F14537"/>
</linearGradient>
<clipPath id="clip0_698_1102">
<rect width="21" height="21" fill="white" transform="translate(13.7783 13.3696)"/>
</clipPath>
</defs>
</svg>
