<svg width="15" height="17" viewBox="0 0 15 17" fill="none" xmlns="http://www.w3.org/2000/svg">
<path d="M7.24707 0.665039C4.92085 0.665039 3.02832 2.55757 3.02832 4.88379C3.02832 7.21001 4.92085 9.10254 7.24707 9.10254C9.57329 9.10254 11.4658 7.21001 11.4658 4.88379C11.4658 2.55757 9.57329 0.665039 7.24707 0.665039ZM7.24707 8.16504C5.43779 8.16504 3.96582 6.69307 3.96582 4.88379C3.96582 3.07451 5.43779 1.60254 7.24707 1.60254C9.05635 1.60254 10.5283 3.07451 10.5283 4.88379C10.5283 6.69307 9.05635 8.16504 7.24707 8.16504Z" fill="url(#paint0_linear_366_2374)"/>
<path d="M12.496 11.8586C11.341 10.6859 9.80985 10.04 8.18457 10.04H6.30957C4.68432 10.04 3.15313 10.6859 1.99813 11.8586C0.848789 13.0256 0.21582 14.5661 0.21582 16.1963C0.21582 16.4552 0.425695 16.665 0.68457 16.665H13.8096C14.0684 16.665 14.2783 16.4552 14.2783 16.1963C14.2783 14.5661 13.6454 13.0256 12.496 11.8586ZM1.17395 15.7275C1.40879 13.0686 3.62241 10.9775 6.30957 10.9775H8.18457C10.8717 10.9775 13.0854 13.0686 13.3202 15.7275H1.17395Z" fill="url(#paint1_linear_366_2374)"/>
<defs>
<linearGradient id="paint0_linear_366_2374" x1="3.26137" y1="8.86949" x2="10.4994" y2="1.63148" gradientUnits="userSpaceOnUse">
<stop stop-color="#8146F6"/>
<stop offset="1" stop-color="#F14537"/>
</linearGradient>
<linearGradient id="paint1_linear_366_2374" x1="0.604242" y1="16.482" x2="4.98645" y2="7.1802" gradientUnits="userSpaceOnUse">
<stop stop-color="#8146F6"/>
<stop offset="1" stop-color="#F14537"/>
</linearGradient>
</defs>
</svg>
