<svg width="17" height="12" viewBox="0 0 17 12" fill="none" xmlns="http://www.w3.org/2000/svg">
<path d="M15.3721 0.0400391H2.18457C1.41076 0.0400391 0.77832 0.669695 0.77832 1.44629V9.88379C0.77832 10.6607 1.41116 11.29 2.18457 11.29H15.3721C16.1459 11.29 16.7783 10.6604 16.7783 9.88379V1.44629C16.7783 0.669508 16.1456 0.0400391 15.3721 0.0400391ZM15.1561 0.977539C14.7015 1.4337 9.36098 6.7916 9.14157 7.01173C8.95832 7.19554 8.59841 7.19566 8.41507 7.01173L2.40051 0.977539H15.1561ZM1.71582 9.71144V1.61863L5.7491 5.66504L1.71582 9.71144ZM2.40051 10.3525L6.41095 6.32904L7.7511 7.67357C8.30029 8.22454 9.25657 8.22432 9.80557 7.67357L11.1457 6.32907L15.1561 10.3525H2.40051ZM15.8408 9.71144L11.8075 5.66504L15.8408 1.61863V9.71144Z" fill="url(#paint0_linear_358_2315)"/>
<defs>
<linearGradient id="paint0_linear_358_2315" x1="1.22026" y1="10.9793" x2="10.3018" y2="-1.93662" gradientUnits="userSpaceOnUse">
<stop stop-color="#8146F6"/>
<stop offset="1" stop-color="#F14537"/>
</linearGradient>
</defs>
</svg>
