<svg width="17" height="17" viewBox="0 0 17 17" fill="none" xmlns="http://www.w3.org/2000/svg">
<path d="M15.2569 2.47304C13.2285 0.444534 9.92787 0.444534 7.89943 2.47304C6.56611 3.80635 6.08174 5.72751 6.55355 7.4977L0.930727 13.1205C0.833164 13.2181 0.77832 13.3504 0.77832 13.4884V16.4314C0.77832 16.7187 1.01126 16.9517 1.29857 16.9517H4.24161C4.37958 16.9517 4.51189 16.8968 4.60945 16.7993L5.3452 16.0635C5.44277 15.9659 5.49758 15.8336 5.49758 15.6957V14.7444H6.44883C6.5868 14.7444 6.71911 14.6896 6.81668 14.592L7.55246 13.8562C7.65002 13.7587 7.70483 13.6264 7.70483 13.4884V12.5372H8.65609C8.79405 12.5372 8.92637 12.4823 9.02393 12.3847L10.2322 11.1765C12.0026 11.6484 13.9235 11.1639 15.2568 9.83062C17.2854 7.80217 17.2854 4.50157 15.2569 2.47304ZM14.5213 9.09483C13.3976 10.2185 11.7607 10.602 10.2493 10.0956C10.0622 10.0329 9.85571 10.0815 9.71618 10.2211L8.44068 11.4966H7.18468C6.89736 11.4966 6.66443 11.7295 6.66443 12.0168V13.2728L6.23339 13.7038H4.97739C4.69008 13.7038 4.45714 13.9368 4.45714 14.2241V15.4801L4.02617 15.9111H1.81885V13.7039L7.5089 8.01383C7.64843 7.8743 7.69702 7.66783 7.63433 7.4807C7.12805 5.96926 7.51155 4.33239 8.63515 3.20876C10.258 1.58601 12.8984 1.58597 14.5213 3.20876C16.144 4.83157 16.144 7.47208 14.5213 9.09483Z" fill="url(#paint0_linear_358_2319)"/>
<defs>
<linearGradient id="paint0_linear_358_2319" x1="1.22026" y1="16.5097" x2="14.9457" y2="2.78435" gradientUnits="userSpaceOnUse">
<stop stop-color="#8146F6"/>
<stop offset="1" stop-color="#F14537"/>
</linearGradient>
</defs>
</svg>
