<svg width="10" height="17" viewBox="0 0 10 17" fill="none" xmlns="http://www.w3.org/2000/svg">
<path d="M7.18677 0.665039H2.37012C1.21558 0.665039 0.276367 1.60425 0.276367 2.75879V14.5713C0.276367 15.7258 1.21558 16.665 2.37012 16.665H7.18677C8.34131 16.665 9.28052 15.7258 9.28052 14.5713V2.75879C9.28052 1.60425 8.34131 0.665039 7.18677 0.665039ZM2.37012 15.7275C1.73254 15.7275 1.21387 15.2089 1.21387 14.5713V13.4949H8.34302V14.5713C8.34302 15.2089 7.82434 15.7275 7.18677 15.7275H2.37012ZM7.18677 1.60254C7.81921 1.60254 8.33447 2.11316 8.34265 2.74377H1.21423C1.22229 2.11316 1.73755 1.60254 2.37012 1.60254H7.18677ZM8.34302 3.68127V12.5574H1.21387V3.68127H8.34302Z" fill="url(#paint0_linear_358_2328)"/>
<path d="M4.77832 14.1963C4.65491 14.1963 4.53394 14.2463 4.44678 14.3335C4.3595 14.421 4.30957 14.5416 4.30957 14.665C4.30957 14.7885 4.3595 14.9091 4.44678 14.9966C4.5343 15.0837 4.65491 15.1338 4.77832 15.1338C4.90173 15.1338 5.02234 15.0837 5.10986 14.9966C5.19702 14.9091 5.24707 14.7885 5.24707 14.665C5.24707 14.5416 5.19702 14.421 5.10986 14.3335C5.02234 14.2463 4.90173 14.1963 4.77832 14.1963Z" fill="url(#paint1_linear_358_2328)"/>
<defs>
<linearGradient id="paint0_linear_358_2328" x1="0.525072" y1="16.2231" x2="12.2576" y2="9.62051" gradientUnits="userSpaceOnUse">
<stop stop-color="#8146F6"/>
<stop offset="1" stop-color="#F14537"/>
</linearGradient>
<linearGradient id="paint1_linear_358_2328" x1="4.33547" y1="15.1079" x2="5.13969" y2="14.3037" gradientUnits="userSpaceOnUse">
<stop stop-color="#8146F6"/>
<stop offset="1" stop-color="#F14537"/>
</linearGradient>
</defs>
</svg>
