<svg width="17" height="12" viewBox="0 0 17 12" fill="none" xmlns="http://www.w3.org/2000/svg">
<path d="M15.3721 0.415039H2.18457C1.41076 0.415039 0.77832 1.0447 0.77832 1.82129V10.2588C0.77832 11.0357 1.41116 11.665 2.18457 11.665H15.3721C16.1459 11.665 16.7783 11.0354 16.7783 10.2588V1.82129C16.7783 1.04451 16.1456 0.415039 15.3721 0.415039ZM15.1561 1.35254C14.7015 1.8087 9.36098 7.1666 9.14157 7.38673C8.95832 7.57054 8.59841 7.57066 8.41507 7.38673L2.40051 1.35254H15.1561ZM1.71582 10.0864V1.99363L5.7491 6.04004L1.71582 10.0864ZM2.40051 10.7275L6.41095 6.70404L7.7511 8.04857C8.30029 8.59954 9.25657 8.59932 9.80557 8.04857L11.1457 6.70407L15.1561 10.7275H2.40051ZM15.8408 10.0864L11.8075 6.04004L15.8408 1.99363V10.0864Z" fill="url(#paint0_linear_358_2251)"/>
<defs>
<linearGradient id="paint0_linear_358_2251" x1="1.22026" y1="11.3543" x2="10.3018" y2="-1.56162" gradientUnits="userSpaceOnUse">
<stop stop-color="#8146F6"/>
<stop offset="1" stop-color="#F14537"/>
</linearGradient>
</defs>
</svg>
