<svg width="21" height="14" viewBox="0 0 21 14" fill="none" xmlns="http://www.w3.org/2000/svg">
<path d="M20.7318 6.41499C20.725 6.39762 20.7176 6.38052 20.7096 6.3637C19.8227 4.52169 18.4424 2.96357 16.7181 1.85773C14.9464 0.721485 12.8925 0.120972 10.7785 0.120972C8.6645 0.120972 6.61048 0.721578 4.83879 1.85791C3.1208 2.95969 1.74437 4.5106 0.85709 6.34374C0.757651 6.53421 0.750258 6.76451 0.846924 6.96533C1.73374 8.80762 3.11405 10.366 4.83852 11.472C6.6103 12.6085 8.66432 13.2091 10.7785 13.2091C12.8926 13.2091 14.9466 12.6085 16.7183 11.4721C18.4428 10.3662 19.823 8.8079 20.7099 6.96579C20.7929 6.79325 20.8006 6.59354 20.7318 6.41499ZM10.7785 11.8228C7.21285 11.8228 3.90097 9.80912 2.24747 6.66488C3.90097 3.52065 7.21285 1.50711 10.7785 1.50711C14.3441 1.50711 17.656 3.52083 19.3095 6.66498C17.6559 9.80894 14.344 11.8228 10.7785 11.8228Z" fill="url(#paint0_linear_358_2292)"/>
<path d="M10.7784 3.62292C9.10102 3.62292 7.73633 4.98762 7.73633 6.66495C7.73633 8.34229 9.10102 9.70698 10.7784 9.70698C12.4557 9.70698 13.8204 8.34229 13.8204 6.66495C13.8204 4.98762 12.4557 3.62292 10.7784 3.62292ZM10.7784 8.32075C9.86539 8.32075 9.12255 7.57792 9.12255 6.66495C9.12255 5.75198 9.86539 5.00915 10.7784 5.00915C11.6913 5.00915 12.4342 5.75198 12.4342 6.66495C12.4342 7.57792 11.6913 8.32075 10.7784 8.32075Z" fill="url(#paint1_linear_358_2292)"/>
<defs>
<linearGradient id="paint0_linear_358_2292" x1="1.33074" y1="12.8476" x2="11.6193" y2="-2.87447" gradientUnits="userSpaceOnUse">
<stop stop-color="#8146F6"/>
<stop offset="1" stop-color="#F14537"/>
</linearGradient>
<linearGradient id="paint1_linear_358_2292" x1="7.90438" y1="9.53893" x2="13.1235" y2="4.3198" gradientUnits="userSpaceOnUse">
<stop stop-color="#8146F6"/>
<stop offset="1" stop-color="#F14537"/>
</linearGradient>
</defs>
</svg>
