<svg width="22" height="14" viewBox="0 0 22 14" fill="none" xmlns="http://www.w3.org/2000/svg">
<path d="M20.2748 6.65828C20.268 6.64091 20.2606 6.62381 20.2526 6.60699C19.3657 4.76497 17.9854 3.20685 16.2611 2.10101C14.4894 0.964771 12.4355 0.364258 10.3215 0.364258C8.20747 0.364258 6.15345 0.964864 4.38176 2.1012C2.66377 3.20297 1.28734 4.75388 0.400058 6.58703C0.30062 6.7775 0.293227 7.00779 0.389893 7.20861C1.27671 9.05091 2.65702 10.6093 4.38149 11.7153C6.15327 12.8518 8.20729 13.4524 10.3215 13.4524C12.4356 13.4524 14.4896 12.8518 16.2613 11.7154C17.9857 10.6095 19.3659 9.05118 20.2529 7.20907C20.3358 7.03653 20.3436 6.83683 20.2748 6.65828ZM10.3215 12.066C6.75581 12.066 3.44393 10.0524 1.79044 6.90817C3.44393 3.76393 6.75581 1.75039 10.3215 1.75039C13.887 1.75039 17.199 3.76412 18.8525 6.90826C17.1989 10.0522 13.8869 12.066 10.3215 12.066Z" fill="url(#paint0_linear_370_2508)"/>
<path d="M10.3213 3.86621C8.64399 3.86621 7.2793 5.2309 7.2793 6.90824C7.2793 8.58557 8.64399 9.95027 10.3213 9.95027C11.9987 9.95027 13.3634 8.58557 13.3634 6.90824C13.3634 5.2309 11.9987 3.86621 10.3213 3.86621ZM10.3213 8.56404C9.40836 8.56404 8.66552 7.82121 8.66552 6.90824C8.66552 5.99527 9.40836 5.25244 10.3213 5.25244C11.2343 5.25244 11.9771 5.99527 11.9771 6.90824C11.9771 7.82121 11.2343 8.56404 10.3213 8.56404Z" fill="url(#paint1_linear_370_2508)"/>
<line x1="20.8179" y1="2.52768" x2="0.198176" y2="10.8428" stroke="url(#paint2_linear_370_2508)"/>
<defs>
<linearGradient id="paint0_linear_370_2508" x1="0.873711" y1="13.0909" x2="11.1623" y2="-2.63119" gradientUnits="userSpaceOnUse">
<stop stop-color="#8146F6"/>
<stop offset="1" stop-color="#F14537"/>
</linearGradient>
<linearGradient id="paint1_linear_370_2508" x1="7.44735" y1="9.78222" x2="12.6665" y2="4.56308" gradientUnits="userSpaceOnUse">
<stop stop-color="#8146F6"/>
<stop offset="1" stop-color="#F14537"/>
</linearGradient>
<linearGradient id="paint2_linear_370_2508" x1="25.5568" y1="1.19893" x2="26.222" y2="3.58336" gradientUnits="userSpaceOnUse">
<stop stop-color="#8146F6"/>
<stop offset="1" stop-color="#F14537"/>
</linearGradient>
</defs>
</svg>
