<svg width="17" height="17" viewBox="0 0 17 17" fill="none" xmlns="http://www.w3.org/2000/svg">
<path d="M15.2569 2.18642C13.2285 0.157913 9.92787 0.157913 7.89943 2.18642C6.56611 3.51973 6.08174 5.44089 6.55355 7.21108L0.930727 12.8339C0.833164 12.9315 0.77832 13.0638 0.77832 13.2018V16.1448C0.77832 16.4321 1.01126 16.665 1.29857 16.665H4.24161C4.37958 16.665 4.51189 16.6102 4.60945 16.5126L5.3452 15.7769C5.44277 15.6793 5.49758 15.547 5.49758 15.409V14.4578H6.44883C6.5868 14.4578 6.71911 14.403 6.81668 14.3054L7.55246 13.5696C7.65002 13.4721 7.70483 13.3398 7.70483 13.2018V12.2505H8.65609C8.79406 12.2505 8.92637 12.1957 9.02393 12.0981L10.2322 10.8899C12.0026 11.3617 13.9235 10.8773 15.2568 9.54399C17.2854 7.51555 17.2854 4.21495 15.2569 2.18642ZM14.5213 8.80821C13.3976 9.93184 11.7607 10.3153 10.2493 9.80903C10.0622 9.74631 9.85571 9.7949 9.71618 9.93443L8.44068 11.2099H7.18468C6.89736 11.2099 6.66443 11.4429 6.66443 11.7302V12.9862L6.23339 13.4172H4.97739C4.69008 13.4172 4.45714 13.6502 4.45714 13.9375V15.1935L4.02617 15.6245H1.81885V13.4173L7.5089 7.72721C7.64843 7.58768 7.69702 7.38121 7.63433 7.19408C7.12805 5.68264 7.51155 4.04576 8.63515 2.92214C10.258 1.29938 12.8984 1.29935 14.5213 2.92214C16.144 4.54495 16.144 7.18546 14.5213 8.80821Z" fill="url(#paint0_linear_358_2290)"/>
<path d="M13.786 3.65802C12.9746 2.84658 11.6543 2.84658 10.8429 3.65802C10.0315 4.46943 10.0315 5.78962 10.8429 6.60105C11.6543 7.41246 12.9745 7.41249 13.786 6.60105C14.5974 5.78968 14.5974 4.46946 13.786 3.65802ZM13.0502 5.86527C12.6445 6.27093 11.9844 6.27093 11.5787 5.86527C11.173 5.45958 11.173 4.79946 11.5787 4.39374C11.9844 3.98808 12.6445 3.98805 13.0502 4.39374C13.4559 4.79946 13.4559 5.45958 13.0502 5.86527Z" fill="url(#paint1_linear_358_2290)"/>
<defs>
<linearGradient id="paint0_linear_358_2290" x1="1.22026" y1="16.2231" x2="14.9457" y2="2.49773" gradientUnits="userSpaceOnUse">
<stop stop-color="#8146F6"/>
<stop offset="1" stop-color="#F14537"/>
</linearGradient>
<linearGradient id="paint1_linear_358_2290" x1="10.3493" y1="7.09471" x2="13.918" y2="3.52598" gradientUnits="userSpaceOnUse">
<stop stop-color="#8146F6"/>
<stop offset="1" stop-color="#F14537"/>
</linearGradient>
</defs>
</svg>
